<?xml version="1.0" encoding="utf-8"?>
<!-- Generator: Adobe Illustrator 24.2.0, SVG Export Plug-In . SVG Version: 6.00 Build 0)  -->
<svg version="1.1" id="Layer_1" xmlns="http://www.w3.org/2000/svg" xmlns:xlink="http://www.w3.org/1999/xlink" x="0px" y="0px"
	 viewBox="0 0 95.9 47.1" style="enable-background:new 0 0 95.9 47.1;" xml:space="preserve">
<style type="text/css">
	.st0{fill-rule:evenodd;clip-rule:evenodd;fill:#878787;}
	.st1{fill-rule:evenodd;clip-rule:evenodd;}
	.st2{fill:#F9EDC7;}
	.st3{fill:#3399CC;}
	.st4{fill:#9A1D2B;}
	.st5{fill:#F9EDC7;stroke:#000000;stroke-width:1.9205;stroke-miterlimit:10;}
	.st6{stroke:#F9EDC7;stroke-width:0.7682;stroke-miterlimit:10;}
	.st7{fill:#9A1D2B;stroke:#000000;stroke-width:1.1523;stroke-miterlimit:10;}
	.st8{fill:#F0F0F0;}
	.st9{fill:url(#SVGID_1_);}
	.st10{fill:#040404;}
	.st11{fill:#F0F0F0;stroke:#000000;stroke-width:1.9205;stroke-miterlimit:10;}
	.st12{fill-rule:evenodd;clip-rule:evenodd;fill:#F0F0F0;}
	.st13{fill:none;stroke:#F0F0F0;stroke-width:1.5;stroke-miterlimit:10;}
	.st14{fill:url(#SVGID_2_);}
	.st15{fill:#040404;stroke:#000000;stroke-width:1.1523;stroke-miterlimit:10;}
	.st16{fill-rule:evenodd;clip-rule:evenodd;fill:#F9EDC7;}
	.st17{fill:#3398CC;}
	.st18{fill:url(#SVGID_3_);}
	.st19{stroke:#F0F0F0;stroke-width:0.7682;stroke-miterlimit:10;}
	.st20{fill:url(#SVGID_4_);}
	.st21{fill:#F9EDC7;stroke:#000000;stroke-width:0.9583;stroke-miterlimit:10;}
	.st22{fill:url(#SVGID_5_);}
	.st23{fill:#F0F0F0;stroke:#000000;stroke-width:0.8706;stroke-miterlimit:10;}
	.st24{fill:#F9EDC7;stroke:#000000;stroke-width:0.8959;stroke-miterlimit:10;}
	.st25{fill:none;stroke:#F9EDC7;stroke-width:1.5;stroke-miterlimit:10;}
	.st26{fill:none;}
	.st27{fill:none;stroke:#F0F0F0;stroke-width:1.5;stroke-linecap:square;stroke-miterlimit:10;}
	.st28{fill:url(#SVGID_6_);}
</style>
<g>
	<g>
		<path class="st2" d="M47.5,0.8C26.7,0.8,9.5,20.4,7,45.6h1.2c1.1-10.7,5-20.7,11.2-28.5C26.9,7.8,36.9,2.6,47.5,2.6
			c10.6,0,20.6,5.1,28.1,14.5c6.2,7.8,10.1,17.7,11.2,28.5h1.1C85.4,20.4,68.2,0.8,47.5,0.8z"/>
		<path class="st2" d="M47.5,0C36.2,0,25.7,5.4,17.8,15.2C11.1,23.5,7,34.1,5.9,45.6H7c2.5-25,19.7-44.4,40.4-44.4
			c20.8,0,38,19.4,40.4,44.4H89c-1.1-11.5-5.2-22.1-11.9-30.4C69.2,5.4,58.7,0,47.5,0z"/>
		<path class="st2" d="M47.5,4.8c-19.1,0-35,17.8-37.4,40.8h74.8C82.4,22.6,66.6,4.8,47.5,4.8z"/>
		<path class="st17" d="M47.5,4.8c-19.1,0-35,17.8-37.4,40.8h74.8C82.4,22.6,66.6,4.8,47.5,4.8z"/>
		<path d="M47.5,2.9C36.9,2.9,26.9,8,19.4,17.3C13.2,25,9.3,34.9,8.2,45.6h1.9c2.4-23,18.3-40.8,37.4-40.8c19.1,0,35,17.8,37.4,40.8
			h1.9c-1.1-10.7-5-20.5-11.2-28.3C68.1,8,58.1,2.9,47.5,2.9z"/>
	</g>
	<g>
		<path class="st4" d="M48.3,43.6H10c0-0.5,0-1,0-1.5l38.3,1.3C48.3,43.4,48.3,43.5,48.3,43.6z"/>
		<path class="st4" d="M48.4,43l-1.1-0.1l-1,0.1c0-0.1,0-0.1,0-0.2l-36-3.7c0.1-1,0.2-2,0.4-3l35.5,6.2c0-0.1,0-0.2-0.1-0.2l0.5-0.2
			l-0.5-0.1l-0.1,0c0,0,0,0,0-0.1L11.3,33c0.3-1,0.5-2,0.9-3L45.6,41l0.2-0.2L45.7,41l0,0l-0.1,0.1c0,0,0.1,0,0.1,0.1l0,0l0.1-0.1
			l0,0l0.2-0.2l-0.1,0.2l0.1,0l-0.2,0.1c0.1,0,0.2,0.1,0.2,0.1l0.1-0.2l0.2,0.1l0.2-0.1l0,0.1l0.3,0.1l-0.3,0.1c0.1,0,0.2,0,0.3,0.1
			l0-0.1l0.3,0.1l0,0.1c0,0,0.1,0,0.1,0l0.1,0l0.1,0c0,0,0.1,0,0.1,0l0-0.1l0.3-0.1l0,0.2c0.1,0,0.2,0,0.2-0.1l-0.3-0.1l0.3-0.1
			l0-0.1l0.1,0.1l0.2-0.1l0.1,0.2c0.1,0,0.2-0.1,0.2-0.1l0,0l-0.2-0.1l0.1,0l-0.1-0.2l0.2,0.2l0.1,0l0.1,0.1c0,0,0.1,0,0.1-0.1
			L48.9,41l0,0l-0.2-0.2L49,41l33.5-11.1c0.3,1,0.6,2,0.9,3l-34.6,8.7c0,0,0,0.1,0,0.1l-0.1,0L48,41.8l0.5,0.2c0,0.1,0,0.2-0.1,0.2
			L84,36c0.2,1,0.3,2,0.4,3l-36,3.8C48.4,42.8,48.4,42.9,48.4,43z M46.3,42.3l1,0.2l1-0.2l-1-0.3L46.3,42.3z M47.8,41.4l-0.4-0.1
			l0-0.1l-0.2,0.1l-0.1-0.1l0,0.1l-0.4,0.1l0.1-0.4l0,0l0,0l0.1-0.4l-0.3,0.2l0,0.1l0,0L46.3,41l0.1-0.3l-0.1,0l0.1-0.1l0.1-0.3
			l0.2,0.1l0,0l0,0l0.2,0.1l0.1-0.3l0,0l0,0l0.1-0.3l-0.2,0.2l0,0l0,0l-0.3,0.2l0.1-0.3l0,0l0,0l0.1-0.3l0.1,0.1l0,0l0,0l0.1,0.1
			l0-0.3l0,0l0,0l0-0.3L47,39.4l0,0l0,0l-0.2,0.2l0.1-0.3l0,0l0,0l0.1-0.3l0,0l0,0l0,0l0.1,0.1l0.1-0.3l0,0l0-0.2l0,0.1l0,0.1l0,0
			l0,0l0-0.1l0-0.1l0-0.1l0,0l0,0l0,0l0,0l-0.1,0.1l0-0.2l0,0l0,0l0-0.1l0,0v0v0l0,0v0l0,0l0,0.1l0,0l0,0.2l0,0l0,0l0,0L66.5,9.5
			c1,0.6,1.9,1.3,2.8,2.1L47.5,38.8l0.1,0.2l-0.1-0.2l0,0l0,0l-0.1-0.2l0,0.2l0,0l0,0l0,0.3l0.1-0.1l0,0l0,0l0,0l0.1,0.3l0,0v0
			l0.1,0.3l0.1,0l0,0l0,0l28.4-20.8c0.6,0.9,1.2,1.8,1.8,2.7l-30,18.4l0.2,0.3L48,39.9v0l0,0l-0.2-0.3l0.1,0.3l0,0l0.1,0.3l-0.3-0.3
			l0,0l-0.2-0.2l0.1,0.3l0,0l0.1,0l0.1,0.3l0.2-0.1l0,0l0,0l0.2-0.1l0.1,0.3l0.1,0.1l-0.1,0l0.1,0.3l-0.3-0.2l0,0l0,0l-0.3-0.2
			l0.1,0.4l0,0l0,0L47.8,41.4z M47.3,40.8l0.1,0.1l0-0.1l0.2-0.1l-0.2-0.1l0-0.1l-0.1,0.1l-0.1-0.1l0,0.1L47,40.6l0.2,0.1l0,0.1
			L47.3,40.8z M47.3,40l0.1,0.1L47.3,40l0.2-0.2l-0.1-0.1l0-0.1l-0.1,0.1l-0.1-0.1l0,0.1l-0.2,0.1L47.3,40L47.3,40L47.3,40z
			 M47.5,39.5l0,0.3l0.1-0.1l0,0l0,0l0.1-0.1l-0.2-0.3l0,0l-0.1-0.2L47.5,39.5L47.5,39.5L47.5,39.5z M47.3,39.3L47.3,39.3L47.3,39.3
			l0.1-0.1l-0.1-0.1l0-0.1l0,0l0,0l0,0.1l-0.1,0.1L47.3,39.3L47.3,39.3L47.3,39.3z M45.9,40.9l0.1-0.2l0,0l0.1-0.1l0.2-0.3l0.1,0
			l0,0l0,0.1l0.1,0.1l-0.3,0.2l-0.1,0.1l0,0L45.9,40.9z M48.7,40.9l-0.2-0.2l0,0l-0.1-0.1l-0.3-0.2l0.1-0.1l0,0l0,0l0.1,0l0.2,0.3
			l0.1,0.1l0,0L48.7,40.9z M46,40.6L13.4,27.1c0.4-1,0.9-1.9,1.3-2.9l31.6,16.1L46,40.6z M48.6,40.6l-0.3-0.4l31.6-16.1
			c0.5,0.9,0.9,1.9,1.3,2.9L48.6,40.6z M46.4,40.2l0.2-0.3L16.4,21.4c0.6-0.9,1.2-1.8,1.8-2.7l28.6,20.9l0,0l0,0l0.1,0l-0.2,0.3l0,0
			L46.4,40.2z M46.9,39.3L20.3,16.2c0.7-0.8,1.5-1.7,2.3-2.4L47,39L46.9,39.3z M47.7,39.3L47.6,39L72,13.7c0.8,0.8,1.6,1.6,2.3,2.4
			L47.7,39.3z M47.1,39l0.1-0.2l-22-27.4c0.9-0.7,1.9-1.4,2.8-2.1l19.2,29.3l0,0l0,0l0,0l-0.1,0.2l0,0L47.1,39z M47.4,38.4l0-0.1
			L60.2,5.7c1.1,0.5,2.3,1,3.4,1.5L47.4,38.4z M47.3,38.4L31,7.3c1.1-0.6,2.2-1.1,3.4-1.5l12.9,32.5L47.3,38.4z M47.3,38.3
			L47.3,38.3L47.3,38.3L47.3,38.3L47.3,38.3L47.3,38.3L37.9,4.6c1.2-0.3,2.5-0.6,3.7-0.8L47.3,38.3l-1.9-35c1.3-0.1,2.5-0.1,3.8,0
			l-1.9,34.9L53,3.7c1.2,0.2,2.5,0.5,3.7,0.8L47.3,38.3L47.3,38.3L47.3,38.3L47.3,38.3L47.3,38.3z"/>
		<path class="st4" d="M84.6,43.6H46.3c0-0.1,0-0.1,0-0.2l38.3-1.3C84.6,42.6,84.6,43.1,84.6,43.6z"/>
	</g>
	<polyline class="st2" points="0,47.1 95.9,47.1 86.8,44 8.8,44 	"/>
	<path class="st21" d="M14.1,43.3c-0.3,0.3-0.6,0.6-1,0.8c-0.3,0.2-0.5,0.3-0.8,0.4C82.6,44,82.6,44,82.6,44
		c-0.6-1.9-4.6-4.4-5.9-5.3C75,37.5,73,37.8,71.2,37c-3.2-1.3-6-3.7-9.2-5c-2.3-0.9-4.7-1.4-6.9-2.5c-0.7-0.4-1.5-0.5-2.3-0.5
		c-0.3,0-1.6,0.4-1.8,0.2c-0.9-0.7-3,0.7-3.8,1.1c-0.9,0.5-1.1,0.3-2,0.5c-0.9,0.2-1.6,1-2.5,1.1c-0.6,0-1.3-0.4-2-0.4
		c-1.9,0.1-3.4,1-5.2,0.8c-1.6-0.2-3,0.6-4.5,0.5c-0.6-1.5-3.4-0.8-4.4-0.5c-3.2,1-5,5.1-7.5,7.3c-1.5,1.4-3.2,2.6-4.9,3.7
		C14.2,43.2,14.1,43.3,14.1,43.3z"/>
	<path d="M20.1,44.6c0,0,3.3-2.8,3.9-3.9c0.6-1.1,0.9-1.5,1.5-1.1c0.6,0.4,3.4-2.9,3.9-2.5c0.5,0.4,3.1-2.8,2.8-1.9
		c-0.9,1.5-4.7,3.2-4,3.8c0.7,0.6-4.3,2.3-3.9,2.7c0.4,0.4-1.3,2.9-1.3,2.9"/>
	<path d="M38.6,34.2c-0.5,0.4-0.8,1.1-1.2,1.6c-0.6,0.7-1,0.5-1.5,0.9c-0.6,0.4-0.5-0.1-0.6,0.9c0,0.1,0.2,1.2,0,1.2
		c-1.6,0.3-2.6,2.5-3.4,3.8c-0.1,0.2-0.5,0.8-0.9,1.5c0.1,0,0.1,0,0.2,0c0,0,0.1,0,0.1,0c0.2,0,0.4-0.1,0.6-0.1h0.5
		c0.3,0,0.6,0.1,0.8,0.2c0.5-0.9,1.4-1.8,1.7-2.2c0.9-1.3,0.8-3,1.7-4.3C37.2,36.7,39,35.5,38.6,34.2z"/>
	<path d="M39.2,43.9h2.9c0.3,0,0.5,0.1,0.8,0.1l2.7-0.7c0,0-0.6-1.8-0.6-2.2c0-0.4-1.7-0.3-1.4-3.1c2.3-4,0.1-4.5-0.6-5
		c-0.6,0,0.4,1,0.8,1.7C43,34.5,40.3,41.2,39.2,43.9z"/>
	<path d="M64.4,44c1.1,0,2.2-0.1,3.3,0c0,0-0.1,0-0.2,0c-2.3-0.6-4.5-2.7-6.3-4.1c-2.1-1.6-5.3-3.7-6.4-6.2c-0.5-1.2-0.6-2.5-1-3.7
		c-0.6-0.1,0,6,1,7.1c1-0.3,1.3,4.8,1.4,7.2c0.1,0,0.2,0,0.3,0c0.7,0,1.3-0.1,2-0.1c-1.3-1.5-1.2-5.9,1.3-3.7
		c1.3,1.2,2.6,2.4,3.8,3.7C64,44.1,64.2,44,64.4,44z"/>
	<path d="M64.5,33.3c1.3,1.1,2.5,2.2,3.8,3.3c0.9,0.8,2.1,1.6,3.3,1.9c0.6,0.2,1.1,0.2,1.7,0c0.3-0.1,1-0.8,1.3-0.7
		C74.4,37.8,63.9,34.8,64.5,33.3z"/>
	<path d="M46.5,30.5c0,0,2,1,3.5-1.4"/>
	<path d="M32.1,32.7c0,0,1.6,0.8,3.5,0.7c1.9-0.1,3-1.5,3-1.5L32.1,32.7z"/>
	<path d="M56.7,30.2c0,0,3.2,3.2,6,3.4c2.8,0.2,1.8-0.3,1.8-0.3L56.7,30.2z"/>
	<path d="M73.3,44.1c0.1,0,0.2,0,0.3,0c0.7,0,1.3,0,2,0l0.3-0.1c-1.3-2.8-6-5.1-8.8-5.8c-1.4-0.3-2.3-0.2-3.5-1.1
		c-0.9-0.7-2-2.2-3.3-1.9c-0.6,0.1,0.1,0.3,4.1,3.3C71.3,40.2,73,43,73.3,44.1z"/>
	<path class="st2" d="M40.9,42.9l1.4-4.1c0,0-0.2,2.8,0.4,3.4C43.4,42.7,40.9,42.9,40.9,42.9z"/>
	<path d="M44.5,30.6c0.6-0.1,1.5,0.5,2,0.7c0.8,0.3,1.6,0.7,2.4,1c-0.7-0.2-1-2.6,0.2-2.3C47.7,30.5,46,30.4,44.5,30.6z"/>
	<path d="M49.5,44.2c0,0-0.4-5.3-1.2-5c-1.4,0.4-1.1-4.4-0.1-5.1c0.7,0.8,0,2.1,0.4,3C49,38.2,51.1,43.3,49.5,44.2z"/>
	<g>
		
			<image style="overflow:visible;opacity:0.75;" width="44" height="31" xlink:href="E7FBB09EFF23460C.png"  transform="matrix(0.24 0 0 0.24 23.0374 20.8619)">
		</image>
		<g>
			<path class="st2" d="M28.4,22.6c-0.2,0-0.3,0-0.5,0.1c-0.2-0.1-0.5-0.2-0.8-0.2c-0.5,0-1,0.3-1.1,0.6c-0.1-0.2-0.3-0.3-0.6-0.3
				c-0.4,0-0.7,0.2-0.7,0.5c0,0.3,0.3,0.5,0.7,0.5c0.1,0,0.2,0,0.3-0.1c0.1,0.2,0.4,0.4,0.7,0.4c0.2,0,0.3,0,0.4-0.1
				c0.1,0,0.2,0,0.3,0c0.3,0,0.6-0.1,0.8-0.2c0.1,0.1,0.3,0.1,0.5,0.1c0.5,0,0.9-0.3,0.9-0.6S28.9,22.6,28.4,22.6z"/>
		</g>
	</g>
	<g>
		
			<image style="overflow:visible;opacity:0.75;" width="55" height="31" xlink:href="E7FBB09EFF23460D.png"  transform="matrix(0.24 0 0 0.24 38.8774 20.3819)">
		</image>
		<g>
			<path class="st2" d="M42,23.4c0.3,0,0.5,0,0.8-0.1c0.3,0.1,0.8,0.2,1.3,0.2c0.8,0,1.6-0.3,1.7-0.6c0.2,0.2,0.5,0.3,1,0.3
				c0.6,0,1.1-0.2,1.1-0.5c0-0.3-0.5-0.5-1.1-0.5c-0.2,0-0.4,0-0.5,0.1c-0.1-0.2-0.5-0.4-1.1-0.4c-0.2,0-0.5,0-0.6,0.1
				c-0.2,0-0.3,0-0.5,0c-0.5,0-0.9,0.1-1.3,0.2c-0.2-0.1-0.5-0.1-0.8-0.1c-0.8,0-1.4,0.3-1.4,0.6C40.5,23.1,41.2,23.4,42,23.4z"/>
		</g>
	</g>
	<g>
		
			<image style="overflow:visible;opacity:0.75;" width="45" height="29" xlink:href="E7FBB09EFF23460B.png"  transform="matrix(0.24 0 0 0.24 34.3471 5.2916)">
		</image>
		<g>
			<path class="st2" d="M40,6.8c-0.3,0-0.5,0.1-0.7,0.2c-0.2-0.2-0.5-0.3-0.8-0.3c-0.5,0-0.9,0.3-1,0.6c0,0,0,0,0,0c0,0,0,0,0,0
				c0-0.3-0.4-0.6-0.9-0.6c-0.5,0-0.9,0.3-0.9,0.6c0,0.3,0.4,0.6,0.9,0.6c0,0,0,0,0,0c0.1,0.2,0.4,0.4,0.7,0.4
				c0.3,0,0.6-0.1,0.7-0.3C38.2,8,38.3,8,38.5,8C38.8,8,39,8,39.2,7.9c0.2,0.2,0.5,0.3,0.9,0.3c0.6,0,1-0.3,1-0.7
				C41.1,7.2,40.6,6.8,40,6.8z"/>
		</g>
	</g>
	<g>
		
			<image style="overflow:visible;opacity:0.75;" width="49" height="35" xlink:href="E7FBB09EFF234614.png"  transform="matrix(0.24 0 0 0.24 63.1174 18.7019)">
		</image>
		<g>
			<path class="st2" d="M65.8,22.7c0.3,0,0.6-0.1,0.8-0.3c0.2,0.3,0.5,0.5,0.9,0.5c0.6,0,1-0.4,1.1-1c0,0,0,0,0,0c0,0,0,0,0,0
				c0,0.5,0.4,1,1,1c0.5,0,1-0.4,1-1c0-0.5-0.4-1-1-1c0,0,0,0,0,0c-0.1-0.4-0.4-0.6-0.8-0.6c-0.3,0-0.6,0.2-0.7,0.5
				c-0.2-0.1-0.3-0.1-0.5-0.1c-0.3,0-0.5,0.1-0.7,0.3c-0.2-0.3-0.6-0.6-1-0.6c-0.6,0-1.1,0.5-1.1,1.1C64.6,22.2,65.2,22.7,65.8,22.7
				z"/>
		</g>
	</g>
	<g>
		
			<image style="overflow:visible;opacity:0.75;" width="50" height="31" xlink:href="E7FBB09EFF234617.png"  transform="matrix(0.24 0 0 0.24 48.2671 5.0516)">
		</image>
		<g>
			<path class="st2" d="M55.2,7C55,7,54.8,7,54.6,7c-0.2-0.2-0.6-0.4-1.1-0.4c-0.7,0-1.2,0.3-1.2,0.6c0,0,0,0,0,0c0,0,0,0,0,0
				c0,0,0,0,0,0c0-0.4-0.6-0.7-1.3-0.7c-0.7,0-1.3,0.3-1.3,0.7c0,0.4,0.6,0.7,1.3,0.7c0.1,0,0.2,0,0.3,0c0.1,0.3,0.5,0.5,1.1,0.5
				c0.6,0,1-0.2,1.1-0.5c0,0,0,0,0,0c0.2,0,0.4,0,0.6-0.1c0.2,0.2,0.6,0.4,1.1,0.4c0.6,0,1.2-0.3,1.2-0.6C56.3,7.2,55.8,7,55.2,7z"
				/>
		</g>
	</g>
	<g>
		
			<image style="overflow:visible;opacity:0.75;" width="45" height="36" xlink:href="E7FBB09EFF234615.png"  transform="matrix(0.24 0 0 0.24 55.6774 23.9819)">
		</image>
		<g>
			<path class="st1" d="M59.3,28.3C59.3,28.3,59.3,28.3,59.3,28.3C59.3,28.3,59.3,28.3,59.3,28.3c0.8-0.8,1.7-1.4,2.8-1.7
				c0,0,0,0,0,0c0,0,0,0,0,0c-0.9-0.1-1.7,0.1-2.5,0.6c-0.5-0.8-1.2-1.3-2.1-1.5c0,0,0,0-0.1,0c0,0,0,0,0,0.1
				C58.3,26.3,58.9,27.3,59.3,28.3z"/>
		</g>
	</g>
	<g>
		
			<image style="overflow:visible;opacity:0.75;" width="45" height="36" xlink:href="E7FBB09EFF23461B.png"  transform="matrix(0.24 0 0 0.24 27.3574 23.5019)">
		</image>
		<g>
			<path class="st1" d="M29,26.2c1.1,0.3,2,0.9,2.7,1.7c0,0,0,0,0,0c0,0,0,0,0,0c0.4-1,1-2,1.8-2.6c0,0,0,0,0-0.1c0,0,0,0-0.1,0
				c-0.8,0.3-1.5,0.7-2.1,1.5C30.7,26.1,29.9,26,29,26.2C29,26.1,29,26.1,29,26.2C29,26.1,29,26.1,29,26.2z"/>
		</g>
	</g>
	<g>
		<g>
			<path class="st1" d="M20.8,17.8c-0.3,0-0.6-0.2-0.6-0.5c0-0.3,0.2-0.6,0.6-0.6c0.3,0,0.6,0.2,0.6,0.5
				C21.4,17.5,21.1,17.8,20.8,17.8z"/>
			<path class="st1" d="M17.6,22.2c0,0.3-0.2,0.6-0.6,0.6c-0.3,0-0.6-0.3-0.6-0.6c0-0.3,0.3-0.6,0.6-0.6
				C17.4,21.6,17.6,21.9,17.6,22.2z"/>
			<path class="st1" d="M63.1,9c-0.3,0-0.6-0.3-0.6-0.6c0-0.3,0.3-0.6,0.6-0.6c0.3,0,0.5,0.3,0.5,0.6C63.7,8.8,63.4,9.1,63.1,9z"/>
			<path class="st1" d="M76.8,21.5c-0.3,0-0.6-0.2-0.6-0.5c0-0.3,0.3-0.6,0.6-0.6c0.3,0,0.6,0.3,0.6,0.6
				C77.4,21.2,77.1,21.5,76.8,21.5z"/>
			<path class="st1" d="M81.1,27.2c0,0.3-0.3,0.6-0.6,0.5c-0.3,0-0.6-0.3-0.6-0.6c0-0.3,0.3-0.6,0.6-0.6
				C80.9,26.6,81.1,26.9,81.1,27.2z"/>
			<path class="st1" d="M22,16.5c-0.3,0-0.6-0.3-0.6-0.6c0-0.3,0.3-0.5,0.6-0.6c0.3,0,0.6,0.3,0.6,0.6C22.6,16.2,22.3,16.5,22,16.5z
				"/>
			<path class="st1" d="M43.2,4.2c0.3,0,0.5,0.3,0.5,0.6c0,0.3-0.2,0.5-0.6,0.5c-0.3,0-0.6-0.3-0.6-0.6C42.7,4.4,42.9,4.2,43.2,4.2z
				"/>
			<path class="st1" d="M12.1,32.7c-0.3,0-0.6-0.3-0.6-0.6c0-0.3,0.2-0.6,0.6-0.6c0.3,0,0.6,0.3,0.6,0.6
				C12.6,32.5,12.4,32.7,12.1,32.7z"/>
			<path class="st1" d="M35,7.2c0,0.3-0.2,0.6-0.5,0.6c-0.3,0-0.6-0.2-0.6-0.6c0-0.3,0.3-0.5,0.6-0.5C34.8,6.6,35,6.9,35,7.2z"/>
			<path class="st1" d="M85.5,42.6c-0.3,0-0.5-0.3-0.5-0.6c0-0.3,0.3-0.6,0.6-0.6c0.3,0,0.6,0.3,0.6,0.6
				C86.1,42.4,85.8,42.6,85.5,42.6z"/>
			<path class="st1" d="M23.2,15.2c-0.3,0-0.6-0.3-0.6-0.6c0-0.3,0.3-0.6,0.6-0.6c0.3,0,0.6,0.3,0.6,0.6
				C23.8,15,23.6,15.3,23.2,15.2z"/>
			<path class="st1" d="M13.9,29.6c0,0.3-0.3,0.6-0.6,0.5c-0.3,0-0.6-0.3-0.5-0.6c0-0.3,0.3-0.6,0.6-0.5
				C13.6,29.1,13.9,29.3,13.9,29.6z"/>
			<path class="st1" d="M31.4,8.5c0-0.3,0.3-0.6,0.6-0.6c0.3,0,0.6,0.3,0.6,0.6C32.5,8.8,32.3,9,32,9C31.7,9,31.4,8.8,31.4,8.5z"/>
			<path class="st1" d="M15.1,27.1c0,0.3-0.2,0.6-0.5,0.6c-0.3,0-0.6-0.3-0.6-0.5c0-0.3,0.3-0.6,0.6-0.6
				C14.8,26.6,15.1,26.8,15.1,27.1z"/>
			<path class="st1" d="M56.9,6.5c-0.3,0-0.6-0.2-0.6-0.6c0-0.3,0.2-0.6,0.6-0.6c0.3,0,0.6,0.3,0.6,0.6C57.5,6.3,57.2,6.5,56.9,6.5z
				"/>
			<path class="st1" d="M28.8,10.9c0,0.3-0.3,0.6-0.6,0.6c-0.3,0-0.6-0.3-0.6-0.6c0-0.3,0.3-0.6,0.6-0.6
				C28.5,10.4,28.8,10.7,28.8,10.9z"/>
			<path class="st1" d="M67.5,12.2c0-0.3,0.3-0.6,0.6-0.6c0.3,0,0.5,0.3,0.5,0.6c0,0.3-0.2,0.5-0.5,0.5
				C67.8,12.7,67.5,12.5,67.5,12.2z"/>
			<path class="st1" d="M44.5,5.3c-0.3,0-0.6-0.2-0.6-0.5c0-0.3,0.2-0.6,0.5-0.6c0.3,0,0.6,0.2,0.6,0.5C45,5,44.8,5.3,44.5,5.3z"/>
			<path class="st1" d="M45.7,5.3c-0.3,0-0.6-0.3-0.5-0.6c0-0.3,0.3-0.5,0.6-0.5c0.3,0,0.5,0.3,0.5,0.5C46.2,5.1,46,5.3,45.7,5.3z"
				/>
			<path class="st1" d="M50,4.8c0,0.3-0.3,0.5-0.6,0.5c-0.3,0-0.5-0.3-0.5-0.6c0-0.3,0.3-0.5,0.6-0.5C49.7,4.2,50,4.4,50,4.8z"/>
			<path class="st1" d="M51.2,4.7c0,0.3-0.2,0.6-0.5,0.6c-0.3,0-0.6-0.2-0.6-0.5c0-0.3,0.2-0.6,0.5-0.6C50.9,4.2,51.2,4.4,51.2,4.7z
				"/>
			<path class="st1" d="M38.2,5.4c0.3,0,0.6,0.2,0.6,0.5c0,0.3-0.2,0.5-0.6,0.5c-0.3,0-0.6-0.2-0.6-0.5C37.7,5.7,37.9,5.4,38.2,5.4z
				"/>
			<path class="st1" d="M15.8,25.2c-0.3,0-0.6-0.2-0.6-0.5c0-0.3,0.3-0.6,0.6-0.6c0.3,0,0.6,0.2,0.6,0.5
				C16.3,24.9,16.1,25.2,15.8,25.2z"/>
			<path class="st1" d="M46.9,4.2c0.3,0,0.6,0.2,0.5,0.6c0,0.3-0.2,0.5-0.5,0.5c-0.3,0-0.6-0.2-0.6-0.5C46.4,4.4,46.6,4.2,46.9,4.2z
				"/>
			<path class="st1" d="M48.2,4.2c0.3,0,0.5,0.3,0.5,0.6c0,0.3-0.2,0.5-0.5,0.5c-0.3,0-0.6-0.2-0.6-0.6C47.6,4.4,47.9,4.2,48.2,4.2z
				"/>
			<path class="st1" d="M84.8,38.4c0,0.3-0.3,0.5-0.5,0.5c-0.3,0-0.6-0.3-0.5-0.6c0-0.3,0.3-0.5,0.5-0.5
				C84.6,37.8,84.8,38,84.8,38.4z"/>
			<path class="st1" d="M63.8,9.7c0-0.3,0.3-0.5,0.5-0.5c0.3,0,0.6,0.3,0.5,0.6c0,0.3-0.2,0.5-0.5,0.5C64.1,10.3,63.8,10,63.8,9.7z"
				/>
			<path class="st1" d="M9,43.4c0-0.3,0.2-0.5,0.5-0.6c0.3,0,0.6,0.3,0.6,0.6c0,0.3-0.3,0.5-0.5,0.5C9.3,43.9,9,43.7,9,43.4z"/>
			<path class="st1" d="M74.9,18.4c0,0.3-0.2,0.5-0.5,0.5c-0.3,0-0.5-0.2-0.5-0.5c0-0.3,0.3-0.6,0.6-0.6
				C74.6,17.9,74.9,18.1,74.9,18.4z"/>
			<path class="st1" d="M55.7,5.4c0.3,0,0.5,0.2,0.5,0.5c0,0.3-0.2,0.5-0.6,0.5c-0.3,0-0.5-0.2-0.5-0.5C55.1,5.7,55.4,5.4,55.7,5.4z
				"/>
			<path class="st1" d="M59.9,7.2c0,0.3-0.2,0.5-0.5,0.6c-0.3,0-0.6-0.2-0.6-0.5c0-0.3,0.2-0.6,0.5-0.6C59.7,6.7,59.9,6.9,59.9,7.2z
				"/>
			<path class="st1" d="M26.5,12.2c0-0.3,0.2-0.5,0.5-0.6c0.3,0,0.6,0.3,0.6,0.6c0,0.3-0.3,0.5-0.5,0.5
				C26.7,12.7,26.5,12.5,26.5,12.2z"/>
			<path class="st1" d="M12.6,33.4c0,0.3-0.2,0.5-0.5,0.5c-0.3,0-0.6-0.2-0.6-0.5c0-0.3,0.3-0.5,0.6-0.5
				C12.4,32.8,12.6,33.1,12.6,33.4z"/>
			<path class="st1" d="M61.3,8.5c0-0.3,0.2-0.5,0.5-0.6c0.3,0,0.6,0.2,0.6,0.5c0,0.3-0.2,0.5-0.5,0.5C61.6,9,61.4,8.8,61.3,8.5z"/>
			<path class="st1" d="M81.8,31.4c-0.3,0-0.5-0.3-0.5-0.6c0-0.3,0.3-0.5,0.6-0.5c0.3,0,0.5,0.3,0.5,0.6
				C82.3,31.3,82.1,31.5,81.8,31.4z"/>
			<path class="st1" d="M31.3,9.7c0,0.3-0.2,0.5-0.5,0.5c-0.3,0-0.5-0.2-0.5-0.5c0-0.3,0.3-0.6,0.6-0.6C31.1,9.2,31.3,9.4,31.3,9.7z
				"/>
			<path class="st1" d="M19,19.7c0-0.3,0.2-0.5,0.5-0.6c0.3,0,0.6,0.3,0.6,0.6c0,0.3-0.3,0.5-0.5,0.5C19.2,20.2,19,20,19,19.7z"/>
			<path class="st1" d="M78.8,25.9c0-0.3,0.2-0.5,0.5-0.6c0.3,0,0.6,0.3,0.6,0.5c0,0.3-0.3,0.5-0.5,0.5C79,26.5,78.8,26.2,78.8,25.9
				z"/>
			<path class="st1" d="M78.1,22.9c0.3,0,0.6,0.2,0.6,0.5c0,0.3-0.2,0.5-0.5,0.5c-0.3,0-0.6-0.2-0.6-0.5
				C77.5,23.1,77.8,22.9,78.1,22.9z"/>
			<path class="st1" d="M39.5,5.4C39.8,5.4,40,5.7,40,6c0,0.3-0.2,0.5-0.5,0.5c-0.3,0-0.6-0.3-0.5-0.6C38.9,5.7,39.2,5.4,39.5,5.4z"
				/>
			<path class="st1" d="M73.6,17.2c0,0.3-0.2,0.5-0.5,0.5c-0.3,0-0.5-0.3-0.5-0.5c0-0.3,0.3-0.5,0.5-0.5
				C73.4,16.7,73.6,16.9,73.6,17.2z"/>
			<path class="st1" d="M80.6,27.8c0.3,0,0.5,0.3,0.5,0.5c0,0.3-0.3,0.6-0.6,0.5c-0.3,0-0.5-0.3-0.5-0.6
				C80,28.1,80.3,27.8,80.6,27.8z"/>
			<path class="st1" d="M83.6,34.6c0,0.3-0.2,0.5-0.5,0.5c-0.3,0-0.5-0.2-0.5-0.5c0-0.3,0.3-0.6,0.6-0.6
				C83.4,34.1,83.6,34.3,83.6,34.6z"/>
			<path class="st1" d="M33.7,8.5c0,0.3-0.2,0.5-0.5,0.5c-0.3,0-0.5-0.3-0.5-0.5c0-0.3,0.3-0.5,0.6-0.5C33.5,8,33.7,8.2,33.7,8.5z"
				/>
			<path class="st1" d="M35.7,6.7c0.3,0,0.5,0.2,0.5,0.5c0,0.3-0.2,0.6-0.5,0.6c-0.3,0-0.5-0.2-0.5-0.5S35.4,6.7,35.7,6.7z"/>
			<path class="st1" d="M13.8,30.9c0,0.3-0.2,0.5-0.5,0.5c-0.3,0-0.5-0.3-0.5-0.5c0-0.3,0.3-0.5,0.5-0.5
				C13.6,30.4,13.8,30.6,13.8,30.9z"/>
			<path class="st1" d="M17,23.9c-0.3,0-0.5-0.3-0.5-0.6c0-0.3,0.2-0.5,0.5-0.5c0.3,0,0.5,0.3,0.5,0.6C17.6,23.7,17.3,23.9,17,23.9z
				"/>
			<path class="st1" d="M77.3,22.2c0,0.3-0.2,0.5-0.5,0.5c-0.3,0-0.5-0.3-0.5-0.5c0-0.3,0.2-0.5,0.5-0.5
				C77.1,21.6,77.3,21.9,77.3,22.2z"/>
			<path class="st1" d="M25,14.7c0,0.3-0.2,0.5-0.5,0.5c-0.3,0-0.5-0.2-0.5-0.5c0-0.3,0.2-0.5,0.5-0.5C24.8,14.1,25,14.4,25,14.7z"
				/>
			<path class="st1" d="M54.4,6.5c-0.3,0-0.5-0.2-0.5-0.5c0-0.3,0.2-0.5,0.5-0.5c0.3,0,0.5,0.2,0.5,0.5C54.9,6.2,54.7,6.5,54.4,6.5z
				"/>
			<path class="st1" d="M71.8,16.5c-0.3,0-0.5-0.2-0.5-0.5c0-0.3,0.2-0.5,0.5-0.5c0.3,0,0.5,0.3,0.5,0.5
				C72.3,16.2,72.1,16.5,71.8,16.5z"/>
			<path class="st1" d="M84.8,39.6c0,0.3-0.2,0.5-0.5,0.5c-0.3,0-0.5-0.2-0.5-0.5c0-0.3,0.2-0.5,0.5-0.5
				C84.6,39.1,84.8,39.3,84.8,39.6z"/>
			<path class="st1" d="M25.8,14c-0.3,0-0.5-0.2-0.5-0.5c0-0.3,0.2-0.5,0.5-0.5c0.3,0,0.5,0.3,0.5,0.5C26.3,13.8,26,14,25.8,14z"/>
			<path class="st1" d="M69.4,12.9c0.3,0,0.5,0.2,0.5,0.5c0,0.3-0.3,0.5-0.6,0.5c-0.3,0-0.5-0.3-0.5-0.6
				C68.8,13.1,69.1,12.9,69.4,12.9z"/>
			<path class="st1" d="M23.8,15.9c0,0.3-0.2,0.5-0.5,0.5c-0.3,0-0.5-0.3-0.5-0.5c0-0.3,0.2-0.5,0.5-0.5
				C23.5,15.4,23.8,15.6,23.8,15.9z"/>
			<path class="st1" d="M41.2,6c0,0.3-0.2,0.5-0.5,0.5c-0.3,0-0.5-0.3-0.5-0.5c0-0.3,0.2-0.5,0.5-0.5C41,5.4,41.2,5.7,41.2,6z"/>
			<path class="st1" d="M10.8,38.9c-0.3,0-0.5-0.2-0.5-0.5c0-0.3,0.2-0.5,0.5-0.5c0.3,0,0.5,0.2,0.5,0.5
				C11.3,38.6,11.1,38.9,10.8,38.9z"/>
			<path class="st1" d="M58.6,7.2c0,0.3-0.2,0.5-0.5,0.5c-0.3,0-0.5-0.2-0.5-0.5c0-0.3,0.2-0.5,0.5-0.5C58.4,6.7,58.7,6.9,58.6,7.2z
				"/>
			<path class="st1" d="M70.6,15.2c-0.3,0-0.5-0.2-0.5-0.5c0-0.3,0.2-0.5,0.5-0.5c0.3,0,0.5,0.3,0.5,0.5
				C71.1,15,70.9,15.2,70.6,15.2z"/>
			<path class="st1" d="M36.4,7.2c0-0.3,0.2-0.5,0.5-0.5c0.3,0,0.5,0.2,0.5,0.5c0,0.3-0.3,0.5-0.5,0.5C36.7,7.7,36.4,7.5,36.4,7.2z"
				/>
			<path class="st1" d="M21.3,18.4c0,0.3-0.2,0.5-0.5,0.5c-0.3,0-0.5-0.2-0.5-0.5c0-0.3,0.2-0.5,0.5-0.5
				C21.1,17.9,21.3,18.1,21.3,18.4z"/>
			<path class="st1" d="M52.6,6c0-0.3,0.2-0.5,0.5-0.5c0.3,0,0.5,0.2,0.5,0.5c0,0.3-0.2,0.5-0.5,0.5C52.9,6.5,52.6,6.3,52.6,6z"/>
			<path class="st1" d="M65.6,11.5c-0.3,0-0.5-0.2-0.5-0.5c0-0.3,0.3-0.5,0.5-0.5c0.3,0,0.5,0.2,0.5,0.5
				C66.1,11.2,65.9,11.5,65.6,11.5z"/>
			<path class="st1" d="M15.8,26.4c-0.3,0-0.5-0.3-0.5-0.5c0-0.3,0.3-0.5,0.6-0.5c0.3,0,0.5,0.2,0.5,0.5
				C16.3,26.2,16.1,26.4,15.8,26.4z"/>
			<path class="st1" d="M82.3,32.1c0,0.3-0.2,0.5-0.5,0.5c-0.3,0-0.5-0.2-0.5-0.5c0-0.3,0.2-0.5,0.5-0.5
				C82.1,31.6,82.3,31.8,82.3,32.1z"/>
			<path class="st1" d="M30,11c0,0.3-0.2,0.5-0.6,0.5c-0.3,0-0.5-0.3-0.5-0.5c0-0.3,0.3-0.5,0.6-0.5C29.8,10.5,30,10.7,30,11z"/>
			<path class="st1" d="M18.3,21.7c0.3,0,0.5,0.3,0.5,0.6c0,0.3-0.3,0.5-0.5,0.5c-0.3,0-0.5-0.3-0.5-0.6
				C17.8,21.9,18,21.6,18.3,21.7z"/>
			<path class="st1" d="M22,16.7c0.3,0,0.5,0.2,0.5,0.5c0,0.3-0.2,0.5-0.5,0.5c-0.3,0-0.5-0.2-0.6-0.5C21.5,16.9,21.7,16.7,22,16.7z
				"/>
			<path class="st1" d="M42.4,6c0,0.3-0.2,0.5-0.5,0.5c-0.3,0-0.5-0.2-0.5-0.5c0-0.3,0.3-0.5,0.5-0.5C42.2,5.5,42.4,5.7,42.4,6z"/>
			<path class="st1" d="M10.8,39.1c0.3,0,0.5,0.2,0.5,0.5c0,0.3-0.2,0.5-0.5,0.5c-0.3,0-0.5-0.2-0.5-0.5
				C10.3,39.3,10.5,39.1,10.8,39.1z"/>
			<path class="st1" d="M12.1,35.1c-0.3,0-0.5-0.2-0.5-0.5c0-0.3,0.2-0.5,0.5-0.5c0.3,0,0.5,0.2,0.5,0.5
				C12.6,34.9,12.4,35.1,12.1,35.1z"/>
			<path class="st1" d="M14.5,27.9c0.3,0,0.5,0.2,0.5,0.5c0,0.3-0.2,0.5-0.5,0.5c-0.3,0-0.5-0.3-0.5-0.5
				C14,28.1,14.3,27.9,14.5,27.9z"/>
			<path class="st1" d="M77.6,24.7c0-0.3,0.2-0.5,0.5-0.5c0.3,0,0.5,0.2,0.5,0.5c0,0.3-0.2,0.5-0.5,0.5
				C77.8,25.2,77.6,24.9,77.6,24.7z"/>
			<path class="st1" d="M83.1,35.4c0.3,0,0.5,0.2,0.5,0.5c0,0.3-0.2,0.5-0.5,0.5c-0.3,0-0.5-0.2-0.5-0.5
				C82.6,35.6,82.8,35.4,83.1,35.4z"/>
			<path class="st1" d="M84.8,40.8c0,0.3-0.2,0.5-0.5,0.5c-0.3,0-0.5-0.2-0.5-0.5c0-0.3,0.2-0.5,0.5-0.5
				C84.6,40.3,84.8,40.6,84.8,40.8z"/>
			<path class="st1" d="M66.8,11.7c0.3,0,0.5,0.2,0.5,0.5c0,0.3-0.2,0.5-0.5,0.5c-0.3,0-0.5-0.2-0.5-0.5
				C66.3,11.9,66.6,11.7,66.8,11.7z"/>
			<path class="st1" d="M63.1,9.2c0.3,0,0.5,0.2,0.5,0.5c0,0.3-0.2,0.5-0.5,0.5c-0.3,0-0.5-0.2-0.5-0.5C62.6,9.4,62.8,9.2,63.1,9.2z
				"/>
			<path class="st1" d="M75.5,21.4c-0.3,0-0.5-0.2-0.5-0.5c0-0.3,0.2-0.5,0.5-0.5c0.3,0,0.5,0.2,0.5,0.5
				C76.1,21.2,75.8,21.4,75.5,21.4z"/>
			<path class="st1" d="M60.7,8c0.3,0,0.5,0.3,0.4,0.5c0,0.3-0.2,0.5-0.5,0.5c-0.3,0-0.5-0.3-0.5-0.6C60.2,8.1,60.4,8,60.7,8z"/>
			<path class="st1" d="M32,10.2c-0.3,0-0.5-0.2-0.5-0.5c0-0.3,0.2-0.5,0.5-0.5c0.3,0,0.5,0.2,0.5,0.5C32.5,10,32.3,10.2,32,10.2z"
				/>
			<path class="st1" d="M81,29.6c0,0.3-0.2,0.5-0.5,0.5c-0.3,0-0.5-0.2-0.5-0.5c0-0.3,0.2-0.5,0.5-0.5C80.8,29.1,81,29.3,81,29.6z"
				/>
			<path class="st1" d="M34.5,9C34.2,9,34,8.8,34,8.5C34,8.2,34.2,8,34.5,8C34.8,8,35,8.2,35,8.5C35,8.8,34.8,9,34.5,9z"/>
			<path class="st1" d="M56.9,6.7c0.3,0,0.5,0.3,0.5,0.5c0,0.3-0.2,0.5-0.5,0.5c-0.3,0-0.5-0.2-0.5-0.5C56.4,6.9,56.6,6.7,56.9,6.7z
				"/>
			<path class="st1" d="M17.5,24.7c0,0.3-0.2,0.5-0.5,0.5c-0.2,0-0.5-0.2-0.5-0.5c0-0.3,0.2-0.5,0.5-0.5
				C17.3,24.1,17.5,24.4,17.5,24.7z"/>
			<path class="st1" d="M38.2,6.7c0.3,0,0.5,0.2,0.5,0.5c0,0.3-0.2,0.5-0.5,0.5c-0.3,0-0.5-0.2-0.5-0.5C37.7,7,37.9,6.7,38.2,6.7z"
				/>
			<path class="st1" d="M52.4,6c0,0.3-0.2,0.5-0.5,0.5c-0.3,0-0.5-0.2-0.5-0.5c0-0.3,0.2-0.5,0.5-0.5C52.2,5.4,52.4,5.7,52.4,6z"/>
			<path class="st1" d="M12.8,32.1c0-0.3,0.2-0.5,0.5-0.5c0.3,0,0.5,0.2,0.5,0.5c0,0.3-0.2,0.5-0.5,0.5
				C13.1,32.6,12.8,32.4,12.8,32.1z"/>
			<path class="st1" d="M50.2,6c0-0.3,0.2-0.5,0.5-0.5c0.2,0,0.5,0.2,0.5,0.5c0,0.3-0.2,0.5-0.5,0.5C50.4,6.5,50.2,6.2,50.2,6z"/>
			<path class="st1" d="M43.7,6c0,0.3-0.2,0.5-0.5,0.5c-0.3,0-0.5-0.2-0.5-0.5c0-0.3,0.2-0.5,0.5-0.5C43.5,5.5,43.7,5.7,43.7,6z"/>
			<path class="st1" d="M28.3,12.7c-0.3,0-0.5-0.2-0.5-0.5c0-0.3,0.2-0.5,0.5-0.5c0.3,0,0.5,0.2,0.5,0.5
				C28.7,12.4,28.5,12.7,28.3,12.7z"/>
			<path class="st1" d="M74.3,20.2c-0.3,0-0.5-0.2-0.5-0.5c0-0.3,0.2-0.5,0.5-0.5c0.3,0,0.5,0.2,0.5,0.5
				C74.8,19.9,74.6,20.2,74.3,20.2z"/>
			<path class="st1" d="M20,20.9c0,0.3-0.2,0.5-0.5,0.5c-0.3,0-0.5-0.2-0.5-0.5c0-0.3,0.2-0.5,0.5-0.5C19.8,20.4,20,20.6,20,20.9z"
				/>
			<path class="st1" d="M79.3,27.6c-0.3,0-0.5-0.2-0.5-0.5c0-0.3,0.2-0.5,0.5-0.5c0.3,0,0.5,0.2,0.5,0.5
				C79.8,27.4,79.6,27.6,79.3,27.6z"/>
			<path class="st1" d="M12.1,36.4c-0.3,0-0.5-0.2-0.5-0.5c0-0.3,0.2-0.5,0.5-0.5c0.3,0,0.5,0.2,0.5,0.5
				C12.6,36.1,12.3,36.4,12.1,36.4z"/>
			<path class="st1" d="M11.3,40.9c0,0.3-0.2,0.5-0.5,0.5c-0.3,0-0.5-0.2-0.5-0.5c0-0.3,0.2-0.5,0.5-0.5
				C11.1,40.3,11.3,40.6,11.3,40.9z"/>
			<path class="st1" d="M46.1,6c0,0.3-0.2,0.5-0.5,0.5c-0.3,0-0.5-0.2-0.5-0.5c0-0.3,0.2-0.5,0.5-0.5C45.9,5.5,46.1,5.7,46.1,6z"/>
			<path class="st1" d="M83.8,42.1c0-0.3,0.2-0.5,0.5-0.5c0.3,0,0.5,0.2,0.5,0.5c0,0.3-0.2,0.5-0.5,0.5C84,42.6,83.8,42.4,83.8,42.1
				z"/>
			<path class="st1" d="M44.9,6c0,0.3-0.2,0.5-0.5,0.5c-0.3,0-0.5-0.2-0.5-0.5c0-0.3,0.2-0.5,0.5-0.5C44.7,5.5,44.9,5.7,44.9,6z"/>
			<path class="st1" d="M48.9,6c0-0.3,0.2-0.5,0.5-0.5c0.3,0,0.5,0.2,0.5,0.5c0,0.2-0.2,0.5-0.5,0.5C49.1,6.5,48.9,6.2,48.9,6z"/>
			<path class="st1" d="M67.6,13.5c0-0.3,0.2-0.5,0.5-0.5c0.2,0,0.5,0.2,0.5,0.5c0,0.3-0.2,0.5-0.5,0.5
				C67.8,13.9,67.6,13.7,67.6,13.5z"/>
			<path class="st1" d="M81.3,33.4c0-0.3,0.2-0.5,0.5-0.5c0.3,0,0.5,0.2,0.5,0.5c0,0.3-0.2,0.5-0.5,0.5
				C81.5,33.8,81.3,33.6,81.3,33.4z"/>
			<path class="st1" d="M15.3,27.1c0-0.3,0.2-0.5,0.5-0.5c0.3,0,0.5,0.2,0.5,0.5c0,0.3-0.2,0.5-0.5,0.5
				C15.5,27.6,15.3,27.4,15.3,27.1z"/>
			<path class="st1" d="M72.6,18.4c0-0.3,0.2-0.5,0.5-0.5c0.3,0,0.5,0.2,0.5,0.5c0,0.3-0.2,0.5-0.5,0.5
				C72.8,18.9,72.6,18.7,72.6,18.4z"/>
			<path class="st1" d="M82.6,37.1c0-0.3,0.2-0.5,0.5-0.5c0.3,0,0.5,0.2,0.5,0.5c0,0.3-0.2,0.5-0.5,0.5
				C82.8,37.6,82.6,37.4,82.6,37.1z"/>
			<path class="st1" d="M14.1,29.6c0-0.3,0.2-0.5,0.5-0.5c0.3,0,0.5,0.2,0.5,0.5c0,0.3-0.2,0.5-0.5,0.5
				C14.3,30.1,14.1,29.9,14.1,29.6z"/>
			<path class="st1" d="M20.3,19.7c0-0.3,0.2-0.5,0.4-0.5c0.3,0,0.5,0.2,0.5,0.5c0,0.2-0.2,0.5-0.5,0.5
				C20.5,20.2,20.3,19.9,20.3,19.7z"/>
			<path class="st1" d="M63.9,10.9c0-0.3,0.2-0.5,0.5-0.5c0.3,0,0.5,0.2,0.5,0.5c0,0.3-0.2,0.5-0.5,0.5
				C64.1,11.4,63.9,11.2,63.9,10.9z"/>
			<path class="st1" d="M47.7,6c0-0.3,0.2-0.5,0.5-0.5c0.3,0,0.5,0.2,0.5,0.5c0,0.3-0.2,0.5-0.5,0.5C47.9,6.4,47.7,6.2,47.7,6z"/>
			<path class="st1" d="M69.4,15.2c-0.3,0-0.5-0.2-0.5-0.5c0-0.3,0.2-0.5,0.5-0.5c0.3,0,0.5,0.2,0.5,0.5
				C69.8,15,69.6,15.2,69.4,15.2z"/>
			<path class="st1" d="M76.8,23.9c-0.3,0-0.5-0.2-0.5-0.5c0-0.3,0.2-0.5,0.5-0.5c0.3,0,0.5,0.2,0.5,0.5
				C77.3,23.7,77,23.9,76.8,23.9z"/>
			<path class="st1" d="M46.9,5.5c0.3,0,0.5,0.2,0.5,0.5c0,0.3-0.2,0.5-0.5,0.5c-0.3,0-0.5-0.2-0.5-0.5C46.5,5.7,46.7,5.5,46.9,5.5z
				"/>
			<path class="st1" d="M58.9,8.5c0-0.3,0.2-0.5,0.5-0.5c0.2,0,0.5,0.2,0.5,0.5c0,0.3-0.2,0.5-0.5,0.5C59.1,8.9,58.9,8.7,58.9,8.5z"
				/>
			<path class="st1" d="M36.2,8.5C36.2,8.8,36,9,35.7,9c-0.2,0-0.5-0.2-0.5-0.5c0-0.2,0.2-0.5,0.5-0.5C36,8,36.2,8.2,36.2,8.5z"/>
			<path class="st1" d="M72.3,17.2c0,0.3-0.2,0.5-0.5,0.5c-0.3,0-0.5-0.2-0.5-0.5c0-0.2,0.2-0.5,0.5-0.5
				C72.1,16.7,72.3,16.9,72.3,17.2z"/>
			<path class="st1" d="M84.3,42.9c0.2,0,0.5,0.2,0.5,0.5c0,0.2-0.2,0.5-0.5,0.5c-0.3,0-0.5-0.2-0.5-0.5
				C83.8,43.1,84,42.9,84.3,42.9z"/>
			<path class="st1" d="M30.3,10.9c0-0.3,0.2-0.5,0.5-0.5c0.2,0,0.5,0.2,0.5,0.5c0,0.3-0.2,0.5-0.5,0.5
				C30.5,11.4,30.3,11.2,30.3,10.9z"/>
			<path class="st1" d="M22,18c0.3,0,0.5,0.2,0.5,0.5c0,0.3-0.3,0.5-0.5,0.4c-0.2,0-0.4-0.2-0.4-0.5C21.6,18.2,21.8,17.9,22,18z"/>
			<path class="st1" d="M33.7,9.7c0,0.2-0.2,0.5-0.5,0.5c-0.3,0-0.5-0.2-0.4-0.5c0-0.2,0.2-0.4,0.5-0.4C33.4,9.2,33.7,9.5,33.7,9.7z
				"/>
			<path class="st1" d="M62.3,9.8c0,0.3-0.3,0.5-0.5,0.4c-0.3,0-0.5-0.3-0.4-0.5c0-0.3,0.3-0.5,0.5-0.4C62.2,9.3,62.4,9.5,62.3,9.8z
				"/>
			<path class="st1" d="M70.6,16.4c-0.3,0-0.5-0.2-0.5-0.5c0-0.3,0.2-0.5,0.5-0.5c0.3,0,0.5,0.2,0.5,0.5
				C71.1,16.2,70.8,16.4,70.6,16.4z"/>
			<path class="st1" d="M27.5,13.4c0,0.3-0.2,0.5-0.4,0.5c-0.3,0-0.5-0.2-0.5-0.5c0-0.3,0.2-0.5,0.5-0.5
				C27.3,13,27.5,13.2,27.5,13.4z"/>
			<path class="st1" d="M55.6,7.7c-0.3,0-0.5-0.2-0.5-0.5c0-0.3,0.2-0.5,0.5-0.4c0.3,0,0.5,0.2,0.5,0.5C56.1,7.5,55.9,7.7,55.6,7.7z
				"/>
			<path class="st1" d="M12.5,37.1c0,0.3-0.2,0.5-0.5,0.5c-0.3,0-0.5-0.2-0.4-0.5c0-0.2,0.2-0.4,0.5-0.4
				C12.3,36.6,12.5,36.9,12.5,37.1z"/>
			<path class="st1" d="M78.5,25.9c0,0.3-0.2,0.5-0.5,0.5c-0.2,0-0.4-0.2-0.4-0.5c0-0.2,0.2-0.5,0.5-0.5
				C78.3,25.4,78.5,25.7,78.5,25.9z"/>
			<path class="st1" d="M23.3,17.7c-0.2,0-0.5-0.2-0.5-0.5c0-0.3,0.2-0.5,0.5-0.4c0.2,0,0.4,0.2,0.4,0.5
				C23.7,17.4,23.5,17.7,23.3,17.7z"/>
			<path class="st1" d="M83,38.8c-0.3,0-0.5-0.2-0.5-0.5c0-0.3,0.2-0.5,0.5-0.5c0.2,0,0.4,0.2,0.4,0.5C83.5,38.6,83.3,38.8,83,38.8z
				"/>
			<path class="st1" d="M25.8,15.2c-0.3,0-0.5-0.2-0.5-0.5c0-0.3,0.2-0.5,0.5-0.4c0.3,0,0.4,0.2,0.4,0.5C26.2,15,26,15.2,25.8,15.2z
				"/>
			<path class="st1" d="M39.5,7.7c-0.3,0-0.5-0.2-0.5-0.5c0-0.3,0.2-0.5,0.5-0.5c0.3,0,0.5,0.2,0.5,0.5C39.9,7.5,39.7,7.7,39.5,7.7z
				"/>
			<path class="st1" d="M10.8,41.6c0.3,0,0.5,0.2,0.5,0.5c0,0.3-0.2,0.5-0.5,0.5c-0.3,0-0.5-0.2-0.5-0.4
				C10.3,41.8,10.5,41.6,10.8,41.6z"/>
			<path class="st1" d="M79.3,27.9c0.2,0,0.4,0.2,0.5,0.4c0,0.3-0.2,0.5-0.5,0.5s-0.5-0.2-0.5-0.5C78.9,28.1,79.1,27.9,79.3,27.9z"
				/>
			<path class="st1" d="M65.6,11.7c0.2,0,0.5,0.2,0.5,0.4c0,0.3-0.2,0.5-0.4,0.5c-0.2,0-0.5-0.2-0.5-0.4
				C65.1,12,65.3,11.7,65.6,11.7z"/>
			<path class="st1" d="M11.3,43.4c0,0.2-0.2,0.4-0.5,0.4c-0.3,0-0.5-0.2-0.5-0.5c0-0.2,0.2-0.4,0.4-0.4
				C11,42.9,11.3,43.1,11.3,43.4z"/>
			<path class="st1" d="M18.3,23.9c-0.3,0-0.5-0.2-0.5-0.5c0-0.2,0.2-0.4,0.4-0.5c0.3,0,0.5,0.2,0.5,0.4
				C18.8,23.7,18.6,23.9,18.3,23.9z"/>
			<path class="st1" d="M80.5,30.4c0.3,0,0.4,0.2,0.5,0.4c0,0.3-0.2,0.5-0.5,0.5c-0.3,0-0.5-0.2-0.5-0.5
				C80.1,30.6,80.3,30.4,80.5,30.4z"/>
			<path class="st1" d="M24.5,15.5c0.3,0,0.5,0.2,0.4,0.5c0,0.2-0.2,0.4-0.5,0.4c-0.3,0-0.5-0.2-0.5-0.5
				C24,15.6,24.2,15.5,24.5,15.5z"/>
			<path class="st1" d="M81.8,34.2c0.2,0,0.5,0.2,0.5,0.4c0,0.2-0.2,0.5-0.4,0.5c-0.2,0-0.5-0.2-0.5-0.4
				C81.4,34.4,81.6,34.2,81.8,34.2z"/>
			<path class="st1" d="M13.3,33.8c-0.3,0-0.4-0.2-0.4-0.4c0-0.3,0.2-0.5,0.5-0.5c0.2,0,0.4,0.2,0.4,0.5
				C13.8,33.6,13.6,33.8,13.3,33.8z"/>
			<path class="st1" d="M29.5,12.6c-0.2,0-0.5-0.2-0.5-0.4c0-0.3,0.2-0.5,0.5-0.5c0.2,0,0.4,0.2,0.4,0.4
				C30,12.4,29.8,12.6,29.5,12.6z"/>
			<path class="st1" d="M40.7,7.7c-0.2,0-0.4-0.2-0.4-0.4c0-0.3,0.2-0.5,0.5-0.4c0.2,0,0.4,0.2,0.4,0.5C41.1,7.5,40.9,7.7,40.7,7.7z
				"/>
			<path class="st1" d="M54.8,7.2c0,0.2-0.2,0.4-0.4,0.5c-0.3,0-0.5-0.2-0.5-0.4c0-0.3,0.2-0.5,0.5-0.5C54.6,6.8,54.8,7,54.8,7.2z"
				/>
			<path class="st1" d="M76,22.2c0,0.3-0.2,0.4-0.5,0.4c-0.3,0-0.4-0.2-0.4-0.4c0-0.3,0.2-0.5,0.5-0.5C75.8,21.7,76,21.9,76,22.2z"
				/>
			<path class="st1" d="M15,30.9c0,0.3-0.2,0.4-0.5,0.4c-0.2,0-0.4-0.2-0.4-0.5c0-0.2,0.2-0.4,0.5-0.4C14.8,30.5,15,30.6,15,30.9z"
				/>
			<path class="st1" d="M53.2,6.8c0.2,0,0.4,0.2,0.4,0.5c0,0.2-0.2,0.4-0.5,0.4c-0.2,0-0.4-0.2-0.4-0.4C52.7,6.9,52.9,6.8,53.2,6.8z
				"/>
			<path class="st1" d="M20,22.2c0,0.2-0.2,0.4-0.4,0.4c-0.2,0-0.4-0.2-0.4-0.4c0-0.3,0.2-0.4,0.4-0.4C19.8,21.7,20,21.9,20,22.2z"
				/>
			<path class="st1" d="M67.3,13.5c0,0.3-0.2,0.4-0.4,0.4c-0.2,0-0.4-0.2-0.4-0.5c0-0.2,0.2-0.4,0.4-0.4
				C67.1,13,67.3,13.2,67.3,13.5z"/>
			<path class="st1" d="M16.2,28.4c0,0.2-0.2,0.5-0.4,0.5c-0.2,0-0.5-0.2-0.5-0.4c0-0.2,0.2-0.4,0.4-0.5
				C16,27.9,16.2,28.1,16.2,28.4z"/>
			<path class="st1" d="M41.9,6.8c0.2,0,0.4,0.2,0.4,0.4c0,0.2-0.2,0.4-0.4,0.4c-0.2,0-0.5-0.2-0.5-0.4C41.5,7,41.7,6.8,41.9,6.8z"
				/>
			<path class="st1" d="M12.1,38.8c-0.2,0-0.5-0.2-0.5-0.4c0-0.2,0.2-0.4,0.4-0.4c0.2,0,0.4,0.2,0.4,0.4
				C12.5,38.6,12.3,38.8,12.1,38.8z"/>
			<path class="st1" d="M82.6,39.6c0-0.2,0.2-0.4,0.4-0.4c0.2,0,0.4,0.2,0.4,0.4c0,0.2-0.2,0.5-0.4,0.5
				C82.8,40.1,82.6,39.9,82.6,39.6z"/>
			<path class="st1" d="M17,26.4c-0.2,0-0.4-0.2-0.4-0.5c0-0.2,0.2-0.4,0.5-0.4c0.2,0,0.4,0.2,0.4,0.5C17.5,26.2,17.3,26.4,17,26.4z
				"/>
			<path class="st1" d="M58.1,8c0.2,0,0.4,0.2,0.5,0.4c0,0.2-0.2,0.5-0.4,0.5c-0.2,0-0.5-0.2-0.5-0.4C57.7,8.3,57.9,8,58.1,8z"/>
			<path class="st1" d="M37.4,8.5c0,0.2-0.2,0.4-0.4,0.5c-0.2,0-0.4-0.2-0.5-0.4c0-0.2,0.2-0.5,0.4-0.5C37.2,8,37.4,8.2,37.4,8.5z"
				/>
			<path class="st1" d="M63.5,11c0,0.2-0.2,0.4-0.5,0.4c-0.2,0-0.4-0.2-0.4-0.5c0-0.2,0.2-0.4,0.4-0.4C63.3,10.5,63.6,10.7,63.5,11z
				"/>
			<path class="st1" d="M74.3,21.3c-0.2,0-0.4-0.2-0.4-0.4c0-0.2,0.2-0.4,0.5-0.4c0.2,0,0.4,0.2,0.4,0.4
				C74.8,21.1,74.6,21.3,74.3,21.3z"/>
			<path class="st1" d="M77.2,24.6c0,0.2-0.2,0.5-0.4,0.4c-0.2,0-0.4-0.2-0.4-0.4c0-0.2,0.2-0.5,0.4-0.4
				C77,24.2,77.2,24.4,77.2,24.6z"/>
			<path class="st1" d="M60.6,10.1c-0.2,0-0.4-0.2-0.4-0.4c0-0.2,0.2-0.4,0.4-0.4c0.2,0,0.5,0.2,0.5,0.4
				C61.1,9.9,60.9,10.1,60.6,10.1z"/>
			<path class="st1" d="M21.2,20.9c0,0.2-0.2,0.4-0.4,0.4c-0.2,0-0.4-0.2-0.4-0.4c0-0.2,0.2-0.4,0.4-0.4
				C21,20.5,21.2,20.7,21.2,20.9z"/>
			<path class="st1" d="M32,10.5c0.2,0,0.4,0.2,0.4,0.4c0,0.3-0.2,0.5-0.4,0.5c-0.2,0-0.5-0.2-0.4-0.4C31.5,10.7,31.7,10.5,32,10.5z
				"/>
			<path class="st1" d="M34.5,9.3c0.2,0,0.4,0.2,0.4,0.4c0,0.2-0.2,0.5-0.4,0.5c-0.2,0-0.4-0.2-0.4-0.4C34.1,9.5,34.2,9.3,34.5,9.3z
				"/>
			<path class="st1" d="M81,32.1c0,0.2-0.2,0.5-0.4,0.5c-0.2,0-0.4-0.2-0.4-0.4c0-0.2,0.2-0.4,0.4-0.4C80.7,31.7,81,31.9,81,32.1z"
				/>
			<path class="st1" d="M51.9,7.6c-0.2,0-0.4-0.2-0.4-0.4c0-0.2,0.2-0.4,0.4-0.4c0.2,0,0.5,0.2,0.5,0.4C52.3,7.4,52.1,7.6,51.9,7.6z
				"/>
			<path class="st1" d="M13.7,34.6c0,0.2-0.2,0.4-0.4,0.4c-0.2,0-0.5-0.2-0.4-0.4c0-0.2,0.2-0.4,0.5-0.4
				C13.6,34.2,13.7,34.4,13.7,34.6z"/>
			<path class="st1" d="M43.2,7.6c-0.2,0-0.4-0.2-0.4-0.4c0-0.2,0.2-0.4,0.5-0.4c0.2,0,0.4,0.2,0.4,0.5C43.6,7.5,43.4,7.6,43.2,7.6z
				"/>
			<path class="st1" d="M68.1,14.3c0.2,0,0.4,0.2,0.4,0.4c0,0.2-0.2,0.4-0.4,0.5c-0.2,0-0.5-0.2-0.5-0.4
				C67.7,14.5,67.8,14.3,68.1,14.3z"/>
			<path class="st1" d="M28.2,13c0.2,0,0.4,0.2,0.4,0.5c0,0.2-0.2,0.4-0.4,0.4c-0.2,0-0.4-0.2-0.4-0.5C27.8,13.2,28,13,28.2,13z"/>
			<path class="st1" d="M73.5,19.7c0,0.2-0.2,0.4-0.4,0.4c-0.2,0-0.5-0.2-0.4-0.4c0-0.2,0.2-0.4,0.4-0.4
				C73.3,19.2,73.5,19.4,73.5,19.7z"/>
			<path class="st1" d="M69.4,15.5c0.2,0,0.4,0.2,0.4,0.4c0,0.2-0.2,0.4-0.4,0.4c-0.2,0-0.4-0.2-0.4-0.4
				C68.9,15.7,69.1,15.5,69.4,15.5z"/>
			<path class="st1" d="M57.3,8.5c0,0.2-0.2,0.4-0.4,0.4c-0.2,0-0.4-0.2-0.4-0.4c0-0.2,0.2-0.4,0.4-0.4C57.2,8.1,57.3,8.3,57.3,8.5z
				"/>
			<path class="st1" d="M82.2,35.9c0,0.2-0.2,0.4-0.4,0.4c-0.2,0-0.4-0.2-0.4-0.4s0.2-0.4,0.4-0.4C82.1,35.5,82.2,35.6,82.2,35.9z"
				/>
			<path class="st1" d="M78.1,27.6c-0.2,0-0.4-0.2-0.4-0.4c0-0.2,0.2-0.4,0.4-0.4c0.2,0,0.4,0.2,0.4,0.4
				C78.5,27.4,78.3,27.6,78.1,27.6z"/>
			<path class="st1" d="M79.7,29.6c0,0.2-0.2,0.4-0.4,0.4c-0.2,0-0.4-0.2-0.4-0.4c0-0.2,0.2-0.4,0.4-0.4
				C79.6,29.2,79.7,29.4,79.7,29.6z"/>
			<path class="st1" d="M51.1,7.2c0,0.2-0.2,0.4-0.4,0.4c-0.2,0-0.4-0.2-0.4-0.4c0-0.2,0.1-0.4,0.4-0.5C50.8,6.8,51,7,51.1,7.2z"/>
			<path class="st1" d="M49.8,7.2c0,0.2-0.2,0.4-0.4,0.4c-0.2,0-0.4-0.2-0.4-0.4c0-0.2,0.2-0.4,0.4-0.4C49.6,6.8,49.8,7,49.8,7.2z"
				/>
			<path class="st1" d="M83.5,40.8c0,0.2-0.2,0.4-0.4,0.4c-0.2,0-0.4-0.2-0.4-0.4c0-0.2,0.2-0.4,0.4-0.4
				C83.3,40.4,83.5,40.6,83.5,40.8z"/>
			<path class="st1" d="M18.3,24.2c0.2,0,0.4,0.2,0.4,0.4c0,0.2-0.2,0.4-0.4,0.4c-0.2,0-0.4-0.2-0.4-0.4
				C17.9,24.4,18.1,24.2,18.3,24.2z"/>
			<path class="st1" d="M44.8,7.2c0,0.2-0.2,0.4-0.4,0.4c-0.2,0-0.4-0.2-0.4-0.4c0-0.2,0.2-0.4,0.4-0.4C44.7,6.8,44.8,7,44.8,7.2z"
				/>
			<path class="st1" d="M38.6,8.5c0,0.2-0.2,0.4-0.4,0.4c-0.2,0-0.4-0.2-0.4-0.4c0-0.2,0.2-0.4,0.4-0.4C38.5,8.1,38.6,8.2,38.6,8.5z
				"/>
			<path class="st1" d="M71.8,18c0.2,0,0.4,0.2,0.4,0.4c0,0.2-0.2,0.4-0.4,0.4c-0.2,0-0.4-0.2-0.4-0.4C71.4,18.2,71.6,18,71.8,18z"
				/>
			<path class="st1" d="M27,14.3c0.2,0,0.4,0.2,0.4,0.4c0,0.2-0.2,0.4-0.4,0.4c-0.2,0-0.4-0.2-0.4-0.4C26.6,14.5,26.8,14.3,27,14.3z
				"/>
			<path class="st1" d="M12.5,39.6c0,0.2-0.2,0.4-0.4,0.4c-0.2,0-0.4-0.2-0.4-0.5c0-0.2,0.2-0.4,0.4-0.4
				C12.3,39.2,12.5,39.4,12.5,39.6z"/>
			<path class="st1" d="M15,32.1c0,0.2-0.2,0.4-0.4,0.4c-0.2,0-0.4-0.2-0.4-0.4c0-0.2,0.2-0.4,0.4-0.4C14.8,31.7,15,31.9,15,32.1z"
				/>
			<path class="st1" d="M71,17.2c0,0.2-0.2,0.4-0.4,0.4c-0.2,0-0.4-0.2-0.4-0.4c0-0.2,0.2-0.4,0.4-0.4C70.8,16.8,71,17,71,17.2z"/>
			<path class="st1" d="M64.8,12.2c0,0.2-0.2,0.4-0.4,0.4c-0.2,0-0.4-0.2-0.4-0.4c0-0.2,0.2-0.4,0.4-0.4
				C64.6,11.8,64.8,12,64.8,12.2z"/>
			<path class="st1" d="M22,20.1c-0.2,0-0.4-0.2-0.4-0.4c0-0.2,0.2-0.4,0.4-0.4c0.2,0,0.4,0.2,0.4,0.4C22.4,19.9,22.2,20.1,22,20.1z
				"/>
			<path class="st1" d="M46.9,6.8c0.2,0,0.4,0.2,0.4,0.4c0,0.2-0.2,0.4-0.4,0.4c-0.2,0-0.4-0.2-0.4-0.4C46.6,7,46.7,6.8,46.9,6.8z"
				/>
			<path class="st1" d="M76,23.4c0,0.2-0.2,0.4-0.4,0.4c-0.2,0-0.4-0.2-0.4-0.4c0-0.2,0.2-0.4,0.4-0.4C75.8,23,76,23.2,76,23.4z"/>
			<path class="st1" d="M46.1,7.2c0,0.2-0.2,0.4-0.4,0.4c-0.2,0-0.4-0.2-0.4-0.4c0-0.2,0.2-0.4,0.4-0.4C45.9,6.8,46.1,7,46.1,7.2z"
				/>
			<path class="st1" d="M25.8,15.5c0.2,0,0.4,0.2,0.4,0.4c0,0.2-0.2,0.4-0.4,0.4c-0.2,0-0.4-0.2-0.4-0.4
				C25.4,15.7,25.6,15.5,25.8,15.5z"/>
			<path class="st1" d="M48.2,6.8c0.2,0,0.4,0.2,0.4,0.4c0,0.2-0.2,0.4-0.4,0.4c-0.2,0-0.4-0.1-0.4-0.4C47.8,7,47.9,6.8,48.2,6.8z"
				/>
			<path class="st1" d="M23.7,18.4c0,0.2-0.2,0.4-0.4,0.4c-0.2,0-0.4-0.2-0.4-0.4c0-0.2,0.2-0.4,0.4-0.4
				C23.5,18.1,23.7,18.2,23.7,18.4z"/>
			<path class="st1" d="M30.8,11.8c0.2,0,0.4,0.2,0.4,0.4c0,0.2-0.2,0.4-0.4,0.4c-0.2,0-0.4-0.2-0.4-0.4
				C30.4,11.9,30.5,11.8,30.8,11.8z"/>
			<path class="st1" d="M59.8,9.7c0,0.2-0.2,0.4-0.4,0.4c-0.2,0-0.4-0.2-0.4-0.4c0-0.2,0.2-0.4,0.4-0.4C59.6,9.3,59.8,9.5,59.8,9.7z
				"/>
			<path class="st1" d="M15.8,29.2c0.2,0,0.4,0.2,0.4,0.4c0,0.2-0.2,0.4-0.4,0.4c-0.2,0-0.4-0.2-0.4-0.4
				C15.4,29.4,15.5,29.2,15.8,29.2z"/>
			<path class="st1" d="M83,41.7c0.2,0,0.4,0.2,0.4,0.4c0,0.2-0.2,0.4-0.4,0.4c-0.2,0-0.4-0.2-0.4-0.4C82.7,41.9,82.8,41.7,83,41.7z
				"/>
			<path class="st1" d="M36.1,9.7c0,0.2-0.2,0.4-0.4,0.4c-0.2,0-0.4-0.2-0.4-0.4c0-0.2,0.2-0.4,0.4-0.4C35.9,9.3,36.1,9.5,36.1,9.7z
				"/>
			<path class="st1" d="M33.2,10.6c0.2,0,0.4,0.2,0.4,0.4c0,0.2-0.2,0.4-0.4,0.4c-0.2,0-0.4-0.2-0.4-0.4
				C32.8,10.7,33,10.6,33.2,10.6z"/>
			<path class="st1" d="M61.9,10.6c0.2,0,0.4,0.2,0.4,0.4c0,0.2-0.2,0.4-0.4,0.4c-0.2,0-0.4-0.2-0.4-0.4
				C61.5,10.7,61.7,10.6,61.9,10.6z"/>
			<path class="st1" d="M17.4,27.2c0,0.2-0.2,0.4-0.4,0.4c-0.2,0-0.4-0.2-0.4-0.4c0-0.2,0.2-0.4,0.5-0.4
				C17.3,26.8,17.5,27,17.4,27.2z"/>
			<path class="st1" d="M55.7,8.9c-0.2,0-0.4-0.2-0.4-0.4c0-0.2,0.2-0.4,0.4-0.4c0.2,0,0.4,0.2,0.4,0.4C56.1,8.7,55.9,8.9,55.7,8.9z
				"/>
			<path class="st1" d="M39.9,8.5c0,0.2-0.2,0.4-0.4,0.4c-0.2,0-0.4-0.2-0.4-0.4c0-0.2,0.2-0.4,0.4-0.4C39.7,8.1,39.8,8.3,39.9,8.5z
				"/>
			<path class="st1" d="M13.3,36.3c-0.2,0-0.4-0.2-0.4-0.4c0-0.2,0.2-0.4,0.4-0.4c0.2,0,0.4,0.2,0.4,0.4
				C13.7,36.1,13.5,36.3,13.3,36.3z"/>
			<path class="st1" d="M24.9,17.2c0,0.2-0.2,0.4-0.4,0.4c-0.2,0-0.4-0.2-0.4-0.4c0-0.2,0.2-0.4,0.4-0.4
				C24.7,16.8,24.9,17,24.9,17.2z"/>
			<path class="st1" d="M82.2,37.1c0,0.2-0.2,0.4-0.4,0.4c-0.2,0-0.4-0.2-0.4-0.4s0.2-0.4,0.4-0.4C82,36.7,82.2,36.9,82.2,37.1z"/>
			<path class="st1" d="M12.5,40.9c0,0.2-0.2,0.4-0.4,0.4c-0.2,0-0.4-0.2-0.4-0.4c0-0.2,0.2-0.4,0.4-0.4
				C12.3,40.5,12.5,40.6,12.5,40.9z"/>
			<path class="st1" d="M80.6,33.7c-0.2,0-0.4-0.2-0.4-0.4c0-0.2,0.2-0.4,0.4-0.4c0.2,0,0.4,0.1,0.4,0.4
				C80.9,33.6,80.8,33.7,80.6,33.7z"/>
			<path class="st1" d="M77.2,25.9c0,0.2-0.2,0.4-0.4,0.4c-0.2,0-0.4-0.2-0.4-0.4c0-0.2,0.2-0.4,0.4-0.4
				C77,25.5,77.2,25.7,77.2,25.9z"/>
			<path class="st1" d="M83.1,43.7c-0.2,0-0.4-0.2-0.4-0.4c0-0.2,0.2-0.4,0.4-0.4c0.2,0,0.4,0.2,0.4,0.4
				C83.4,43.5,83.2,43.7,83.1,43.7z"/>
			<path class="st1" d="M74.3,21.8c0.2,0,0.4,0.2,0.4,0.4c0,0.2-0.2,0.4-0.4,0.4c-0.2,0-0.4-0.2-0.4-0.4C74,22,74.1,21.8,74.3,21.8z
				"/>
			<path class="st1" d="M19.5,23c0.2,0,0.4,0.2,0.4,0.4c0,0.2-0.2,0.3-0.4,0.3c-0.2,0-0.4-0.2-0.4-0.4C19.1,23.2,19.3,23,19.5,23z"
				/>
			<path class="st1" d="M65.6,13.1c0.2,0,0.4,0.2,0.4,0.4c0,0.2-0.2,0.4-0.4,0.4c-0.2,0-0.4-0.2-0.4-0.4
				C65.2,13.3,65.4,13.1,65.6,13.1z"/>
			<path class="st1" d="M29.5,13.1c0.2,0,0.4,0.1,0.4,0.4c0,0.2-0.2,0.4-0.4,0.4c-0.2,0-0.4-0.2-0.4-0.4
				C29.1,13.3,29.3,13.1,29.5,13.1z"/>
			<path class="st1" d="M78.1,28c0.2,0,0.4,0.2,0.4,0.4c0,0.2-0.2,0.4-0.4,0.4c-0.2,0-0.3-0.2-0.3-0.4C77.7,28.2,77.9,28,78.1,28z"
				/>
			<path class="st1" d="M54.8,8.5c0,0.2-0.2,0.4-0.4,0.4c-0.2,0-0.4-0.2-0.4-0.4c0-0.2,0.2-0.3,0.4-0.3C54.6,8.1,54.8,8.3,54.8,8.5z
				"/>
			<path class="st1" d="M79.3,31.3c-0.2,0-0.4-0.2-0.4-0.4c0-0.2,0.1-0.4,0.3-0.4c0.2,0,0.4,0.2,0.4,0.4
				C79.7,31.1,79.5,31.3,79.3,31.3z"/>
			<path class="st1" d="M14.5,33.7c-0.2,0-0.4-0.2-0.4-0.4c0-0.2,0.2-0.4,0.4-0.4c0.2,0,0.4,0.2,0.4,0.4
				C14.9,33.6,14.7,33.7,14.5,33.7z"/>
			<path class="st1" d="M12.1,42.4c-0.2,0-0.4-0.2-0.4-0.3c0-0.2,0.2-0.4,0.4-0.4c0.2,0,0.4,0.1,0.4,0.3
				C12.4,42.3,12.3,42.4,12.1,42.4z"/>
			<path class="st1" d="M13.7,37.1c0,0.2-0.2,0.4-0.4,0.4c-0.2,0-0.4-0.2-0.4-0.4c0-0.2,0.2-0.4,0.4-0.4
				C13.5,36.7,13.7,36.9,13.7,37.1z"/>
			<path class="st1" d="M66.9,14.3c0.2,0,0.4,0.2,0.3,0.4c0,0.2-0.2,0.3-0.3,0.3c-0.2,0-0.4-0.2-0.4-0.4
				C66.5,14.5,66.7,14.3,66.9,14.3z"/>
			<path class="st1" d="M73.1,21.3c-0.2,0-0.4-0.2-0.4-0.4c0-0.2,0.2-0.4,0.4-0.4c0.2,0,0.4,0.2,0.3,0.4
				C73.4,21.1,73.3,21.3,73.1,21.3z"/>
			<path class="st1" d="M21.1,22.2c0,0.2-0.2,0.4-0.4,0.3c-0.2,0-0.3-0.2-0.3-0.3c0-0.2,0.2-0.4,0.4-0.4C21,21.8,21.1,22,21.1,22.2z
				"/>
			<path class="st1" d="M18.3,26.3c-0.2,0-0.4-0.2-0.3-0.4c0-0.2,0.1-0.3,0.3-0.3c0.2,0,0.4,0.2,0.4,0.3
				C18.6,26.1,18.5,26.3,18.3,26.3z"/>
			<path class="st1" d="M81.8,38c0.2,0,0.3,0.2,0.3,0.4c0,0.2-0.2,0.3-0.3,0.3c-0.2,0-0.4-0.2-0.4-0.4C81.5,38.1,81.6,38,81.8,38z"
				/>
			<path class="st1" d="M37.3,9.7c0,0.2-0.2,0.4-0.4,0.3c-0.2,0-0.3-0.2-0.3-0.4c0-0.2,0.2-0.3,0.3-0.3C37.1,9.4,37.3,9.5,37.3,9.7z
				"/>
			<path class="st1" d="M41,8.5c0,0.2-0.2,0.4-0.4,0.3c-0.2,0-0.4-0.2-0.3-0.4c0-0.2,0.2-0.4,0.4-0.3C40.9,8.1,41.1,8.3,41,8.5z"/>
			<path class="st1" d="M58.1,9.3c0.2,0,0.4,0.2,0.4,0.4c0,0.2-0.2,0.4-0.4,0.4c-0.2,0-0.4-0.2-0.4-0.4C57.8,9.5,57.9,9.4,58.1,9.3z
				"/>
			<path class="st1" d="M63.1,12.5c-0.2,0-0.4-0.2-0.3-0.4c0-0.2,0.2-0.3,0.3-0.3c0.2,0,0.4,0.2,0.4,0.4
				C63.5,12.4,63.3,12.5,63.1,12.5z"/>
			<path class="st1" d="M16.1,30.9c0,0.2-0.1,0.3-0.3,0.3c-0.2,0-0.4-0.2-0.4-0.3c0-0.2,0.2-0.4,0.4-0.3
				C16,30.6,16.1,30.7,16.1,30.9z"/>
			<path class="st1" d="M28.6,14.7c0,0.2-0.2,0.4-0.4,0.4c-0.2,0-0.3-0.2-0.3-0.3c0-0.2,0.1-0.3,0.3-0.4
				C28.4,14.3,28.6,14.5,28.6,14.7z"/>
			<path class="st1" d="M60.6,11.3c-0.2,0-0.3-0.1-0.3-0.3c0-0.2,0.2-0.4,0.4-0.3c0.2,0,0.3,0.2,0.3,0.3
				C61,11.1,60.8,11.3,60.6,11.3z"/>
			<path class="st1" d="M75.9,24.6c0,0.2-0.2,0.3-0.3,0.3c-0.2,0-0.4-0.2-0.4-0.4c0-0.2,0.2-0.3,0.4-0.3
				C75.8,24.3,75.9,24.5,75.9,24.6z"/>
			<path class="st1" d="M68.1,16.3c-0.2,0-0.4-0.2-0.4-0.4c0-0.2,0.2-0.3,0.3-0.3c0.2,0,0.4,0.2,0.4,0.4
				C68.4,16.1,68.3,16.3,68.1,16.3z"/>
			<path class="st1" d="M12.1,43c0.2,0,0.3,0.1,0.4,0.3c0,0.2-0.1,0.3-0.3,0.3c-0.2,0-0.3-0.1-0.4-0.3C11.7,43.2,11.9,43,12.1,43z"
				/>
			<path class="st1" d="M72.2,19.7c0,0.2-0.2,0.3-0.3,0.3c-0.2,0-0.4-0.2-0.3-0.4c0-0.2,0.2-0.3,0.4-0.3
				C72,19.3,72.2,19.5,72.2,19.7z"/>
			<path class="st1" d="M34.8,10.9c0,0.2-0.1,0.3-0.3,0.3c-0.2,0-0.3-0.1-0.3-0.3c0-0.2,0.1-0.3,0.3-0.3
				C34.7,10.6,34.8,10.8,34.8,10.9z"/>
			<path class="st1" d="M22,20.6c0.2,0,0.3,0.1,0.3,0.3c0,0.2-0.1,0.3-0.3,0.3c-0.2,0-0.3-0.1-0.3-0.3C21.7,20.7,21.8,20.6,22,20.6z
				"/>
			<path class="st1" d="M80.6,35c-0.2,0-0.3-0.1-0.3-0.3c0-0.2,0.1-0.3,0.3-0.4c0.2,0,0.4,0.1,0.4,0.3C80.9,34.8,80.7,35,80.6,35z"
				/>
			<path class="st1" d="M27.3,15.9c0,0.2-0.2,0.3-0.3,0.3c-0.2,0-0.3-0.2-0.3-0.4c0-0.2,0.2-0.3,0.3-0.3
				C27.2,15.6,27.3,15.8,27.3,15.9z"/>
			<path class="st1" d="M53.5,8.5c0,0.2-0.1,0.3-0.3,0.3c-0.2,0-0.3-0.1-0.4-0.3c0-0.2,0.1-0.4,0.3-0.4C53.3,8.1,53.5,8.3,53.5,8.5z
				"/>
			<path class="st1" d="M17.4,28.4c0,0.2-0.2,0.3-0.3,0.3c-0.2,0-0.4-0.2-0.3-0.4c0-0.2,0.2-0.3,0.4-0.3
				C17.3,28.1,17.4,28.2,17.4,28.4z"/>
			<path class="st1" d="M41.9,8.2c0.2,0,0.3,0.1,0.3,0.3c0,0.2-0.1,0.3-0.3,0.3c-0.2,0-0.3-0.1-0.3-0.3C41.6,8.3,41.7,8.2,41.9,8.2z
				"/>
			<path class="st1" d="M32,11.8c0.2,0,0.3,0.1,0.3,0.3c0,0.2-0.1,0.3-0.3,0.3c-0.2,0-0.4-0.2-0.4-0.4C31.6,12,31.8,11.8,32,11.8z"
				/>
			<path class="st1" d="M70.6,18.1c0.2,0,0.3,0.2,0.3,0.3c0,0.2-0.2,0.3-0.3,0.3c-0.2,0-0.3-0.1-0.3-0.3
				C70.3,18.2,70.4,18.1,70.6,18.1z"/>
			<path class="st1" d="M69.7,17.2c0,0.2-0.1,0.3-0.3,0.3c-0.2,0-0.3-0.1-0.3-0.3c0-0.2,0.1-0.3,0.3-0.3
				C69.5,16.9,69.7,17,69.7,17.2z"/>
			<path class="st1" d="M82.1,39.6c0,0.2-0.2,0.3-0.3,0.3c-0.2,0-0.3-0.2-0.3-0.3c0-0.2,0.1-0.3,0.3-0.3
				C82,39.3,82.1,39.4,82.1,39.6z"/>
			<path class="st1" d="M13.3,38.7c-0.2,0-0.3-0.1-0.3-0.3c0-0.2,0.1-0.3,0.3-0.3c0.2,0,0.3,0.1,0.3,0.3
				C13.6,38.5,13.5,38.7,13.3,38.7z"/>
			<path class="st1" d="M51.9,8.2c0.2,0,0.3,0.1,0.3,0.3c0,0.2-0.1,0.3-0.3,0.3c-0.2,0-0.3-0.1-0.3-0.3C51.6,8.3,51.7,8.2,51.9,8.2z
				"/>
			<path class="st1" d="M19.5,25c-0.2,0-0.3-0.1-0.3-0.3c0-0.2,0.1-0.3,0.3-0.3c0.2,0,0.3,0.1,0.3,0.3C19.8,24.8,19.7,24.9,19.5,25z
				"/>
			<path class="st1" d="M64.7,13.4c0,0.2-0.1,0.3-0.3,0.3c-0.2,0-0.3-0.1-0.3-0.3c0-0.2,0.1-0.3,0.3-0.3
				C64.5,13.1,64.7,13.3,64.7,13.4z"/>
			<path class="st1" d="M79.3,32.4c-0.2,0-0.3-0.2-0.3-0.4c0-0.2,0.2-0.3,0.3-0.3c0.2,0,0.3,0.2,0.3,0.4
				C79.6,32.3,79.5,32.5,79.3,32.4z"/>
			<path class="st1" d="M44.4,8.2c0.2,0,0.3,0.1,0.3,0.3c0,0.2-0.1,0.3-0.3,0.3c-0.2,0-0.3-0.1-0.3-0.3C44.1,8.3,44.3,8.2,44.4,8.2z
				"/>
			<path class="st1" d="M43.5,8.5c0,0.2-0.1,0.3-0.3,0.3c-0.2,0-0.3-0.1-0.3-0.3c0-0.2,0.2-0.3,0.3-0.3C43.4,8.2,43.5,8.3,43.5,8.5z
				"/>
			<path class="st1" d="M77.1,27.1c0,0.2-0.1,0.3-0.3,0.3c-0.2,0-0.3-0.1-0.3-0.3c0-0.2,0.1-0.3,0.3-0.3C77,26.8,77.1,27,77.1,27.1z
				"/>
			<path class="st1" d="M38.2,10c-0.2,0-0.3-0.1-0.3-0.3c0-0.2,0.1-0.3,0.3-0.3c0.2,0,0.3,0.2,0.3,0.3C38.5,9.9,38.4,10,38.2,10z"/>
			<path class="st1" d="M26.1,17.2c0,0.2-0.1,0.3-0.3,0.3c-0.2,0-0.3-0.1-0.3-0.3c0-0.2,0.1-0.3,0.3-0.3
				C25.9,16.9,26.1,17,26.1,17.2z"/>
			<path class="st1" d="M56.9,9.4c0.2,0,0.3,0.2,0.3,0.3c0,0.2-0.2,0.3-0.3,0.3c-0.2,0-0.3-0.2-0.3-0.3C56.6,9.5,56.7,9.4,56.9,9.4z
				"/>
			<path class="st1" d="M80.5,36.2c-0.2,0-0.3-0.2-0.3-0.3c0-0.2,0.2-0.3,0.3-0.3c0.2,0,0.3,0.1,0.3,0.3
				C80.8,36,80.7,36.2,80.5,36.2z"/>
			<path class="st1" d="M14.5,34.3c0.2,0,0.3,0.1,0.3,0.3c0,0.2-0.1,0.3-0.3,0.3c-0.2,0-0.3-0.1-0.3-0.3
				C14.2,34.5,14.4,34.3,14.5,34.3z"/>
			<path class="st1" d="M24.5,18.7c-0.2,0-0.3-0.1-0.3-0.3c0-0.2,0.1-0.3,0.3-0.3c0.2,0,0.3,0.2,0.3,0.3
				C24.8,18.6,24.6,18.7,24.5,18.7z"/>
			<path class="st1" d="M78.1,29.9c-0.2,0-0.3-0.1-0.3-0.3c0-0.2,0.1-0.3,0.3-0.3c0.2,0,0.3,0.1,0.3,0.3
				C78.4,29.8,78.3,29.9,78.1,29.9z"/>
			<path class="st1" d="M23.6,19.7c0,0.2-0.2,0.3-0.3,0.3c-0.2,0-0.3-0.1-0.3-0.3s0.1-0.3,0.3-0.3C23.4,19.3,23.6,19.5,23.6,19.7z"
				/>
			<path class="st1" d="M50.7,8.2c0.2,0,0.3,0.2,0.3,0.3c0,0.2-0.2,0.3-0.3,0.3c-0.2,0-0.3-0.1-0.3-0.3C50.4,8.3,50.5,8.2,50.7,8.2z
				"/>
			<path class="st1" d="M46,8.6c-0.1,0-0.2,0.2-0.3,0.2c-0.1,0-0.3-0.1-0.3-0.3c0-0.2,0.1-0.3,0.3-0.3C45.8,8.2,46,8.3,46,8.6z"/>
			<path class="st1" d="M61.9,12.5c-0.2,0-0.3-0.1-0.3-0.3c0-0.2,0.2-0.3,0.3-0.3c0.2,0,0.3,0.1,0.3,0.3
				C62.2,12.3,62,12.5,61.9,12.5z"/>
			<path class="st1" d="M49.4,8.2c0.2,0,0.3,0.1,0.3,0.3c0,0.2-0.2,0.3-0.3,0.3c-0.2,0-0.3-0.1-0.3-0.3C49.1,8.3,49.2,8.2,49.4,8.2z
				"/>
			<path class="st1" d="M59.7,10.9c0,0.2-0.2,0.3-0.3,0.3c-0.2,0-0.3-0.2-0.3-0.3c0-0.2,0.1-0.3,0.3-0.3
				C59.5,10.6,59.7,10.8,59.7,10.9z"/>
			<path class="st1" d="M74.3,23.7c-0.2,0-0.3-0.1-0.3-0.3c0-0.2,0.1-0.3,0.3-0.3c0.2,0,0.3,0.1,0.3,0.3
				C74.6,23.6,74.5,23.7,74.3,23.7z"/>
			<path class="st1" d="M30.8,13.2c0.2,0,0.3,0.2,0.3,0.3c0,0.2-0.2,0.3-0.3,0.3c-0.2,0-0.3-0.1-0.3-0.3
				C30.5,13.3,30.6,13.2,30.8,13.2z"/>
			<path class="st1" d="M16.2,32.1c-0.2,0.1-0.3,0.2-0.4,0.3c-0.2,0-0.3-0.1-0.3-0.3c0-0.2,0.1-0.3,0.3-0.2
				C15.9,31.9,16,32,16.2,32.1z"/>
			<path class="st1" d="M36.1,11c-0.2,0.1-0.3,0.2-0.4,0.3c-0.2,0-0.3-0.1-0.3-0.3c0-0.2,0.2-0.3,0.3-0.3
				C35.9,10.7,35.9,10.8,36.1,11z"/>
			<path class="st1" d="M56,9.7c-0.2,0.1-0.3,0.2-0.4,0.3c-0.1,0-0.3-0.1-0.3-0.3c0-0.2,0.1-0.3,0.3-0.3C55.8,9.5,55.9,9.6,56,9.7z"
				/>
			<path class="st1" d="M18.3,26.8c0.1,0.2,0.2,0.3,0.3,0.4c0,0.2-0.1,0.3-0.3,0.3c-0.2,0-0.3-0.1-0.3-0.3
				C18,27,18.2,26.9,18.3,26.8z"/>
			<path class="st1" d="M33.6,12.2c-0.2,0.1-0.3,0.3-0.4,0.3c-0.2,0-0.3-0.1-0.3-0.3c0-0.2,0.2-0.3,0.3-0.3
				C33.3,11.9,33.4,12.1,33.6,12.2z"/>
			<path class="st1" d="M48.5,8.5c0,0.2-0.2,0.3-0.3,0.3c-0.2,0-0.3-0.1-0.3-0.3c0-0.2,0.1-0.3,0.3-0.3C48.3,8.2,48.5,8.3,48.5,8.5z
				"/>
			<path class="st1" d="M47.2,8.5c0,0.2-0.2,0.3-0.3,0.3c-0.2,0-0.3-0.1-0.3-0.3c0-0.2,0.1-0.3,0.3-0.3C47.1,8.2,47.2,8.3,47.2,8.5z
				"/>
			<path class="st1" d="M82.2,40.9c-0.2,0.1-0.3,0.2-0.4,0.2c-0.2,0-0.3-0.1-0.3-0.3c0-0.2,0.1-0.3,0.3-0.2
				C82,40.6,82,40.7,82.2,40.9z"/>
			<path class="st1" d="M13.3,39.2c0.1,0.2,0.2,0.3,0.3,0.4c0,0.2-0.1,0.3-0.3,0.3c-0.2,0-0.3-0.1-0.3-0.3
				C13.1,39.5,13.2,39.4,13.3,39.2z"/>
			<path class="st1" d="M65.9,14.7c0,0.2-0.1,0.3-0.3,0.3c-0.2,0-0.3-0.1-0.3-0.3c0-0.2,0.1-0.3,0.3-0.3
				C65.8,14.4,65.9,14.5,65.9,14.7z"/>
			<path class="st1" d="M73.4,22.2c0,0.2-0.1,0.3-0.3,0.2c-0.1,0-0.2-0.1-0.2-0.2c0-0.1,0.1-0.3,0.3-0.3
				C73.3,21.9,73.4,22,73.4,22.2z"/>
			<path class="st1" d="M20.8,23.7c-0.2,0-0.3-0.1-0.3-0.3c0-0.1,0.2-0.3,0.3-0.2c0.2,0,0.2,0.1,0.2,0.3
				C21.1,23.6,20.9,23.7,20.8,23.7z"/>
			<path class="st1" d="M39.5,10.1c-0.1-0.2-0.3-0.3-0.3-0.4c0-0.2,0.1-0.3,0.3-0.3c0.2,0,0.3,0.1,0.3,0.3
				C39.7,9.8,39.6,9.9,39.5,10.1z"/>
			<path class="st1" d="M17,30c-0.1-0.2-0.2-0.3-0.2-0.4c0-0.1,0.1-0.3,0.3-0.3c0.2,0,0.3,0.1,0.2,0.3C17.3,29.7,17.2,29.8,17,30z"
				/>
			<path class="st1" d="M14.9,35.9c-0.2,0.1-0.3,0.2-0.4,0.3c-0.1,0-0.3-0.1-0.3-0.3c0-0.1,0.2-0.2,0.2-0.2
				C14.6,35.6,14.7,35.7,14.9,35.9z"/>
			<path class="st1" d="M29.9,14.7c-0.1,0.1-0.2,0.2-0.3,0.3c-0.1,0-0.3-0.1-0.3-0.2c0-0.1,0.1-0.3,0.3-0.3
				C29.6,14.5,29.7,14.6,29.9,14.7z"/>
			<path class="st1" d="M13.3,41.2c-0.1-0.2-0.2-0.2-0.3-0.3c0-0.1,0.1-0.2,0.2-0.3c0.1,0,0.3,0.1,0.2,0.2
				C13.5,40.9,13.4,41,13.3,41.2z"/>
			<path class="st1" d="M22.4,22.2c-0.2,0.1-0.3,0.2-0.4,0.2c-0.1,0-0.2-0.1-0.2-0.2c0-0.1,0.1-0.3,0.2-0.3
				C22.1,22,22.2,22.1,22.4,22.2z"/>
			<path class="st1" d="M81.8,41.7c0.1,0.2,0.2,0.3,0.2,0.4c0,0.1-0.1,0.2-0.2,0.3c-0.2,0-0.3-0.1-0.2-0.2
				C81.6,42,81.7,41.9,81.8,41.7z"/>
			<path class="st1" d="M79.3,33c0.1,0.2,0.2,0.3,0.2,0.4c0,0.1-0.2,0.3-0.3,0.2c-0.2,0-0.2-0.1-0.2-0.3
				C79.1,33.2,79.2,33.1,79.3,33z"/>
			<path class="st1" d="M63.1,13.8c-0.1-0.2-0.2-0.3-0.2-0.4c0-0.1,0.1-0.2,0.3-0.2c0.1,0,0.2,0.2,0.2,0.2
				C63.3,13.5,63.2,13.6,63.1,13.8z"/>
			<path class="st1" d="M67.2,16c-0.2,0.1-0.3,0.2-0.4,0.2c-0.1,0-0.2-0.1-0.2-0.2c0-0.1,0.1-0.3,0.3-0.2C67,15.7,67,15.8,67.2,16z"
				/>
			<path class="st1" d="M75.6,26.3c-0.1-0.2-0.2-0.2-0.3-0.3c0-0.1,0.1-0.2,0.2-0.2c0.2,0,0.3,0.1,0.2,0.2
				C75.8,26,75.7,26.1,75.6,26.3z"/>
			<path class="st1" d="M71.8,20.5c0.1,0.2,0.2,0.3,0.3,0.4c0,0.1-0.1,0.3-0.2,0.2c-0.1,0-0.2-0.1-0.2-0.2
				C71.6,20.8,71.7,20.7,71.8,20.5z"/>
			<path class="st1" d="M40.7,9.4c0.1,0.1,0.2,0.2,0.2,0.3c0,0.2-0.1,0.2-0.2,0.2c-0.2,0-0.2-0.1-0.2-0.3
				C40.5,9.6,40.6,9.5,40.7,9.4z"/>
			<path class="st1" d="M28.5,15.9c-0.1,0.1-0.2,0.2-0.3,0.2c-0.1,0-0.3-0.1-0.3-0.2c0-0.2,0.1-0.3,0.2-0.2
				C28.3,15.7,28.4,15.8,28.5,15.9z"/>
			<path class="st1" d="M78.4,30.9c-0.1,0.1-0.2,0.2-0.3,0.2c-0.1,0-0.2-0.1-0.2-0.2c0-0.2,0.1-0.3,0.2-0.2
				C78.2,30.7,78.3,30.8,78.4,30.9z"/>
			<path class="st1" d="M58.1,11.3c-0.1-0.2-0.2-0.2-0.2-0.3c0-0.1,0.1-0.3,0.2-0.2c0.1,0,0.2,0.2,0.2,0.2
				C58.3,11,58.2,11.1,58.1,11.3z"/>
			<path class="st1" d="M54.4,10.1c-0.1-0.2-0.2-0.2-0.2-0.3c0-0.1,0.1-0.3,0.2-0.2c0.1,0,0.2,0.1,0.2,0.2
				C54.6,9.8,54.5,9.9,54.4,10.1z"/>
			<path class="st1" d="M68.1,16.9c0.1,0.2,0.2,0.2,0.2,0.3c0,0.1-0.1,0.2-0.2,0.2c-0.1,0-0.3-0.1-0.2-0.2
				C67.9,17.1,68,17,68.1,16.9z"/>
			<path class="st1" d="M80.9,37.1c-0.2,0.1-0.3,0.2-0.4,0.2c-0.2,0-0.2-0.1-0.2-0.3c0-0.1,0.2-0.2,0.2-0.2
				C80.6,36.9,80.7,37,80.9,37.1z"/>
			<path class="st1" d="M19.8,25.9c-0.2,0.1-0.3,0.2-0.3,0.2c-0.1,0-0.1-0.1-0.2-0.2c0.1-0.1,0.2-0.2,0.2-0.2
				C19.6,25.7,19.7,25.8,19.8,25.9z"/>
			<path class="st1" d="M37.3,11c-0.2,0.1-0.3,0.2-0.3,0.2c-0.1,0-0.1-0.1-0.2-0.2c0.1-0.1,0.2-0.2,0.2-0.2
				C37,10.7,37.1,10.8,37.3,11z"/>
			<path class="st1" d="M69.4,18.1c0.1,0.2,0.2,0.2,0.2,0.3c0,0.1-0.1,0.2-0.2,0.2c-0.1,0-0.3-0.1-0.2-0.2
				C69.2,18.3,69.3,18.3,69.4,18.1z"/>
			<path class="st1" d="M77.1,28.4c-0.2,0.1-0.2,0.2-0.3,0.2c-0.2,0-0.2-0.1-0.2-0.2c0-0.1,0.1-0.2,0.2-0.2
				C76.9,28.2,77,28.3,77.1,28.4z"/>
			<path class="st1" d="M70.6,19.3c0.1,0.1,0.2,0.2,0.2,0.3c0,0.1-0.1,0.2-0.2,0.2c-0.1,0-0.3-0.1-0.2-0.2
				C70.4,19.6,70.5,19.5,70.6,19.3z"/>
			<path class="st1" d="M60.6,12.5c-0.1-0.2-0.2-0.3-0.2-0.3c0-0.1,0.1-0.2,0.2-0.2c0.1,0,0.2,0.1,0.2,0.2
				C60.8,12.3,60.7,12.4,60.6,12.5z"/>
			<path class="st1" d="M16.1,33.4c-0.1,0.1-0.2,0.2-0.3,0.2c-0.1,0-0.3-0.1-0.2-0.2c0-0.1,0.2-0.2,0.2-0.2
				C15.9,33.1,16,33.3,16.1,33.4z"/>
			<path class="st1" d="M81.8,43.7c-0.1-0.2-0.2-0.2-0.2-0.3c0-0.1,0.1-0.2,0.2-0.2c0.1,0,0.2,0.1,0.2,0.2
				C82,43.4,81.9,43.5,81.8,43.7z"/>
			<path class="st1" d="M34.5,11.9c0.1,0.1,0.2,0.2,0.2,0.3c0,0.1-0.1,0.2-0.2,0.2c-0.1,0-0.2-0.1-0.2-0.2
				C34.3,12.1,34.4,12,34.5,11.9z"/>
			<path class="st1" d="M14.5,36.8c0.1,0.2,0.2,0.2,0.2,0.3c0,0.1-0.1,0.2-0.2,0.2c0,0-0.2-0.1-0.2-0.2C14.3,37,14.4,36.9,14.5,36.8
				z"/>
			<path class="st1" d="M27.3,17.2c-0.1,0.1-0.2,0.2-0.3,0.2c-0.1,0-0.2-0.1-0.2-0.2c0-0.1,0.1-0.2,0.2-0.2
				C27.1,17,27.2,17.1,27.3,17.2z"/>
			<path class="st1" d="M53.4,9.7c-0.1,0.1-0.2,0.2-0.2,0.2c-0.1,0-0.2-0.1-0.2-0.2c0.1-0.1,0.1-0.2,0.2-0.2
				C53.2,9.5,53.3,9.6,53.4,9.7z"/>
			<path class="st1" d="M24.5,20c-0.1-0.1-0.2-0.2-0.2-0.3c0-0.1,0.1-0.2,0.2-0.2c0.1,0,0.2,0.1,0.2,0.2
				C24.7,19.7,24.6,19.8,24.5,20z"/>
			<path class="st1" d="M23.2,21.2c-0.1-0.2-0.2-0.3-0.2-0.3c0-0.1,0.1-0.2,0.2-0.2c0.1,0,0.2,0.2,0.2,0.2
				C23.5,21,23.3,21.1,23.2,21.2z"/>
			<path class="st1" d="M32.3,13.5c-0.2,0.1-0.3,0.2-0.4,0.2c-0.1,0-0.2-0.1-0.2-0.2c0-0.1,0.1-0.2,0.2-0.2
				C32.1,13.3,32.2,13.4,32.3,13.5z"/>
			<path class="st1" d="M25.8,18.2c0.1,0.1,0.2,0.2,0.2,0.2c0,0.1-0.1,0.2-0.1,0.2c-0.1,0-0.2-0.1-0.2-0.2
				C25.6,18.4,25.7,18.3,25.8,18.2z"/>
			<path class="st1" d="M18.5,28.4c-0.1,0.1-0.2,0.2-0.3,0.2c-0.1,0-0.1-0.1-0.2-0.2c0.1-0.1,0.1-0.2,0.2-0.2
				C18.4,28.2,18.4,28.3,18.5,28.4z"/>
			<path class="st1" d="M42.2,9.7C42.1,9.8,42,9.9,42,9.9c-0.1,0-0.2-0.1-0.2-0.1c0-0.1,0-0.2,0.2-0.2C42,9.5,42.1,9.6,42.2,9.7z"/>
			<path class="st1" d="M13.6,42.1c-0.1,0.1-0.2,0.2-0.3,0.2c-0.1,0-0.2-0.1-0.2-0.2c0-0.1,0.1-0.2,0.2-0.2
				C13.4,41.9,13.5,42,13.6,42.1z"/>
			<path class="st1" d="M74.6,24.6c-0.1,0.1-0.2,0.2-0.3,0.2c-0.1,0-0.2-0.1-0.2-0.1c0-0.1,0-0.2,0.2-0.2
				C74.4,24.5,74.5,24.5,74.6,24.6z"/>
			<path class="st1" d="M17,30.6c0.1,0.1,0.2,0.2,0.2,0.3c0,0.1-0.1,0.2-0.2,0.2c-0.1,0-0.2-0.1-0.2-0.2C16.9,30.8,17,30.8,17,30.6z
				"/>
			<path class="st1" d="M79.3,34.4c0.1,0.1,0.2,0.2,0.1,0.3c0,0.1-0.1,0.1-0.2,0.2c-0.1-0.1-0.2-0.1-0.2-0.2
				C79.1,34.5,79.2,34.5,79.3,34.4z"/>
			<path class="st1" d="M80.8,38.3c-0.1,0.1-0.2,0.2-0.2,0.2c-0.1,0-0.2-0.1-0.2-0.2c0-0.1,0.1-0.2,0.2-0.2
				C80.6,38.1,80.7,38.2,80.8,38.3z"/>
			<path class="st1" d="M57.2,11c-0.1,0.1-0.2,0.1-0.3,0.1c-0.1,0-0.1-0.1-0.2-0.2c0.1-0.1,0.1-0.2,0.2-0.2
				C56.9,10.8,57,10.9,57.2,11z"/>
			<path class="st1" d="M51.9,10c-0.1-0.1-0.2-0.2-0.2-0.2c0-0.1,0.1-0.1,0.1-0.2c0.1,0,0.2,0.1,0.2,0.1C52.1,9.8,52,9.8,51.9,10z"
				/>
			<path class="st1" d="M64.4,14.4c0.1,0.1,0.2,0.2,0.2,0.3c0,0.1-0.1,0.2-0.1,0.2c-0.1,0-0.2-0.1-0.2-0.1
				C64.2,14.7,64.3,14.6,64.4,14.4z"/>
			<path class="st1" d="M38.5,10.9c-0.1,0.1-0.2,0.2-0.2,0.2c-0.1,0-0.1-0.1-0.2-0.1c0.1-0.1,0.1-0.2,0.2-0.2
				C38.3,10.8,38.3,10.9,38.5,10.9z"/>
			<path class="st1" d="M13.5,43.4c-0.1,0.1-0.2,0.1-0.2,0.1c-0.1,0-0.1-0.1-0.2-0.2c0.1-0.1,0.1-0.1,0.2-0.2
				C13.4,43.2,13.4,43.3,13.5,43.4z"/>
			<path class="st1" d="M21,24.6c-0.1,0.1-0.1,0.2-0.2,0.2c-0.1,0-0.1-0.1-0.2-0.2c0.1-0.1,0.1-0.1,0.2-0.2
				C20.8,24.5,20.9,24.6,21,24.6z"/>
			<path class="st1" d="M30.7,14.9c-0.1-0.1-0.1-0.2-0.1-0.2c0-0.1,0.1-0.1,0.2-0.2c0,0.1,0.1,0.1,0.1,0.2
				C30.9,14.8,30.8,14.8,30.7,14.9z"/>
			<path class="st1" d="M43.2,10c-0.1-0.2-0.2-0.3-0.2-0.3c0-0.1,0.1-0.1,0.2-0.1c0.1,0,0.1,0.1,0.1,0.2C43.4,9.8,43.3,9.9,43.2,10z
				"/>
			<path class="st1" d="M73.3,23.4c-0.1,0.1-0.2,0.1-0.2,0.1c-0.1,0-0.1-0.1-0.1-0.2c0-0.1,0.1-0.1,0.2-0.1
				C73.2,23.3,73.2,23.3,73.3,23.4z"/>
			<path class="st1" d="M78.1,32.3c-0.1-0.1-0.1-0.2-0.2-0.2c0,0,0.1-0.2,0.1-0.1c0.1,0,0.2,0.1,0.2,0.1
				C78.2,32.2,78.2,32.2,78.1,32.3z"/>
			<path class="st1" d="M76.8,29.8c-0.1-0.1-0.1-0.1-0.1-0.2c0,0,0.1-0.1,0.1-0.1c0,0,0.1,0.1,0.1,0.1
				C76.9,29.7,76.9,29.7,76.8,29.8z"/>
			<path class="st1" d="M59.4,11.9c0,0.1,0.1,0.2,0.1,0.2c0,0.1-0.1,0.1-0.1,0.2c-0.1,0-0.1-0.1-0.2-0.1
				C59.3,12.1,59.3,12.1,59.4,11.9z"/>
			<path class="st1" d="M75.8,27.2c-0.1,0.1-0.2,0.1-0.2,0.1c0,0-0.1-0.1-0.1-0.1c0.1,0,0.1-0.1,0.2-0.1
				C75.6,27,75.7,27.1,75.8,27.2z"/>
			<path class="st1" d="M50.7,9.5c0.1,0.1,0.1,0.1,0.1,0.2c0,0-0.1,0.1-0.1,0.1c-0.1-0.1-0.1-0.1-0.1-0.2
				C50.5,9.7,50.6,9.6,50.7,9.5z"/>
			<path class="st1" d="M16,34.7c-0.1,0-0.2,0.1-0.2,0.1c0,0-0.1-0.1-0.1-0.1c0.1,0,0.1-0.1,0.2-0.1C15.9,34.5,15.9,34.6,16,34.7z"
				/>
			<path class="st1" d="M14.6,38.1c0.1,0.1,0.1,0.2,0.1,0.2c0,0.1-0.1,0.1-0.2,0.1c0,0-0.1-0.1-0.1-0.1
				C14.4,38.3,14.5,38.2,14.6,38.1z"/>
			<path class="st1" d="M80.7,39.6c-0.1,0.1-0.1,0.1-0.2,0.1c-0.1,0-0.1-0.1-0.1-0.1c0,0,0.1-0.1,0.1-0.1
				C80.6,39.5,80.6,39.5,80.7,39.6z"/>
			<path class="st1" d="M65.6,15.7c0.1,0.1,0.1,0.1,0.1,0.2c0,0.1-0.1,0.1-0.2,0.2c0-0.1-0.1-0.1-0.1-0.2
				C65.5,15.9,65.6,15.8,65.6,15.7z"/>
			<path class="st1" d="M61.9,13.6c-0.1-0.1-0.2-0.1-0.2-0.2c0-0.1,0.1-0.1,0.1-0.2c0,0,0.1,0.1,0.1,0.1
				C62,13.5,61.9,13.6,61.9,13.6z"/>
			<path class="st1" d="M44.4,9.5c0.1,0.1,0.1,0.1,0.1,0.2c-0.1,0-0.1,0.1-0.2,0.1c0-0.1-0.1-0.1-0.1-0.2
				C44.3,9.6,44.4,9.6,44.4,9.5z"/>
			<path class="st1" d="M35.9,12.2c-0.1,0-0.1,0.1-0.2,0.1c0,0-0.1-0.1-0.1-0.1c0-0.1,0.1-0.1,0.1-0.1
				C35.8,12.1,35.8,12.1,35.9,12.2z"/>
			<path class="st1" d="M49.6,9.7c-0.1,0-0.2,0.1-0.2,0.1c0,0-0.1-0.1-0.1-0.2c0,0,0.1-0.1,0.1-0.1C49.5,9.6,49.5,9.7,49.6,9.7z"/>
			<path class="st1" d="M48.2,9.9c0-0.1-0.1-0.1-0.1-0.2c0,0,0.1-0.1,0.1-0.1c0.1,0,0.1,0.1,0.1,0.1C48.3,9.8,48.2,9.8,48.2,9.9z"/>
			<path class="st1" d="M45.9,9.7c-0.1,0-0.2,0.1-0.2,0.1c0,0-0.1-0.1-0.1-0.1c0-0.1,0.1-0.1,0.1-0.1C45.7,9.6,45.8,9.7,45.9,9.7z"
				/>
			<path class="st1" d="M47,9.5c0.1,0.1,0.1,0.1,0.1,0.2c0,0-0.1,0.1-0.1,0.1c0,0-0.1-0.1-0.1-0.1C46.8,9.7,46.9,9.6,47,9.5z"/>
			<path class="st1" d="M19.6,27c0,0.1,0.1,0.1,0.1,0.2c0,0-0.1,0.1-0.1,0.1c-0.1,0-0.1-0.1-0.1-0.1c0-0.1,0-0.1,0.1-0.2
				C19.5,27,19.5,27,19.6,27z"/>
			<path class="st1" d="M33.4,13.5c-0.1,0-0.1,0.1-0.2,0.1c0,0-0.1-0.1-0.1-0.1c0,0,0.1-0.1,0.2-0.1C33.3,13.3,33.3,13.4,33.4,13.5z
				"/>
			<path class="st1" d="M29.7,15.9c-0.1,0-0.1,0.1-0.2,0.1c-0.1,0-0.1-0.1-0.1-0.1c0,0,0.1-0.1,0.1-0.1
				C29.6,15.8,29.6,15.9,29.7,15.9z"/>
			<path class="st1" d="M71.8,22c0.1,0.1,0.1,0.1,0.1,0.1c0,0.1-0.1,0.1-0.1,0.1c0,0-0.1-0.1-0.1-0.1C71.7,22.1,71.8,22.1,71.8,22z"
				/>
			<path class="st1" d="M22,23.3c0.1,0.1,0.1,0.1,0.2,0.1c0,0-0.1,0.1-0.1,0.1c0,0-0.1-0.1-0.1-0.1C21.9,23.4,22,23.3,22,23.3z"/>
			<path class="st1" d="M67,17.2c-0.1,0-0.1,0.1-0.1,0.1c0,0-0.1-0.1-0.1-0.1c0,0,0.1-0.1,0.1-0.1C66.9,17.1,66.9,17.1,67,17.2z"/>
			<path class="st1" d="M18.1,29.6c0.1,0,0.1-0.1,0.1-0.1c0,0,0.1,0.1,0.1,0.1c0,0-0.1,0.1-0.1,0.1C18.2,29.7,18.2,29.7,18.1,29.6z"
				/>
			<path class="st1" d="M68.1,18.6c0-0.1-0.1-0.1-0.1-0.1c0,0,0.1-0.1,0.1-0.1c0,0,0.1,0.1,0.1,0.1C68.2,18.5,68.1,18.5,68.1,18.6z"
				/>
			<path class="st1" d="M55.5,11c0.1-0.1,0.1-0.1,0.2-0.1c0,0,0.1,0.1,0.1,0.1c0,0.1-0.1,0.1-0.1,0.1C55.6,11.1,55.6,11,55.5,11z"/>
			<path class="st1" d="M39.4,11.1c0-0.1-0.1-0.1-0.1-0.2c0,0,0.1-0.1,0.1-0.1c0,0,0.1,0.1,0.1,0.1C39.6,11,39.5,11,39.4,11.1z"/>
			<path class="st1" d="M69.4,19.5c0,0.1,0.1,0.1,0.1,0.1c0,0-0.1,0.1-0.1,0.1c0,0-0.1-0.1-0.1-0.1C69.3,19.6,69.3,19.6,69.4,19.5z"
				/>
			<path class="st1" d="M70.4,20.9c0.1,0,0.1-0.1,0.1-0.1c0,0,0.1,0.1,0.1,0.1c0,0-0.1,0.1-0.1,0.1C70.6,21,70.5,20.9,70.4,20.9z"/>
			<path class="st1" d="M79.5,35.8c-0.1,0.1-0.1,0.1-0.2,0.1c0,0-0.1-0.1-0.1-0.1c0-0.1,0.1-0.1,0.1-0.1
				C79.3,35.7,79.4,35.8,79.5,35.8z"/>
			<path class="st1" d="M74.3,25.8c0,0.1,0.1,0.1,0.1,0.1c0,0-0.1,0.1-0.1,0.1c0,0-0.1-0.1-0.1-0.1C74.2,25.9,74.3,25.8,74.3,25.8z"
				/>
			<path class="st1" d="M14.7,39.7c-0.1,0-0.1,0-0.2,0c0,0,0-0.1-0.1-0.1c0,0,0.1-0.1,0.1-0.1C14.6,39.5,14.6,39.6,14.7,39.7z"/>
			<path class="st1" d="M17.1,32.3c-0.1-0.1-0.1-0.1-0.1-0.2c0,0,0.1-0.1,0.1-0.1c0,0,0.1,0.1,0.1,0.1
				C17.1,32.2,17.1,32.2,17.1,32.3z"/>
		</g>
		<path d="M47.4,2.9c-10.6,0-20.6,4.9-28,13.9c-6.2,7.5-10.1,17-11.2,27.3h1.9C12.5,21.9,28.3,4.7,47.4,4.7
			c19.1,0,34.9,17.2,37.3,39.4h1.9c-1.1-10.3-5-19.8-11.2-27.3C68,7.8,58,2.9,47.4,2.9z"/>
	</g>
</g>
</svg>
