<svg xmlns="http://www.w3.org/2000/svg" viewBox="0 0 342.32 170.12"><path d="M158,0c-7,1.12-14.16,1.92-21.13,3.4C68.32,17.87,16.37,70.75,3.39,139.52c-1.86,9.85-2.27,20-3.39,30.35H41C40.58,104,94,45.73,162.19,41.12c30.5-2.07,58.61,5.53,83.5,23.28,36,25.71,54,61.39,55.83,105.38h40.8c-.4-6-.65-11.6-1.19-17.19-6.61-68.87-57.5-128.94-124.42-146.5C206.63,3.44,196.23,2,186,0m79.68,169.88c-1.57-34.84-16.17-62.06-46.14-79.3-34.16-19.67-68.75-18-101.15,4.35-25.69,17.75-38.05,43.41-39.26,75.19H120c4-31.05,23.38-50.14,50.16-51.41,23-1.09,52,15.71,54.6,51.17Z" fill="#fff"/><path d="M186,0c10.25,2,20.65,3.44,30.73,6.09,66.92,17.56,117.81,77.63,124.42,146.5.54,5.59.79,11.21,1.19,17.19h-40.8c-1.84-44-19.81-79.67-55.83-105.38-24.89-17.75-53-25.35-83.5-23.28C94,45.73,40.58,104,41,169.87H0c1.12-10.37,1.53-20.5,3.39-30.35C16.37,70.75,68.32,17.87,136.85,3.4c7-1.48,14.09-2.28,21.13-3.4Z" fill="#fff"/><path d="M265.66,169.88H224.79c-2.64-35.46-31.63-52.26-54.6-51.17C143.41,120,124.06,139.07,120,170.12H79.11c1.21-31.78,13.57-57.44,39.26-75.19,32.4-22.4,67-24,101.15-4.35C249.49,107.82,264.09,135,265.66,169.88Z" fill="#fff"/></svg>