<?xml version="1.0" standalone="no"?>
<!DOCTYPE svg PUBLIC "-//W3C//DTD SVG 20010904//EN"
 "http://www.w3.org/TR/2001/REC-SVG-20010904/DTD/svg10.dtd">
<svg version="1.0" xmlns="http://www.w3.org/2000/svg"
 width="260.000000pt" height="260.000000pt" viewBox="0 0 260.000000 260.000000"
 preserveAspectRatio="xMidYMid meet">
<metadata>
Created by potrace 1.11, written by Peter Selinger 2001-2013
</metadata>
<g transform="translate(0.000000,260.000000) scale(0.100000,-0.100000)"
fill="#000000" stroke="none">
<path d="M1554 2112 c-11 -20 -54 -95 -96 -167 -41 -71 -101 -175 -133 -230
-32 -55 -110 -190 -173 -300 -64 -110 -153 -264 -198 -342 l-82 -143 0 -99
c-1 -95 0 -100 33 -156 19 -32 35 -59 35 -61 0 -8 94 -160 105 -169 13 -11
475 -12 493 -1 7 4 11 69 10 186 0 199 6 184 -71 180 -67 -3 -67 -4 -67 257
l0 235 71 107 c40 58 78 113 85 122 11 12 14 78 16 293 l3 279 48 -84 c26 -46
54 -95 62 -109 93 -156 215 -375 215 -384 0 -7 -46 -80 -102 -162 l-102 -149
-1 -192 c0 -106 -4 -195 -8 -200 -4 -4 -36 -9 -71 -11 l-64 -4 2 -186 1 -185
490 0 c270 1 496 2 502 2 8 1 -3 26 -25 63 -21 35 -41 70 -45 78 -4 8 -15 29
-26 45 -10 17 -61 104 -113 195 -52 91 -121 210 -153 265 -32 55 -119 206
-193 335 -74 129 -146 252 -159 272 -12 21 -23 40 -23 44 0 3 -8 18 -19 32
-10 15 -32 52 -49 82 -54 99 -163 285 -170 292 -4 4 -16 -10 -28 -30z"/>
<path d="M552 1333 c-18 -32 -45 -80 -61 -108 -17 -27 -48 -81 -69 -120 -22
-38 -117 -203 -211 -365 -93 -162 -166 -297 -162 -300 5 -3 149 -5 320 -4 284
1 313 2 331 19 11 10 22 26 26 37 3 11 35 68 70 128 l64 109 0 100 c0 110 3
101 -100 276 -26 44 -73 126 -105 183 -32 56 -61 102 -65 102 -3 0 -20 -26
-38 -57z m61 -10 c8 -16 28 -53 45 -85 18 -31 32 -58 32 -61 0 -3 -30 -4 -67
-4 -55 2 -67 5 -65 17 6 26 10 46 16 86 7 44 16 74 21 74 2 0 10 -12 18 -27z"/>
</g>
</svg>
