
<svg version="1.1" id="Layer_1" xmlns="http://www.w3.org/2000/svg" xmlns:xlink="http://www.w3.org/1999/xlink" x="0px" y="0px"
	 viewBox="0 0 23.9 23.4" style="enable-background:new 0 0 23.9 23.4;" xml:space="preserve">
	 <path class="st0" d="M12,2.1c3.2,0,3.6,0,4.8,0.1c1.2,0.1,1.8,0.2,2.2,0.4c0.6,0.2,1,0.5,1.4,0.9c0.4,0.4,0.7,0.8,0.9,1.3
		c0.2,0.4,0.4,1,0.4,2.2c0.1,1.2,0.1,1.6,0.1,4.7s0,3.5-0.1,4.7c-0.1,1.1-0.2,1.8-0.4,2.2c-0.2,0.5-0.5,0.9-0.9,1.3
		c-0.4,0.4-0.8,0.7-1.4,0.9c-0.4,0.2-1.1,0.4-2.2,0.4c-1.3,0.1-1.6,0.1-4.8,0.1s-3.6,0-4.8-0.1C6,21.2,5.3,21,4.9,20.8
		c-0.6-0.2-1-0.5-1.4-0.9c-0.4-0.4-0.7-0.8-0.9-1.3c-0.2-0.4-0.4-1-0.4-2.2c-0.1-1.2-0.1-1.6-0.1-4.7s0-3.5,0.1-4.7
		c0.1-1.1,0.2-1.8,0.4-2.2c0.2-0.5,0.5-0.9,0.9-1.3C3.9,3,4.3,2.8,4.9,2.6C5.3,2.4,6,2.2,7.1,2.2C8.4,2.1,8.8,2.1,12,2.1 M12,0
		C8.7,0,8.3,0,7,0.1C5.8,0.1,4.9,0.3,4.1,0.6C3.3,0.9,2.7,1.3,2,2S0.9,3.3,0.6,4C0.3,4.8,0.1,5.6,0.1,6.9C0,8.1,0,8.5,0,11.7
		s0,3.6,0.1,4.8c0.1,1.2,0.3,2.1,0.6,2.8c0.3,0.8,0.7,1.4,1.4,2.1s1.3,1.1,2.1,1.4c0.8,0.3,1.6,0.5,2.9,0.5c1.3,0.1,1.7,0.1,4.9,0.1
		s3.7,0,4.9-0.1c1.3-0.1,2.1-0.3,2.9-0.5c0.8-0.3,1.5-0.7,2.1-1.4s1.1-1.3,1.4-2.1c0.3-0.7,0.5-1.6,0.6-2.8c0.1-1.2,0.1-1.6,0.1-4.8
		s0-3.6-0.1-4.8c-0.1-1.2-0.3-2.1-0.6-2.8C23,3.3,22.6,2.6,21.9,2s-1.3-1.1-2.1-1.4c-0.8-0.3-1.6-0.5-2.9-0.5C15.6,0,15.2,0,12,0z
		 M12,5.7c-3.4,0-6.1,2.7-6.1,6s2.7,6,6.1,6s6.1-2.7,6.1-6S15.3,5.7,12,5.7z M12,15.6c-2.2,0-4-1.7-4-3.9c0-2.2,1.8-3.9,4-3.9
		s4,1.7,4,3.9C15.9,13.9,14.2,15.6,12,15.6z M19.8,5.5c0,0.8-0.6,1.4-1.4,1.4s-1.4-0.6-1.4-1.4s0.6-1.4,1.4-1.4S19.8,4.7,19.8,5.5z"
		/>
</svg>
