<?xml version="1.0" encoding="utf-8"?>
<!-- Generator: Adobe Illustrator 24.2.0, SVG Export Plug-In . SVG Version: 6.00 Build 0)  -->
<svg version="1.1" id="Layer_1" xmlns="http://www.w3.org/2000/svg" xmlns:xlink="http://www.w3.org/1999/xlink" x="0px" y="0px"
	 viewBox="0 0 260 260" style="enable-background:new 0 0 260 260;" xml:space="preserve">
<style type="text/css">
	.st0{fill:#67CCEA;}
</style>
<path class="st0" d="M38.67,56.99h182.66c1.99,0,3.6,1.61,3.6,3.6v12.42c0,1.99-1.61,3.6-3.6,3.6H38.67c-1.99,0-3.6-1.61-3.6-3.6
	V60.59C35.07,58.6,36.68,56.99,38.67,56.99z"/>
<path class="st0" d="M38.67,120.19h182.66c1.99,0,3.6,1.61,3.6,3.6v12.42c0,1.99-1.61,3.6-3.6,3.6H38.67c-1.99,0-3.6-1.61-3.6-3.6
	v-12.42C35.07,121.8,36.68,120.19,38.67,120.19z"/>
<path class="st0" d="M38.67,183.4h182.66c1.99,0,3.6,1.61,3.6,3.6v12.42c0,1.99-1.61,3.6-3.6,3.6H38.67c-1.99,0-3.6-1.61-3.6-3.6
	V187C35.07,185.01,36.68,183.4,38.67,183.4z"/>
</svg>
