
<svg version="1.1" id="Layer_1" xmlns="http://www.w3.org/2000/svg" xmlns:xlink="http://www.w3.org/1999/xlink" x="0px" y="0px"
	 viewBox="0 0 24 24" style="enable-background:new 0 0 24 24;" xml:space="preserve">
<g class="st0">
	<path d="M9.8,11.8c-0.1-0.2-0.4-0.2-0.6,0L6.6,14c-0.1,0.1-0.1,0.2-0.1,0.3c0,0.1,0.1,0.2,0.1,0.3L9.2,17c0.1,0.1,0.2,0.1,0.3,0.1
		c0.1,0,0.2,0,0.3-0.1c0.1-0.2,0.1-0.4,0-0.6l-2.2-2l2.2-2C9.9,12.2,9.9,12,9.8,11.8z"/>
	<path d="M17.4,14l-2.6-2.3c-0.2-0.1-0.4-0.1-0.6,0c-0.1,0.2-0.1,0.4,0,0.6l2.2,2l-2.2,2c-0.2,0.1-0.2,0.4,0,0.6
		c0.1,0.1,0.2,0.1,0.3,0.1c0.1,0,0.2,0,0.3-0.1l2.6-2.3c0.1-0.1,0.1-0.2,0.1-0.3C17.5,14.2,17.5,14.1,17.4,14z"/>
	<path d="M12.8,10c-0.2,0-0.4,0.1-0.5,0.3l-1.6,8c0,0.2,0.1,0.4,0.3,0.5c0,0,0.1,0,0.1,0c0.2,0,0.3-0.1,0.4-0.3l1.6-8
		C13.1,10.2,13,10,12.8,10z"/>
	<path d="M21.4,0.8H2.6c-1.5,0-2.7,1.3-2.7,2.8v16.7c0,1.5,1.2,2.8,2.7,2.8h18.8c1.5,0,2.7-1.3,2.7-2.8V3.6
		C24.1,2.1,22.9,0.8,21.4,0.8z M2.6,1.7h18.8c1,0,1.9,0.9,1.9,2v3.1H0.7V3.6C0.7,2.6,1.6,1.7,2.6,1.7z M21.4,22.3H2.6
		c-1,0-1.9-0.9-1.9-2V7.5h22.6v12.8C23.3,21.4,22.4,22.3,21.4,22.3z"/>
	<path d="M6.7,5.5C7.4,5.5,8,4.9,8,4.2c0-0.7-0.6-1.3-1.3-1.3C6,2.9,5.5,3.5,5.5,4.2C5.5,4.9,6,5.5,6.7,5.5z M6.7,3.7
		c0.3,0,0.5,0.2,0.5,0.5c0,0.3-0.2,0.5-0.5,0.5c-0.3,0-0.5-0.2-0.5-0.5C6.3,3.9,6.5,3.7,6.7,3.7z"/>
	<path d="M2.9,5.5c0.7,0,1.3-0.6,1.3-1.3S3.6,2.9,2.9,2.9S1.6,3.5,1.6,4.2S2.2,5.5,2.9,5.5z M2.9,3.7c0.3,0,0.5,0.2,0.5,0.5
		c0,0.3-0.2,0.5-0.5,0.5c-0.3,0-0.5-0.2-0.5-0.5C2.4,3.9,2.6,3.7,2.9,3.7z"/>
	<path d="M10.6,5.5c0.7,0,1.3-0.6,1.3-1.3c0-0.7-0.6-1.3-1.3-1.3c-0.7,0-1.3,0.6-1.3,1.3C9.4,4.9,9.9,5.5,10.6,5.5z M10.6,3.7
		c0.3,0,0.5,0.2,0.5,0.5s-0.2,0.5-0.5,0.5c-0.3,0-0.5-0.2-0.5-0.5S10.4,3.7,10.6,3.7z"/>
</g>
</svg>
