<?xml version="1.0" encoding="utf-8"?>
<!-- Generator: Adobe Illustrator 24.2.0, SVG Export Plug-In . SVG Version: 6.00 Build 0)  -->
<svg version="1.1" id="Capa_1" xmlns="http://www.w3.org/2000/svg" xmlns:xlink="http://www.w3.org/1999/xlink" x="0px" y="0px"
	 viewBox="0 0 512 512" style="enable-background:new 0 0 512 512;" xml:space="preserve">
<style type="text/css">
	.st0{fill:#FFFFFF;}
	.st1{fill:#FEC201;}
	.st2{fill:#FEAE38;}
	.st3{fill:#FE9101;}
	.st4{fill:#FEB901;}
	.st5{fill:#FEA901;}
	.st6{fill:#FEAE01;}
	.st7{fill:#FEB201;}
	.st8{fill:#FEB701;}
	.st9{fill:#FE9D01;}
	.st10{fill:#FEBD03;}
</style>
<path class="st0" d="M512,256c0,33.4-6.4,65.2-18,94.4c-6.2,15.6-13.9,30.5-22.9,44.5c-11.2,17.4-24.5,33.3-39.5,47.4
	c-8.8,8.3-18.1,15.9-28,22.9C361.8,494.7,310.9,512,256,512s-105.8-17.3-147.5-46.7C96.1,456.5,84.6,446.7,74,436
	C28.2,389.8,0,326.2,0,256S28.2,122.2,74,76c11.2-11.4,23.5-21.7,36.7-30.8C152,16.7,202,0,256,0s104,16.7,145.3,45.2
	c10.1,6.9,19.6,14.6,28.6,22.9c15.7,14.5,29.5,31,41.2,49c9,13.9,16.7,28.8,22.9,44.4C505.6,190.8,512,222.6,512,256z"/>
<g>
	<path class="st1" d="M317.1,230.2c-9-15.4-18-30.8-26.9-46.3c-18.7-32.4-37.4-64.9-56.1-97.4c-0.7-1.2-1.3-2.5-2-3.7
		c0.7-1.4,1.9-0.9,2.8-0.9c14.1,0,28.3,0,42.4-0.1c2.3,0,3.6,0.6,4.8,2.7c47.8,83.1,95.7,166.1,143.5,249.1c0.2,0.4,0.4,0.8,0.5,1.2
		c-2.3,0.3-3.4-1.5-4.7-2.8c-12.7-12.6-25.5-25-37.9-37.9c-7.1-7.4-14.6-14.5-21.7-21.9c-5.7-6-11.7-12-17.7-17.8
		c-7.7-7.5-15.3-15.1-22.7-22.9C320.2,230.3,319.1,228.8,317.1,230.2z"/>
	<path class="st2" d="M156,301.8c31.5,0,63,0.1,94.5,0c3.4,0,5.2,1,6.9,3.9c6.8,12.2,13.8,24.2,20.8,36.3c0.7,1.2,1.4,2.5,2,3.7
		c-1.1,1-2.1,0.6-3.1,0.6c-64,0-128,0-192,0c-1.2,0-2.3-0.1-3.5-0.2c0.1-1.2,0.8-1.8,1.7-2.3c8.2-4.7,16.4-9.3,24.6-14
		C123.9,320.4,139.9,311.1,156,301.8z"/>
	<path class="st3" d="M156,301.8c-16.1,9.3-32.1,18.6-48.2,27.9c-8.2,4.7-16.4,9.4-24.6,14c-0.9,0.5-1.7,1.2-1.7,2.3
		c-0.5,0-1.1,0-1.6,0c0-0.3,0-0.5-0.1-0.7c12.8-22.4,25.6-44.8,38.5-67.2c9.6-16.6,19.2-33.1,28.9-49.6c1.1,0,1.9,0.5,2.7,1.3
		c6.9,6.9,14.1,13.5,20.5,20.7c3,3.3,7.9,5.3,8.5,10.6c-6.6,11.7-13.3,23.3-19.9,35C157.9,297.9,157,299.8,156,301.8z"/>
	<path class="st4" d="M317.1,230.2c2.1-1.5,3.2,0.1,4.4,1.4c7.4,7.8,15,15.4,22.7,22.9c6,5.8,12,11.8,17.7,17.8
		c7.1,7.4,14.6,14.5,21.7,21.9c12.4,12.9,25.2,25.3,37.9,37.9c1.3,1.3,2.4,3.1,4.7,2.8c2.1,3.6,4.2,7.2,6.7,11.3
		c-13.8,0-26.9-0.5-39.9,0.2c-7.1,0.4-10.6-2.1-14-8.1c-19.6-34.8-39.7-69.3-59.6-103.8C318.4,233.1,317.8,231.6,317.1,230.2z"/>
	<path class="st5" d="M352.9,341c0.9,1.4,1.8,2.9,2.7,4.3c-0.6,1.5-1.8,0.9-2.7,0.9c-14.1,0-28.3,0-42.4,0.1c-2.1,0-3.5-0.4-4.6-2.4
		c-21-36.6-42.1-73.2-63.1-109.7c-0.1-0.1,0-0.3-0.1-0.4c3.9,0.3,5.6,3.8,8,6c9.4,9,18.5,18.4,27.7,27.7
		c10.1,10.2,20.1,20.4,30.1,30.6c11.7,11.9,23.8,23.4,35.3,35.5C346.3,336.2,348.2,340.5,352.9,341z"/>
	<path class="st6" d="M352.9,341c-4.6-0.5-6.5-4.8-9.1-7.5c-11.5-12.1-23.6-23.6-35.3-35.5c-10-10.2-20-20.4-30.1-30.6
		c-9.2-9.3-18.3-18.6-27.7-27.7c-2.3-2.3-4.1-5.7-8-6c-6.4-11-12.9-21.9-19.3-33c-2.4-4.1-4.6-8.3-6.8-12.4c2.1-0.3,3.6,0.6,5,2
		c2.8,2.9,5.9,5.5,8.5,8.6c6.9,8.2,15.1,15.2,22.5,22.8c7.8,8.1,15.7,16.1,23.7,24c14,14,28.3,27.8,41.8,42.3c2.2,2.3,4.5,4.9,8,5.7
		C335.2,309.4,344.7,324.9,352.9,341z"/>
	<path class="st7" d="M325.9,293.8c-3.4-0.8-5.8-3.3-8-5.7c-13.5-14.5-27.7-28.3-41.8-42.3c-8-7.9-15.9-16-23.7-24
		c-7.4-7.7-15.6-14.6-22.5-22.8c-2.6-3.1-5.7-5.7-8.5-8.6c-1.4-1.5-2.9-2.3-5-2c-7.4-12.8-14.8-25.5-22.3-38.2
		c-1.4-2.3-0.3-3.8,1.1-5.3c5.1,4.9,10.4,9.7,15.2,14.9c5.8,6.3,12,12.1,17.9,18.2c5.7,5.9,11.6,11.6,17.4,17.4
		c7.5,7.6,15,15.3,22.4,23c8.5,8.7,17.4,16.9,25.7,25.8c1.2,1.3,2.8,2.6,4.8,2.7C308,262.4,317.4,277.9,325.9,293.8z"/>
	<path class="st8" d="M298.8,246.8c-2.1-0.1-3.6-1.4-4.8-2.7c-8.3-8.9-17.2-17.1-25.7-25.8c-7.5-7.7-14.9-15.4-22.4-23
		c-5.8-5.8-11.7-11.6-17.4-17.4c-5.9-6.1-12.1-11.9-17.9-18.2c-4.8-5.2-10.1-9.9-15.2-14.9c2.8-5.6,5.7-11.1,9.3-16.3
		c7.4,6.8,14.1,14.4,21.3,21.5c9.9,9.9,19.9,19.6,29.5,29.7c2.8,2.9,5.7,5.6,9.2,7.7C276.4,207,287.8,226.8,298.8,246.8z"/>
	<path class="st9" d="M178.9,261.1c-0.5-5.3-5.5-7.2-8.5-10.6c-6.5-7.3-13.7-13.9-20.5-20.7c-0.7-0.7-1.6-1.3-2.7-1.3
		c5.5-10.4,11.4-20.5,17.6-30.5c3.3,1.5,6.1,3.7,8.4,6.4c7.5,8.6,15.7,16.5,24.1,24.1c-1.1,4.3-3.9,7.6-6,11.4
		C187.3,247,183,254,178.9,261.1z"/>
	<path class="st10" d="M264.6,187.5c-3.5-2-6.4-4.7-9.2-7.7c-9.6-10.1-19.6-19.9-29.5-29.7c-7.1-7.1-13.8-14.7-21.3-21.5
		c4.2-7.4,8.4-14.9,12.9-23c4.6,7.9,8.7,15.1,12.9,22.3c10.7,18.6,21.4,37.1,32.2,55.7C263.4,184.9,264,186.2,264.6,187.5z"/>
	<path class="st5" d="M197.3,228.6c-8.4-7.7-16.6-15.6-24.1-24.1c-2.4-2.7-5.1-5-8.4-6.4c4.8-8.6,9.6-17.1,14.3-25.6
		c1.9,0.4,2.1,1.7,2.6,2.6c7.3,12.7,14.6,25.4,22,38c1.2,2,1.5,3.5,0.1,5.5C201.5,221.8,200,225.6,197.3,228.6z"/>
	<path class="st2" d="M79.8,345.3c0.1,0.2,0.2,0.5,0.1,0.7c-0.2-0.1-0.5-0.1-0.7-0.2C79.4,345.6,79.6,345.4,79.8,345.3z"/>
</g>
</svg>
