<?xml version="1.0" encoding="utf-8"?>
<!-- Generator: Adobe Illustrator 24.2.0, SVG Export Plug-In . SVG Version: 6.00 Build 0)  -->
<svg version="1.1" id="Capa_1" xmlns="http://www.w3.org/2000/svg" xmlns:xlink="http://www.w3.org/1999/xlink" x="0px" y="0px"
	 viewBox="0 0 512 512" style="enable-background:new 0 0 512 512;" xml:space="preserve">
<style type="text/css">
	.st0{fill:#FFFFFF;}
	.st1{fill:#26303F;}
	.st2{fill:#FE9901;}
	.st3{enable-background:new    ;}
</style>
<path class="st0" d="M512,256c0,33.4-6.4,65.2-18,94.4c-6.2,15.6-13.9,30.5-22.9,44.5c-11.2,17.4-24.5,33.3-39.5,47.4
	c-8.8,8.3-18.1,15.9-28,22.9C361.8,494.7,310.9,512,256,512s-105.8-17.3-147.5-46.7C96.1,456.5,84.6,446.7,74,436
	C28.2,389.8,0,326.2,0,256S28.2,122.2,74,76c11.2-11.4,23.5-21.7,36.7-30.8C152,16.7,202,0,256,0s104,16.7,145.3,45.2
	c10.1,6.9,19.6,14.6,28.6,22.9c15.7,14.5,29.5,31,41.2,49c9,13.9,16.7,28.8,22.9,44.4C505.6,190.8,512,222.6,512,256z"/>
<g>
	<g>
		<path class="st1" d="M239,172.2c4.1-17.3,8.2-34.6,12.3-51.9c0.2-0.7,0.4-1.5,0.6-2.2c0.5-1.5,1.6-2.4,3.2-2.4c3-0.1,6-0.2,8.9,0
			c1.5,0.1,2.5,1,2.9,2.4c0.6,1.9,1,3.9,1.5,5.9c3.8,16.2,7.7,32.5,11.5,48.7c0.4-0.2,0.4-0.6,0.4-0.9c4.2-16,8.3-32.1,12.5-48.1
			c0.5-2,0.9-3.9,1.7-5.8c0.6-1.4,1.6-2.2,3.1-2.2c2.9-0.1,5.8-0.1,8.8,0c1.1,0,1.6,0.7,1.7,1.8c0,0.9-0.2,1.8-0.4,2.7
			c-6.5,20.7-12.9,41.5-19.4,62.2c-0.2,0.7-0.5,1.3-0.7,2c-0.6,1.5-1.8,2.3-3.4,2.3c-2.9,0.1-5.9,0-8.9,0c-1.7,0-2.7-1-3.2-2.5
			c-0.6-2-1.1-4.1-1.6-6.2c-3.7-15.3-7.4-30.7-11.1-46.1c0-0.1-0.1-0.3-0.2-0.6c-0.8,3.2-1.5,6.2-2.2,9.3c-3.4,14-6.7,28-10.1,42
			c-0.9,3.5-1.7,4.1-5.3,4.1c-2,0-4,0-6,0c-3,0-3.9-0.6-4.9-3.5c-1.5-4.6-2.9-9.3-4.3-14c-4.9-16.2-9.9-32.5-14.8-48.7
			c-0.2-0.8-0.5-1.7-0.6-2.5c-0.2-1.5,0.5-2.3,1.9-2.3c2.9,0,5.7,0,8.6,0c1.7,0,2.9,0.8,3.5,2.4c1,2.7,1.6,5.6,2.3,8.4
			c3.8,15,7.6,30,11.4,45C238.7,171.7,238.8,172,239,172.2z"/>
		<path class="st2" d="M257.2,257.5c-22.7,0-43-3.5-62.7-10.6c-18.5-6.7-35.4-16.2-50.7-28.6c-2.4-1.9-4.7-3.9-7-6
			c-0.1-0.1-0.1-0.1-0.2-0.2c-1.1-1.1-1.3-2.3-0.6-3.2c0.7-0.9,1.9-1,3.2-0.4c2.9,1.6,5.8,3.2,8.7,4.7c14.9,7.8,30.5,13.9,46.8,18.3
			c9.4,2.6,19,4.6,28.7,6c7.1,1,14.2,1.8,21.3,2.2c6.6,0.4,13.3,0.5,19.9,0.3c8.3-0.2,16.6-0.9,24.8-2c18.9-2.6,37.3-7.4,55.1-14.3
			c1.8-0.7,3.6-1.5,5.4-2.2c1.3-0.5,2.5-0.6,3.8,0.1c2,1.1,2.4,3.4,0.9,5.2c-1,1.1-2.4,1.9-3.6,2.8c-12,8.3-25.2,14.3-39,18.9
			c-11.1,3.6-22.4,6.1-33.9,7.6C270.4,257,262.9,257.5,257.2,257.5z"/>
		<path class="st1" d="M191,177.4c-1.4,1.5-2.8,3-4.4,4.3c-6,4.9-13,7-20.7,6.7c-4-0.2-7.9-1-11.3-3.2c-5.6-3.5-8.4-8.7-9.1-15.2
			c-0.5-4.6,0.1-9.1,2.3-13.3c3.1-5.7,8-9,14.1-10.8c5.2-1.5,10.6-1.6,15.9-1.1c3.9,0.4,7.7,1.1,11.4,1.9c0.3,0.1,0.8,0.4,0.8-0.4
			c-0.1-3.7,0.2-7.4-0.5-11.1c-1.3-6.5-4.6-9.5-11.2-10.4c-7.3-1-14.3,0.4-21.1,2.9c-1.4,0.5-2.8,1.1-4.3,1.6
			c-1.9,0.6-2.7-0.1-2.8-2c-0.1-1.6,0-3.2,0-4.8c0-1.7,0.8-2.9,2.3-3.6c2.5-1.3,5.1-2.3,7.7-3.1c7.8-2.4,15.7-2.9,23.8-1.6
			c4,0.7,7.8,2,11.1,4.5c4.6,3.5,6.6,8.4,7.6,13.9c0.5,2.6,0.6,5.2,0.6,7.8c0,8.1,0,16.2,0,24.3c0,1.9,0.2,3.8,0.5,5.7
			c0.4,2.9,1.7,5.5,3.1,8.1c1,2,0.8,3.2-1.1,4.5c-1.5,1.1-3.1,2.1-4.7,3.1c-2,1.3-3.4,1.1-5-0.7c-1.6-1.8-2.9-3.8-4-6
			C191.7,178.9,191.4,178.2,191,177.4z M177.8,154.1c-3.4-0.1-6,0-8.6,0.5c-4.3,0.9-7.6,3.1-9.1,7.4c-0.8,2.3-0.8,4.7-0.5,7
			c0.6,4.4,3.5,7.8,7.9,8.5c5.5,0.9,10.8-0.1,15.6-3.1c3.4-2.2,5.8-5.2,6.6-9.3c0.6-2.9,0.6-5.9,0.6-8.8c0-0.5-0.2-0.6-0.6-0.7
			C185.5,154.8,181.3,154.3,177.8,154.1z"/>
		<path class="st1" d="M341.1,113.6c5.4,0,10.6,0.9,15.7,2.7c0.9,0.3,1.8,0.7,2.7,1.2c2.2,1.2,3.4,2.9,3.2,5.5
			c-0.1,1.2,0,2.3-0.1,3.5c-0.1,1.7-1,2.3-2.7,1.9c-1.7-0.4-3.1-1.3-4.8-1.9c-6.6-2.2-13.2-2.8-20-1.2c-0.8,0.2-1.6,0.5-2.4,0.9
			c-6,2.6-6.3,10.9-1.3,14.2c2.8,1.9,6,3,9.2,4c4.6,1.5,9.3,2.7,13.8,4.6c4.1,1.7,7.6,4.2,9.9,8.2c4.6,8.1,2.5,18.9-5,25.2
			c-4,3.3-8.7,5.1-13.7,5.9c-9.2,1.6-18,0.3-26.7-3c-1-0.4-1.9-0.9-2.9-1.5c-1.5-0.9-2.2-2.2-2.2-3.9c0-1.5,0-2.9,0-4.4
			c0.1-2,1.1-2.8,3-2.1c2.4,0.8,4.6,1.9,7,2.6c6.1,1.8,12.4,2.5,18.7,1.6c2.5-0.4,4.9-1.1,7.1-2.6c4.8-3.3,5.3-11.3-0.6-14.5
			c-2.4-1.3-5-2.2-7.7-3.1c-4.6-1.5-9.4-2.6-13.9-4.6c-6-2.6-10.3-6.8-12.1-13.1c-2.2-7.4,0.4-15.2,6.5-20.1
			c4.8-3.8,10.4-5.6,16.5-6C339.2,113.5,340.2,113.6,341.1,113.6z"/>
		<path class="st2" d="M359.6,203.2c4.2,0.1,8.3,0.4,12.3,1.5c3.8,1.1,4.6,2.1,4.6,6c0,7-1.8,13.5-4.5,19.9
			c-2.5,6-5.9,11.3-10.8,15.7c-0.6,0.5-1.2,1-2,1.3c-0.6,0.2-1.2,0.2-1.7-0.2c-0.5-0.4-0.5-1-0.3-1.6c0.7-1.9,1.5-3.8,2.2-5.8
			c2-5.3,4-10.5,5.1-16.1c0.5-2.2,0.9-4.5,0.5-6.8c-0.2-1.5-1-2.5-2.4-3.1c-2.2-0.9-4.5-1.2-6.9-1.3c-5.7-0.2-11.3,0.2-17,0.8
			c-1.8,0.2-3.6,0.4-5.4,0.6c-0.7,0.1-1.5,0-1.9-0.7c-0.4-0.8-0.1-1.5,0.5-2.1c1.1-1.2,2.6-2,4-2.7c5-2.7,10.3-4.1,15.9-4.9
			C354.5,203.4,357.1,203.3,359.6,203.2z"/>
	</g>
	<g class="st3">
		<path d="M174.3,316.8c0-3.2-0.7-6-2-8.3c-1.3-2.3-3.4-3.4-6.1-3.4c-3,0-5.3,1-6.7,3c-1.4,2-2.1,4.2-2.1,6.6c0,3.6,1.1,6.4,3.4,8.5
			c2.3,2.1,5.2,3.9,8.6,5.4c3.5,1.5,7.2,3.1,11.1,4.6c4,1.6,7.7,3.6,11.1,6.2c3.5,2.5,6.3,5.9,8.6,10s3.4,9.5,3.4,16.1
			c0,11.6-3.3,20-9.9,25.2c-6.6,5.2-16.2,7.8-28.6,7.8c-5.9,0-11.1-0.5-15.6-1.4c-4.5-1-8.3-2.6-11.4-5c-3.1-2.4-5.5-5.5-7.1-9.4
			c-1.6-3.9-2.4-8.6-2.4-14.3v-3.8H156v2.6c0,4.7,0.9,7.9,2.6,9.8c1.7,1.9,4,2.8,6.7,2.8c2.9,0,5.2-1,6.8-3c1.6-2,2.4-4.5,2.4-7.5
			c0-3.6-1.1-6.4-3.3-8.5c-2.2-2.1-4.9-3.9-8.2-5.3c-3.3-1.5-6.9-3-10.7-4.5c-3.9-1.5-7.4-3.5-10.7-5.9c-3.3-2.4-6-5.6-8.2-9.6
			c-2.2-4-3.3-9.1-3.3-15.5c0-11.1,2.9-19.5,8.8-25.3c5.9-5.8,14.8-8.7,26.8-8.7c12.4,0,21.4,2.7,26.9,8c5.5,5.3,8.3,13.8,8.3,25.5
			h-26.5V316.8z"/>
		<path d="M254.9,288c8.2,0,14.6,1.5,19.2,4.5c4.6,3,8,7,10.3,12c2.3,5,3.7,10.8,4.2,17.4c0.5,6.6,0.8,13.4,0.8,20.5
			c0,7.1-0.3,13.9-0.8,20.5c-0.5,6.6-1.9,12.3-4.2,17.4c-2.3,5-5.7,9-10.3,12c-4.6,3-11,4.5-19.2,4.5h-41.1V288H254.9z M247.8,376.4
			c2.7,0,4.9-0.4,6.6-1.1c1.6-0.8,2.9-2.4,3.7-4.8c0.9-2.4,1.4-5.9,1.7-10.4c0.3-4.5,0.4-10.4,0.4-17.7c0-7.3-0.1-13.2-0.4-17.7
			c-0.3-4.5-0.8-7.9-1.7-10.4c-0.9-2.4-2.1-4-3.7-4.8c-1.6-0.8-3.8-1.1-6.6-1.1h-5.6v68H247.8z"/>
		<path d="M328.5,288v41.7h0.3l21-41.7H380l-27.4,47.5l30.8,61.3h-32.3l-16.6-37.9l-5.9,9.1v28.8h-28.3V288H328.5z"/>
	</g>
</g>
</svg>
