<?xml version="1.0" encoding="utf-8"?>
<!-- Generator: Adobe Illustrator 24.2.0, SVG Export Plug-In . SVG Version: 6.00 Build 0)  -->
<svg version="1.1" id="Capa_1" xmlns="http://www.w3.org/2000/svg" xmlns:xlink="http://www.w3.org/1999/xlink" x="0px" y="0px"
	 viewBox="0 0 512 512" style="enable-background:new 0 0 512 512;" xml:space="preserve">
<style type="text/css">
	.st0{fill:#FF9900;}
	.st1{fill:#FFFFFF;}
</style>
<g id="Icon">
	<circle class="st0" cx="256" cy="256" r="255.3"/>
	<g>
		<path class="st1" d="M200.3,239.6c0,3.1,0.3,5.7,0.9,7.5c0.7,1.9,1.5,3.9,2.7,6.1c0.4,0.6,0.6,1.3,0.6,1.9c0,0.8-0.5,1.7-1.6,2.5
			l-5.3,3.5c-0.6,0.4-1.4,0.7-2.2,0.7c-0.8,0-1.7-0.4-2.5-1.2c-1.1-1.2-2.1-2.5-3-4c-0.9-1.6-1.8-3.3-2.6-5
			c-6.6,7.8-15,11.7-25,11.7c-7.1,0-12.8-2-17-6.1c-4.1-4.1-6.3-9.5-6.3-16.3c0-7.2,2.5-13.1,7.7-17.5c5.2-4.4,12.1-6.6,20.8-6.6
			c2.9,0,5.9,0.2,9,0.7c3.1,0.4,6.4,1.1,9.8,1.9v-6.2c0-6.4-1.3-11-4-13.6c-2.7-2.6-7.3-3.9-13.8-3.9c-3,0-6,0.3-9.2,1.1
			s-6.2,1.7-9.2,2.9c-0.9,0.4-1.9,0.8-3,1.1c-0.4,0.1-0.9,0.2-1.3,0.2c-1.2,0-1.8-0.8-1.8-2.6v-4.1c0-1.3,0.1-2.4,0.6-3
			c0.6-0.7,1.4-1.4,2.4-1.8c3-1.5,6.5-2.8,10.7-3.8c4.3-1.1,8.8-1.6,13.3-1.6c10.1,0,17.5,2.3,22.2,6.9c4.7,4.6,7,11.5,7,20.9
			L200.3,239.6L200.3,239.6z M165.8,252.5c2.8,0,5.7-0.5,8.7-1.5c3-1,5.8-2.9,8.1-5.4c1.3-1.6,2.4-3.4,2.9-5.4s0.8-4.5,0.8-7.4v-3.5
			c-2.6-0.6-5.2-1.1-7.8-1.4c-2.6-0.3-5.3-0.5-8-0.5c-5.7,0-9.9,1.1-12.7,3.4c-2.8,2.3-4.1,5.5-4.1,9.8c0,4,1,7,3.1,9
			C159,251.5,161.9,252.5,165.8,252.5z M234,261.7c-1.5,0-2.5-0.2-3.2-0.8c-0.7-0.5-1.3-1.7-1.8-3.3L209,191.9
			c-0.4-1.1-0.6-2.2-0.7-3.4c0-1.3,0.7-2.1,2-2.1h8.3c1.6,0,2.7,0.2,3.3,0.8c0.7,0.5,1.2,1.7,1.7,3.3l14.3,56.2l13.3-56.2
			c0.4-1.7,0.9-2.8,1.6-3.3c1-0.6,2.2-0.9,3.4-0.8h6.8c1.6,0,2.7,0.2,3.4,0.8c0.6,0.5,1.3,1.7,1.6,3.3l13.4,56.9l14.7-56.9
			c0.5-1.7,1.1-2.8,1.7-3.3c1-0.6,2.1-0.9,3.3-0.8h7.9c1.3,0,2.1,0.7,2.1,2.1c0,0.4-0.1,0.8-0.2,1.3c-0.1,0.7-0.3,1.4-0.6,2.1
			l-20.4,65.6c-0.5,1.7-1.1,2.8-1.8,3.3c-0.9,0.6-2.1,0.9-3.2,0.8h-7.3c-1.6,0-2.7-0.2-3.4-0.8c-0.6-0.6-1.2-1.7-1.6-3.4l-13.2-54.8
			l-13.1,54.7c-0.4,1.7-0.9,2.8-1.6,3.4c-0.7,0.6-1.9,0.8-3.4,0.8L234,261.7z M343.1,264c-4.4,0-8.8-0.5-13.1-1.5
			c-4.2-1-7.5-2.1-9.8-3.4c-1.3-0.7-2.3-1.6-2.6-2.4c-0.3-0.7-0.5-1.5-0.5-2.4v-4.3c0-1.8,0.7-2.6,1.9-2.6c0.5,0,1,0.1,1.5,0.2
			c0.5,0.1,1.3,0.5,2.1,0.8c2.9,1.3,6,2.3,9.3,3c3.4,0.7,6.7,1,10.1,1c5.3,0,9.5-0.9,12.4-2.8c2.8-1.7,4.5-4.8,4.4-8.1
			c0-2.2-0.7-4.3-2.3-5.9c-1.5-1.6-4.4-3-8.6-4.4l-12.3-3.8c-6.2-1.9-10.8-4.8-13.6-8.6c-2.7-3.5-4.2-7.9-4.2-12.3
			c0-3.5,0.8-6.7,2.3-9.4c1.5-2.7,3.5-5.1,6.1-7c2.5-1.9,5.4-3.4,8.8-4.4c3.4-1,7-1.4,10.7-1.4c1.8,0,3.8,0.1,5.7,0.3
			c1.9,0.2,3.7,0.6,5.5,0.9c1.7,0.4,3.3,0.8,4.8,1.3c1.5,0.5,2.7,1,3.6,1.5c1,0.5,1.9,1.2,2.5,2.1c0.5,0.8,0.8,1.8,0.7,2.8v4
			c0,1.8-0.7,2.7-1.9,2.7c-1.1-0.1-2.2-0.5-3.2-1c-5.1-2.2-10.7-3.4-16.3-3.3c-4.8,0-8.7,0.7-11.3,2.4c-2.6,1.6-4,4.1-4,7.5
			c0,2.4,0.8,4.4,2.5,6c1.7,1.6,4.8,3.2,9.3,4.7l12.1,3.8c6.1,1.9,10.5,4.7,13.2,8.2c2.6,3.5,3.9,7.5,3.9,11.9c0,3.6-0.7,7-2.2,9.9
			c-1.5,2.9-3.6,5.4-6.2,7.5c-2.6,2.1-5.8,3.6-9.4,4.7C351.4,263.4,347.5,264,343.1,264z M359.2,305.2
			c-27.9,20.6-68.5,31.6-103.4,31.6c-48.9,0-93-18.1-126.3-48.2c-2.6-2.4-0.2-5.6,2.9-3.7c36,20.9,80.4,33.6,126.4,33.6
			c31,0,65-6.4,96.4-19.7C359.8,296.6,363.8,301.8,359.2,305.2z M370.8,292c-3.6-4.6-23.6-2.2-32.7-1.1c-2.7,0.3-3.1-2-0.6-3.8
			c16-11.2,42.2-8,45.3-4.2c3,3.8-0.8,30.1-15.8,42.6c-2.3,1.9-4.5,0.9-3.5-1.6C366.8,315.4,374.4,296.5,370.8,292z"/>
	</g>
</g>
</svg>
