<?xml version="1.0" encoding="utf-8"?>
<!-- Generator: Adobe Illustrator 24.2.0, SVG Export Plug-In . SVG Version: 6.00 Build 0)  -->
<svg version="1.1" id="Capa_1" xmlns="http://www.w3.org/2000/svg" xmlns:xlink="http://www.w3.org/1999/xlink" x="0px" y="0px"
	 viewBox="0 0 512 512" style="enable-background:new 0 0 512 512;" xml:space="preserve">
<style type="text/css">
	.st0{fill:#5B4282;}
</style>
<path class="st0" d="M306,260.5c-9.6-3.1-23.3-2.5-41.3-2.5h-72.2v94.2h77.2c12.1,0,20.5-1.3,25.4-2.2c8.6-1.5,15.8-4.5,21.6-8.1
	c5.8-3.6,10.5-9,14.2-15.9c3.7-6.9,5.6-14.9,5.6-23.9c0-10.5-2.7-18.6-8.1-26.4C323,268,315.5,263.7,306,260.5z M296.1,217.4
	c9.5-2.8,16.6-7.7,21.5-14.3c4.8-6.5,7.2-14.9,7.2-24.8c0-9.4-2.2-17.7-6.7-24.8s-10.9-9.9-19.2-12.5c-8.3-2.6-22.7-1.8-42.9-1.8
	h-63.3v81.9h67.9C277,221.2,288.9,219.6,296.1,217.4z M512,68.1C512,30.5,481.5,0,443.9,0H68.1C30.5,0,0,30.5,0,68.1v375.8
	C0,481.5,30.5,512,68.1,512h375.8c37.6,0,68.1-30.5,68.1-68.1V68.1z M366.8,338.9c-5.6,11.4-12.5,20.1-20.7,26.3
	c-8.2,6.2-18.5,11.4-30.9,14.5c-12.4,3.1-27.6,5.3-45.5,5.3h-114V102.4H268c21.6,0,38.9,2.5,51.9,8.2c13,5.7,23.2,14.3,30.6,26.2
	c7.4,11.9,11.1,24.2,11.1,37.2c0,12.1-3.3,23.4-9.8,34c-6.5,10.7-16.4,19.2-29.6,25.8c17.1,5,30.2,13.5,39.4,25.6
	c9.2,12.1,13.8,26.3,13.8,42.7C375.2,315.3,372.4,327.6,366.8,338.9z"/>
</svg>
