<?xml version="1.0" encoding="utf-8"?>
<!-- Generator: Adobe Illustrator 24.2.0, SVG Export Plug-In . SVG Version: 6.00 Build 0)  -->
<svg version="1.1" id="Capa_1" xmlns="http://www.w3.org/2000/svg" xmlns:xlink="http://www.w3.org/1999/xlink" x="0px" y="0px"
	 viewBox="0 0 512 512" style="enable-background:new 0 0 512 512;" xml:space="preserve">
<style type="text/css">
	.st0{fill:#FFFFFF;}
	.st1{fill:#ED8A8A;}
	.st2{fill:#A7D5A8;}
	.st3{fill:#F9D472;}
	.st4{fill:#76A9D8;}
	.st5{fill:#D8ABD7;}
	.st6{fill:#72D4D7;}
</style>
<path class="st0" d="M512,256c0,33.4-6.4,65.2-18,94.4c-6.2,15.6-13.9,30.5-22.9,44.5c-11.2,17.4-24.5,33.3-39.5,47.4
	c-8.8,8.3-18.1,15.9-28,22.9C361.8,494.7,310.9,512,256,512s-105.8-17.3-147.5-46.7C96.1,456.5,84.6,446.7,74,436
	C28.2,389.8,0,326.2,0,256S28.2,122.2,74,76c11.2-11.4,23.5-21.7,36.7-30.8C152,16.7,202,0,256,0s104,16.7,145.3,45.2
	c10.1,6.9,19.6,14.6,28.6,22.9c15.7,14.5,29.5,31,41.2,49c9,13.9,16.7,28.8,22.9,44.4C505.6,190.8,512,222.6,512,256z"/>
<g>
	<path class="st1" d="M75.9,311.3l-7.1-4.7l-3-4.3L58.4,292l-1.1-3.2l-2.1-4.8l-4-13.4l-1.4-7.6l-0.4-3.1l-0.9-2.8v-4l-0.5-3.1
		v-17.4l2.5-19.6l1.3-2.8l0.7-5.1l2.3-5.7l0.9-3.6l2.1-4.5l1.8-3.1L62,183l4.7-5.9l1.2-1.7l4.3-4.5l2.5-1.7l5.1-4.3l3.8-1.2l6.3-2.2
		h5.9l3.6-1.3l4,1.7l5.9,0.8l4.3,1.8l1.9,0.7l1.5,1.5v4l-2.4,5.1l-0.8,3.8l-2,4.1l-0.4,3l-1.6,2.3l-1.2,1.8h-1.3l-5.7-3l-5.2-0.7
		l-3.9,1.4l-2.4,0.7l-1.6,2.8l-3.1,1.2l-1.3,3.6l-2.5,1.7l-0.7,4.1l-2.5,2.6L76,215.6l-1.7,5.3l-0.4,5.9l-0.3,1.3l-0.9,11.6v15.7
		l1.2,5.3l0.4,4l0.4,1.4l1.7,6.2l2.6,5.6l6.8,9l3.5,1.7l5.9,0.7l10.4-5.4h2.3l3.3,5.8l1.6,4.7l2.8,4.1l0.5,1.8l1.4,3.7l-0.8,1.7
		l-2,1.3l-3.9,3.7l-3.8,2.1l-5.6,1.2l-3.6,1.8l-3.8-0.8l-3.3,0.9l-6.4-1.2L75.9,311.3L75.9,311.3z M96.8,313.8l3-1.3l6-0.9l4.3-2.5
		l3.7-3.2l1.6-1.4v-1.4l-1.6-3.6l-0.4-1.3l-2.4-4l-1.5-4.4l-2.3-3.9l-3.3,0.8l-2,2.1l0.9,0.9h2.1l2.7,2.2l1.6,3.5l2,1.4l0.4,1.5
		l-0.8,0.9l-1.3-0.9l-0.4-0.9l-1.8-1.3l0.5-0.9l-0.9,0.5l-2.5-1.4v-2.2l-1.2,0.6l-1-1h-0.4v-1.8h-2.9l-2.5,0.9H90l-2.9-1l-3.2-2.2
		l-5.4-7.5l-3-6.2L73,266l-0.9-2.3v-3.9l-0.8-2.5l-0.5-4.7l-0.4-1.7v-10.7l0.9-2.6V228l1.3-4v-3.9l1.2-4l0.4-1.8l1.3-4l1.6-6.1
		l2.1-2.3l0.7-4l2.6-1.8l1.4-3.1h-1.6l-1.3,0.7l0.9,1.5l-0.4,0.5h-1.6l-0.5,1.7l-5-3.9l-1.6-1.8l-7.7-6.2l0.9-0.9l-0.7-1.1l3.6-0.8
		l3.9,3.3h1.1V185l-4.2-3v-2.1l1.6-1.8h0.9l1.6,2.3l3.1,3.1l7.8,5.5l-0.7,2.1v1l3.1-1.5l1.1-1.3l-2.8-1.5l-2.9-3.1l-2.1-1.7
		l-1.3-1.4l-2.1-1.3l-1.7-1.4l-2.5-1.8l0.4-0.3v-0.9l0.4-0.9l-0.4-0.9h2.8l3.5,3.1l1.2,0.9l2.2,1.8l2.5,1.7l1.2,1.3l3.9,2.3l0.7,0.7
		l-3.1,2.2l4.6-0.8l2.7-2.3l-4.2-0.7L90,183l-2.6-2.3l-4.6-4.8l-0.7-1.3l-1.5-0.6l-1.2-1.3l-0.9,0.5h-0.7l0.7-1.4l-1.6-1.7l-5.9,3.8
		l-2.6,4.2l-4.3,5l-7.3,14.8l-0.3,1.7l-1.3,4l-0.4,2.3l-1.1,2.3l-0.5,3l-0.9,3.6l-0.4,3.6l-1.1,4.5l-0.7,9.3l-0.8,2.7l0.4,2.8v12.4
		l1,3.5l2.7,2.4l1.3,0.3l0.9,0.9l3.4,3.1l1.6,1.8l1.7,0.9l3.8,3.1l0.8,0.5l0.4,0.5l4.3,3.6l0.6,2l2.7,2.9v2l-2.4-0.9l-0.5-1
		l-1.8-0.9v-1.7h-1.2v-0.5l-2.5-0.9l-4.7-4.8h-0.4v-0.5h-1.3l-2.1-2.3l-1.3-0.3l-0.3-0.5l-2.6-1.8h-0.5l-1.1-1.7l-0.9-0.9l-0.9-2.7
		l0.4-0.5l-0.4-0.5l-0.7,1.4l1.7,5.5l1.1,1.1v0.5h-0.9v0.3l2.4,0.6l0.5,1.3l1.8,0.9l1.6,1.7l2.9,1.8l0.9,0.8l0.9,0.5l2.5,2.3
		l4.6,3.2l2,3.1l9.5,8l2.9,3.1l2.6,0.9l0.3,0.3l1.7,0.5l2,1l-1,1l6.7,5.5l1-1l1.5,1l0.9,0.5v0.9l-1.8-0.9h-0.4l1.8,1.8h2.1l7.3,5.8
		h-2.2l-0.4,0.5l-1.7,0.9h-1.2l-3-3.2v-0.7l-1.7-0.6l-1.6-1.8l-1.3-0.8l-1.7-1.8h-0.8l-0.9-0.9l-1.3-0.5l-1.4-1.5l-3.2-2.1l-1.7-1.7
		l-1.6-0.9l-2-2l-1.9-0.7l-2.2-1.5l-2.6-3.7l-2-1l-0.4-0.5l-0.9-0.5l-0.9-0.9h-0.3l-1.3-1.3l-1.3-0.5l-2.1-2.3l-1.3-0.8v-0.9
		l0.9-0.9l-1-0.6l-1.5,0.6l-2.5-1.7l-0.4-0.5l-1.3-0.9l-2.5-2.7l-1.3-0.5l-0.9-0.9v-3.1l-1.2-1.4v3.6l1.5,5l5.7,4.5l4.2,2.2l1,2.1
		l1.2,0.6l8,7.2l1.3,1.4l2.1,1.4l2.6,2.2L87,300l0.3,0.5l3.4,2.6l0.9,0.9l4.3,3.1l2.5,2.3l1.3,0.8v0.9l-0.9,0.5l-1.4,1l-2-1l-3.8-4
		l-2.2-1.1l-2.8-2.4l-1.7-0.9v-1.3l-0.9,0.5l-3-1.8l-2.1-1.7l-3.8-2.8l-4.7-4.8l-2.5-1.8l-0.4-0.8l-3.6-2l-1.9-3h-0.8l-3.1-2.6h-0.8
		l-0.5-2.3l-1.2-1.3l0.4-0.5l-2.2-2.9v0.8l1.7,4.7l1.7,5.6l2.1,2.9v-1.8h0.8l7.7,5.9l3,3.1l2.6,1.7l0.3,0.5l4.3,3.1l2.9,2.7
		l10.7,8.4l-2.2,0.7l-2.2-0.6h-1.2v-0.5h-0.9l-2.6-0.7l-0.8-1.5l-1.6-0.9l-3.8-3.1v-1.4h-1.3l-1.3-0.8l-0.8-1.8h-0.4l-1.6-1.2
		l-0.9-2l-1.1,1.2l-1.5-1.6l-1.6-1.4l-0.4-0.3l-1.3-0.7l-1.2-2.1l-1.8-1.7l-0.4-1.4l-0.4-0.5v1.8l0.7,1.8l2.4,3l3.4,5.2l3.7,2.5
		l0.4-0.9l1.7,1.7l0.9,0.5l4.6,3.2v1.2l-1.6-1.3l-3-1.5v0.6l1.2,1.4l5.1,2.7l7.5,2.6L96.8,313.8L96.8,313.8z M69.6,264.2l-0.4-0.5
		h-1.9l-7.1-5.8l-1.6-1.8l-1.8-0.8l-1.2-1.4l-3.9-3l-1-2l0.7-1.3l0.4-1.4l0.9,0.5h1.5l2.6,2.2v0.5h-0.3v1.4h1.6l0.9-0.5l-0.7,1.3
		l7.4,6.3l1.6,1.8l1.7,0.8l0.4,0.9l1.6,1.8l-1.1,0.5l1.1,1.7l-0.4,0.5l-1.7-1.3L69.6,264.2L69.6,264.2z M67.5,245.4l-1,0.6l-1.5-0.6
		l-0.9-0.8l-2.5-1.8l-0.4-0.9l-2-0.9l0.8-0.8v-0.5l-1,0.5l-2.1-1.4h-0.3V237h1.6l0.4,0.9h0.4l1.6,1.2v-1.6l-3.7-2l-0.4,1h-0.4
		l-0.4,0.5h-1.2l-1.3-2.3l-0.9-0.3v-0.9l-1.1-1.7l1.2-2.5l6.7,5.2l0.9,0.8l5.5,4.5l3,3.1l-2.4,0.5l1.5,0.9l1.7,1.7v0.9l-0.4,0.5
		l-0.4,0.9l-0.9-0.9L67.5,245.4L67.5,245.4z M66.7,254.4l-0.9-0.5l-3-2.2l-0.9-0.5v-1.4l-0.7,0.7l-4.8-3.8l-4.3-4.5v-1.3l1.1-0.6
		l-1.5-1.7l2-0.6l8.6,7.3l0.4,0.5l3.8,3v0.6l-3.1-1.8v1l4.7,3.9v3.6L66.7,254.4L66.7,254.4z M64.9,237.5l-1.3-1.4l-1.2-0.5v-0.5
		l-1.8-0.8l-5.5-4.5l-3-3.1l0.4-0.5l0.4-0.9l0.5-0.6l-0.8-1.6h1.4l1.3,1.3l1.6,0.9l5.6,4.5l1.2,0.9l0.9,0.8l3.8,3.2v1.7l-0.4,1.4
		v2.6l-2.5-2.6L64.9,237.5L64.9,237.5z M56.5,235.4v-1.3l-3.8-2.4l1.1,2.3L56.5,235.4L56.5,235.4z M62.9,228.5l-5.1-4.5l-1.6-1.7
		l-2.6-1.4v-1.3h0.9l0.4,0.5h1.1l2.3,1.7l2.5,1.8l3.7,3.1h1v-1l-4.3-3l-5.5-5.9h0.4l4.6,3.6l1.3,0.5v-0.7l-6.3-5.2v-3l11,8.4h1.2
		v-0.9l-3.8-3l-5.5-5.4l-1.2-0.6l-0.5-1.6l-1.1-1.3l1.8-0.6l-1-2.2h0.8l1.7,1.3l3.7,2.4l4.3,3.9l4.3,3.5v3.7l-1.2,1.3l-1.3,0.5
		l0.4,0.9l0.4,1.4l0.4,0.8v1.8l-0.4,0.5l-0.9,1.7l-0.5,0.6l1.4,2.1l-0.9,1.8l-3.4-1.8L62.9,228.5L62.9,228.5z M54.8,242.3v-0.8h-0.9
		L54.8,242.3L54.8,242.3z M55.2,226.8h0.4v-0.9h-0.9L55.2,226.8L55.2,226.8z M57.3,228h0.4v-0.5h-0.9C56.9,227.6,57.3,228,57.3,228z
		 M65.4,208.4l-1.3-0.9l-0.4-0.5l-5.9-4.1v-1.2l1.8-0.6v-1.3l-0.4-0.9h1.6l1.3,1.4l2,1l1,2.1h0.9l2.5,1.8l0.4,0.5l4.3,3.3v1
		l-1.3,1.4v2.5l-2.5-1.6L65.4,208.4L65.4,208.4z M59,229.4h0.4V229h-0.9L59,229.4L59,229.4z M71.3,205.8l-2.1-1.8h-0.9v-2.2
		l-1.1,0.6l-1.9-2v-0.9h-1.3l-1.2-1.3l-0.4-1.8l-1.5,1l-0.7-2.3l1.3-1.4H62V192l11.3,9.1l2.3,2.4l-0.4,0.9l0.7,1.4l-1.5,0.8v0.9
		l-0.4,0.5l-0.5-1.3L71.3,205.8L71.3,205.8z M62,232.1h0.7l-1.1-1.7h-1.3v1.2L62,232.1L62,232.1z M75.1,201.3l-0.9-0.9l-6.3-4.5
		l-2.5-2.7l-0.4-0.9l-1.7-0.6l-0.8-1.6l1.6-0.9v-1.7l-0.4-0.9h1.3l2.5,2.6l2.2,1.4l5.9,4.8l3.6,3.8l-2.5,2.8l-0.7-0.7H75.1
		L75.1,201.3z M63.6,206.1l0.9-0.3h0.4v-0.5l-0.9-0.5l-0.8,0.9L63.6,206.1L63.6,206.1z M65.4,242.8l0.9-0.5l-2.6-2v1.3L65.4,242.8
		L65.4,242.8z M64.1,234.4h0.4v-0.5L64.1,234.4L64.1,234.4z M66.7,235.6v-0.9h-1.3l-0.4,0.5h0.9L66.7,235.6L66.7,235.6z M67,228h0.4
		l-0.8-0.8h-1.3L67,228L67,228z M67.5,225.9h0.4v-0.5h-0.4V225.9L67.5,225.9z M67.9,218.7h0.4l-0.4-0.5V218.7L67.9,218.7z
		 M68.3,250.4v0.5l-0.4-0.5H68.3z M68.8,256.2h0.4l0.9,0.9v0.5h-0.4l-0.9-0.9V256.2L68.8,256.2z M106.5,188.7h1.3l1.1-1.2l3.3-8.5
		l0.7-3.2l2.5-5.4v-1.8l-4.2-3l-6.8-1.8l-4.2-1.4l-1.4,0.9h-6.8l-4.3,0.9l-7.5,2.7l-2.6,2.8v0.3h3l3.5,1.8l8.8,7.6l3,2.2l3.4,3.6
		l-0.4,0.5l4.6,0.9L106.5,188.7L106.5,188.7z M79.8,191h0.4l-0.4-0.5V191z M104,185.6l-2.6-2.2l0.9-0.5v-0.5h-0.9l-0.5,0.7l-4.2-4.4
		l-1.2,0.6l-1.3-1.4l-0.3-1.3h-1.3l-3.4-3l1.3-0.6l-1.8-0.6v-3l-1.6-0.9h-3.4l1.6-0.9v-1.5l1.7,0.6l0.3,0.9h1.7v1.4h1.3l3.7,3.1
		l1.3,0.9l2.1,2.2l5.7,4.1l1.5,1.6l0.7,1.4h1.3l1.2,2.5l-1.9,2l-0.4-0.5C105.6,186.5,104,185.6,104,185.6z M84.4,308.5h0.9l-0.9-0.5
		V308.5L84.4,308.5z M89.1,171.3H90v-0.9L89.1,171.3L89.1,171.3z M91.6,294.7l0.4,0.5h-0.4l-0.4-0.5L91.6,294.7L91.6,294.7z
		 M97.2,171.8l-0.4-0.5l0.4-0.5l-2.2-0.5v-0.5l1.5-0.8l-1.1-0.5l-0.9-0.9L94,169l-2.4-1.7v-0.5l1.7,0.9l0.4-0.5l0.8-0.5l-0.4-0.8
		l-1.1,0.6l-1.4-2h3l5.6,4.5l0.4,0.8h0.8v1.2l-2.1-1.2h-0.9v0.5l2,2.2l0.5-1.3l0.4,0.5l-0.8,1.4h-2.9L97.2,171.8L97.2,171.8z
		 M108.6,305.8l-2.5-2.8l-2.1-1l-3.1-3.8v-2.3l-0.8-0.8l-0.9-0.5l-0.9-0.9v1.9h-1.6l-2.5-2.7l2.6-1.7l3.3,2.5l1.2,0.9l0.9,0.9
		l0.9,0.3l0.9,0.9l3.2,2.3h1l1.4,3l2.8,1.4v1.4l-2.5,1.4v-1.1L108.6,305.8L108.6,305.8z M105.8,179.9l-0.7-1.4l1.8-0.6v-1.6h-0.9
		v1.3h-0.7l-0.7-1.3h-2.1v-1.8l-0.4-0.5l-0.4,0.5h-2.1l0.4-0.5h0.8l0.8-1.5l2.3,0.8l-0.4-1h0.9l1.6,1.7v1.6l1.3-0.7l2.1,1.8v0.3H109
		v0.5h2.2v1.8l-1.3,1.3h-1.3l-0.8-0.8L105.8,179.9L105.8,179.9z M109,172.7h-0.4l-0.4,0.5h-1.2l-0.9-1.8l-2-1l-0.9-1.7l-1,0.6v-0.9
		l-1.6-1.9h-0.4v-0.8l0.5-0.6l-0.8-1.6l4.8,1.7l2.6,2.7l0.8,1.4l0.9,0.5l0.4,0.3l2.4,1l0.7,2.8l-0.8,1.6h-1.4L109,174L109,172.7
		L109,172.7z M103.1,171.8h-0.9v-0.5L103.1,171.8L103.1,171.8z M102.2,297.8l0.4-0.5v-0.5l-0.4,0.5V297.8z M109,166.8v-0.5h2.2
		l1.2,1.4l0.4,0.9l1.1,1.6l-2.4-1.2L109,166.8L109,166.8z"/>
	<path class="st2" d="M130.5,315.5l-1.6-1.7v-7.6l-0.7-2.9l0.8-3.3l-0.7-6.8l0.9-8.1l-1-3.9l0.7-3.5l-0.7-6.8l1-7.6l-1-4.3l0.7-3.1
		l-0.5-7.1l0.9-8l-1-3.8l0.7-3.6l-0.7-6.8l1-7.6l-1-3.9l0.7-3.5l-0.5-7l0.9-8.1l-1-3.8l0.7-3.6l-0.7-6.8l1-7.6l-1-4l0.7-3.6v-4.3
		l1.2-1.4l19.6-0.7l2.6,1.4l0.8,2.4v7.6l0.4,2.8l-0.4,2.2v17l0.4,3.2l-0.4,2.1v17.1l0.4,2.9l-0.9,3.6l1,3.8h27.8l0.5-16.3l-0.5-2.3
		l0.5-19.6l-0.5-2.8l0.5-19.2l-0.7-3.1l1-1l1.3-0.5l2.7-1.2l16.9,0.7l2,1.4l0.8,2.2v147.4l-1,3.1h-4.5l-10.8,0.5l-6.2-0.5l-1.6-1.7
		v-15.2l-0.4-2.1l0.5-19.6l-0.5-2.8l0.5-20.6l-0.9-0.9h-28v7.9l0.4,2.8l-0.4,2.2v16.9l0.4,3.2l-0.4,2.2v16.9l0.4,3l-0.4,2l-0.5,5.2
		l-3.7,1H142l-3-0.5L130.5,315.5L130.5,315.5z M141.5,314.5l1.4-0.7l-2.2-0.5l-0.3-0.5h-1.8l-1.3-0.5h-1.6V311h-1.3l-1.2-0.6v-3
		l0.8-0.5l-1.2-1.7v-0.9h0.8l3.5,3.1l0.8,0.5l2.4,1.8l-0.7,1.3l1.4-0.7l3.7,3.5h5.9l0.7-0.8l-0.9-3.5l1.6-2.5l-0.6-3.1v-12.5
		l-1.1-3.6l1.7-3.1l-0.6-3.1v-12.1l-0.9-3.9l1.4-3.1l-0.5-2.8v-9h12.8l6.8-0.5l11.7,0.5l1,4.5v16.9l-0.7,2.1l0.7,3.3v16.5l-0.7,2.1
		l0.7,3.3v12.9l0.7,1.4h16.3l2.5,0.3l0.9-0.3v-2.8l0.8-3.9l-1-4.3l0.7-2.1v-8.4l-0.5-2.8l0.8-4l-0.8-5l0.5-2.2v-7.9l-0.4-3l0.7-4.4
		l-0.8-4.8l0.5-2.1v-7.6l-0.5-2.9l0.9-4.7l-1-4l0.7-2.6v-8.1l-0.4-2.9l0.7-4.5l-0.8-4.7l0.5-2.2v-8.1l-0.5-2.7l0.8-4.1l-0.8-4.8
		l0.5-2.2V182l-0.5-2.9l0.9-4.5l-0.9-4.3l0.5-2.2V165l-0.5-1.7l-12.2-0.6l-8,0.9l-0.5,0.6l0.5,2.5v17.1l-0.8,1.5l0.8,3.8v16.6
		l-0.7,2l0.7,3.3v16.6l-0.7,0.7l-13.1,0.7l-3.2-0.6h-14.9l-0.4-3.6l-0.9-3.3l1.4-3.1l-0.5-2.9v-12.6l-0.9-3.3l1.4-3.1l-0.5-3.3
		v-12.9l-1.2-2.5l-0.4,2.5h-0.9l-6.3-5l-3.4-3.1l-6.8-5.5v-0.7h0.9l0.4,0.5l0.3-1.4h2.2l3.4,1.7l3.4,2.8l1.2,0.8l5.1,4v1.8l0.9,0.9
		l1.9-2.8l-0.6-3.1l-0.4-7.6l-0.9-0.9l-4.6,0.5h-14l-0.9,0.9v3.9l1.7,0.6l2.1,1.7l1.3,0.9l2.5,2.3l4.7,3.6l0.4,0.3l4.6,4l0.4,1.8
		l1.5,1.5l-0.8,0.8l0.5,1.7l-1.1,0.6l-3-2.3l-0.7-1.4l-2.1-1.2v-0.7l-1.7-0.6V181h-0.8l-0.4-0.3l-0.9-0.5l-5.9-5l-2.3-4.7l0.5-1
		l-0.5-0.6l-1.1,2.2l1.1,4.6h1l0.9,0.9l0.9,0.5l0.3,0.3l5.6,4.5l1.6,1.8l2,0.9l4.4,3.9l0.9,0.5l0.8,1.6l-3.2-2.3l0.8,1.6l2.1,1.6
		v1.5l0.4,0.9v1.7h-0.9l-2.5-2.7l0.7-1.4l-2.2,0.7l-1.4-1.5l-2.4-2l-0.5-1.2l-2-0.7l-1.9-2.1l-0.9-0.5v-1.2l0.4-0.5h-0.9l-0.4,0.5
		h-0.7l-0.5-1.4l-0.4-0.5l-0.4-0.8l-1.3-1.4l-0.5,2.7v5.4l0.7,2l-1.3,4.3l0.7,3.1v16.6l-0.7,2.2l0.7,3.6v16.5l-0.7,2.3l0.7,3.1v16.5
		l-0.7,2.2l1.1,5.9l0.4,0.5l-0.9,0.9v12.9l-0.7,2.2l0.7,3.6l0.4,3.2l1.7,0.8l-0.4,0.9l-1.3-0.9l-0.4,3.1v9l-0.7,2.2l0.7,3.6l0.4,5.4
		l0.9,0.9h0.9l-1.3-1.4h1.5l0.7,1.4h3.7L141.5,314.5L141.5,314.5z M133.9,215.9v-0.5l-1.6-0.9l0.4-0.9l-1.1-1.6l0.7-0.6V211l0.4-0.5
		l1.6,1.8l1.8,0.9l0.9,1.3v0.5l-1.3-0.7v0.7l1.6,1.2l0.5-1.5l1.6,1.7v0.5h0.4v2.6h-1.8l-1.6-0.9L133.9,215.9L133.9,215.9z
		 M145,304.8l-11.6-9.8l-0.7-1.4l-1.1-1.6l1.2-1.2l1.4,0.7l-0.6-1.5h0.3l3.4,2.7l1.3,0.9l1.3,1.4h-0.4l-2.2-1.4v0.7l3.1,2.3v-1.2
		h0.3l0.4,0.5l2.2,1.3l0.5,1.3l-2.1-1.2l1.6,2.5h1.3l-0.7-1.3h0.4l1.7,1.3l0.9,1.4h0.8l2.2,2.2v0.9l-0.4,0.5l-0.4,1.4l0.9,1.3v1.3
		l-2.6-2.1L145,304.8L145,304.8z M139.5,259.7l-1.3-0.9l-2.1-1.8l-1.7-0.8l-2.5-2.8v-0.8h1.1l-1.2-4h1.2l4,3.6l3.7,3.1l3.1,2.7
		l0.8,0.5l1.7,1.8v0.8l-1.3-0.5l-2.3-2.4l-3.2-2l-1.8-1.8H137v0.9l1.2,0.9l4.6,4.3l-1.8,0.9L139.5,259.7L139.5,259.7z M144.1,199.8
		l-1.6-1.7l-2.5-1.4l-0.4-0.5l-1.8-1.3l-0.4-0.5l-1.2-0.9l-4-4.3l0.8-0.8l-1-1.6v-3.1l7.7,6.2l1.6,2.2h-0.8l-2.6-2.7H137l0.3,0.9
		l9.8,8.4l2.1,1.8l-0.9,0.9l0.4,0.9v0.8h-0.9l-2.1-2.2L144.1,199.8L144.1,199.8z M131.9,193.1v-0.7l2.1,1.2v0.9l-0.3,0.5l-0.4-0.9
		L131.9,193.1L131.9,193.1z M144.5,208.4v-0.6l1.1-1.2l-1.5-1.5h-1.2l1.6,1.7l-0.5,0.6l-2-1l-0.9-0.8l-1.2-0.9l-2.4-2.4l-1.9-0.7
		l-3.8-4v-1.3l2.1,1.6v-2.2l1.7,0.9l2.5,2.6l3.4,2.8l1.7,1.7l1.2,0.7l4.3,3.7v0.6l-1,0.5l1,2.2h-0.9l-1.6-1.7L144.5,208.4
		L144.5,208.4z M163.3,248.9l-1.9-1.3l-1.6-0.9l-0.9-0.9l-2.5-1.3l-2.2-2.3l-4.2-2.6l-3-3.1l-1.3-1.7l-2.5-1.4l-2.2-2.2l-1.7-0.7
		l-1.6-2.5l-2.5-2.6l-2.3-1.1l-1.1-2.4v-0.9h0.9l0.4,0.5h0.8l-0.8-0.8v-1.4l2.1,1.7l2.5,1.8l8.1,6.7l2.9,2.2l3.4,3.2l1.3,0.8
		l3.8,3.1l4.2,3.2l0.4,0.3l1.8,1.4l2.9,2.7l1.2,0.9l1.7,1.8l-2.5,0.8h1.7L163.3,248.9L163.3,248.9z M144.5,249l-7.8-6l-4.9-5.2v-1.4
		h2.1l2.6,1.4l0.5,1.1l1.1,0.6l0.4,0.5l0.9,0.5l0.4,0.5v-1.5l-3-2.3v-0.7h0.3V236l-4.4-4.6l-0.7-2.1l0.4-1.4h0.9l2.5,2.3l0.9,0.5
		l5,3.6l2.3,1.2l1.1,2.4l2.1,2.2l0.9,0.5l0.4,0.5l8.1,6.7l1.6,0.9l-0.4,0.5h-5l-1.3-1.4l-1.2-0.9l-4.9-4.3l-0.7,0.7l-1.6,1.1
		l6.9,5.9l-0.7,0.7l0.5,1.7l-0.4,0.3l-3.8-2.6L144.5,249L144.5,249z M145.8,277.6l-0.8-0.8l-0.8,1.6h-0.5l-1.8-1.1v-1l0.9-0.9
		l-0.9-0.8h-0.9l-0.4,1.3l-1.6-0.9v-2.2l-1.5-1.2l0.7,1.6l-0.5,0.6l-1.1-0.6l-0.4-0.9l-2-1l0.7-0.7h-1.2l-0.9-0.9v-1.4l-0.9-1.7
		l1.5-1l2.7,1.9l1.6,1.7l7.2,5.8l0.9,0.5l1.6,1.4l1.5,1l0.7,2.1v0.9l-1.3-1.4L145.8,277.6L145.8,277.6z M132.3,277.1l0.4-0.5v-0.9
		l-0.9-0.9v-0.3h1.8l0.8,0.8l1.8,0.9v1.4h1.7l2.8,2.2v0.5h-0.8l-0.5,1.7h-1.2l-3.2-2L132.3,277.1L132.3,277.1z M136.1,305.3
		l-0.4-0.9H135l-0.7-1.3l-1.2-0.7v-2.9l-0.9-0.5l-0.4-0.9l1-1l6.2,4.6l0.9,0.9l1.6,0.8l0.4,0.5l2.5,1.8l2.2,2.2l3,2.1v2l-0.4,0.5
		l-0.4,0.9l-1.3-0.5h-1.2l-2.2-1.1L136.1,305.3L136.1,305.3z M145.8,272.2h-1.3l-2.5-2.6v-0.9l-1.6-0.5l-0.4-0.8l-1.9-0.7l-0.8-1.6
		h-2l-1.4-2.2l-1.1-0.6l-0.5-1.3l0.4-0.5l0.4-1.3l-1.2-1.8h2.2l4.9,4.5l9.3,7.6v1.4l-0.4,0.3v1.4l1.3,1.4l0.4,1.3l-0.4,0.5l-2.7-2.1
		L145.8,272.2L145.8,272.2z M145.4,297.2l-1.6-1.7l-3.8-3.1l-4.3-4.5l-2.1-1.1v-1.2l-1.5-2.3l1.5-1.6l1.6,1.7h-0.9v0.9l2.8,2
		l0.7-0.8l1.6,0.6v0.9l-0.4,0.5v0.7l1.4-0.8l2.4,1.8l2.5,1.6v0.7l-1.5,0.5l0.7,0.8l1.7,0.9v-1.5l1.7,0.9l1.2,2.4v0.5l0.4,0.8v2.8
		h-0.9l-1.6-1.4L145.4,297.2L145.4,297.2z M146.3,257.9l-3.4-2.6l-2.2-2.3l-1.2-0.8l-0.4-0.5l-0.9-0.5l-0.9-0.9h-0.5l-4-3.2v-0.8
		l0.4-0.5v-1.3h0.8l0.9,0.9h0.9v-0.9l-2.5-1.4v-1.7l5.9,4.4l0.9,0.9l8.5,7l-0.8,0.9l-3.2-2.4v1.1l2.6,1.8l2.1,2.2l-0.5,1.3l1,1v0.7
		l-2.5-1.6L146.3,257.9L146.3,257.9z M145,215.9l-2.2-0.6l-2.4-2.5L139,212l-0.9-1.7l-2.8-1.5l-0.9-0.9l-1.4-0.5l0.7-1.7l0.5-0.6
		l-0.5-1.3V203l3,3.2h0.4l0.5,2.3l1.1,1.3h0.9v-0.9l1.2,0.5l0.9,1.7l-0.7,0.7l1.5,1.6l1.6,0.8l1.3,0.9h0.9l-1.7-1.7v-0.7l2.6,1.3
		v1.1h-0.4l-0.4,0.5l0.4,0.9l0.4,1.3l0.8,0.5l-0.5,0.6L146,218L145,215.9L145,215.9z M135.2,263.3h2.5l-0.4-0.9l-2-1.5l-0.9,0.9
		L135.2,263.3L135.2,263.3z M134.8,205.7h0.4l-0.4-0.5L134.8,205.7L134.8,205.7z M134.8,207l0.4-0.5h-0.4L134.8,207L134.8,207z
		 M134.8,255.3h0.4v-0.5L134.8,255.3L134.8,255.3z M136.6,189.1l-0.9-0.9v0.9H136.6L136.6,189.1z M136.6,284.3l0.4,0.5h-0.4
		l-0.4-0.5H136.6L136.6,284.3z M142,267.5v-0.6l-2.5-2.8h-0.4v1.4l0.9,0.5l0.8,0.9L142,267.5L142,267.5z M147.2,227.6l-1.7-1.8
		l-0.9-0.5l-1.2-1.7l-2-0.7l-1.6-1.7l0.7-1.1l1.6,0.5l0.4,0.8h1.6l-1.6-2.2h0.4l2.1,1.7l1.8,1.3v0.6h-1.3l3.8,4v1.3h-0.9l-0.4-0.3
		L147.2,227.6L147.2,227.6z M140,210.5h0.8l-0.3-0.5H140L140,210.5L140,210.5z M141.6,165.9v-0.5l-0.9-1.4h1.7l3.8,1.4l2,0.5
		l0.5,1.7l1,1.5l-0.5,1.2l-1.7,0.9h0.4l-2.5-1.3L141.6,165.9L141.6,165.9z M145.9,288.8l-2.2-1.8l-1.6-2.2l-1.3-0.7v-1.6l1.3,0.5
		l1.1-1.1l0.7,0.7l-0.4,0.5v0.7l1.5-0.8l2.6,2.8h-1.2l3.8,4l-1.1,0.6l1,2l-2.8-2.1L145.9,288.8L145.9,288.8z M141.6,218.1l0.4,0.5
		h-0.4l-0.4-0.5L141.6,218.1L141.6,218.1z M141.6,289.6v-0.5h-0.4L141.6,289.6z M142,192.7l0.4,0.5H142l-0.4-0.5H142L142,192.7z
		 M145.4,188.6l0.4-0.5l-0.9-0.3l-2.5-1.8v0.9l1.3,1.3L145.4,188.6L145.4,188.6z M145.4,264.1l-0.9-0.3l-0.8-0.9h-0.4l-0.9-0.9
		l0.4-0.5l0.5,0.6l1.1-0.6l0.4,0.9l0.9,0.5l1.3,0.9l0.5-0.7l-1.2-1.4l0.9-0.9l2.3,3H148l0.5,1.6l-1,1l-2.1-1.5L145.4,264.1
		L145.4,264.1z M143.3,193.6l1.2,1.4h-0.4l-1.2-1.4H143.3L143.3,193.6z M142.9,241h0.4l-0.4-0.5L142.9,241L142.9,241z M144.8,280.3
		l0.7-1.4l2.5,1.6v0.7h-1.2l-1.3-0.9L144.8,280.3L144.8,280.3z M145,308.9h0.4l-0.4-0.5L145,308.9L145,308.9z M147.9,223.1v0.5h-0.4
		l-0.3-0.5L147.9,223.1L147.9,223.1z M148.4,216h-0.9l0.4-0.5C147.9,215.5,148.4,216,148.4,216z M148.8,246.3l-0.9,0.5h-0.4l0.9-0.5
		H148.8L148.8,246.3z M149,286.1l0.7,1.4h-0.4l-1.3-1.4H149L149,286.1z M148.8,247.2v0.5h-0.4v-0.5H148.8z M148.8,282v0.5h-0.4V282
		H148.8z M150.1,248.1l0.4,0.5h-0.4l-0.4-0.5H150.1L150.1,248.1z M170.5,245.8l-0.4-0.3l-1.7-0.9l-1.2-1.4l-1.3-0.5l-1.6-1.7
		l-2.2-1.4l-5-4.5l-5.1-2.6v-1.3h2.2l0.5-1.3l3.8,1.5l0.7,0.6l0.9,0.5l1.2,1.4l0.9,0.5l2.2,1.7l2.8,2.1l1.3,2.9l1.3,1.3l1.3,0.9
		l0.3,0.5l0.9,0.5l6.7,5.3h-4.5l-1.7-1.7L170.5,245.8L170.5,245.8z M159,241.5V241l-1.6-1.4v0.9L159,241.5L159,241.5z M165.8,233.8
		l-2.1-1.7v-1.4l-0.5-1.2l1.7,0.7l0.4,0.9h0.9l2.5,2.7h0.4l4.3,3.3v1.5h-1.3l-3.4-1.7L165.8,233.8z M167.1,248.1v-0.5h-0.4
		L167.1,248.1L167.1,248.1z M192.5,248.6L191,247l0.7-0.7h-1.3v-1.7h-2.1l-1.3-1.4h-0.9l-1.6-1.7l-0.4-0.9l-1.5-0.8l-3.2-2.8v-1
		l0.9-0.5h-2.5v-0.5l1-1l-2.1,0.7l-1-2l-1.3-0.8l-0.9-0.8h3l1.6,1.7l3.4,1.8l1.7,1.7l3,2.5l0.4,1l4.9,3l2.3,2.4l0.9,1.3h1l5.8,4.7
		v4.3H201l-5.1-5.4L192.5,248.6L192.5,248.6z M200.1,262.4l-0.9-0.5l-0.4-0.9l-2.5-1.3l-2.9-2.8l-0.4-0.8H192l-1.2-1.4l-2.5-2.2
		l-0.9-0.9l-2.5-1.8v-0.8l-0.4-0.5l-0.9,0.5l-0.4-0.5l-1.3-0.9l-0.4-0.9l-1.2-0.5l-2.9-3.1l-1.3-2.6l-0.4-0.5h0.9l1.3,1.4l2.5,0.8
		l2.5,2.8l3.4,1.7l4.3,4.5l1.3,0.9l1.6,1.3l5.1,3.6l4.6,5v1.4H201L200.1,262.4L200.1,262.4z M199.2,245.5l-0.8-0.5l-0.4-0.5
		l-1.3-0.7v-0.7l-0.4-0.9l-1.2,0.7l-0.9-2l-2-1.5l-1.4-2.1h-1.3l-2.2-2.4l0.7-1.5l-1.4,0.8l-0.4-0.5h-0.4v-1.4l-1.2,0.9l-0.8-3.6
		h0.8l7.2,5.3l1.6,1.8l7.3,5.6l0.8,1.5l1.6,1.7h-1.2l-0.5,1L199.2,245.5L199.2,245.5z M199.2,271l-2.1-1.8l-0.9-1.4l-1.9-1.3
		l-0.6-1.4l-2.3-1.1l-6.2-5.3v-0.7l-1-2.1l1-0.6l0.4-0.9l3.2,2.8l1.5,0.8l0.7-0.7l2.1,3.2l2.7,2l2.6,2.6l2.4,0.7l0.5,1.1v1.7
		l0.4,1.8l-0.5,1.5l-1.6-1L199.2,271L199.2,271z M200.5,238.4l-1.3-0.9h-0.4l-0.8-0.9l-1.3-0.7l-1.4-2.3l0.7-0.7l-1.7-1v1.2h-0.4
		l-0.4-0.5l-1.3-0.9l-1.2-1.3l-1.4-0.5l0.8-1.8h-0.7l-0.9,0.5l-0.8-0.8l-1.7-1.3v-2l-1.7-1.7l0.4-0.5h0.8l0.4,0.5l3.8,3.1l0.4,0.9
		l0.9,0.5l5.9,4.4l1.3,1.4l3.4,2.4v1.6l-0.5,0.6l0.7,1.6h-1.4L200.5,238.4L200.5,238.4z M196.3,278.9l-0.9-0.5l-6.3-5.3l-1-1.7
		l3.4,1.8l0.9-0.9l-3.7-1.8h-0.8v1.2l-2.6-2v-1l0.9-0.8l-1.6-2.3l1.2-0.5l0.4-0.9l1.7,1.8l2.1,1.2v-1l-5-4V261l3.9,2.7l2.4,2.4
		l2.5,1.7l8.4,7.5v1h-0.3l-0.4-0.5l-1.7-0.9v0.5l1.3,1.4l0.4,1.7l1.6,1.8l-2.1,0.9l0.4,0.5v1.4L196.3,278.9L196.3,278.9z M198,303.5
		h-0.9l-2.5-2.6l-2.6-1.7l-0.8-0.9l-1.7-1.3V296l-0.9,0.3l-2.9-3.1v-0.7l2.9,1.8v-1.1l-1.2-1.3l-3-2.4v-0.7l0.4-0.4l0.4-1l3.7,2.8
		l1.7,1.8l5,3.6l2.2,2.2l5,3.8v2.4l-1.1,1.3l0.9,1.9h-1.4L198,303.5L198,303.5z M195.4,221.3l-4.6-4.4l-2.5-1.8l-3.1-3.1l0.9-0.5
		v-1.7l-0.5-1.8h1.1l5.1,4h1.5l-6.4-5.3l-2.2-3l0.5-0.7v-1.7l5.1,3.1h0.9l-4.7-5h-1l-0.7-2.2l0.5-1.2l-0.5-1v-1.4h1.2l1.7,1.7
		l1.6,0.9l5.5,4.5h2.2l-1.3-1.4l-5-4.4l-2.5-2.8l-1.3-1.7l-1,0.5l-0.9-2.8h1.4l0.9,0.5h0.9l-2.6-2.6v-0.9l1.7,1.4l2.5,1.7l0.9,0.9
		l2.5,1.4l2.5,2.6l2.2,1.8l0.8,0.8l2.7,1.5l0.7,2.1v1.8l0.9,1.7v0.9h-1.4l-3.4-2.7h-1.1l0.9,1.7l4.2,4.5l-1,0.6l1.4,2.1l-1.6,1.8
		l-0.4-0.9l-1.7-1.7h-1.6l-1.3-1.4l-1.2-0.5v0.5l2.1,1.8l0.4,0.3l6.3,5.9l-2.6,2.8l0.5,1.3v5.3h-0.9l-0.4-0.5L195.4,221.3
		L195.4,221.3z M195.1,285.3l-0.9-0.5v-0.9l-2.1-0.7l-0.4-1.1h-0.9l-0.9-0.8l-3.9-2.8l-1.1-3.1l0.5-0.6l-0.8-1.5l1.6-0.9l12.5,10.1
		l0.4,0.5l3,2.3v3.6l-0.8,1.3h-0.9l-5.1-4L195.1,285.3L195.1,285.3z M199.2,193.1l-1.6-0.9l-3.8-4v-0.8h-0.4l-0.4,0.8l-0.5-1.6
		l0.5-0.6h1.3l-3-3.1h-0.9v0.5l0.9,0.9v2.4l-6-4.7V181l1.7-0.3l-0.9-1.4v-0.5h-1.3l0.4-2.2l1.3,1.3l1.3,0.8l4.6,3.7l6.3,4.5l3.9,4.2
		l-0.5,2.1l-0.4,2.5l-2.1-1.6L199.2,193.1L199.2,193.1z M184.9,301v-1.1h1.2l3.4,2.8v-1.4l-2.1-1.7l-1.3-0.7v-3.1l4.3,3.8l1.3,1.3
		l2.5,1.8l0.9,0.8l0.8,0.5l0.9,0.9l5.9,4.4v1.4h-2.5v0.5l1.3,1.4h-2.2l-2.4-0.8L184.9,301L184.9,301z M184.9,303.9h0.3l1.3,1.4
		l2.3,1.7h-1.4l-2.5-2L184.9,303.9L184.9,303.9z M199,229.8l-3.6-3.1v-0.5l-1.2,0.5v-0.5l-2.3-0.6l-0.9-1l0.8-0.8l-1-1.1l-1.7-0.9
		v0.9l0.9,0.9h-0.7l-2.3-1.7l-1.7-2.3v-1.8l0.4-0.5v-2l2.2,1.2l3.8,3.1l3,2.2l0.8,0.9l7,5.8l0.7,1.4h-1.6v0.9l1.2,1.3l-1.9,0.7
		L199,229.8L199,229.8z M194.4,292.9l0.7-0.6l0.3-0.9l-1.6,0.9l-1.7-1.8l-2.5-1.7l-0.4-0.9l-1.6-0.9l-1.3-1.4v-1.7l-0.9-0.9v-2.7h2
		l8.6,7.6l3.4,2.3v1.3h1.3l1.6,1.7v1.4l0.9,1.4l-0.9,0.8l0.9,1.8l-1.2,0.5l-0.9-0.9L194.4,292.9L194.4,292.9z M188.3,312.9l-2-2.1
		l-0.8-2.3l0.5-0.6l0.9,0.9l0.9,0.5l2.1,1.7l0.9-0.8l-0.9-1.4h1.9l5.2,4.5h-3.7l-1.6-0.5L188.3,312.9L188.3,312.9z M197.6,183.3
		v-0.9l0.4-0.5h-2.6l-1.2-1.3l-0.9-1.8h-1.5l-1-2.2l-0.9-0.9v0.9h-0.4l-0.9-0.9v-0.5h-1.1l-0.5-1.7l-1.3-0.9v-1.4l0.9-0.5v-0.5h-0.4
		v-1.6l2.2,1.6l1.2,1.4l0.9,0.5l11.8,9.7v2.2l-2.6,1.4L197.6,183.3L197.6,183.3z M187.8,166.7l-0.9-0.3l-0.9-0.9l1.2-0.7l3.9,1.4
		v0.8l-2.2,1.1h0.4l-0.9-0.5L187.8,166.7L187.8,166.7z M186.1,311.9l0.9,0.9h-0.9V311.9L186.1,311.9z M187.4,286h0.4v-0.5L187.4,286
		L187.4,286z M188.3,181h0.3l-0.3-0.3h-0.4L188.3,181L188.3,181z M190.8,199.2v-0.9l-3-2.1v0.9L190.8,199.2L190.8,199.2z
		 M189.9,190.5h0.4l-0.4-0.5h-0.4L189.9,190.5z M192,304.6v-1.1l-0.8-0.8h-1.3v0.8L192,304.6L192,304.6z M200.5,178.4l-3-3.1
		l-2.3-1.2l-2.8-3.8v-0.8L192,169v0.9h-0.8v-2l2.1,0.6l0.4,0.9h2.3l2.4,1.6v0.6l1.9,1.4l1.5,3.6l1.4,1.5l-0.7,0.7l-0.8-0.5
		L200.5,178.4L200.5,178.4z M192,205.7h0.4v-0.9h-1.2L192,205.7L192,205.7z M191.2,311.5h0.4V311h-0.4V311.5L191.2,311.5z
		 M192,192.2h0.4l-0.4-0.5L192,192.2L192,192.2z M192.4,287.9h0.9l-0.9-0.5H192L192.4,287.9L192.4,287.9z M193.8,298l-0.5-1.3
		l-1.3-0.6v0.8L193.8,298L193.8,298z M194.8,202.7l0.5-0.6l-2.5-1.8h-0.4L194.8,202.7L194.8,202.7z M192.9,247.6h0.4l-0.4-0.5h-0.4
		L192.9,247.6L192.9,247.6z M195.4,276.2l-1.2-1.4h-1.3l0.7,1.4H195.4L195.4,276.2z M195,299.5h0.8l-1.2-1.4h-0.9L195,299.5
		L195,299.5z M195,177.5v-0.3h-0.4L195,177.5L195,177.5z M195,187.4h0.3v-0.5H195L195,187.4L195,187.4z M197.1,196.5v-1.2l-2.1-1v1
		L197.1,196.5L197.1,196.5z M195.8,180.2v-0.9h-0.4v0.5L195.8,180.2L195.8,180.2z M195.8,265h0.9l-0.9-0.9h-0.4L195.8,265L195.8,265
		z M195.4,271.7h0.4l-0.4-0.5L195.4,271.7L195.4,271.7z M195.8,307.5h0.4l-0.4-0.5L195.8,307.5L195.8,307.5z M200.1,169l-1.6-0.9
		l-0.9-0.9l-0.9-0.5l-0.4-0.8h3.8l0.9,0.8l0.9,2.8v1.3l-1.3-0.8L200.1,169L200.1,169z M199.2,190v-0.5l-1.9-1.4h-0.7l0.9,0.9
		L199.2,190L199.2,190z M196.7,278.1h0.4v-0.5L196.7,278.1L196.7,278.1z M198.8,183.3l1.3-0.5v-1.4h-0.4l-0.4,0.9l-0.4,0.5
		L198.8,183.3L198.8,183.3z M200.9,191.4l-0.9-0.9h-0.4v0.9H200.9L200.9,191.4z M199.6,280.3h0.4v-0.5L199.6,280.3L199.6,280.3z
		 M200.5,185.5h0.9v0.9h-0.9V185.5L200.5,185.5z M201.4,199.8v-0.5l-0.4-0.5v0.5L201.4,199.8z"/>
	<path class="st3" d="M215.8,313.3v-2.8l2.1-6.5l0.4-4.6l0.4-1.8l0.4-2.2l0.9-2.3l0.4-3.6l1.2-5.3l0.4-3.6l1.3-3.1l0.4-4l0.4-1.8
		l0.3-2.2l1.3-5.4l0.4-3.1l1.6-5.8l1.3-9.8l1.7-3.6v-4.5l1.6-3.6v-2.6l1.7-7.1l0.3-2.8l1.7-7.6l0.4-3.1l0.9-2.2l0.3-2.7l0.9-3.1
		l0.9-6.8l2.1-5.5v-5.2l1.3-2.6l1.6-9.3l0.9-3.1l1-5.6l1-2.1l2.3-1.3h18.6l2.1,2.2l1,5.9v1.7l1.5,3.3l1.9,11.4l1.6,5.9l0.4,3.6
		l0.9,3.1l1,6.2l1.5,5l0.4,3.6l0.4,2.2l0.4,3.6l2.1,8.5v2.4l1.4,3.8l2.4,12.4l0.9,3.6l1.6,8.5l0.9,3.1l0.4,3.6l1.6,4.2l0.8,8
		l2.7,8.9l-0.5,2.3l1.7,5.3l1.3,5.9l0.8,3.1l1.3,8.4l0.5,1.6l-0.8,2.4l-2.7,1.4h-12.3l-3-0.5h-3.4l-1.4-1.5l-1.5-7l-0.9-1.7v-4
		l-2.1-6.4l-0.7-7.7l-1.9-5.9l-0.9-6.3l-1.3-3.9h-20.6l-1,3.6l-1.1,7.4l-1.5,5l-0.8,6.3l-1.3,2.8l-0.5,6.3l-1.5,4.7l-1.4,7.5
		l-2.8,1.5h-13.1l-5.9-0.9L215.8,313.3L215.8,313.3z M222.6,314.5l2.1-0.7H237l1.3-1.4l0.9-6.9l2.1-5.9v-2.4h-0.9l-2.2-1.3l-0.8-0.9
		l-0.9-0.5l-0.9-0.9l-1.6-1.3l-2.6-2.8l-1.2-0.8l-0.4-0.5l-0.9-0.5l-0.9-0.9l-0.8-0.5l-1.3-1.3v-0.9l-1-1.6l2.2-2.4l10.7,8.9
		l1.2,0.9l2.3,2.4l-1.6,2.9l1.1,0.6l1.6-3.6V290h-1.6l-3-2.2l-0.4-0.5l-1.3-0.9l-1.3-1.3l-5-3.6l-3.6-3.8l1.1-1.2v-1.8h1l4,3.6
		l3,1.8l1.3,1.4l2.5,0.8l3,3.1l-0.4,0.9l0.9,1.4l0.4,1l0.9-4.2l1.2-5.4l0.9-4.8l0.4-1.8l0.4-4l8.2,0.5l4.4-0.5l4.9,0.7l2-0.7h2.5
		l1.6,0.6l1.9,6.6l0.3,1.4l0.4,4.8l1.3,3.3l1.5,0.8l0.8-0.8l-2.7-2.9h1.3l0.4,0.9h0.3v-0.9l0.6-1.3l0.7,2.2h0.9l0.9,0.9l2.5,2.2
		l0.4,0.4l2.1,1.8l0.4,0.3l10.1,8.2l0.5,3l0.9,0.9v1.4h-1.8l-1.6-1.4v-0.9l0.3-0.5l-1.2-0.3l-0.9,0.3L290,299h-0.4l-0.8-1.8
		l-1.7-0.9l-1.4-2.4l-0.7,0.7h-0.9l-1.6-1.8l-0.7-1.3h-1.5l-1.9-2.1l0.7-0.6v-0.5l-2.1,1l-1-2l-1.2-1.4v2.3l0.9,3.1l0.8,6.2l1.3,4
		l0.5,3.9l0.8,2.3l1.4,5.4h1.5l-1.3-1.4l0.4-0.5l1.6,1.8l-0.3,0.5l2.7,0.7l2.7-0.7h11.8v-4.5l-1.5-4.8l-2-12.2l-2.5-6.1l0.5-0.9
		v-2.3l-0.7-2l-0.7-3.3l-1.6-7.1v-2.8l-1.3-3.9l-0.4-3.6l-0.3-1.4l-0.9-3.1l-1.3-4v-3.1l-1.6-6.3l-1.7-9.8l-1.2-3.6l-0.8-5.7l-1.9-6
		l-0.4-3.1l-0.7-2.2l-2.1-0.7l-0.6,0.7l0.9,0.9v0.5l-1.6-0.9l-1.3-1.4h1.3V210l-11.9-9.1v0.7l0.4,0.5v0.8l-1.7-1.7l-1.2-0.9
		l-5.6-4.4v-2.3l-0.8,0.5h-1l0.5-1.8l0.4-0.5l-0.9-0.3h-2.1l-0.5,0.5l-4.8-3.8l0.7-0.7V186l1.3-0.7l3,2.3l2.1,1l3.4,3.6l2.1,1.4
		l0.9,0.9l0.9,0.5l4.6,3.7l1.3,0.7l0.9,0.9l3.8,2.7l2.5,2.8l3.3,2.2l0.5,1.8l0.9,1.7v-4l-2.2-9.8l-1.2-4v-4l-1.4-3.6l-4.2-2.2
		l-8.4-6.7l-3.8-4l-0.9-0.5l-5.5-4.3v-2l1.2-0.5l0.4-0.5h1.2l6,4.8l0.4,0.5l3.4,2.8l0.9,0.8l4.8,3.7l1.5,3l0.9,1.4v0.9l1.5,1.6
		l-1.1-7v-3.3l-1.6-4.3l-0.9-6l-2-0.9l-17.1-0.7l-1.5,1.5l-1.3,7.6l-1.9,5.8l-0.5,5.8l-1.2,2.7l-0.4,4.5l-3.4,15.2l-0.4,4.4
		l-0.9,1.8l-1.1,5l-0.5,4.4l-0.4,1.4l-2.1,8.9v4l-1.7,1.8v5.2l-2.1,6l-0.9,6.7l-0.9,3.6l-0.4,2.6l-0.8,2.3l-0.4,2.6l-0.4,1.7
		l-0.4,3.6l-0.9,2.3l-0.4,3.1l-1.2,4l-0.5,4.7l-1.2,3.2l-0.4,5l-0.7,1.5l-0.5,3l-0.9,2.2l-0.4,6.1l-1.9,4.7l0.9,2l4.4,0.9
		L222.6,314.5z M221.3,312.4l-2.1-2.2l1.4-0.6l-1-2.2h2.1v-0.8l-0.8-1.8v-0.9h1.3l-0.7-2.1l1-1l4.3,3.1l3.4,3.1l3.8,2.8l2.5,2.6
		l-3.4,0.6l-4.3-1l-5-4h-1.5l2,2.6l2.1,1.8v0.6l-3.4-0.6L221.3,312.4L221.3,312.4z M229.4,304.3l-1.6-1.7l0.3-0.5l-0.3-0.5l-0.9,0.9
		l-2.5-2.8l-0.9-0.3l-0.9-1.8v-3.6l0.4-0.5l0.4-0.9l2.1,2.3l5.1,4l0.4,0.5l3.7,2.6l2.2,2.2l0.9,0.5v2.2l0.5,1.1l-3.1,1.3l-3.5-3.7
		L229.4,304.3L229.4,304.3z M232.8,298.6l0.4-0.5v-0.5l-0.9,0.5l-1.6-0.9l-0.4-0.5l-1.8-1.3l-1.6-1.8l-2-1l-1.2-2.4l1.9-0.6v-2.4
		l1.3,0.7l7.7,6.2l2.5,1.8l2.7,2.8l-1.3,2.1l0.9,1.7L238,303l-1.9-0.9L232.8,298.6L232.8,298.6z M225.6,291.9h0.4v-0.5L225.6,291.9
		L225.6,291.9z M238,280.6l-2.3-1.3h-0.9l-0.9-2.1l-2.1-1l-3.3-3.5l-0.8-3.2l0.8-1.6l2.5,1.6l2.1,1.7l2.5,1.8l2.5,2.2l2.6,1.4
		l1.6,1.7v0.9l1.2,2.4l-1.2,1.2l0.8,1.5l-1.7-0.9L238,280.6L238,280.6z M235.7,270.9l-3-3.2l-2.1-1l-0.4-1.6l-0.4-0.9V261h1.3
		l1.6,1.4l2.5,1.7l0.4,0.5l5.1,4l3.4,3.6v1.4l-0.4,0.9l1.1,1.6l-1.1,0.6h-1.7l-1.2-1.4L235.7,270.9L235.7,270.9z M230.7,293.6h0.8
		l-0.8-0.5h-0.4L230.7,293.6L230.7,293.6z M237,262.8l-3.4-1.8l-2.5-2.7v-0.9l1.3-1.5l-0.5-1.6h1.1l9.5,8.1l3.8,2.6l2,2.1l-1.1,0.6
		l-2.7,2l-2.8-2L237,262.8L237,262.8z M251.8,267.3l-1.4-0.6l-0.6-1.3h-0.9l-1.6-1.7l-0.4-0.9l-1.3-0.5l-2.5-2.1l-1.3-0.6v-1.8
		l-1.4,0.8l-2-3h-0.8l-0.4-0.9l-0.9-0.5v-0.5l-0.4-1.3l-0.4,0.3h-1.6l-1.1-2.3l1-3l2.2,0.6l3.8,3.5l3.4,2.7l0.4,0.5l13.1,11.2v1.4
		l-0.9,0.8h-3v-1.3L251.8,267.3L251.8,267.3z M259,265.9l-1.2-0.9l-0.9-0.9l-0.9-0.3l-0.4-0.5l-2.1-1.8l-0.9-0.9l-0.9-0.3l-0.3-0.9
		l-0.9-0.5l-1.3-1.4l-1.2-0.5l-0.4-0.8h-0.9l-6.3-5.4l-2.2-2.2l-1.2-0.5l-2.5-2.7l-1.2-2.5l1.2-0.7l0.3-0.3l1.5-0.6l4.5,4.2l1.2,0.8
		l5.6,4.5l1.2,0.9l10.6,8.9l1.3,0.9l2.5,2.3l4.6,3.6h-2.1l-3.5,1.2L259,265.9L259,265.9z M288.8,282.9l-1.7-1.3l-1.6-1.8l-2.9-2.2
		l-6.8-5.9l-1.3-0.8l-2.1-1.8l-1.7-0.9l-0.9-1.7l-3.3-1.7l-7.3-6.8l-1.2-0.9l-3.4-2.7l-1.3-0.9l-0.9-0.8l-1.6-1.4l-6.3-5.8l-1.3-0.9
		l-1.6-1.4l-6-4.2v-2l1.3-0.5l-1.1-1.7l1.5-0.8l8.4,7.5l4.3,2.9l0.8,2.6l5.5,2.3l1.4,1.5l8.9,7.6l1.3,0.5l3.8,3.1l1.6,1.9h2.6
		l-1.7-1.8l-0.9-0.5l-1.6-1.7l-13.6-11.2l0.4-0.5h2.1l3.4,1.7l0.8,0.8l0.7-2.1l1.5,0.8l0.9,0.9l0.9,0.5l4.5,3.8l1.4,0.7l0.9,0.9
		l5.5,4.4l0.9,0.9l1.2,0.9l1.7,1.4l0.9,0.3l0.8,0.9l1.3,0.9l0.9,1.4l1.2,1.3l-1.6,0.5l2,2.1l0.7,3.9l-1.3-0.6l-4.7-3.6l-1.3-0.9
		l-2.1-2.3h-0.9v0.9l3.4,3.6l1.7,0.7l4.9,3.8h-1.5l2.5,3.1l0.4,2.2l0.9,0.9v0.9l0.8,1.7h-2.1L288.8,282.9L288.8,282.9z M246.3,238.6
		l-0.9-0.8l-1.2-0.5L243,236l-3.7-2.5l-2.2-2.9v-0.8l0.4-0.5v-3.1h0.8l3.1,2.6v0.8l1.6,0.6l1.7,1.7l1.6,0.9l0.9,0.9l3.4,2.3v3.9
		l-1,1l-2.4-2L246.3,238.6L246.3,238.6z M237,262.1l1.2-0.7l-0.8-0.5l-0.4,0.5L237,262.1L237,262.1z M243.8,227.9h-0.8l-4.3-3.3
		l-0.5-2.7l1.3-0.7l0.4-2.2l2.1,2.2l3.7,3l0.5,1l-0.4,0.5h-0.4v0.9l3.4,3.6l2.6,1.7v1.8h-0.9l-6-4.3L243.8,227.9L243.8,227.9z
		 M251,226.2l0.4-0.5l-0.8-2.2l-0.8,1.6l-1.5-0.8l-1.4-1.5l-5.4-3.3l-0.8-0.5v-2.2L240,215v-1.3l2.9,2.5V215l-2.1-2.2v-0.9l0.8-0.9
		l0.4-1.3l0.5-0.7l-0.5-1.2h0.4l0.9,0.9l1.3,0.9l2.8,2.2h0.9l-3-3.1l-2.5-1.4v-1.3l-0.8-1.5l4,2.1l-0.8,0.7v0.5h1.7v0.9l5,5.3
		l-0.4,0.9l0.4,0.5l1.4-0.8l1.2,1.3v0.5h-2.2l2.5,2.6v1.4l-0.8,0.8l-0.9-0.8l-0.9-0.5l-0.9-1.4h-1.2l-0.9-0.9l-0.7-1.3h-1.4
		l-0.9-0.9l-1.3-0.9l-1.6-1.3v0.3l1.2,1.8l1.3,0.9l1.7,1.7h-0.9l-0.4-0.5l-0.4,0.5v0.9l1.3,1.4h0.8l0.4,0.8l4.7,4.5l-0.4,0.5
		l-0.4,1.4l-0.9-0.9L251,226.2L251,226.2z M254.4,211.9l-1.7-1.4l-1.2-0.8l-2.6-2.8l-1.6-1.3l-2.5-2.3l-1.3-0.8l1.4-0.8l1.5,1.6
		l3.8,2.8h0.4l-1.6-2.2l-5.6-4.3v-1.6h1.3l4.6,4l3.4,2.7l-0.7,0.7l2,2l0.9,1.4l0.3,0.5l0.9,1.7l2.2,1.8l-1.6,0.5l-1.4-1.4
		L254.4,211.9L254.4,211.9z M243.8,216.9h0.4l-0.4-0.5h-0.4L243.8,216.9L243.8,216.9z M273,215.9l-4.3-3.6v-0.9h-1.2l-2.2-1.7
		l-3-2.3l-0.8-0.9l-1.8-0.8H259l9,7.7v1.3l-7.2-6.3l-2.5-1.4l-1.3-1.3l-6.9-6.3h1l2.7,1.7l-0.7-1.3l-4.6-3.3l-1.3,0.7l-0.9-1.4
		l0.9-0.5l-2.3-2.4l1.3-1.4l2.2,1.6l4.3,4.5l5.1,3.6l4.2,3.6l1.3,0.9l2.1,1.7l1.3,0.7l1.3,2l0.7-0.6l1.9,2h1.3l0.8,1.8l2.6,1.7
		l3,3.1v2.4L273,215.9L273,215.9z M247.7,227.3l-1.1-2.2l6,4.7v0.8h-0.9l-2.1-2.3L247.7,227.3L247.7,227.3z M271.8,200.3h-1.3
		l-0.9-0.9v-0.5l-0.9-1.7l-2.5-0.5l-0.4-0.9l-2-1l-1-2.1h-1.2v-1.7h-1.3l-1.7-0.9h-0.3l-0.4-0.5l0.8-0.9l0.4,0.5v-0.9l-1.2-0.8
		l-0.4,0.5v0.3l-0.4,0.5l-0.9-0.8v-0.5h-0.7l-0.7-2l-1.2,0.6l-0.4-0.9l-0.9-0.5v-2.2h-0.8l-0.4,0.9h-1.2l-1.4-2.3l0.4-0.8l0.5-2.1
		l4.6,3.3l1.6,1.8l1.3,0.9l1.3,1.3h0.6l4.8,4.4v0.6h1.1l3.2,2.2l2.5,2.6l1.7,0.9l0.3,0.9l0.9,0.9v1.7l1.8,1.9l-0.9,1.3l-2.5-1.3
		L271.8,200.3L271.8,200.3z M270,191.4l-0.9-0.5l-1.6-1.8l-0.9-0.5l-1.3-0.8l-1.2-0.7v-0.9l-3-1.6l-0.9-0.8v-1.6l-1.3,0.7l-0.4-1.4
		l-0.8,0.5l-0.4-0.9l-1.7-0.8l-1.1-1.7l-1.4-0.6v-1.3h-1.6l-0.9-0.9v-0.4h0.4v-0.5l-0.9-0.9v-1.3l-0.4-0.5v-1.4h0.9l9,7.3l1.6,1.7
		l1.6,0.9l1.3,1.3v0.9h1.2l2.6,2.2l1.2,0.9l2.6,2.7v1.8l1.2,1.3l-0.8,1.8l-1.4-0.8L270,191.4L270,191.4z M249.7,220h0.9l2.1,2.2
		h-0.9L249.7,220L249.7,220z M250.1,262.8h0.4l-0.4-0.5V262.8z M251.8,245v-2.3l1.7-2.2l0.4-4.5l2.1-9.8l0.9-6.6l2.1-5.5h0.4
		l0.9,3.6l0.4,4.5l1.2,4l0.4,3.6l0.9,3.1v3.2l2.1,6v5.1h-10.2l-2.8-0.7L251.8,245L251.8,245z M254.8,212.8l1.2,1.7h-0.9l-2.3-2.4
		L254.8,212.8L254.8,212.8z M263.3,245.4v-4l-2-6.5l-0.5-3.8l-0.4-1.8l-0.5-4.1l-1.2-3.1l-2.5,12.7l-0.9,2.6v4.3l-1.6,2.4v1.4
		L263.3,245.4L263.3,245.4z M262.8,170.8l-3.8-2.7l-3-3.1l2.2-0.5l0.4-0.6l3.2,0.9l0.5-1.3l0.9,0.5l3.1,0.7l2.1,3.1v0.7h-1.3
		l0.4,1.7l1.2,1.4v0.9l0.4,0.9v2.7h-1.2L262.8,170.8L262.8,170.8z M256.5,171.7h0.4l-0.4-0.5V171.7z M257.8,178.8l-1.3-1.4v1.4
		L257.8,178.8L257.8,178.8z M256.9,210.1l0.9,0.9h-0.4l-0.9-0.9L256.9,210.1L256.9,210.1z M257.3,207.9h0.4v0.9h-0.4l-0.4-0.5
		L257.3,207.9L257.3,207.9z M257.8,204.8h0.4l-0.4-0.5V204.8z M260.3,212.4v0.9h-0.4l-0.9-0.9H260.3L260.3,212.4z M261.6,214.1h0.8
		l0.9,0.9v0.9L261.6,214.1L261.6,214.1z M279,233.8h1.2v-0.5l-0.4-0.5V232l-1.2-0.5l-2.2-1.3v0.5l2.2,2.2v1l-6-5.1h1.7l-0.9-1.3
		l-1.2-0.5l-0.9,0.5l-1.7-1.8l1.3-0.5v-0.5l-0.9-0.5l-1.3-0.8l-1.6-0.9l-0.4-0.5h-0.4v0.5l2.2,2.2h-0.5l-3.9-3L263,220h0.7v-0.5
		l-1.7-0.6v-2.8l2.6,2l0.4,0.5l13.1,10.7l3,3.1v1.4l1.3,2.2l-0.7,0.7L279,233.8L279,233.8z M266.6,218.6l-0.9-1.4l-1.2-0.3l-0.9-0.9
		l1-1l2.2,0.8l4,4.3l-0.4,0.5l1.7,2.2h-0.4l-3.8-2.6L266.6,218.6L266.6,218.6z M263.7,227.1l0.4-0.5l0.9,0.5v1.3l-0.4,0.5l-0.9-0.5
		V227.1z M265.3,221.2l-1.2-1.3v1.3H265.3z M265.8,167.7h0.4l-1.2-1.3h-0.4v0.3L265.8,167.7L265.8,167.7z M272.2,246.7V246l2.5,1.6
		l0.9,0.5l1.6,1.7h1.3l-0.9-1.3l-0.9-0.5l-0.4-0.5l-0.8-0.5l0.3-0.5l-1.5-0.5l-0.8-1.7h-0.9l-2.3-1.8l-0.9-0.8l-0.9-0.5l-0.8-1.4
		v-1.4l-1.4,0.8l-1.2-1.1l-0.3-1.4l0.8-1.8l0.9,1.8l6.3,4.5l4.7,4l1.3,0.8l0.8,0.9l0.9,0.5l2.1,2.2l1.7,0.9l1.3,2.6l-0.4,0.9
		l-3.3-1.7l-0.7,2l-6.6-5L272.2,246.7L272.2,246.7z M280.2,242.7l-2.1-1.7l-3.8-2.6l-2.1-2.3l-1.8-0.9l-2.1-2.2l-0.4-1.4l-2.8-2.4
		l1.7-0.9l8.3,6.9l0.4,0.9l1.6,0.9l6.1,5l-0.7,1.4l1.7,1.3l-0.9,0.9l-2.1-1.8L280.2,242.7L280.2,242.7z M267.1,193.1l-1.8-0.9v0.9
		H267.1L267.1,193.1z M267.2,242.2h0.8l0.4,0.5l2.1,1.8l0.4,0.9H270l-1.3-0.7L267.2,242.2L267.2,242.2z M282.4,261l-2.6-2.6l-5-3.6
		l-3.8-4h-1l-1.2-1.7l-1.2-1.4v-1.8h1.6l1.1,2.3l2,1.3l3.4,2.8l2.5,1.7l8.7,7.4l0.5,1.6l-0.9,1.7v-0.5l-1.6-1.7L282.4,261L282.4,261
		z M268.4,214.6h1.2l2.6,2.7v0.5l-2.6-1.7L268.4,214.6L268.4,214.6z M268.7,235.6h-0.3v-0.5L268.7,235.6z M269.1,236h0.9l2.2,1.8
		v0.5l-1.7-0.9L269.1,236z M272.5,256.8v-0.6l-1.6-1.8H270l0.8,1.5L272.5,256.8L272.5,256.8z M270.9,208.4l0.4,0.5h-0.4l-0.4-0.5
		H270.9L270.9,208.4z M272.2,220.5l1.2,1.3h-0.9l-1.2-1.3H272.2L272.2,220.5z M274.6,224.6l-2.1-1h2.2l1.2-1.4l-0.8-1.7l-0.9-0.5
		l-1.3-1.4v-0.5l2,0.7l4,4.3v0.7l-2.5-1.3l-0.5,0.6l0.9,0.9v0.8l-1.6-0.8L274.6,224.6L274.6,224.6z M273.4,238.7l1.7,1.8v0.5h-0.4
		l-2.2-2.3L273.4,238.7L273.4,238.7z M288.7,290.1l-1.1-0.6l-1.6-2.5h-1.3l-3.2-2.2l-0.4-0.5l-2.5-2.3l-0.9-0.8h-0.4l-3-3.1v-0.5
		l-0.9-2.3l0.9-0.5l0.5-1.5l1.5,1.2l2.6,1.3l1.2,1.4v0.9l1.3,0.3l0.9,0.9l10.5,9.2v1.5l1.7,3.6l-1,1.2l-4.2-2.9L288.7,290.1
		L288.7,290.1z M274.7,222.2v0.9l-0.9-0.9L274.7,222.2L274.7,222.2z M277.7,242.2l1.3,1.4v0.5l-2.6-1.8L277.7,242.2L277.7,242.2z
		 M279.1,267.1l-0.5-1.2l-1.3-0.7v0.9L279.1,267.1L279.1,267.1z M291,308.8l-1.5-2.7l-1.6-0.6v-1.7h0.9v-0.8h-1.3l-1.5,1l-1.9-2
		l-1.6-0.9l-3.3-3.3l-0.5-2l-1.3-2.8v-0.8h0.9l2.5,1.7l2.1,2.2l3.8,2.8l1.7,1.7l2.5,1.4l1.7,1.7l3.4,2.4l2.1,3l-0.4,0.9l0.9,1.3
		l-2,1l-1.9-1.5L291,308.8L291,308.8z M278.1,235.1v0.5l-0.4-0.5H278.1z M278.1,225.7l0.4-0.5l0.8,0.5v0.5l0.9,0.9v0.5l-2.1-1.2
		V225.7L278.1,225.7z M281.5,252.8v-1.2l-2.5-1.4v0.8L281.5,252.8L281.5,252.8z M286.3,312.9l-4.4-4h-0.7l-1.1-2.2l-1.2-1.4V302
		l1.6,0.6l1.7,1.3l6.3,4.5l4.2,4.5v0.6l-4.6-0.6L286.3,312.9L286.3,312.9z M282,263.8v-0.5l-2.8-1.3l1.5,1.7H282z M280.7,229.3v0.9
		l-0.4-0.5L280.7,229.3L280.7,229.3z M280.7,245l0.4,0.5h-0.4l-0.4-0.5L280.7,245L280.7,245z M282,245.8l0.8,0.9v0.5H282l-0.7-1.4
		L282,245.8L282,245.8z M282,254.8h1.6l3.8,4h-1.6L282,254.8z M284,247.6v0.5h-0.4v-0.5H284z M284,266.4h0.4L284,266L284,266.4
		L284,266.4z M288.3,276.2l-0.9-0.9v0.9L288.3,276.2L288.3,276.2z M289.5,305.3h0.9v-0.5L289.5,305.3L289.5,305.3z"/>
	<path class="st4" d="M311.9,312.5v-6.7l-0.7-3.7l0.7-2.2v-16l-0.7-4.2l0.7-2.1v-16.1l-0.7-3.6l0.7-2.2v-16.1l-0.7-4.1l0.7-2.1
		v-16.1l-0.7-3.8l0.7-2V195l-0.7-3.6l0.7-2.2v-16l-0.7-3.7l0.7-2.2l0.4-4.3l2.9-1.5h17.4l3.2,1l1.1,3.5v124.1h3l2-1l3.9,1h14.9
		l2.1-1.2l3.8,1.2h3.8l2.1,1l0.8,10.3l-0.8,4.8v7.7l-2.3,1.6h-55.8l-1.9-1L311.9,312.5L311.9,312.5z M335.2,313.8l1.5-0.5l7.8,0.5
		h11.9l1.4-0.5l9.5,0.6l3.5-0.7v-8.8l0.4-7.1l-0.5-4.8L367,292l-3.1-0.6l-2.1,0.6h-15.6l-3.4-0.6l-2.7,0.9l-4.9-0.9l-0.4-17.6
		l0.4-1.7l-0.4-20.1l0.4-2.3l-0.4-20.1l0.4-2.2l-0.4-19.7l0.4-2.2l-0.4-20.2l0.4-1.7l-0.5-19.3l-2.1-1.2h-12.4l-6.8,0.8v22l0.4,2.7
		l-0.4,2.7V208l0.4,3.1l-0.4,2.2v12.1l0.4,4l-0.4,0.5l0.5,3.3l-0.5,2v25.5l0.4,3.1l-0.4,2.3v16.5l0.4,3.1l-0.4,2.8v8.4l0.7,2.5
		l1.1,0.6l5,3.6l3.8,4l1.3,0.9l2.1,1.7l2.6,1.8v1.2l-3.4-1.2l-4-0.6l-3.6-3l-1.3-0.5l-2-1.4l0.8-2.2l-0.4-1.7l-1.6-2.3h-1v13h1.7
		l0.4-0.5l3.4,0.8L335.2,313.8L335.2,313.8z M327.6,227.6l-10.2-8.4l-1-0.6l-1.1-1.7l-0.4-1.7h1.1l6.1,5l0.7,0.6l1.9,0.7v-0.7
		l-9.3-7.6v-1.8l5,3.9l3.4,3.1l1.3,0.9l3.8,3.1l3.5,2.4l0.8,1.6l0.8,1.3h-2l1.6,2.3l-0.9,0.9v0.8h-0.4l-1.8-1.7L327.6,227.6
		L327.6,227.6z M315.3,229.9l0.4,0.5h-0.4l-0.4-0.5L315.3,229.9L315.3,229.9z M314.9,311.6v-0.5l0.9-0.5l0.4-0.8l0.4-0.5l0.4-1.2
		l2.2,3.2l-0.8,0.8l-2.3-0.7L314.9,311.6L314.9,311.6z M329.7,205.3l-2.2-1.8l-2.1-2.2l-1.8-1.4l-0.3-0.5l-0.9-0.5l-0.9-0.8h-0.5
		l-6-5l1.5-0.5v-1.4l-0.4-0.8v-1.8h1.2l1.3,1.4l10.9,8.3l3.1,3.3l-0.4,0.8l0.9,1.4l-0.4,0.9v2.2h-1.3L329.7,205.3L329.7,205.3z
		 M329.7,220.9l-0.9-0.5l-1.3-1.3l-5.5-4.5l-1.2-0.6l0.8-0.8h-1.3l-3.9-3.1l-1.3-2.1l1.1-0.6v-0.9l0.5-0.6l-1.3-2.1h1l2.3,1.8
		l1.3,0.8l2.5,2.8l1.6,0.8l0.4,0.5l1.3,0.9l0.4,0.5l1.6,1.3l2.5,2.3l1.2,0.6l0.5,1.1v5.8l-2.1-1.7L329.7,220.9L329.7,220.9z
		 M330.2,245.9l-1.3-0.5l-0.4-0.3l-2.1-1.4H325l-0.4-0.5l-0.9-0.5v-0.9l-1.9-0.6l-1.5-1.6l-1.6-0.9V237l-1.2,0.6l-0.5-1v-0.9
		l-1.6-1.7l1.3-0.5v-2.3h0.8l0.4,0.5l3.8,3.1l0.9,0.9l10.2,8.3v4.3l-2-1L330.2,245.9L330.2,245.9z M330.5,283.9l-0.9,1l-0.8-1.5
		l-2.1-0.6v-0.8l0.8-0.5v-0.3h-1.2l-0.4-0.5h-1l-1.2-1.8l-0.8-0.5v-0.7l-2.9-1.5l-0.9-0.9h-1.5l-0.7-1.3l-1.1-1.3l0.8-2.8l-1.3-1.8
		h0.9l1.6,1.8l2.2,1.3l0.3,0.5l9,6.7l3.8,4v0.9l0.4,0.9v1.1l-1.7-1.2l-0.9,0.8h-0.8l0.8-1.3L330.5,283.9L330.5,283.9z M331.8,240.1
		l-0.9-0.9h-2.1v-2.6l-0.9-0.5l-0.9-0.9h-0.8l-0.5-0.6l-1.9,0.7l-3.9-3.2l-0.4-0.5l-2.2-1.7v-1.4l2.2,2.3h0.7l-1.5-2.5l-2.5-1.3
		l-0.5-4.3h0.5l1.6,1.7l1.4,0.8l2.8,2.3l4.7,3.6l0.8,0.9l1.8,1.4l4.4,4.6l-0.7,1.5l1.3,1.5h-1.6l-1.2,0.6L331,241L331.8,240.1
		L331.8,240.1z M327.1,177.5l0.4-0.5l-0.4-0.3l-0.8,0.8l-2.6-2.7l-0.8-0.5l-3.4-3.6l-1.7-1.3l-0.4-1.4l0.9-0.9l-0.9-0.5h-1.6v-1.2
		h3.9l6.2,4.8l2.5,2.3l3.8,3v2.3l1.3,1.4l-1.1,1.2l1.1,1v0.7l-3.8-2L327.1,177.5L327.1,177.5z M330.5,264.7l-0.8-0.5l-0.9-0.8
		l-3.4-2.8l-5.1-4.5l-1.2-0.3l-3.2-3.3l0.7-1.2l0.3-0.5l-0.3-1.4l-0.9-0.8l1-1.6l3.6,3.3l0.9,0.5l3.4,2.7v1.7l3.4,2.3l0.9-0.5
		l0.4,0.5l1.6,1.2l0.4,1.1l0.9,0.3l1.1,3.6h-0.7l-3.4-2.7l-2.2-2.2l-1.2-0.5l-1.7-1.8l-3.4-1.7v0.7l2.2,1.5l0.4,0.5l2.1,1.8l2.1,2.2
		l1.8,0.9l0.4,0.5l2.4,2.1l0.7,1.3l-1.4-0.7L330.5,264.7L330.5,264.7z M320.3,285.7v-2.4l-1.2,0.7V283l0.9-0.5v-0.7l-2.3,1.5
		l-1.5-1.7l0.4-2l-0.5-2l0.7-0.7l3.3,3.3l1.2,0.9l0.9,1.3h1.3l1.4,1.6l-0.7,0.7l0.4,0.8l1.5,0.6l0.8,1.6l-2.2,0.6l-1-0.9
		L320.3,285.7L320.3,285.7z M322.5,183l-0.4,0.9l-0.4-0.5l-0.4-2l-4.5-3.9l-0.5-1.3v-2.8l0.4-0.3l0.3-1.8l11.3,9.1l1.5,1.6l2.5,1.8
		l1.5,1.6l-1.4,0.8l1.2,2.4v2.7l-10.1-8.4L322.5,183L322.5,183z M328.9,196.3l-1.8-1.4l-3-3.1l-2.5-1.3h-0.4l-0.5-1.3l-1.1-0.6
		l-3.4-3.6v-3.6h1.5l2.3,1.8l2.5,1.3l3.4,2.8l0.9,0.3l0.5,1.3l1.5,0.6l4.3,4.5v1.3l-0.4,0.9l0.7,1.5l-0.8,0.9l-2.4-1L328.9,196.3
		L328.9,196.3z M326.3,209.7l0.8-0.8h-0.3l-0.9,0.5l-1.5-0.6l-0.7-1.3H323l-1.7-1.7l-0.4-0.9l-1.2-0.5l-1.3-1.4l-1.3-0.7v-1.5
		l-0.8-2.7v-1.4h2.1l3,3.1l4.7,3.6l0.4,0.5l5.7,4.6l2.1,4.2l-1.4,1.5h-1.3l-1.6-0.9L326.3,209.7L326.3,209.7z M316.2,220.1l1.6,1.7
		h-0.9l-0.8-0.9V220.1L316.2,220.1z M316.2,255.8h1.2l3,3.1v0.9l-1.2,0.3l-3-1.8L316.2,255.8L316.2,255.8z M317.4,266.5l-0.8-0.5
		l-0.4-1.4l0.4-0.9v-3.1l2.8,2.1l0.5,1l-0.8,1.5l2,2.1h1.5l-0.7-1.3l-1.3-0.9V264l6,4.7v0.9h-2.6v0.9l1.2,1.7h-1.2l-5-4L317.4,266.5
		L317.4,266.5z M333.7,312l-1.9-1.4l-3.4-3.6l-1.1-2.2h-1.4l-0.8-1.6l-1.4,0.7l-1.6-1.7l-2.5-1.4l-3.4-3.6v-2.2l0.4-3.1l2.1,2.2
		l3.8,3.1l1.6,1.8l0.9,0.3l2.1,1.8l2.2,1.4l8,6.7l3.1,2.2l-1,1l-2.1-0.6L333.7,312L333.7,312z M329.7,253.5l-1.3-0.9l-2.3-2.4
		l-5.4-3.3v1.6l-2-1.4l0.8-0.7l-0.4-0.5h-1.3l-0.9-0.8v-0.9l-0.3-0.9l0.3-0.9l-0.3-0.5v-3.1l7.1,5.9l1.7,1.7l5,3.6l2.5,2.5l-0.8,1.5
		l0.9,1.4v0.8L329.7,253.5L329.7,253.5z M328,299.5l-3.8-3.9l-0.4-0.9l-2-1l-0.5-1.3h-1.6l-3-3.1v-3.1h1.6l2.1,2.3l2.6,1.7l1.6,1.8
		h0.9v4.4h0.9v-3.1h1.2l2.6,2.6h0.4l2.1,2.8l1.9,0.7l-0.7,0.6l-1.6-0.5L328,299.5L328,299.5z M318.3,252.6l-0.9-0.8v0.8H318.3
		L318.3,252.6z M317.4,263.8l0.4-0.3l-0.4-0.5L317.4,263.8L317.4,263.8z M317.4,281.6h1.7l-0.9-0.8l-0.9,0.5L317.4,281.6
		L317.4,281.6z M320.3,254.7V254l-1.6-0.9v0.7L320.3,254.7z M321.4,260.2l2,0.9v0.5l0.8,1.4l-0.8,0.8l-3.5-3.1L321.4,260.2
		L321.4,260.2z M321.6,232.1h0.4l-0.9-0.9h-0.9L321.6,232.1L321.6,232.1z M321.2,248.7h0.9l1.3,1.3v0.9L321.2,248.7L321.2,248.7z
		 M329.7,232.5l-0.4-0.5l-3.4-2.7l-3-3.1h0.5l6.2,4.8l1.2,0.9l2.2,2.3v0.7l-2.2-1.6L329.7,232.5L329.7,232.5z M323.4,233.4h0.3
		l-0.3-0.5h-0.4L323.4,233.4L323.4,233.4z M329.7,171.3h-0.9l-1.7-1.7l-0.3-0.9l-1.7-0.9l-1.6-1.4h1.6l0.4,0.5l0.9-0.8h3.6l2.8,2
		l-0.5,1.2l1.3,1.7l-2.1,2.1l-1.3-0.7L329.7,171.3L329.7,171.3z M324.1,204.9h0.4l-0.4-0.5V204.9L324.1,204.9z M325.5,236.1H325
		v-0.5L325.5,236.1L325.5,236.1z M327.1,266.1h-0.8l-0.4-0.9l-0.9-0.5v-2.2l1.7,1.7l1.2,0.9l0.9,1.4l1.3,1.7l-0.7,0.7l-1.5-1.6
		L327.1,266.1L327.1,266.1z M325.5,285.2H325l0.4-0.3L325.5,285.2L325.5,285.2z M325.9,273.2h-0.4v-0.5L325.9,273.2L325.9,273.2z
		 M330.2,290.1h-0.9l-0.4,0.9h-0.4v-1.4l-0.9,0.5l-1.1-0.6l1.1-1.1v-2l2.7,1l2.8,3.7v1.6l-0.9,0.5l-0.9-0.5L330.2,290.1L330.2,290.1
		z M326.8,241.9h0.8l-0.4-0.3L326.8,241.9L326.8,241.9z M328.8,271.8l-1.9-0.9l0.7-1.4l3.7,2.7v1.5l-1.6-0.9L328.8,271.8
		L328.8,271.8z M328,182v-0.5h-0.4L328,182L328,182z M327.5,295.6h0.4v-0.5h-0.4L327.5,295.6L327.5,295.6z M328,274.9v-0.5h0.9
		l1.1,0.6l2.2-1.1l1.4,1.5l-1.3,0.5h-1.6l2.4,3.1h-1.2L328,274.9L328,274.9z M328.4,288.4l0.4-0.5h-0.4L328.4,288.4L328.4,288.4z
		 M330.2,168.7h0.8l-0.8-0.5V168.7z M330.2,218.7h0.3l-0.3-0.5V218.7L330.2,218.7z M330.9,268.7l1.3,0.9v1l-1.9-0.7L330.9,268.7
		L330.9,268.7z M331.4,256.6l0.9,0.9v0.5l-0.9-0.5L331.4,256.6L331.4,256.6z M332.7,165.6l-0.4,0.5l-0.4-0.5L332.7,165.6
		L332.7,165.6z M332.2,285.7v0.5h-0.4v-0.9L332.2,285.7L332.2,285.7z M333.6,166.4l-0.4,0.5v-0.5L333.6,166.4L333.6,166.4z
		 M343.3,303.5l-1.3-1.3l-0.4-0.9l-1.2-0.5v-0.5h0.8l0.9-0.5l-1.3-0.5l-0.3-1.7l-0.9-0.9l-1.2,0.6l-1.7-1.8h-1.7l-0.9-0.5l0.9-1.8
		v1.4h3.4l4.3,3.3v1.2h1.6l1.3,1.3v0.7l-1.3-0.7l-0.3,0.5l0.5,1.2l3.6,0.7l-1.6,0.3l-0.4,0.9l-0.4-0.5L343.3,303.5L343.3,303.5z
		 M342,309.4l-0.9,0.8l-1.6-1.7l-0.4-0.9h-1.3l-3-3.1l0.9-0.9h-1.8v-2.9l1.5-0.7l7,5.9l0.4,0.5l1.6,0.8l1.3,1.4l2.5,1.7l1.3,1.4
		l-1.7,0.5l-1.7,0.6l-2.1-1L342,309.4L342,309.4z M334.3,302.3h0.9v-0.9L334.3,302.3L334.3,302.3z M336.9,297.7l1.6,0.6h1.3
		l-0.4,1.3l-2.5-0.8L336.9,297.7L336.9,297.7z M342,294.7l-0.4-0.5h2.5v0.9l-1.6-0.5H342L342,294.7z M362.3,309l-1.6-1.8h-0.4
		l-1.4-1.4l-1.4,0.7l0.7,0.7h-1l-2.8-2.2l0.7-1.8h-1.2l-0.7,1.4l-0.4-2.2l-0.9,0.5l-0.4-0.9h-1.2l-0.9-0.9v-1.4h-1.3l-1-1.5
		l-2.2-1.6l0.7-1.3l-0.4-0.9l2.2-0.6l10.2,8.2l0.8,0.9l1.3,0.8l1.6,1.4l1.3,0.9l3.8,3.1l2.1,1.5v1.2h-3l-2.1-2.2L362.3,309
		L362.3,309z M354.9,312.1l-1.9-1.4h-1.3l-1.2-1.3l1.6-0.6v-1.7h-0.4l-0.4,1.4l-0.8-0.5l-0.4-0.9h-1.3v0.5l0.4,0.5h-0.9l-0.4-2.7
		l-0.4-0.5l-0.3,0.5h-1.7V305l1.3-0.5v-0.9h1.2l0.9,0.5h1.5l0.8,1.7l2.2,0.8l1,1v0.5h0.4l5.6,4.3v0.7l-2.6-0.9L354.9,312.1
		L354.9,312.1z M346.2,301.4v0.5l-0.4-0.5L346.2,301.4L346.2,301.4z M365.3,303.1l-0.4-1.3l-1.6-0.5l-1.3-1.4l-2.5-1.3l-3-3.1h-1.7
		l1,2l2.4,1.8v0.6h-0.8l-0.9-0.8l-1.7-1.4l-0.8-0.9l-1.7-1.3l-0.4-0.5l-1.2-0.9v-0.9h0.8l2.2,1.8h1.1l-1.3-2.1l2.7,0.7h0.8l2.2,1.8
		l3.4,2.2l0.4,0.5l1.6,0.9l2.2,2.2l3,2.3v1.7h-0.9l-2.5-2.7L365.3,303.1L365.3,303.1z M361,295.1l-1.6-1.8h1.3l0.3,0.5l1.3,0.9
		l1.3,1.7h-0.9l-1.3-1.3L361,295.1L361,295.1z M359.8,301.4h0.9v0.9h-0.9L359.8,301.4L359.8,301.4z M362.8,303.5v0.5l-0.4-0.5
		L362.8,303.5L362.8,303.5z M364.4,292.4h0.9v1.8h-0.9V292.4z M364.4,297.3h0.9l1.7,1.8l-0.7,0.6l-2-2L364.4,297.3L364.4,297.3z
		 M364.4,304.9l1.3,1.4h-1.3L364.4,304.9L364.4,304.9z M366.1,295.6v-2.3l2.8,1.5l-1.1,1.1l-0.4-0.3H366.1L366.1,295.6z
		 M367.9,299.5l0.8,0.9v0.9h-0.4l-0.8-1.8L367.9,299.5L367.9,299.5z"/>
	<path class="st5" d="M383.5,315.5l-1.6-1.7v-10.4l-0.4-12.3l0.7-3.6l-0.7-18.2l0.7-4.3l-0.7-18.2l0.7-3.5l-0.7-18.3l0.7-4.3
		l-0.7-18.1l0.7-3.6l-0.7-18.3l0.4-2.9v-14.8l1.4-1.4l2.8-0.8h16.9l2.3,1.3l0.7,1.8v6.7l0.6,3.5l-0.7,5.5v12.9l0.4,2.3v5.8l2.5-2.7
		l0.9-2.8l2.4-2.5l1.4-3.7l2.4-1.5l0.8-3.2l3.2-3.3l0.8-2.5l2.7-3.2l8-12.7l3-1.6h20.4l2.9,1l1.2,2.5v1.8l-2.9,3.6l-2.5,3.9
		l-1.7,2.3l-1.2,2.7l-2.5,2.6l-1.3,2.8l-2.1,2.6l-0.9,1.7l-3,4l-3,5l-2.6,3.1l-2,3.6l-4.4,6.2l-3.4,5.4l-4.9,6.8l-1,2.5l-2.4,2.5
		l1.5,3.3l2.4,3.7l3.5,7l3.2,4.7l2.6,7l3.9,7.4l0.9,1.4l2.2,4.5l2.1,3.6l5.1,10.3l4.4,6.9l4.3,10.7l1.8,2.9l3.1,6.2l2.5,4.5v1.9
		l-0.9,0.8L456,316h-14.8l-3.1-0.5h-3.8l-2.1-2.2l-1.6-3.6v-2.1l-3.7-4.8l-3.1-6.6l-1.2-3.1l-1.9-3.1L409,266.5l-1.1-2.9l-1-1.6
		l-0.9,6.2v13l0.6,3.5l-0.7,5.4v13.4l0.6,3.6l-0.8,5.6l-1.3,2.9l-5.4,0.5l-3-0.5L383.5,315.5L383.5,315.5z M398.9,314.5l2-0.7
		l2.6-0.5l0.8-0.9v-57.2h1.2l1.3,4.2l2.6,3.9l3.8,7.9l2.5,4.5l10.6,21.4l0.9,1.4l4.9,8.9l2.2,5.7l6.6,1.4l2.8-1.1v-0.5l-1.3-0.5
		l-2.5-1.4h-1.3l1.7,1.8h-0.9l-2.5-1.4l-4.3-4.5v-0.3h0.9l2.1,2.2l2.5,1.4h0.9l-7.4-6.3l-0.7-1.7l-1.6-1.8v-0.5h1l7.1,6.3l2.5,1.7
		l0.9,0.9l2.5,1.7l3.5,3.2h11.7v-2.4l-3.2-5.5l-1.4-3.7l-9.5-16.8l-3.4-8.3l-1.5-2.5l-2.1-4.5l-2.6-4l-1.2-2.6l-1.3-2.3l-4.7-9.8
		l-1.2-1.4v-0.5l-0.9-1.3l-1.3-0.7l-1.3,0.7l-2.8-2.3l-3.2-2.2l-5.8-5.3l-7.1-5.9h1.2v-1l-0.5-0.6l-1.3,0.7l-2-0.9l-0.9-0.9l-3-2.1
		v0.7l2.9,3.1v0.5h-0.3l-3.4-3.6v-0.8l-0.9-0.9h-1.3v-1.2l2.2-1.2l-1.9-1.3l1.2-0.6l7,5.4l2.1,2.3l1.7,0.9l0.3,0.3l9.4,7.6l0.8-0.8
		h0.4l-0.4,0.8l3.8,4v1.4l2.6,1.7l0.3,0.5h0.4v-1l-2.9-5.2l-4.3-8.5l-2.1-3.7v-1.2l2.1-2.3l3.8-6.2l2.2-2.6l5-8.1l2.5-3.6l3.4-5.4
		l2.7-3.3l1.5-3.3l3-3.6l1.3-2.7l2.5-3.1l0.9-1.8l3.7-4.6l1.8-3.8l2.2-2.3l1.6-3.1l1.7-1.7v-1.4l-0.9-0.8l-7.1-0.6l-4.4,0.5h-11.5
		l-2.1,3.2l-2.1,2.7l-1.7,3.1l-1.9,2.4l-1.1,3.1l-2.4,1.6l-1.1,3.7l-2.7,1.8l-0.8,4l-2.6,1.8l-1.8,3.3l-1.7,2.7l-1.6,3.1l-3.5,4.2
		l-1.5,3.3l-0.5-3v-39.8l-1.1-1.2l-17.4-0.7l-2.3,1.1v12.8l0.9,4h0.4l0.4-0.9l0.7,0.7l0.7-0.7l0.3,0.9l1.3,0.3l6.3,4.5l2.5,2.6
		l1.8,1.4l0.4,0.5l2.5,1.7v1.3l-2.1-1.5v0.9l2.5,1.7v1.8l-1.3-0.7h-0.8l1,1.7l-2.3-1.3l-1.3-1.3l-1.7-1.4l1.2-0.6l-2-2.1h-0.9v0.7
		l1.3,0.6v0.9l-1.8-0.9l-1.2-1.3l-1.7-0.9v-0.9h1.7l0.9-0.5h1.6v-0.8l-2.1-1.1v1.2l-0.7,0.6l-2.7-2l-1.3-0.5l0.9-0.9l0.4-0.8
		l-1.4,0.7l-1.2-1.2v-0.5l-3.4-1.8v17.8l0.8,2.2l-0.8,2.8v16.9l0.7,3.1l-0.7,1.8v17.4l0.7,2.5l-0.7,2.4V265l0.7,2.7l-0.7,2.8v16.9
		l0.7,2.4l-0.7,2.5v12l0.4,1.4l-0.4,0.5v3.1l1,4.5H395L398.9,314.5L398.9,314.5z M413.7,219.5l-1.3-0.9l-1.3-1.4l-1.2-0.8l-1.7-1.4
		l-1.6-1.2v-0.6h2.9l-1.7-1.8l-0.8-0.5l-1.7-1.7l-3.4-2.8l-5.5-4.8l-1.3-0.9l-2.5-2.2l-1.7-0.9l-0.8-0.9l-4-3.6l-1.1-1.7V190
		l-0.4-1.4v-1.3l-0.5-1.6l1.4,0.7l0.4,0.5l3.5,3l-1,1h0.9l0.9-0.5l0.3,0.5l-0.5,0.7l0.5,0.6l0.4-0.8l0.9,0.8v0.9l1.1,1.1l1-1.1
		l3.1,3.1v0.9h0.8v0.5l-2,0.6l1.5,1.6l2.6,1.8l2.5,2.6l1.3,2.7l2.5,1.4h1.6V207l0.9-0.5l0.4-0.8l1.6,1.7l3.8,2.6l1.3,1.4l1.6,0.9
		l3.3,3.3l-1.1,1.1l-2.3-1.3l0.6,1.4l1.6,1.1l0.4,0.9l-2.8,0.6l-2.3-2.4h-1.2v0.8l3.9,3.1l-0.9,0.8L413.7,219.5L413.7,219.5z
		 M409.9,224v-0.5l-0.9-0.5v-0.5l-0.4-0.9l0.4-0.5l-4.9-2.1l-0.5-0.6l-1.3-0.9l-0.4-0.5l-1.6-1.3l-0.9-0.9l-3.4-2.4v-2.1h-0.4
		l-0.4,0.9l-0.9-0.5v-0.9l0.9-0.8l-2.2-3.5l-1.6-0.6H390v-0.9l-1.8,0.5l1.3,1.4l1.2,0.6v1.5l-1.6-1.3l-1.3-1.3l-1.2-0.9l-0.4-0.9
		l1.1-0.6l-2.4-2.5l1-0.6l-1.9-3.9l0.5-1.6l1.2,1.2l0.9,2l1.3-0.6l3.3,2.2l-1.2,0.5H389v0.6l3.4,3l3.4,3.6l4.3,2.8l1.6,1.7l2.5,1.8
		l0.4,0.3l1.3,0.9l9.9,8.2l-1.5,1.6v2.3h-1.6l-0.4-0.5L409.9,224L409.9,224z M396.8,183.3l-1.2-0.6l-1-2.1l-2.5-0.9l-2.1-2.3
		l-2.2-1.4l-3.7-3.3l1.2-0.6l-0.9-0.9v-1.7l12.7,10.7l2.6,1.7l3.1,3.3l-0.5,1.1v1.2l-3-1.6L396.8,183.3L396.8,183.3z M393.4,243.1
		L390,240l-3.7-2.9l-1.9-2.9h1.5l3.2,2.7l4.3,4.5l3,2.2l0.8,1.4l-0.3,0.5h-0.9l-0.4-0.5L393.4,243.1L393.4,243.1z M388.2,312.9
		l-1.3-0.5h-1.3l-0.9-2.5l0.7-0.7l-1-3.1l2.2,0.6l1.9,1.3l-0.8-3.8l-0.9,0.8l-1.1-0.6v-1.7l-1.3-1.4h2.5l2.6,2.2l5,3.6h0.4l-0.4-0.8
		l-2.5-1.8l-3.8-4V299l-3-2.5v-2.3l-0.5-2.2l9.1,7.4l4.6,2.9h0.9l-0.4-1.4l0.4-0.5l-0.9-0.8v1.4l-5.9-5.4h1.2l0.7-1.3l6.1,5.7
		l1.7,0.9v1.4l-0.4,0.9l-0.4-0.5V302l-1.9,0.6l1,2.2l-0.3,0.5l-2.2-1.8l-2.5-1.7l-3.1-2.7h-1.5l1.3,2.1l2.4,1.5l2.5,2.6l3.1,2.1v1
		l-0.7,0.7l1,1.5l-0.3,0.5v1.4h-1.5l-4-2.8v0.6l2,3.1h-0.7l-0.4-0.5L388.2,312.9L388.2,312.9z M395.9,278.4l-3-3.1l-7-5.8l-1.4-2.2
		h1.2l4.3,3.6l2.1,2.2l1.6,0.9l2.6,2.6l1.6,0.9l0.4,0.8l-0.4,0.9H397l-0.3-0.5L395.9,278.4L395.9,278.4z M395.9,273.6l-2.2-2.7
		l-2.8-1.5l-0.5-1.3l-5-4.1v-0.7l1.6,0.5l1.7,1.7h2.1l-1.6-0.9l-1.8-1.7l-2.5-2.1v-1l0.4-0.5l0.7-1.5l2.3,2.4l-0.5,1.2l1,0.6
		l1.3,1.4l7.1,6.2l3.4,2.7l2.2,2.3h-1.7l-0.4,0.3l0.4,0.9l1.4,0.8l1,2l-1.5-0.5v1.1l-5.3-4.3L395.9,273.6L395.9,273.6z M386.1,279.3
		l0.4,0.6l0.8,0.2l0.7-0.7l1.5,0.3h1l4.9,4.4l1.3,1.5v-0.1h0.8l2.2,1.8l2.3,1.6l-1.1,1l-2.1-2.2l-1.2-0.6l-3.7-0.5l-2.7-1.5v-1
		l-0.9-0.5l-3.3-3.1h-0.9l-1.3-1.4L386.1,279.3L386.1,279.3z M386.6,168.6v0.9h-0.4l-0.9-0.9L386.6,168.6L386.6,168.6z M388.7,235.1
		l-1.3-0.8l-2.1-2.3v-0.6l1.3,0.6l2.1,2.3l2.1,1v1.5l-1.6-1.3L388.7,235.1L388.7,235.1z M385.3,284.3h0.4l0.9,0.9v0.3l-1.3-0.6
		L385.3,284.3L385.3,284.3z M391.2,292.8l-5.9-5v-0.9h0.9l0.4,1l2.1,0.8v-0.9l-1.8-0.9V286h0.9l2.5,2.3l-1,1.6l2.3,1.5l2.1,2.2v0.7
		l-1.2-0.7l-0.9,0.4l-0.4-0.5L391.2,292.8L391.2,292.8z M385.5,216.9h1.1l0.3,0.8l0.9,1.4l-0.5,0.6l1.2,2l-2.1-1L385.5,216.9
		L385.5,216.9z M388.7,255.7l-2.1-1.4l-1-2.1l0.5-0.6l1.2,1.3l2.2,1.4l1.2,1.4l3.4,3v1l-4.5-3L388.7,255.7L388.7,255.7z
		 M385.7,206.5l0.4-0.5l4.6,3.7v1.6l-5-3.9V206.5L385.7,206.5z M386.1,211l-0.4-0.5v-1.7l3.4,3.6h-1.3l-0.7,0.7l-1-1.2L386.1,211
		L386.1,211z M385.7,227.6h0.4l0.4,0.3l-0.4,0.5l-0.4-0.5L385.7,227.6L385.7,227.6z M385.7,239.1l0.9,0.5l0.3,0.9h-0.3l-0.9-0.9
		L385.7,239.1L385.7,239.1z M393.4,254.8l-2.2-2.2h-1.6l0.5-1.3l-2.7-1.5l-1.2-2.7l1-0.5l-1.4-2.2v-0.9l0.9-0.5l1.2,1.4l0.4,1.3h0.9
		l0.9,0.9l3.7,3.1l1.7,1.8l0.9,0.5l1.6,1.7v0.5H397l-3.7-2.7v0.9l2.1,2.2l2.5,1.7v0.8l-3.6-2.5L393.4,254.8L393.4,254.8z M387.3,274
		l-1.6-1.8V271l6.3,5.4v1.2h-0.4l-2.5-2.8L387.3,274L387.3,274z M398.8,176.6l-1.8-0.9l-3.4-3.6v-0.5h-1.2l-1.7-1.7l-4.8-4l1.9-0.9
		l2.2,1.7l1.6,0.9l2.1,2.3l2.2,1.3l0.4,0.5l3.4,2.6l2.1,2.3v2.5l-1.6-1.3L398.8,176.6L398.8,176.6z M386.2,214.5l1.6,0.9v1.1
		l-1.6-0.9L386.2,214.5L386.2,214.5z M386.6,256.5h1.2l1.3,1.4v0.5h-0.9l-1.6-1.2L386.6,256.5L386.6,256.5z M386.6,276.9l1.5,0.8
		l0.8,1.6h-1.1l-1.2-1.3L386.6,276.9L386.6,276.9z M388.7,203.4h0.4v-0.5l-1.3-1.3h-0.9L388.7,203.4L388.7,203.4z M387.3,198.9h0.4
		l-0.4-0.3L387.3,198.9L387.3,198.9z M387.3,224h0.4l1.3,1.3v1.4l-0.4,0.9l-0.8-0.8L387.3,224L387.3,224z M388.2,242.2l-0.9-1.3h0.9
		l1.3,0.9v1.3l-0.4-0.5L388.2,242.2L388.2,242.2z M396.7,177.4l-3.4-1.7l-5.6-4.8v-0.6h0.9l4.3,3.6l1.2,0.9l1.7,1.4l2.1,1.5v0.7
		h-1.2L396.7,177.4L396.7,177.4z M414.9,235.5l-0.4-1.3l-0.5,1.1l-1.1-1.2l-0.9-0.5h2.1l-1.6-2.3l-1.8-0.8l-0.8-0.9l-6.3-5l-1.2-1.2
		l-1.4,0.7l-1.2-1.3l-1.1-0.6l-1.1-1.3l-2.3-3.1l-0.8-0.2l-1.1-0.7v-0.8L392,215h2.1l-2-2.2l-0.7,2.5l-1.2-1.3h-1.2l-0.9-0.5
		l0.9-0.3l0.4-0.5h1.6l0.9-2l3.4,2.8l0.9,0.9l0.8,0.5l2.2,1.8l11.8,9.8l0.9,0.5l1.7,1.7l0.3,1.4l0.4-0.5h0.4v1.4l0.9,0.8v0.9
		l0.9,1.4l0.4,1.3l0.8,1.4l-0.4,0.5h-1.2v-1.8L414.9,235.5L414.9,235.5z M390,298.6h0.8v-0.9l-2.1-1.2v1.2L390,298.6L390,298.6z
		 M389.1,186.9l1.2,0.9l-0.3,0.3l-0.9-0.8V186.9L389.1,186.9z M391.6,222.6l-2.1-1.4l-0.4-0.8h0.4l1.2,0.8h1.7V220h0.4l1.6,1.7v0.9
		h-0.7l-0.8-1.6l-0.7,0.7v0.9l0.9,0.5v0.7l-1.3-0.7L391.6,222.6L391.6,222.6z M389.1,248.5h0.4l-0.4-0.5L389.1,248.5L389.1,248.5z
		 M391.6,261.5l-1.3-1.3l-1-0.6l0.7-1.5l1.2,0.7l0.9,1.7l2.5,1.8l1.7,1.7h-0.9l-1.3-1.3L391.6,261.5L391.6,261.5z M395.9,169.9
		l-1.8-1.8l-1.2-0.9l-0.4-0.5l-1.3-0.8l-1.2-1.4h1l3.2,2.2l0.4,0.5l0.9,0.5l1.6,1.4l0.9,0.5l2.2,1.7h0.8l-0.8-1.3l-1.7-0.9v-0.9
		l-1.3-0.5l-0.3-0.9l-2.2-1.4v-1l3,0.8v-1.6l1.7,0.6l2.2,0.6l1.2,1.3v1.7h-0.9v0.5l1.3,1.4l0.4,1.3l-1.7,0.9v0.9l1.1,2.2h-0.6l-2-1
		L395.9,169.9L395.9,169.9z M390,222.2l1.2,1.4H390L390,222.2L390,222.2z M391.6,232.4l-1.3-1.3v-2.8l-0.3-0.8v-1.5l1.6,0.6l5.1,4.1
		v1.2l-2.7-1.7l0.5,1.3l0.9,0.5v0.9H395l-0.4-0.5L391.6,232.4L391.6,232.4z M391.2,244.5l-0.4-0.9l0.4-0.5l0.9,0.9l1.3,0.9v0.8h0.8
		l-0.4,0.5h-0.8l-0.5-1.2L391.2,244.5L391.2,244.5z M390.7,288.8h0.9v0.8h-0.9V288.8z M391.6,219.1v0.5l-0.4-0.5L391.6,219.1
		L391.6,219.1z M391.6,236.9l0.6-0.7l0.7,0.7v1.4l-0.9-0.5L391.6,236.9z M394.5,235.5l-2.1-2.2l1.1-0.6l2.7,2.8l0.8,0.5l2.8,2.9
		l-0.7,0.7l-2.9-3.1L394.5,235.5L394.5,235.5z M392.9,290.5h1.1l4.4,4v0.8l-5.5-3.9L392.9,290.5L392.9,290.5z M393.7,277.6l0.9,0.5
		v0.8l-0.9-0.5L393.7,277.6L393.7,277.6z M395,197.6v0.5l0.9-1.8l-0.9,0.5h-0.9v0.5L395,197.6L395,197.6z M394.6,216v-0.5h-0.4
		L394.6,216L394.6,216z M395,195.8v-0.5h-0.4L395,195.8L395,195.8z M395.6,239.1l10.5,8.5l0.1,0.1l-0.3,0.1l-0.7,0.7v-0.5l-0.5,0.2
		l-10.1-8.8L395.6,239.1L395.6,239.1z M395,246.3l1.8,1.4h-1.3l-0.9-1.4H395L395,246.3z M395,260.2l0.9,0.8h-0.4l-0.9-0.8L395,260.2
		L395,260.2z M400.2,292.4l-0.9-0.9l-0.4,0.9h-0.5l-0.8-2.3l-1.6-1.7h0.9l0.8,0.8l3.7,3l0.5,1h-0.4l-0.4-0.5L400.2,292.4
		L400.2,292.4z M396.8,186v-0.7l1.2,0.7v0.9l-0.4-0.5L396.8,186L396.8,186z M397.1,226.2h1.3l-1.3-1.4l-0.3,0.5L397.1,226.2
		L397.1,226.2z M397.1,261.9l0.9,0.9h-0.4l-0.8-0.9L397.1,261.9L397.1,261.9z M398.4,268.2l-1.6-1.3v-2.3h1l4,3.1l1.3,0.7v2.1
		l0.4,0.8v0.9l-2.2-1.3L398.4,268.2L398.4,268.2z M397.5,231.5l2.6,2.8v0.5l-2.6-2.1L397.5,231.5L397.5,231.5z M398,234.7l0.4,0.3
		l-0.4,0.5l-0.4-0.5L398,234.7L398,234.7z M398.9,247.7l-1.3-1.4V245l3.4,2.6l2.6,1.7v1.4h-0.9l-2.5-2.7L398.9,247.7L398.9,247.7z
		 M397.6,250.3v-2.7l4.3,4.5h-1.3l-1.6-1.8L397.6,250.3L397.6,250.3z M397.6,281.6h0.9l0.9,0.3l-0.4,0.4l-1.3-0.5L397.6,281.6
		L397.6,281.6z M400.2,184.8v-0.6l-2.2-1.7v1.3L400.2,184.8z M399.1,178.6l1.1,1.1l-0.4,0.5l-1.3-0.9L399.1,178.6L399.1,178.6z
		 M398.4,193.1h0.4v-0.5l-0.4-0.5V193.1L398.4,193.1z M398.4,263l3.8,3h-0.9l-3-2.1L398.4,263L398.4,263z M399.3,187.4l0.4,0.5v0.3
		l-0.9-0.3L399.3,187.4L399.3,187.4z M400.7,281.9l-1-1.6l-0.9-0.5v-1l2.1,1.5l2.7,2.9l-0.5,0.7l-0.9-0.9L400.7,281.9L400.7,281.9z
		 M399.3,295.5v0.5l-0.4-0.5H399.3z M401.4,260.5l-1.5-0.5l-0.8-1.7h1.1l1.6,1.8v1.7l-0.4-0.5C401.4,261.5,401.4,260.5,401.4,260.5z
		 M399.3,206.5l0.4,0.5v0.5l-0.4-0.5V206.5z M399.7,236h-0.4v-0.5L399.7,236z M399.3,285.2l0.4-0.9h1.2l0.4,0.5h0.9l0.9,0.8
		l-0.4,0.5l-2.5-0.8L399.3,285.2L399.3,285.2z M400.3,254.9l2.8,3v1.3l-3.5-2.9L400.3,254.9L400.3,254.9z M400.5,201.6v-0.5
		l-0.8-0.9l0.5-1.7l2.8,3.1l-1.2,0.6l-0.5-1L400.5,201.6L400.5,201.6z M420.1,256.2l-2.6-1.4l-3.4-3.6l-6-4.3l-8-7.4h1l4.6,3.6
		l0.9,0.9l0.8,0.5l0.4,0.5l1.7,1.3l5,4.5l2.2,1.5l3.4,3l2.6,2.1l-1.1,1.3L420.1,256.2L420.1,256.2z M400.2,236.5l0.3-0.5v-0.9
		l0.4-0.3l3,2.1v0.6l-1.2,0.5l-1.3,0.7L400.2,236.5L400.2,236.5z M400.2,296.3h0.3l3.8,2.8h-1.2l-2.6-1.8L400.2,296.3L400.2,296.3z
		 M400.9,207.9l0.9,0.9h-0.4l-0.9-0.9L400.9,207.9L400.9,207.9z M400.5,308.6l1.7,0.9v0.9l-1.7-0.9V308.6L400.5,308.6z M400.9,180.2
		l1.3,1.3v0.9h-0.4l-0.9-0.9L400.9,180.2L400.9,180.2z M401.4,186h0.4v-0.5h-0.4V186z M401.8,197.2v0.5l-0.4-0.5L401.8,197.2
		L401.8,197.2z M401.4,236.9h0.9v-0.5h-0.9L401.4,236.9L401.4,236.9z M402.3,189.5v0.5l-0.4-0.5H402.3L402.3,189.5z M403.6,233.3
		v0.9h-0.4l-0.9-0.9L403.6,233.3L403.6,233.3z M402.2,279.3l1.6,0.9l-0.3,0.5l-1.3-0.9L402.2,279.3L402.2,279.3z M402.7,290l0.9,0.5
		h-0.9l-0.4-0.5H402.7L402.7,290z M403.1,238.3l0.2-0.2l1-0.2l0.9,0.8l3.1,2.3l4.6,3.1l1.6,1.4v2.2l0.4,0.5l-0.7,0.7l-0.5-0.7v-0.5
		l-2.6-1.4l-7.5-6.3v-0.3l-1.2-0.6L403.1,238.3L403.1,238.3z M403.1,190.9h-0.4v-0.5L403.1,190.9z M403.1,263.3h-0.4v-0.5
		L403.1,263.3z M404.4,210.9l1.2,0.6v1.2l-1.8-1.2L404.4,210.9L404.4,210.9z M404.8,235.1v0.5l-0.4-0.5H404.8L404.8,235.1z
		 M419.2,264.6l-0.9-0.8l-1.6-1.4l-1.7-1.8l-2.5-1.3l-0.4-1.4l-3.8-2.6l-0.9-0.9l-3-2.1v-1.8l7.2,5.8l1.7,1.7l2.5,1.8l0.4,0.5
		l2.5,1.7l3,3.1v0.5h-0.4l-0.4-0.5L419.2,264.6L419.2,264.6z M407.7,237.4l0.9,0.9h-0.9L407.7,237.4L407.7,237.4z M408.1,250.3v0.5
		l-0.4,0.5v-0.9L408.1,250.3L408.1,250.3z M408.6,227.6h0.9l-0.4-0.5h-0.4L408.6,227.6L408.6,227.6z M416,257l-1.1-0.5l-2.1-1v-0.9
		l-1-0.3l-0.8-0.8l-2.5-2.2h1.7l0.3,0.5l0.8,1.4l0.1-0.1h1.3l0.7,1.4h1l1.9,2.4l0.8-0.3v0.6l1.3,0.8l-0.6,0.6h-1.2l-1.2-1.1L416,257
		L416,257z M435,280.7h-0.7l-0.8-0.9h-1.3l-3-3.1h-0.4l-0.4-0.5l-1.2-0.9v-0.8l-0.9-0.5l-2.2-1.8h-0.3l-3.1-3.1l-4.2-3.1l-3.4-3.6
		H412l-3.4-3.6v-1.5l3.8,3.2l0.9,0.9l1.6,0.9l1.7,1.7l3.4,1.8v1.4h1.2l0.4,0.8l0.9,0.5l0.4,0.5l1.6,1.4l0.4,0.5l2.2,1.6v0.6l1.6,0.9
		l10.1,8.3l-2.1,1.4L435,280.7L435,280.7z M409.9,214.6v-0.5l-0.4-0.5v0.5L409.9,214.6L409.9,214.6z M418.3,211.9l-0.9-0.5l-3.4-2.7
		l-0.3-0.9l-2.6-1.7l-1.2-1.4v-0.9l0.7,0.8l0.7-1.5l-1.3-2.1l2.5-1.7l0.4-0.5l1.2-0.3v-1.4l-0.3-0.9l0.3-0.5h2.6l2.1,2.3l6.3,4.5
		l2.5,2.6v2.2l-2,2.2l-1.8-1.3H423v0.7l1.2,0.7l0.5,1l-2.9,1.5l-0.6,1.8l-1.6-0.8L418.3,211.9L418.3,211.9z M410.3,210.1v-0.3h-0.4
		L410.3,210.1L410.3,210.1z M412.8,216.9h0.4l-1.2-1.8h-1.7L412.8,216.9L412.8,216.9z M411.1,224h0.9v-0.5h-0.9V224L411.1,224z
		 M411.1,240.5l1.3,0.9v0.5H412l-0.9-0.9V240.5L411.1,240.5z M421.3,207.4h0.9l-0.9-1.3h-0.5l-2.5-2.8l-1.6-0.8l-2.2-1.8l-1.6-0.9
		v0.5l2.5,2.7l0.4,0.9h0.4l3.4,1.8L421.3,207.4L421.3,207.4z M413.3,242.2h0.8l3.4,3.6h-0.8L413.3,242.2L413.3,242.2z M413.7,266.4
		h-0.4V266L413.7,266.4L413.7,266.4z M420.1,277.1l-0.9-0.5l-0.4-1.4l-2.1-2.2l-0.7-1.4l-2-1.3v-1.8l-0.3-0.9l0.3-0.8l1.7,1.3
		l1.3,0.9l1.6,1.4l0.9,0.5l0.9,0.8l4.2,3.1v0.5H423l-3.5-2.2h-1.2l2.5,2.7l3.4,2.9l-2.9-0.6L420.1,277.1L420.1,277.1z M416.2,214.6
		l-1.3-1.3H414l1.3,1.3H416.2L416.2,214.6z M416.9,201.4l0.5-0.7l-0.8-0.9v-0.9h-2.2L416.9,201.4L416.9,201.4z M428.9,260.5l-5-3.6
		l-6-5.3l-0.5-1.3l-2.6-1.4l2.7-1.4l0.4,0.5l-0.4,0.5l0.4,0.5l0.9-0.5l2.5,2.7l3.8,2.6l0.9,0.9l0.9,0.5l0.8,1.3l1.5,2.2l0.6,1.8
		l1.6,1.3v1.5L428.9,260.5L428.9,260.5z M415.5,192.7h1.2l1.6,1.3v-0.8l-1.4-1.5l0.8-0.9l2-0.7l-0.8-1.6l2-1l-1-1.6l2.7-0.8v-1.2
		l-0.4-0.9l0.5-0.6l2.1,0.8l-0.5-2l1.3-1.4v-1.9l1.3-0.8l0.5-1.3l1.1-0.6l0.4-0.9l0.4-0.5v-0.8l2.1-1.5V170l1.8-1.8l1.2-0.5l0.8-2.1
		l1-0.6h2.1l1.7-0.5h4.3l3.6-0.6l4,3.6l-1.8,4.1h-1.3l-3-2.1v0.7l3.4,2.9v1.7l-3.2,2.3l-3.6-2.9h-1.7l5,4.3l-0.8,0.7v1.6l-1.2,0.6
		v1.8H442l-1,2.2l-2.5,1.7l1.4,1.4l-2.5,0.6v2.5h-1.3l-1.3-1.3h-1.2l2.1,2.2v0.9l-1.6,0.5l-2.2-1.8H431l2.8,3l-1.5,1.5v3.1h-0.9v1.4
		l-0.8,0.9h-1.3v1.7h-1.7l-10.1-8.4L415.5,192.7L415.5,192.7z M417.9,272.7h0.4v-1.4l-0.9,0.5L417.9,272.7L417.9,272.7z
		 M418.7,239.1h-0.4l0.4-0.5L418.7,239.1L418.7,239.1z M418.3,246.7h0.9l1.6,1.8h-0.8L418.3,246.7L418.3,246.7z M418.3,266.4
		l0.4-0.5h-0.4L418.3,266.4L418.3,266.4z M434.1,276.7l-2.6-2.7l-1.1-0.6l-0.5-1.3h-0.9l-1.3-1.3l-2.5-1.4l-0.9-1.4l-0.8-0.5
		l-1.3-1.3l0.7-1.4l5.5,4.5h0.6v-0.5l-0.4-0.5l-0.4-0.9l-0.8-0.4l-0.9-0.9l-1.2-0.6l-0.5-1.3l-1.6-0.8l-1.7-1.8l0.9-0.5h-1.6l-2-2
		l0.6-0.7h1.6l0.4,0.9l1.3,1.3l0.4,0.9h1.2l1.3,1.4l7.4,6.8l0.7,1.1l1.2,0.5l0.9,0.9l-0.5,0.6l-2-1l-2.8-2.2h-1v0.5l3.4,3.1l4.9,3.6
		l1.9,2.7l0.9,0.9v0.7l-2.5-1.4L434.1,276.7L434.1,276.7z M422.1,196.2v-0.5l-1.3-0.8v0.6L422.1,196.2L422.1,196.2z M421.3,249h0.9
		l2.1,2.2v0.5l-1.9-1L421.3,249L421.3,249z M426.8,196.2h0.4l-2.6-2.7l-2.1-1.4h-0.4l3,3.1L426.8,196.2L426.8,196.2z M422.6,188.6
		h0.4v-0.5L422.6,188.6L422.6,188.6z M423.9,279.8v0.5h-0.4l-0.4-0.5L423.9,279.8L423.9,279.8z M454.4,308.9h-0.7l-2-1.4l-2.9-3.1
		h-0.8l-2.6-2.7l-3.1-2.2l0.5-0.5l-0.9-1.4l-1-2.2h-1.1v2l-2.7-2.1l0.7-1.3l1.6,1.3v-1.6l-5.4-4.2l-5-1.4l-6.1-4.8h0.9l0.8,0.5
		l1.3-0.5l0.4-0.9l0.4,0.5h0.8l-1.2-1.7L426,282h-0.4l-0.4-1.3h2.2l3.7,4l0.4,0.8l0.7-0.6l6.6,5.1l3,2.7l3,2.1l5.1,4.7l1.3,0.8
		l2.5,2.8v1.3l-0.7,0.7l1.1,1.1l1.2,2.7v0.9h-0.8L454.4,308.9L454.4,308.9z M423.5,287.4l-0.4-0.9h0.9l1.9,2.1l-0.7,0.6l-0.4,0.9
		v-0.5l-0.8-0.8L423.5,287.4L423.5,287.4z M429.6,264.4l-6.1-4.6v-1.4h0.8l1.3,1.4l2.5,1.7l3,2.7l1.8,1.4l0.4,1.4l0.4,0.8h-0.9
		L429.6,264.4L429.6,264.4z M426,277.6l-1.8-1.4h2.2l1.9,2l-0.8,0.9L426,277.6L426,277.6z M426,252.6l0.4,0.3h-0.9l-0.4-0.3
		L426,252.6L426,252.6z M442.5,307.9l-5-4.5l-4.3-2.6l-5.9-6.2v-0.5l3.4,2.2l2.1,2.3l2.5,1.7l3.4,2.8h0.9l-2.1-2.3l-1.7-1.3
		l-2.9-2.8l-2.1-1.3l-1.7-1.8l-1.3-0.9l-2.2-2.3l0.6-1.4l1.5,0.8v0.7h0.4l2.2,1.4l2.1,2.2l1.3,0.9l1.6,1.3l3.9,2.4l5.5,5l2.1,1.2
		l1.3,1.4l0.8,0.5l2.2,1.7l1.6,0.9l1,2.1l2.3,1.2l-1.1,1.2l-6.1-0.9L442.5,307.9L442.5,307.9z M426.4,284.3h0.4v-0.5h-0.4
		L426.4,284.3L426.4,284.3z M427.6,201.2l-0.8-0.9v0.9L427.6,201.2L427.6,201.2z M427.3,253.4l1.2,1.4h-1.2V253.4z M428.5,197.6h0.4
		l-0.9-0.9h-0.4L428.5,197.6L428.5,197.6z M429.8,198.9h0.9l-0.4-0.3h-0.4L429.8,198.9L429.8,198.9z M429.8,278.9l1.6,1.8l-0.8,0.5
		l-0.9-0.9L429.8,278.9L429.8,278.9z M430.2,195.8h0.8l-0.3-0.5h-0.4L430.2,195.8L430.2,195.8z M431.9,282l0.6-0.6l1.9,2l-0.5,0.6
		l-1.5-1L431.9,282L431.9,282z M432.3,289.8l1.3,0.7l0.4,0.5l2.9,2.1v1.5h-0.9l-3.8-4L432.3,289.8L432.3,289.8z M442.9,291.4
		l-2.5-1.8l-0.4-1.3l-2.5-0.9l-1.7-1.8l-1.1-0.6l0.9-0.9l1.5,1.1l1.2,0.6v1.1h0.9l1.8,0.6V286l-2.1-1l1.4-1.4l1.1,1.2l1.3,0.7
		L442,287l-0.8,0.9l2.5,2.7l1.9,1.5l-0.7,1.2l-1.6-0.8L442.9,291.4L442.9,291.4z M438.6,180.2v-0.5l-2.1-1.7v1.7h0.9L438.6,180.2
		L438.6,180.2z M437,274.5l0.9,0.8H437l-0.4-0.8H437z M439.5,173h0.4l-1.3-1.4h-0.4v0.7L439.5,173L439.5,173z M438.6,283.3v0.5h-0.4
		v-0.5H438.6L438.6,283.3z M441.6,182.8h0.4l-1.2-1.4h-0.4v0.7L441.6,182.8L441.6,182.8z M440.8,304.3v-0.5h-0.4L440.8,304.3
		L440.8,304.3z M442,305.7h0.4l-0.9-0.9h-0.3L442,305.7L442,305.7z M445,169.5v-0.9h-0.8L445,169.5L445,169.5z M446.7,294.1v0.5
		l-0.4-0.5H446.7L446.7,294.1z M450.5,164.1l2.1,0.5h1.8v2.7H453l-4.1-3.1L450.5,164.1L450.5,164.1z"/>
	<path class="st6" d="M48.9,348.9v-2.4l0.5-1.8v-18.9l10.2-1.6l16.7,1l5.5-1.1l16.7,1.1l3.5-0.7h7.1l4.4,1.1l0.9,2.1l-0.9,2.8l0.6,3
		v16.8l-1.8,1h-3.9l-1.8,0.5H90l-3-0.7l-2.9,0.7h-16l-3.2-0.6l-2.6,0.6H51.6L48.9,348.9L48.9,348.9z M66.7,349.7h3.1l-3.2-0.5
		l-3.9-4.1l-1.3-1l-0.5-0.5l-6.9-4.9l-0.7-2.2l-0.9-1.9l0.9-0.4l0.5-2.1l1.3,2.1h0.5l2.6,1.3l0.9,1l2.1,1.1l1,2.2h1.1l3.3,2.8
		l3.8,2.7l2.2,3.4l-2,0.6h6.5l0.7-2.2l-1.7,0.8l-1.4-0.7l-0.6-1.3h-0.5l-2-1l-1.1-1.8l-1.8-1l-2.2-1.8l-0.9-0.5V338l-0.8,0.4h-0.9
		l-1.8-2.8h-0.8l-1.4-1.3v-1.9l-2.1,1.1l-3.3-3.4v-0.5l-0.3-0.5l0.3-0.5l2.8,0.7l1.3-0.7l2.3,1l4.8,3.6v1.9h0.9l2.1,1.7l1.5,2.1
		l1.8,1l1.3,1.5v1.3l0.9-0.5v1.1l2.2,0.8l2.8,2.3l2.2,1.6v1.3h5.3l3.3,0.6l10.1-1l-4.9-1.1l-2.6-2.3l-1.8-1.5l-2.2-2.3l-1.4-0.7
		v-1.7l0.9-0.5l-1.1-0.6l-1,1.1l-2-1l-11.5-9.3l-0.5-1.1l2.3,0.6H76v-1.1l2.9,0.7l2.5,2.7l2.6,1.5l4,4.2H89l5.8,4.7l1.4,0.8l2.6,2.9
		l1.8,0.8l0.3,0.5l2.3,1.6v1l-3-0.8l-0.6,0.7l0.9,0.5h7.9l2.6,0.5l0.9-1v-16l-0.3-2.3l-0.6-3.8H96.2l-3.2-0.6l-7.9,0.6H73.9
		l-2.8-0.6l-7.9,0.6H57l-5.9,0.5v21.1l0.9,1h5.4l-0.9-1l-1.8-1l-0.8-1.8l-1.8-1.9l0.9-0.5l1-2.7l1.6,1.7l5.4,3.8l2.8,3L66.7,349.7
		L66.7,349.7z M61,342.7l1.3-0.9H61l-0.5,0.4L61,342.7L61,342.7z M81.4,343.7l-2.1-1.1l-0.6-1.2l-0.8,0.7l-0.6-1.2l-0.9-0.5l-0.5-1
		l-1.7-1l-0.5-0.8l-1.4-0.5l-0.3-0.5l-5.4-3.8L63,329l5.4-1.1l2.8,2.2l2.6,2.8l5.4,4.7l0.8,0.5l1.8,1.3l3.6,2.5l7.2,6.4h-6.8
		L81.4,343.7L81.4,343.7z M106.4,347.4l-1.1,0.6l-1.5-1.6l-0.5-1.8h-2.1l-1-2.4l-1.8-0.9l-1.3-1.5l-1.4-0.5v-1l-3.1-1.2l-0.9-2.1
		h-2.1l-1.5-2.3l-0.9-0.5l-0.5-0.5l-0.8-0.5l-0.9-2.3l-1.1,1.2l-1-1.2l0.3-0.5h1.4l0.5-0.5h3.6l4,2.8l9.8,8l0.5,0.5l4.9,3.9v1.3
		l0.8-0.8l0.5,1.8l1.1,1.7l-2.6,1.5L106.4,347.4L106.4,347.4z M106.4,339.9h-1.1l-0.7-2.1l-1.3,0.6v-0.9l-1.8-1.9l-1.3-0.5l-0.5-0.8
		h-1.4v-1l-2.6-1l-4-4.2v-0.5l3.1,0.5l1.4,0.5l4.1,0.6l9.2,7.6v2.1l0.5,1.5v1.4l-2.2-0.5L106.4,339.9L106.4,339.9z M100.6,340.4h0.3
		l-0.3-0.5h-0.5L100.6,340.4L100.6,340.4z M105,331.4l-1.3-0.8l-1.4-1.5h6.8l1,3.1l-0.9,2.1h-1.5L105,331.4L105,331.4z M107.2,348.9
		v-2.4l0.5-1.8v-18.9l10.2-1.6l16.7,1l5.5-1.1l16.7,1.1l3.4-0.7h7.1l4.4,1.1l0.9,2.1l-0.9,2.8l0.6,3v16.9l-1.8,1h-3.9l-1.8,0.5
		h-16.4l-3-0.7l-2.9,0.7h-15.9l-3.2-0.6l-2.6,0.6h-10.7L107.2,348.9L107.2,348.9z M125,349.7h3.1l-3.2-0.5l-3.9-4.1l-1.3-1l-0.5-0.5
		l-6.9-4.8l-0.7-2.2l-0.9-1.9l0.9-0.4l0.5-2.1l1.3,2.1h0.5l2.6,1.3l0.9,1l2.1,1.1l1,2.2h1.1l3.3,2.8l3.8,2.7l2.2,3.4l-2,0.6h6.5
		l0.7-2.2l-1.7,0.9l-1.4-0.7l-0.6-1.3h-0.5l-1.9-1l-1.1-1.8l-1.8-1l-2.2-1.8l-0.9-0.5v-1.8l-0.8,0.4h-0.9l-1.8-2.8h-0.8l-1.4-1.3
		v-1.9l-2.1,1.1l-3.3-3.4v-0.5l-0.3-0.5l0.3-0.5l2.8,0.7l1.3-0.7l2.3,1l4.8,3.6v1.9h0.9l2.1,1.7l1.5,2.1l1.8,1l1.3,1.5v1.3l0.9-0.5
		v1.1l2.2,0.8l2.8,2.3l2.2,1.6v1.3h5.3l3.3,0.6l10.1-1l-4.9-1.1l-2.6-2.3l-1.8-1.5l-2.2-2.3l-1.4-0.7v-1.7l0.9-0.5l-1.1-0.6l-1,1.1
		l-2-1l-11.5-9.3l-0.5-1.1l2.3,0.6h1.7v-1.1l2.9,0.7l2.5,2.7l2.6,1.5l4,4.2h0.9l5.8,4.7l1.4,0.8l2.6,2.9l1.8,0.8l0.3,0.5l2.3,1.6v1
		l-3-0.8l-0.6,0.7l0.9,0.5h7.9l2.6,0.5l0.9-1v-16l-0.3-2.3l-0.6-3.8h-15.1l-3.2-0.6l-7.9,0.6h-11.2l-2.8-0.6l-7.9,0.6h-6.2l-5.9,0.5
		v21.1l0.9,1h5.4l-0.9-1l-1.8-1l-0.8-1.8l-1.8-1.9l0.9-0.5l1-2.7l1.6,1.7l5.4,3.8l2.8,3L125,349.7L125,349.7z M119.3,342.7l1.3-0.9
		h-1.3l-0.5,0.4L119.3,342.7L119.3,342.7z M139.7,343.7l-2.1-1.1l-0.6-1.2l-0.8,0.7l-0.6-1.2l-0.9-0.5l-0.5-1l-1.7-1l-0.5-0.8
		l-1.4-0.5l-0.3-0.5l-5.4-3.8l-3.7-3.9l5.4-1.1l2.8,2.2l2.6,2.8l5.4,4.7l0.8,0.5l1.8,1.3l3.6,2.5l7.2,6.4h-6.8L139.7,343.7
		L139.7,343.7z M164.7,347.4l-1.1,0.6l-1.5-1.6l-0.5-1.8h-2.1l-1-2.4l-1.8-0.8l-1.3-1.5l-1.4-0.5v-1l-3.1-1.2l-0.9-2.1h-2.1
		l-1.5-2.3l-0.9-0.5l-0.5-0.5l-0.8-0.5l-0.9-2.3l-1.1,1.2l-1-1.2l0.3-0.5h1.4l0.5-0.5h3.6l4,2.8l9.8,8l0.5,0.5l4.9,3.9v1.3l0.8-0.8
		l0.5,1.8l1.2,1.7l-2.6,1.5L164.7,347.4L164.7,347.4z M164.7,339.9h-1.1l-0.7-2l-1.3,0.6v-0.9l-1.8-1.9l-1.3-0.5l-0.5-0.8h-1.4v-1
		l-2.6-1l-4-4.2v-0.5l3.1,0.5l1.4,0.5l4.1,0.6l9.2,7.6v2.1l0.5,1.5v1.4l-2.2-0.5L164.7,339.9L164.7,339.9z M158.9,340.4h0.3
		l-0.3-0.5h-0.5L158.9,340.4L158.9,340.4z M163.3,331.4l-1.3-0.8l-1.4-1.4h6.8l1,3.1l-0.9,2.1H166L163.3,331.4L163.3,331.4z
		 M165.5,348.9v-2.4l0.5-1.8v-18.9l10.2-1.6l16.7,1l5.5-1.1l16.7,1.1l3.5-0.7h7.1l4.4,1.1l0.9,2.1l-0.9,2.8l0.6,3v16.9l-1.8,1h-3.9
		l-1.8,0.5h-16.4l-3-0.7l-2.9,0.7h-16l-3.2-0.6l-2.6,0.6h-10.7L165.5,348.9L165.5,348.9z M183.3,349.7h3.1l-3.2-0.5l-3.9-4.1l-1.3-1
		l-0.5-0.5l-6.9-4.8l-0.7-2.2l-0.9-1.9l0.9-0.4l0.5-2.1l1.3,2.1h0.5l2.6,1.3l0.9,1l2.1,1.1l1,2.2h1.1l3.3,2.8l3.8,2.7l2.2,3.4
		l-2,0.6h6.6l0.7-2.2l-1.7,0.9l-1.4-0.7l-0.6-1.3h-0.5l-1.9-1l-1.1-1.8l-1.8-1l-2.2-1.8l-0.9-0.5v-1.8l-0.8,0.4h-0.9l-1.8-2.8H178
		l-1.4-1.3v-1.9l-2.1,1.1l-3.3-3.4v-0.5l-0.3-0.5l0.3-0.5l2.8,0.7l1.3-0.7l2.3,1l4.8,3.6v1.9h0.9l2.1,1.7l1.5,2.1l1.8,1l1.3,1.5v1.3
		l0.9-0.5v1.1l2.2,0.8l2.8,2.3l2.2,1.6v1.3h5.3l3.3,0.6l10.1-1l-4.9-1.1l-2.6-2.3l-1.8-1.4l-2.2-2.3l-1.4-0.7v-1.7l0.9-0.5l-1.1-0.6
		l-1,1.1l-2-1l-11.5-9.3l-0.5-1.1l2.3,0.6h1.7v-1.1l2.9,0.7l2.5,2.7l2.6,1.5l4,4.2h0.9l5.8,4.7l1.4,0.9l2.6,2.9l1.8,0.8l0.3,0.5
		l2.3,1.6v1l-3-0.8l-0.6,0.7l0.9,0.5h7.9l2.6,0.5l0.9-1v-16l-0.3-2.3l-0.6-3.8h-15l-3.2-0.6l-7.9,0.6h-11.1l-2.8-0.6l-7.9,0.6h-6.2
		l-5.9,0.5v21.1l0.9,1h5.4l-0.9-1l-1.8-1l-0.8-1.8l-1.8-1.9l0.9-0.5l1-2.7l1.6,1.7l5.4,3.7l2.8,3L183.3,349.7L183.3,349.7z
		 M177.5,342.7l1.3-0.9h-1.3l-0.5,0.4L177.5,342.7z M198,343.7l-2.1-1.1l-0.6-1.2l-0.8,0.7l-0.6-1.2l-0.9-0.5l-0.5-1l-1.7-1
		l-0.5-0.8l-1.4-0.5l-0.3-0.5l-5.4-3.8l-3.7-3.9l5.4-1.1l2.8,2.2l2.6,2.8l5.4,4.7l0.8,0.5l1.8,1.3l3.6,2.5l7.2,6.4h-6.8L198,343.7
		L198,343.7z M222.9,347.4l-1.1,0.6l-1.5-1.6l-0.5-1.8h-2.1l-1-2.4l-1.8-0.8l-1.3-1.5l-1.4-0.5v-1l-3.1-1.2l-0.9-2.1h-2.1l-1.5-2.3
		l-0.9-0.5l-0.5-0.5l-0.8-0.5l-0.9-2.3l-1.1,1.2l-1-1.2l0.3-0.5h1.4l0.5-0.5h3.6l4,2.8l9.8,8l0.5,0.5l4.9,3.9v1.3l0.8-0.8l0.5,1.8
		l1.1,1.7l-2.6,1.5L222.9,347.4L222.9,347.4z M222.9,339.9h-1.1l-0.7-2l-1.3,0.6v-0.9l-1.8-1.9l-1.3-0.5l-0.5-0.8h-1.4v-1l-2.6-1
		l-4-4.2v-0.5l3.1,0.5l1.4,0.5l4.1,0.6l9.2,7.6v2.1l0.5,1.5v1.4l-2.2-0.5L222.9,339.9L222.9,339.9z M217.2,340.4h0.3l-0.3-0.5h-0.5
		L217.2,340.4L217.2,340.4z M221.6,331.5l-1.3-0.8l-1.4-1.5h6.8l1,3.2l-0.9,2.1h-1.5L221.6,331.5L221.6,331.5z M223.8,348.9v-2.4
		l0.5-1.8v-18.9l10.2-1.6l16.7,1l5.5-1.1l16.7,1.1l3.4-0.7h7.1l4.4,1.1l0.9,2.1l-0.9,2.8l0.6,3v16.9l-1.8,1h-3.9l-1.8,0.5h-16.4
		l-3-0.7l-2.9,0.7h-16l-3.2-0.6l-2.6,0.6h-10.7L223.8,348.9L223.8,348.9z M241.6,349.8h3.1l-3.2-0.5l-3.9-4.1l-1.2-1l-0.5-0.5
		l-6.9-4.9l-0.7-2.2l-0.9-1.9l0.9-0.4l0.5-2.1l1.3,2.1h0.5l2.6,1.3l0.9,1l2.1,1.1l1,2.2h1.1l3.3,2.8l3.8,2.7l2.2,3.4l-1.9,0.6h6.5
		l0.7-2.2l-1.7,0.9l-1.4-0.7l-0.6-1.3h-0.5l-1.9-1l-1.1-1.8l-1.8-1l-2.2-1.8l-0.9-0.5v-1.8l-0.8,0.4h-0.9l-1.8-2.8h-0.8l-1.4-1.3
		v-1.9l-2.1,1.1l-3.3-3.4v-0.5l-0.3-0.5l0.3-0.5l2.8,0.7l1.3-0.7l2.3,1l4.8,3.6v1.9h0.9l2.1,1.7l1.5,2.1l1.8,1l1.3,1.5v1.3l0.9-0.5
		v1.1l2.2,0.8l2.8,2.3l2.2,1.6v1.3h5.3l3.3,0.6l10.1-1l-4.9-1.1l-2.6-2.3l-1.8-1.4l-2.2-2.3l-1.4-0.7v-1.7l0.9-0.5l-1.1-0.6l-1,1.1
		l-2-1l-11.5-9.3l-0.5-1.1l2.3,0.6h1.7v-1.1l2.9,0.7l2.5,2.7l2.6,1.5l4,4.2h0.9l5.7,4.7l1.4,0.9l2.6,2.9l1.8,0.8l0.3,0.5l2.3,1.6v1
		l-3-0.8l-0.6,0.7l0.9,0.5h7.9l2.6,0.5l0.9-1v-16l-0.3-2.3l-0.6-3.8h-15l-3.2-0.6l-7.9,0.6h-11.2l-2.8-0.6l-7.9,0.6h-6.2l-5.9,0.5
		v21.1l0.9,1h5.4l-0.9-1l-1.8-1l-0.8-1.8l-1.8-1.9l0.9-0.5l1-2.7l1.6,1.7l5.4,3.8l2.8,3L241.6,349.8L241.6,349.8z M235.8,342.7
		l1.3-0.9h-1.3l-0.5,0.4L235.8,342.7L235.8,342.7z M256.3,343.7l-2.1-1.1l-0.6-1.2l-0.8,0.7l-0.6-1.2l-0.9-0.5l-0.5-1l-1.7-1
		l-0.5-0.8l-1.4-0.5l-0.3-0.5l-5.4-3.8l-3.7-3.9l5.4-1.1l2.8,2.2l2.6,2.8l5.4,4.7l0.8,0.5l1.8,1.3l3.6,2.6l7.2,6.4h-6.8L256.3,343.7
		L256.3,343.7z M281.2,347.5l-1.1,0.6l-1.5-1.6l-0.5-1.8H276l-1-2.4l-1.8-0.8l-1.3-1.5l-1.4-0.5v-1l-3.1-1.2l-0.9-2.1h-2.1l-1.5-2.3
		l-0.9-0.5l-0.5-0.5l-0.8-0.5l-0.9-2.3l-1.1,1.2l-1-1.2l0.3-0.5h1.4l0.5-0.5h3.6l4,2.8l9.8,8l0.5,0.5l4.9,3.9v1.3l0.8-0.8l0.5,1.8
		l1.1,1.7l-2.6,1.5L281.2,347.5L281.2,347.5z M281.2,339.9h-1.1l-0.7-2l-1.3,0.6v-0.9l-1.8-1.9l-1.3-0.5l-0.5-0.8h-1.4v-1l-2.6-1
		l-4-4.2v-0.5l3.1,0.5l1.4,0.5l4.1,0.6l9.2,7.6v2.1l0.5,1.5v1.4l-2.2-0.5L281.2,339.9L281.2,339.9z M275.5,340.4h0.3l-0.3-0.5H275
		L275.5,340.4L275.5,340.4z M279.8,331.5l-1.3-0.8l-1.4-1.5h6.8l1,3.2l-0.9,2.1h-1.5L279.8,331.5L279.8,331.5z M282,348.9v-2.4
		l0.5-1.8v-18.9l10.2-1.6l16.7,1l5.5-1.1l16.7,1.1l3.5-0.7h7.1l4.4,1.1l0.9,2.1l-0.9,2.8l0.6,3v16.8l-1.8,1h-3.9l-1.8,0.5h-16.4
		l-3-0.7l-2.9,0.7h-16l-3.2-0.6l-2.6,0.6h-10.7L282,348.9L282,348.9z M299.9,349.8h3.1l-3.2-0.5l-3.9-4.1l-1.3-1l-0.5-0.5l-6.9-4.9
		l-0.7-2.2l-0.9-1.9l0.9-0.4l0.5-2.1l1.3,2.1h0.5l2.6,1.3l0.9,1l2.1,1.1l1,2.2h1.1l3.3,2.8l3.8,2.7l2.2,3.4l-2,0.6h6.5l0.7-2.2
		l-1.7,0.9l-1.4-0.7l-0.6-1.3H307l-2-1l-1.1-1.8l-1.8-1l-2.2-1.8l-0.9-0.5v-1.8l-0.8,0.4h-0.9l-1.8-2.8h-0.8l-1.4-1.3v-1.9l-2.1,1.1
		l-3.3-3.4v-0.5l-0.3-0.5l0.3-0.5l2.8,0.7l1.3-0.7l2.3,1l4.8,3.6v1.9h0.9l2.1,1.7l1.5,2.1l1.8,1l1.3,1.5v1.3l0.9-0.5v1.1l2.2,0.8
		l2.8,2.3l2.2,1.6v1.3h5.3l3.3,0.6l10.1-1l-4.9-1.1l-2.7-2.3l-1.8-1.5l-2.2-2.3l-1.4-0.7v-1.7l0.9-0.5l-1.1-0.7l-1,1.1l-1.9-1
		l-11.5-9.3l-0.5-1.1l2.3,0.6h1.7v-1.1l2.9,0.7l2.5,2.7l2.6,1.5l4,4.2h0.9l5.8,4.7l1.4,0.8l2.6,2.9l1.8,0.8l0.3,0.5l2.3,1.6v1
		l-3-0.8l-0.6,0.7l0.9,0.5h8l2.6,0.5l0.9-1v-16l-0.3-2.3l-0.6-3.8h-15.1l-3.2-0.6l-7.9,0.6H307l-2.8-0.6l-7.9,0.6h-6.2l-5.9,0.5
		v21.1l0.9,1h5.4l-0.9-1l-1.8-1l-0.8-1.8l-1.8-1.9l0.9-0.5l1-2.7l1.6,1.7l5.4,3.8l2.8,3L299.9,349.8L299.9,349.8z M294.1,342.8
		l1.3-0.9h-1.3l-0.5,0.4L294.1,342.8z M314.6,343.7l-2.1-1.1l-0.6-1.2l-0.8,0.7l-0.6-1.2l-0.9-0.5l-0.5-1l-1.7-1l-0.5-0.8l-1.4-0.5
		l-0.3-0.5l-5.4-3.8l-3.7-3.9l5.4-1.1l2.8,2.2l2.6,2.8l5.4,4.7l0.8,0.5l1.8,1.3l3.6,2.5l7.2,6.4H319L314.6,343.7L314.6,343.7z
		 M339.5,347.5l-1.1,0.6l-1.5-1.6l-0.5-1.8h-2.1l-1-2.4l-1.8-0.8l-1.3-1.5l-1.4-0.5v-1l-3.1-1.2l-0.9-2.1h-2.1l-1.5-2.3l-0.9-0.5
		l-0.5-0.5l-0.8-0.5l-0.9-2.3l-1.1,1.2l-1-1.2l0.3-0.5h1.4l0.5-0.5h3.6l4,2.8l9.8,8l0.5,0.5l5,3.8v1.3l0.8-0.8l0.5,1.8l1.1,1.7
		l-2.6,1.5L339.5,347.5L339.5,347.5z M339.5,340h-1.1l-0.7-2.1l-1.3,0.6v-0.9l-1.8-1.9l-1.3-0.5l-0.5-0.8h-1.4v-1l-2.6-1l-4-4.2
		v-0.5l3.1,0.5l1.4,0.5l4.1,0.6l9.2,7.6v2.1l0.5,1.5v1.4l-2.2-0.5L339.5,340L339.5,340z M333.8,340.4h0.3l-0.3-0.5h-0.5L333.8,340.4
		L333.8,340.4z M338.1,331.5l-1.3-0.8l-1.4-1.4h6.8l1,3.1l-0.9,2.1h-1.5L338.1,331.5L338.1,331.5z M340.3,348.9v-2.4l0.5-1.8v-18.9
		l10.2-1.6l16.7,1l5.5-1.1l16.7,1.1l3.5-0.7h7.1l4.4,1.1l0.9,2.1l-0.9,2.8l0.6,3v16.8l-1.8,1h-3.9l-1.8,0.5h-16.4l-3-0.7l-2.9,0.7
		h-15.9l-3.2-0.6l-2.7,0.6H343L340.3,348.9L340.3,348.9z M358.1,349.8h3.1l-3.2-0.5l-3.9-4.1l-1.2-1l-0.5-0.5l-6.9-4.9l-0.7-2.2
		l-0.9-1.9l0.9-0.4l0.5-2.1l1.3,2.1h0.5l2.6,1.3l0.9,1l2.1,1.1l1,2.2h1.1l3.3,2.8l3.8,2.7l2.2,3.4l-2,0.6h6.6l0.7-2.2l-1.7,0.9
		l-1.4-0.7l-0.6-1.3h-0.5l-2-1l-1.2-1.8l-1.8-1l-2.2-1.8l-0.9-0.5v-1.8l-0.8,0.4h-0.9l-1.8-2.8h-0.8l-1.4-1.3v-1.9l-2.1,1.1
		l-3.3-3.4v-0.5l-0.3-0.5l0.3-0.5l2.8,0.7l1.3-0.7l2.3,1l4.8,3.6v1.9h0.9l2.1,1.7l1.5,2.1l1.8,1l1.3,1.5v1.3l0.9-0.5v1.1l2.2,0.8
		l2.8,2.3l2.2,1.6v1.3h5.3l3.3,0.6l10.1-1l-4.9-1.1l-2.6-2.3l-1.8-1.5l-2.2-2.3l-1.4-0.7v-1.7l0.9-0.5l-1.2-0.6l-1,1.1l-2-1
		l-11.5-9.3l-0.5-1.1l2.3,0.6h1.7v-1.1l2.9,0.7l2.5,2.7l2.6,1.5l4,4.2h0.9l5.7,4.7l1.4,0.9l2.6,2.9l1.8,0.8l0.3,0.5l2.3,1.6v1
		l-3-0.8l-0.6,0.7l0.9,0.5h7.9l2.6,0.5l0.9-1v-16l-0.3-2.3l-0.6-3.8h-15l-3.2-0.6l-7.9,0.6h-11.2l-2.8-0.6l-7.9,0.6h-6.2l-5.9,0.5
		v21.1l0.9,1h5.4l-0.9-1l-1.8-1l-0.8-1.8l-1.8-1.9l0.9-0.5l1-2.7l1.6,1.7l5.4,3.8l2.8,3L358.1,349.8L358.1,349.8z M352.4,342.8
		l1.3-0.9h-1.3l-0.5,0.4L352.4,342.8L352.4,342.8z M372.9,343.7l-2.1-1.1l-0.6-1.2l-0.8,0.7l-0.6-1.2l-0.9-0.5l-0.5-1l-1.7-1
		l-0.5-0.8l-1.4-0.5l-0.3-0.5l-5.4-3.8l-3.7-3.9l5.4-1.1l2.8,2.2l2.6,2.8l5.4,4.7l0.8,0.5l1.8,1.3l3.6,2.6l7.2,6.4h-6.8L372.9,343.7
		L372.9,343.7z M397.8,347.5l-1.1,0.6l-1.5-1.6l-0.5-1.8h-2.1l-1-2.4l-1.8-0.8l-1.3-1.5l-1.4-0.5v-1l-3.1-1.2l-0.9-2.1H381l-1.5-2.3
		l-0.9-0.5l-0.5-0.5l-0.8-0.5l-0.9-2.3l-1.1,1.2l-1-1.2l0.3-0.5h1.4l0.5-0.5h3.6l4,2.8l9.8,8l0.5,0.5l4.9,3.9v1.3l0.8-0.8l0.5,1.8
		l1.1,1.7l-2.6,1.5L397.8,347.5L397.8,347.5z M397.8,340h-1.1l-0.7-2.1l-1.3,0.6v-0.8l-1.8-1.9l-1.3-0.5l-0.5-0.8h-1.4v-1l-2.6-1
		l-4-4.2v-0.5l3.1,0.5l1.4,0.5l4.1,0.6l9.2,7.6v2.1l0.5,1.5v1.4l-2.2-0.5L397.8,340L397.8,340z M392.1,340.4h0.3l-0.3-0.5h-0.5
		L392.1,340.4z M396.4,331.5l-1.3-0.8l-1.4-1.5h6.8l1,3.1l-0.9,2.1h-1.5L396.4,331.5L396.4,331.5z M398.6,348.9v-2.4l0.5-1.8v-18.9
		l10.2-1.6l16.7,1l5.5-1.1l16.7,1.1l3.4-0.7h7.1l4.4,1.1l0.9,2.1l-0.9,2.8l0.6,3v16.8l-1.8,1h-3.9l-1.8,0.5h-16.4l-3-0.7l-2.9,0.7
		h-16l-3.2-0.6l-2.6,0.6h-10.7L398.6,348.9L398.6,348.9z M416.4,349.8h3.1l-3.2-0.5l-3.9-4.1l-1.2-1l-0.5-0.5l-6.9-4.8l-0.7-2.2
		l-0.9-1.9l0.9-0.4l0.5-2.1l1.3,2.1h0.5l2.6,1.3l0.9,1l2.1,1.1l1,2.2h1.1l3.3,2.8l3.8,2.7l2.2,3.4l-1.9,0.6h6.5l0.7-2.2l-1.7,0.8
		l-1.4-0.7L424,346h-0.5l-1.9-1l-1.1-1.8l-1.8-1l-2.2-1.8l-0.9-0.5v-1.8l-0.8,0.4h-0.9l-1.8-2.8h-0.8l-1.4-1.3v-1.9l-2.1,1.1
		l-3.3-3.4v-0.5l-0.3-0.5l0.3-0.5l2.8,0.7l1.3-0.7l2.3,1l4.8,3.6v1.9h0.9l2.1,1.7l1.5,2.1l1.8,1l1.3,1.5v1.3l0.9-0.5v1.1l2.2,0.8
		l2.8,2.3l2.2,1.6v1.3h5.3l3.3,0.6l10.1-1l-4.9-1.1l-2.7-2.3l-1.8-1.5l-2.2-2.3l-1.4-0.7v-1.7l0.9-0.5l-1.2-0.6l-1,1.1l-1.9-1
		l-11.5-9.3l-0.5-1.1l2.3,0.6h1.7v-1.1l2.9,0.7l2.5,2.7l2.6,1.5l4,4.2h0.9l5.8,4.7l1.4,0.9l2.6,2.9l1.8,0.8l0.3,0.5l2.3,1.6v1
		l-3-0.8l-0.6,0.7l0.9,0.5h7.9l2.6,0.5l0.9-1v-16l-0.3-2.3l-0.6-3.8h-15l-3.2-0.6l-7.9,0.6h-11.1l-2.8-0.6l-7.9,0.6h-6.2l-5.9,0.5
		v21.1l0.9,1h5.4l-0.9-1l-1.8-1l-0.8-1.8l-1.8-1.9l0.9-0.5l1-2.7l1.6,1.7l5.4,3.8l2.8,3L416.4,349.8L416.4,349.8z M410.7,342.8
		l1.3-0.9h-1.3l-0.5,0.4L410.7,342.8L410.7,342.8z M431.1,343.7l-2.1-1.1l-0.6-1.2l-0.8,0.7l-0.6-1.2l-0.9-0.5l-0.5-1l-1.7-1
		l-0.5-0.8l-1.4-0.5l-0.3-0.5l-5.4-3.8l-3.7-3.9l5.4-1.1l2.8,2.2l2.6,2.8l5.4,4.7l0.8,0.5l1.8,1.3l3.6,2.5l7.2,6.4h-6.8L431.1,343.7
		L431.1,343.7z M456.1,347.5l-1.1,0.6l-1.5-1.6l-0.5-1.8h-2.1l-1-2.4l-1.8-0.8l-1.3-1.5l-1.4-0.5v-1l-3.1-1.2l-0.9-2.1h-2.1
		l-1.5-2.3l-0.9-0.5l-0.5-0.5l-0.8-0.5l-0.9-2.3l-1.1,1.2l-1-1.2l0.3-0.5h1.4l0.4-0.5h3.6l4,2.8l9.8,8l0.5,0.5l4.9,3.9v1.3l0.8-0.8
		l0.5,1.8l1.2,1.7l-2.6,1.5L456.1,347.5L456.1,347.5z M456.1,340h-1.1l-0.7-2l-1.3,0.6v-0.9l-1.8-1.9l-1.3-0.5l-0.5-0.8H448v-1
		l-2.6-1l-4-4.2v-0.5l3.1,0.5l1.4,0.5l4.1,0.6l9.2,7.6v2.1l0.5,1.5v1.4l-2.2-0.5L456.1,340L456.1,340z M450.3,340.5h0.3l-0.4-0.5
		h-0.4L450.3,340.5L450.3,340.5z M454.7,331.5l-1.3-0.8l-1.4-1.5h6.8l1,3.2l-0.9,2.1h-1.5L454.7,331.5L454.7,331.5z"/>
</g>
</svg>
