<?xml version="1.0" encoding="utf-8"?>
<!-- Generator: Adobe Illustrator 24.2.0, SVG Export Plug-In . SVG Version: 6.00 Build 0)  -->
<svg version="1.1" id="Capa_1" xmlns="http://www.w3.org/2000/svg" xmlns:xlink="http://www.w3.org/1999/xlink" x="0px" y="0px"
	 viewBox="0 0 512 512" style="enable-background:new 0 0 512 512;" xml:space="preserve">
<style type="text/css">
	.st0{fill:#FFFFFF;}
	.st1{fill:#A7698B;}
	.st2{fill:#65325A;}
	.st3{fill:#66335B;}
	.st4{fill:#A76A8B;}
	.st5{fill:#65315A;}
	.st6{fill:#A76B8C;}
	.st7{fill:#C8ABBA;}
	.st8{fill:#4C2847;}
	.st9{fill:#551C48;}
	.st10{fill:#B9819F;}
	.st11{fill:#6E3B64;}
</style>
<path class="st0" d="M512,256c0,33.4-6.4,65.2-18,94.4c-6.2,15.6-13.9,30.5-22.9,44.5c-11.2,17.4-24.5,33.3-39.5,47.4
	c-8.8,8.3-18.1,15.9-28,22.9C361.8,494.7,310.9,512,256,512s-105.8-17.3-147.5-46.7C96.1,456.5,84.6,446.7,74,436
	C28.2,389.8,0,326.2,0,256S28.2,122.2,74,76c11.2-11.4,23.5-21.7,36.7-30.8C152,16.7,202,0,256,0s104,16.7,145.3,45.2
	c10.1,6.9,19.6,14.6,28.6,22.9c15.7,14.5,29.5,31,41.2,49c9,13.9,16.7,28.8,22.9,44.4C505.6,190.8,512,222.6,512,256z"/>
<g>
	<path class="st1" d="M345.9,172.7c5.8,1.8,10.9,5.3,16.4,7.6c1.2,0.5,0.8,1.7,0.8,2.6c0,4.2,0,8.4,0,12.6c0,44.1,0,88.1,0.1,132.2
		c0,2.9-0.8,4.3-3.5,5.6c-33.9,16.7-67.7,33.5-101.5,50.3c-0.8,0.4-1.4,1.1-2.4,0.8c0-17.1-0.1-34.2-0.1-51.3
		c4.3-0.3,8.1-2.2,12.2-3.4c11.3-3.2,22.5-6.5,33.7-10c13.5-4.2,27-8,40.5-12c1-0.3,2.3-0.2,2.2-1.8c1.7-1.4,1.3-3.4,1.3-5.2
		c0-41.2,0-82.4,0-123.6C345.7,175.8,345.8,174.2,345.9,172.7z"/>
	<path class="st2" d="M149.1,180.7c4.9-3.4,10.4-5.5,15.6-8.2c17.6-8.8,35.2-17.5,52.9-26.2c12.7-6.3,25.4-12.6,38.1-18.9
		c0,2.4,0,4.8,0,7.3c0,14.6,0.1,29.3,0.1,43.9c-2.6,0.1-4.8,1.4-7.2,2.1c-5.9,1.7-11.8,3.6-17.6,5.5c-1.8,0.6-3.5,2-5.3,2.3
		c-5.8,0.8-11.1,3.2-16.8,4.6c-3.9,1-7.6,2.3-11.4,3.5c-5.4,1.7-10.7,3.7-16.2,4.9c-4.5,0.9-8.7,3.5-13.6,3c-0.6,0-1.1,0.2-1.4,0.7
		c-1.9,0.4-1.2,1.9-1.2,2.9c0,43.5,0,87,0,130.5c0,0.2,0,0.5,0,0.7c-4.8-2.4-9.6-4.8-14.4-7.2c-0.6-0.3-1.6-0.3-1.6-1.3
		c1.2-0.9,0.8-2.2,0.8-3.4c0-47.9,0-95.7,0-143.6C149.9,182.9,150.4,181.6,149.1,180.7z"/>
	<path class="st3" d="M345.9,172.7c-0.1,1.5-0.2,3.1-0.2,4.6c0,41.2,0,82.4,0,123.6c0,1.8,0.4,3.8-1.3,5.2c-3,0.3-5.9-0.7-8.7-1.1
		c-4-0.7-8.3,0.4-12.1-1.8c0-0.7-0.1-1.3-0.1-2c0.1-0.6,0.4-1.2,0.4-1.9c0-40.6,0-81.3-0.1-121.9c6.8-1.7,13.6-3.4,20.4-5.1
		C344.8,172.1,345.4,172.1,345.9,172.7z"/>
	<path class="st4" d="M188.4,208.7c0,23.7,0,47.3,0,71c0,17.4,0,34.8,0,52.1c0,2.1-0.5,3.2-2.7,3.6c-5.8,1.2-11.5,2.6-17.3,4
		c-0.9-1.3-0.6-2.7-0.6-4.2c0-41.4,0-82.7,0-124.1c0-1.8,0.1-3.5,0.7-5.2c0.7,0,1.4,0,2.1,0.1c0.6,1.8,1.6,1.3,2.7,0.4
		C178.2,207.3,183.4,207.5,188.4,208.7z"/>
	<path class="st5" d="M255.7,333.2c0,17.1,0.1,34.2,0.1,51.3c-6.2-3-12.4-6-18.6-9.1c-11.8-5.9-23.6-11.8-35.5-17.6
		c-2-1-2.8-2.2-2.8-4.5c0.1-11.3,0.1-22.7,0.1-34c0-1.4-0.5-3.1,2-2.7c0.4,0.8,1.2,0.8,1.9,1.1c7.6,2.3,15.2,4.6,22.8,6.8
		C235.6,327.3,245.6,330.2,255.7,333.2z"/>
	<path class="st4" d="M255.9,178.7c0-14.6-0.1-29.3-0.1-43.9c0-2.4,0-4.8,0-7.3c5.2,1.9,10,4.8,15,7.2c13.1,6.4,26.2,13.1,39.3,19.5
		c1.8,0.9,3,1.8,2.9,4.1c-0.1,11.6,0,23.1-0.1,34.7c0,1,0.6,2.3-0.8,2.9c-1.2-1.1-2.7-1.4-4.2-1.8c-9.7-3-19.5-5.8-29.2-8.9
		C271.1,182.7,263.6,180.3,255.9,178.7z"/>
	<path class="st6" d="M255.7,224.6c8.3,0.3,16.4,1.9,24.6,2.7c3.6,0.4,7.2,0.9,10.8,1.2c2.1,0.2,3.1,0.8,3.1,3.2
		c-0.1,16.2-0.1,32.4,0,48.6c0,1.8-0.4,2.8-2.5,3.1c-11.5,1.3-22.9,2.8-34.4,4.2c-0.5,0.1-1-0.2-1.6-0.2
		C255.7,266.4,255.7,245.5,255.7,224.6z"/>
	<path class="st3" d="M255.7,224.6c0,20.9,0,41.8,0.1,62.7c-1.3,0.4-2.6,0-3.9-0.2c-0.3-0.4-0.6-0.4-0.9-0.2
		c-10.3-1.2-20.6-2.4-30.9-3.6c-1.8-0.2-2.5-0.9-2.5-2.7c0-16.4,0-32.8,0-49.2c0-1.7,0.6-2.6,2.4-2.8c10-1.1,19.9-2.3,29.9-3.4
		c0.5,0.6,1,0.5,1.3-0.2C252.6,224.7,254.1,224.3,255.7,224.6z"/>
	<path class="st7" d="M255.7,333.2c-10-2.9-20.1-5.8-30.1-8.8c-7.6-2.2-15.2-4.6-22.8-6.8c-0.7-0.2-1.5-0.2-1.9-1.1
		c0.3-0.8,1-1.1,1.8-1.3c5.4-0.9,10.9-1.7,16.2-2.9c2.8-0.6,5.2-0.1,7.8,0.5c9,2.2,17.9,4.5,26.8,6.7c5,1.2,9.5-1.2,14.2-2.3
		c9.3-2.1,18.6-4.5,27.9-6.8c9.4-2.4,18.7-4.8,28-7.2c3.8,2.2,8.1,1.1,12.1,1.8c2.9,0.5,5.7,1.4,8.7,1.1c0.1,1.6-1.2,1.5-2.2,1.8
		c-13.5,4-27.1,7.8-40.5,12c-11.2,3.5-22.4,6.8-33.7,10C263.8,331,259.9,332.9,255.7,333.2z"/>
	<path class="st8" d="M255.9,178.7c7.7,1.6,15.3,4,22.7,6.5c9.7,3.2,19.5,6,29.2,8.9c1.5,0.4,3,0.7,4.2,1.8
		c-7.2,1.4-14.4,2.9-21.6,4.3c-0.7,0.1-1.5-0.2-2.3-0.4c-8-2-16.1-3.8-24-6c-5.2-1.5-10.2-1.7-15.5-0.3
		c-18.8,4.9-37.8,9.5-56.7,14.2c-1.2,0.3-2.3,0.6-3.5,0.9c-5-1.3-10.2-1.4-15.2-2.2c-0.2-0.1-0.4-0.1-0.6,0
		c-0.3-0.1-0.6-0.2-0.9-0.3c-0.4,0-0.9,0-1.3,0c-0.7,0-1.4,0-2.1-0.1c-0.2-0.1-0.4-0.2-0.6-0.2c0-0.4,0-0.8,0-1.2
		c4.8,0.4,9-2.1,13.6-3c5.5-1.1,10.8-3.2,16.2-4.9c3.8-1.2,7.6-2.5,11.4-3.5c5.6-1.4,11-3.8,16.8-4.6c1.8-0.3,3.5-1.7,5.3-2.3
		c5.8-1.9,11.7-3.7,17.6-5.5C251.1,180.1,253.3,178.8,255.9,178.7z"/>
	<path class="st9" d="M149.1,180.7c1.2,0.9,0.8,2.2,0.8,3.3c0,47.9,0,95.7,0,143.6c0,1.1,0.4,2.5-0.8,3.4c-0.1-1-0.3-2-0.3-2.9
		c0-47.9,0-95.8,0-143.8C148.9,183.1,149,181.9,149.1,180.7z"/>
	<path class="st10" d="M167.8,205.8c0.2,0.1,0.4,0.2,0.6,0.2c-0.5,1.7-0.7,3.4-0.7,5.2c0,41.4,0,82.7,0,124.1c0,1.4-0.2,2.9,0.6,4.2
		c-0.7,0.8-1.7,0.8-2.7,0.6c0.3-0.6,0.9-1.1,0.6-1.9c0-12.3,0.1-24.6,0.1-37c0-31.8,0-63.6,0-95.4
		C166.9,205.8,167.4,205.8,167.8,205.8z"/>
	<path class="st7" d="M323.7,177.4c0,40.6,0.1,81.3,0.1,121.9c0,0.6-0.3,1.2-0.4,1.9c-1-1-0.6-2.3-0.6-3.5c0-38.9,0-77.9,0-116.8
		C322.8,179.7,322.1,178.2,323.7,177.4z"/>
	<path class="st6" d="M251.1,225c-0.3,0.7-0.8,0.8-1.3,0.2C250.2,224.6,250.6,224.5,251.1,225z"/>
	<path class="st11" d="M166.3,338.2c0.4,0.8-0.3,1.3-0.6,1.9c-0.5,0.1-0.6-0.2-0.6-0.6c0-0.2,0-0.5,0-0.7
		C165.6,338.6,165.9,338.4,166.3,338.2z"/>
	<path class="st6" d="M250.9,286.9c0.4-0.2,0.7-0.2,0.9,0.2C251.5,287.3,251.2,287.2,250.9,286.9z"/>
	<path class="st9" d="M166.3,338.2c-0.4,0.2-0.8,0.4-1.1,0.6c0-43.5,0-87,0-130.5c0-1.1-0.7-2.6,1.2-2.9c0,0.2,0,0.4,0.1,0.5
		c0,31.8,0,63.6,0,95.4C166.4,313.5,166.4,325.9,166.3,338.2z"/>
	<path class="st11" d="M166.4,205.9c0-0.2,0-0.4-0.1-0.5c0.3-0.6,0.8-0.7,1.4-0.7c0,0.4,0,0.8,0,1.2
		C167.4,205.8,166.9,205.8,166.4,205.9z"/>
	<path class="st10" d="M172.6,206.4c0.2,0,0.4,0,0.6,0c-1.1,0.9-2.1,1.4-2.7-0.4c0.4,0,0.9,0,1.3,0
		C172,206.2,172.3,206.3,172.6,206.4z"/>
	<path class="st4" d="M172.6,206.4c-0.3-0.1-0.6-0.2-0.9-0.3C172,206.2,172.3,206.3,172.6,206.4z"/>
</g>
</svg>
