<?xml version="1.0" encoding="utf-8"?>
<!-- Generator: Adobe Illustrator 24.2.0, SVG Export Plug-In . SVG Version: 6.00 Build 0)  -->
<svg version="1.1" id="Capa_1" xmlns="http://www.w3.org/2000/svg" xmlns:xlink="http://www.w3.org/1999/xlink" x="0px" y="0px"
	 viewBox="0 0 512 512" style="enable-background:new 0 0 512 512;" xml:space="preserve">
<style type="text/css">
	.st0{fill:#1572B6;}
	.st1{fill:#33A9DC;}
	.st2{fill:#FFFFFF;}
	.st3{fill:#EBEBEB;}
</style>
<g>
	<polygon class="st0" points="71.3,461 30.2,0 481.8,0 440.7,461 255.7,512.2 	"/>
	<polygon class="st1" points="256,473 405.5,431.6 440.6,37.7 256,37.7 	"/>
	<polygon class="st2" points="256,204.7 330.8,204.7 336,146.8 256,146.8 256,90.3 256.2,90.3 397.8,90.3 396.4,105.4 382.5,261.3 
		256,261.3 	"/>
	<polygon class="st3" points="256.3,351.6 256.1,351.6 193.1,334.6 189.1,289.5 158.5,289.5 132.3,289.5 140.3,378.3 256.1,410.5 
		256.3,410.4 	"/>
	<polygon class="st2" points="326,258.9 319.2,334.6 256.1,351.6 256.1,410.4 372.1,378.3 372.9,368.8 382.7,258.9 	"/>
	<polygon class="st3" points="256.2,90.3 256.2,125.4 256.2,146.7 256.2,146.8 119.8,146.8 119.8,146.8 119.6,146.8 118.5,134.1 
		115.9,105.4 114.6,90.3 	"/>
	<polygon class="st3" points="256,204.7 256,239.9 256,261.1 256,261.3 194,261.3 194,261.3 193.8,261.3 192.7,248.6 190.1,219.9 
		188.8,204.7 	"/>
</g>
</svg>
