<?xml version="1.0" encoding="utf-8"?>
<!-- Generator: Adobe Illustrator 24.2.0, SVG Export Plug-In . SVG Version: 6.00 Build 0)  -->
<svg version="1.1" id="Capa_1" xmlns="http://www.w3.org/2000/svg" xmlns:xlink="http://www.w3.org/1999/xlink" x="0px" y="0px"
	 viewBox="0 0 512 512" style="enable-background:new 0 0 512 512;" xml:space="preserve">
<style type="text/css">
	.st0{fill:#FFFFFF;}
	.st1{fill:#6FA0CF;}
	.st2{fill:#849CB1;}
	.st3{fill:#1A476F;}
	.st4{fill:#2D72B7;}
	.st5{fill:#205B98;}
	.st6{fill:#5293CE;}
	.st7{fill:#205B97;}
</style>
<path class="st0" d="M512,256c0,33.4-6.4,65.2-18,94.4c-6.2,15.6-13.9,30.5-22.9,44.5c-11.2,17.4-24.5,33.3-39.5,47.4
	c-8.8,8.3-18.1,15.9-28,22.9C361.8,494.7,310.9,512,256,512s-105.8-17.3-147.5-46.7C96.1,456.5,84.6,446.7,74,436
	C28.2,389.8,0,326.2,0,256S28.2,122.2,74,76c11.2-11.4,23.5-21.7,36.7-30.8C152,16.7,202,0,256,0s104,16.7,145.3,45.2
	c10.1,6.9,19.6,14.6,28.6,22.9c15.7,14.5,29.5,31,41.2,49c9,13.9,16.7,28.8,22.9,44.4C505.6,190.8,512,222.6,512,256z"/>
<g id="JiZfUo.tif">
	<g>
		<path class="st1" d="M224.2,143.9c0-0.1,0-0.1,0-0.2c21.2,0,42.4,0,63.6,0c0,0,0,0.1,0,0.1c0,13.8,0,27.6,0,41.4
			c0,0.3,0.1,0.7-0.1,1c0-0.3,0-0.7,0-1c0-13.4,0-26.9,0-40.3c0-1,0-1-1.1-1c-20.4,0-40.8,0-61.1,0c-0.3,0-0.6,0-0.9,0
			c-0.1,0-0.1,0-0.2,0C224.3,144,224.2,143.9,224.2,143.9z"/>
		<path class="st2" d="M156.6,217.1c-0.1,0-0.1,0-0.2,0c0-7.9,0-15.9,0-23.8c0,0,0.1,0,0.1,0c0,3.3,0,6.6,0,9.9
			C156.5,207.8,156.6,212.5,156.6,217.1z"/>
		<path class="st2" d="M156.6,284.8c-0.1,0-0.1,0-0.2,0c0-7.9,0-15.8,0-23.7c0,0,0.1,0,0.1,0c0,0.4,0,0.7,0,1.1
			C156.5,269.7,156.5,277.3,156.6,284.8z"/>
		<path class="st2" d="M156.4,294.9c0.1,0,0.1,0,0.2,0c0,7.5,0,15.1,0,22.6c0,0.4,0,0.7,0,1.1c0,0-0.1,0-0.1,0l-0.1-0.1
			C156.4,310.7,156.4,302.8,156.4,294.9z"/>
		<path class="st3" d="M156.5,318.7c0-0.4,0-0.7,0-1.1c0-7.5,0-15.1,0-22.6c1.4,0.1,2.8-0.3,4.2-0.4c0.7,0,1.4-0.2,2.2-0.2
			c0.4,0,0.5-0.1,0.5-0.5c0-1.6,0-3.2,0-4.8c0-0.5-0.3-0.6-0.6-0.8c-2.1-1.1-4.2-2.3-6.3-3.4c0-7.5,0-15.1,0-22.6c0-0.4,0-0.7,0-1.1
			c2.1,0,4.2,0,6.2,0c0.5,0,0.7-0.1,0.6-0.7c0-2.9,0-5.8,0-8.6c0-0.5-0.1-0.7-0.7-0.7c-1.9,0-3.7-0.1-5.6-0.1
			c-0.6,0-0.7-0.2-0.7-0.7c0-7.5,0-14.9,0-22.4c0-0.5,0.2-0.8,0.6-1c1.9-1,3.8-2,5.7-3c0.5-0.3,0.6-0.6,0.6-1.1c0-1.5,0-3,0-4.4
			c0-0.4,0-0.6-0.5-0.6c-2.1-0.2-4.2-0.4-6.3-0.6c0-4.6,0-9.3,0-13.9c0-3.3,0-6.6,0-9.9c6.1-7.2,12.3-14.4,18.4-21.6
			c1.6-1.9,3.2-3.7,4.8-5.5c0,0.4,0,0.7,0,1.1c0,10.7,0,21.3,0,32c0,1,0,1,0.9,0.7c1.5-0.4,2.9-0.9,4.4-1.3
			c4.4-1.4,8.8-2.7,13.2-4.1c7.9-2.5,15.8-4.9,23.7-7.4c0.8-0.3,1.7-0.6,2.5-0.7c20.9,0,41.7,0,62.6,0c0.2,0,0.4,0,0.5,0
			c0.2,0,0.4,0.1,0.6,0.1c10.5,3.3,21.1,6.5,31.6,9.8c4.1,1.3,8.2,2.5,12.3,3.8c0.1,0,0.1,0.1,0.2,0.1c1,0.7,1.9,1.4,2.9,2.1
			c6,4.3,11.9,8.6,17.9,13c0.8,0.6,1.7,0.9,2.2,1.8c-2,0.2-4,0.5-5.9,0.6c-0.6,0.1-0.7,0.3-0.7,0.8c0,1.6,0,3.2,0,4.7
			c-0.4,0-0.8-0.3-1.1-0.5c-3.2-1.7-6.4-3.4-9.7-5.1c-1.8-1-3.6-2-5.5-2.9c-1.2-0.4-2.4-0.6-3.6-0.9c-11-2.6-22-5.1-33-7.6
			c-2.6-0.6-5.3-1.3-7.9-1.8c-0.1,0-0.1-0.1-0.2-0.1c-0.3,0-0.5,0-0.8,0c-20.5,0-41.1,0-61.6,0c-0.3,0-0.5,0-0.8,0c0,0-0.1,0-0.1,0
			c-3.1,0.7-6.2,1.4-9.4,2.2c-7.4,1.7-14.9,3.4-22.3,5.1c-4.1,0.9-8.1,1.9-12.2,2.8c-0.5,0.1-0.7,0.3-0.7,0.9c0,10.9,0,21.8,0,32.6
			c0,0.6,0.2,0.8,0.8,0.8c1.8-0.2,3.6-0.2,5.4-0.3c2.6-0.1,5.1-0.2,7.7-0.3c2.7-0.1,5.3-0.2,8-0.3c2.5-0.1,5.1-0.2,7.6-0.3
			c2.7-0.1,5.3-0.2,8-0.3c2.4-0.1,4.9-0.1,7.3-0.2c20.8,0,41.7,0,62.5,0c0.2,0,0.4,0,0.6,0c1.5,0.1,3,0.1,4.5,0.2
			c4,0.2,7.9,0.3,11.9,0.5c3.5,0.1,7,0.2,10.5,0.4c1.4,0.1,2.7,0.1,4.1,0.1c4.6,0.2,9.2,0.4,13.7,0.6c0.1,0,0.2,0.1,0.4,0.1
			c1.9,0.1,3.7,0.3,5.6,0.5c1.9,0.2,3.9,0.3,5.8,0.5c2.7,0.2,5.4,0.5,8.1,0.8c0.7,0.1,1.4,0.2,2.1,0.3c-1.7,0-3.3,0.1-5,0.1
			c-0.5,0-0.7,0.1-0.7,0.6c0,2.9,0,5.8,0,8.7c0,0.5,0.1,0.7,0.7,0.7c1.8,0,3.6,0,5.4,0.1c-2,0.4-4.1,0.4-6.2,0.6
			c-2.1,0.2-4.2,0.3-6.3,0.5c-3.3,0.3-6.6,0.6-9.9,0.9c-0.3,0-0.7,0.1-1,0.1c-1.5,0-3.1,0.1-4.6,0.1c-3.9,0.2-7.9,0.3-11.8,0.5
			c-2.5,0.1-5,0.2-7.5,0.3c-4.2,0.2-8.5,0.3-12.7,0.5c-2.3,0.1-4.6,0.1-6.9,0.3c0,0-0.1,0-0.1,0c-0.2,0-0.4,0-0.6,0
			c-20.9,0-41.8,0-62.7,0c-1.7-0.3-3.4-0.2-5.1-0.3c-2.6-0.2-5.1-0.2-7.7-0.3c-2.7-0.1-5.3-0.2-8-0.3c-2.5-0.1-5.1-0.2-7.6-0.3
			c-2.7-0.1-5.4-0.2-8.1-0.3c-2.2-0.1-4.5-0.1-6.7-0.2c-0.2,0-0.4,0-0.5-0.1c-0.8-0.3-0.9,0.1-0.9,0.7c0,3.1,0,6.3,0,9.4
			c0,7.9,0,15.8,0,23.7c0,0.4,0.2,0.3,0.4,0.4c6.1,1.4,12.1,2.8,18.2,4.2c7,1.6,14,3.2,21,4.8c1.7,0.4,3.3,0.7,5,1.1
			c21.1,0,42.2,0,63.3,0c0.1,0,0.1,0,0.2,0c1.4-0.3,2.8-0.6,4.2-0.9c10.6-2.4,21.3-4.9,31.9-7.3c2.8-0.6,5.6-1.3,8.4-1.9
			c1.4-0.8,2.9-1.5,4.3-2.3c2.5-1.3,5-2.7,7.5-4c1.5-0.8,2.9-1.7,4.5-2.3c0,1.6,0,3.3,0,4.9c0,0.5,0.1,0.6,0.6,0.7
			c2.1,0.2,4.1,0.5,6.2,0.7c-4.8,3.6-9.7,7-14.6,10.6c-2.8,2.1-5.7,4.1-8.6,6.2c0,0-0.1,0.1-0.1,0.1c-0.2,0-0.3,0-0.5,0.1
			c-11.6,3.6-23.2,7.2-34.8,10.8c-3.1,0.9-6.1,1.9-9.2,2.9c-0.1,0-0.1,0-0.2,0c-0.2,0-0.4,0-0.6,0c-20.9,0-41.8,0-62.7,0
			c-2.8-0.9-5.5-1.7-8.3-2.6c-5.9-1.8-11.8-3.6-17.6-5.5c-5.9-1.8-11.8-3.6-17.6-5.5c-1-0.3-1-0.3-1,0.8c0,10.6,0,21.3,0,31.9
			c0,0.3,0.1,0.6-0.1,0.9c-4-4.6-7.9-9.3-11.9-13.9C164,327.5,160.3,323.1,156.5,318.7z"/>
		<path class="st4" d="M224.3,325.6c20.9,0,41.8,0,62.7,0c0.2,0,0.4,0,0.6,0c0,14.2,0,28.4,0,42.5c-0.3,0-0.6,0-0.9,0
			c-20.5,0-41,0-61.6,0c-0.4,0-0.7,0.1-1.1-0.1c0.3-0.3,0.2-0.7,0.2-1C224.3,353.3,224.3,339.4,224.3,325.6z"/>
		<path class="st5" d="M224.3,325.6c0,13.8,0,27.6,0,41.4c0,0.3,0.1,0.7-0.2,1c-3.8-1.9-7.6-3.8-11.3-5.6
			c-10.8-5.4-21.6-10.8-32.5-16.2c-0.2-0.1-0.6-0.2-0.7-0.5c0.2-0.3,0.1-0.6,0.1-0.9c0-10.6,0-21.3,0-31.9c0-1.1,0-1.1,1-0.8
			c5.9,1.8,11.8,3.6,17.6,5.5c5.9,1.8,11.8,3.6,17.6,5.5C218.8,323.9,221.6,324.8,224.3,325.6z"/>
		<path class="st6" d="M332.2,200.2c-4.1-1.3-8.2-2.5-12.3-3.8c-10.5-3.3-21.1-6.5-31.6-9.8c-0.2-0.1-0.4-0.1-0.6-0.1
			c0,0,0-0.1,0-0.1c0.2-0.3,0.1-0.7,0.1-1c0-13.8,0-27.6,0-41.4c2.5,1.2,5,2.4,7.5,3.7c12.1,6,24.1,12,36.2,18
			c0.3,0.2,0.7,0.2,0.9,0.6c0,0,0,0.1,0,0.1c-0.3,0.2-0.2,0.5-0.2,0.8C332.2,178.2,332.2,189.2,332.2,200.2z"/>
		<path class="st6" d="M287.8,325.6c3.1-1,6.1-1.9,9.2-2.9c11.6-3.6,23.2-7.2,34.8-10.8c0.1,0,0.3-0.1,0.5-0.1c0,10.9,0,21.8,0,32.7
			c0,0.3-0.1,0.7,0.1,1c0,0.1,0,0.1,0,0.2c-0.4,0.4-0.9,0.6-1.4,0.8c-14.1,7-28.2,14.1-42.3,21.1c-0.2,0.1-0.5,0.2-0.7,0.3
			c-0.3-0.3-0.2-0.7-0.2-1C287.8,353.2,287.8,339.4,287.8,325.6z"/>
		<path class="st4" d="M348.6,288.8c-1.6,0.6-3,1.5-4.5,2.3c-2.5,1.3-5,2.7-7.5,4c-1.4,0.8-2.9,1.5-4.3,2.3c0,0,0-0.1,0-0.1
			c0-11.3,0-22.6,0-34c0,0,0-0.1,0-0.1c3.3-0.3,6.6-0.6,9.9-0.9c2.1-0.2,4.2-0.3,6.3-0.5c2.1-0.2,4.1-0.2,6.2-0.6
			c0.7-0.2,0.8,0,0.8,0.7c0,7.4,0,14.9,0,22.3c0,0.5-0.1,0.8-0.6,1c-1.9,1-3.8,2-5.7,3C349.1,288.4,348.7,288.4,348.6,288.8z"/>
		<path class="st4" d="M354.3,251c-0.7-0.1-1.4-0.2-2.1-0.3c-2.7-0.3-5.4-0.5-8.1-0.8c-1.9-0.2-3.9-0.3-5.8-0.5
			c-1.9-0.2-3.7-0.4-5.6-0.5c-0.1,0-0.2-0.1-0.4-0.1c0-9.1,0-18.2,0-27.4c0-2.2,0-4.4,0-6.6c1.9,0.8,3.7,1.9,5.5,2.9
			c3.2,1.7,6.4,3.4,9.7,5.1c0.4,0.2,0.7,0.5,1.1,0.5c0.1,0.3,0.4,0.4,0.6,0.5c1.9,1,3.8,2.1,5.7,3c0.5,0.2,0.6,0.5,0.6,1
			c0,7.3,0,14.6,0,22C355.6,251,355.6,251,354.3,251z"/>
		<path class="st4" d="M332.3,166.3c0,0,0-0.1,0-0.1c1.7,1.7,3.2,3.6,4.7,5.4c6,7,12,14,18,21c0.4,0.5,0.6,0.9,0.6,1.5
			c0,7.4,0,14.7,0,22.1c0,0.3,0.3,0.7-0.3,0.8c-0.5-0.9-1.4-1.2-2.2-1.8c-5.9-4.3-11.9-8.6-17.9-13c-1-0.7-1.9-1.4-2.9-2.1
			C332.3,188.9,332.3,177.6,332.3,166.3z"/>
		<path class="st4" d="M332.3,345.8c0-0.1,0-0.1,0-0.2c0-5.1,0-10.3,0-15.4c0-6.1,0-12.2,0-18.4c2.9-2.1,5.7-4.1,8.6-6.2
			c4.8-3.5,9.8-6.9,14.6-10.6c0.2,0.2,0.1,0.5,0.1,0.7c0,7.4,0,14.8,0,22.2c0,0.4-0.1,0.7-0.3,1.1c-7.5,8.8-15,17.5-22.5,26.3
			C332.6,345.5,332.5,345.6,332.3,345.8z"/>
		<path class="st1" d="M287.8,325.6c0,13.8,0,27.6,0,41.4c0,0.3-0.1,0.7,0.2,1c-0.1,0.1-0.2,0.1-0.4,0.1c0-14.2,0-28.4,0-42.5
			C287.7,325.6,287.7,325.6,287.8,325.6z"/>
		<path class="st7" d="M224.5,186.4c-0.9,0.1-1.7,0.4-2.5,0.7c-7.9,2.4-15.8,4.9-23.7,7.4c-4.4,1.4-8.8,2.7-13.2,4.1
			c-1.5,0.5-2.9,0.9-4.4,1.3c-0.9,0.3-0.9,0.3-0.9-0.7c0-10.7,0-21.3,0-32c0-0.4,0-0.7,0-1.1c0.1-0.2,0.3-0.3,0.5-0.4
			c14.7-7.3,29.3-14.6,44-21.9c0,0,0.1,0,0.1,0c0,0.3,0,0.7,0,1c0,13.5,0,26.9,0,40.4c0,0.3-0.1,0.7,0.2,1
			C224.5,186.4,224.5,186.4,224.5,186.4z"/>
		<path class="st4" d="M224.5,186.4c0,0,0-0.1,0-0.1c0-14.1,0-28.2,0-42.4c0.3,0,0.6,0,0.9,0c20.4,0,40.8,0,61.1,0
			c1.1,0,1.1,0,1.1,1c0,13.4,0,26.9,0,40.3c0,0.3,0,0.7,0,1c0,0,0,0.1,0,0.1c-0.2,0-0.4,0-0.5,0
			C266.2,186.5,245.4,186.5,224.5,186.4z"/>
		<path class="st4" d="M224.5,143.9c0,14.1,0,28.2,0,42.4c-0.3-0.3-0.2-0.6-0.2-1c0-13.5,0-26.9,0-40.4c0-0.3,0-0.7,0-1
			C224.4,144,224.4,144,224.5,143.9z"/>
		<path class="st4" d="M224.5,204.4c0.3,0,0.5,0,0.8,0c20.5,0,41.1,0,61.6,0c0.3,0,0.5,0,0.8,0c0,0.2,0,0.4,0,0.5
			c0,13.8,0,27.6,0,41.3c0,0.2,0,0.4,0,0.6c0,0,0,0.1,0,0.1c-0.2,0-0.4,0-0.6,0c-20.8,0-41.7,0-62.5,0c0-0.1,0-0.1,0-0.2
			c0-1.9,0-3.9,0-5.8C224.5,228.9,224.5,216.6,224.5,204.4z"/>
		<path class="st4" d="M287.6,307.6c-21.1,0-42.2,0-63.3,0c0-14.2,0-28.4,0-42.6c20.9,0,41.8,0,62.7,0c0.2,0,0.4,0,0.6,0
			c0,0.4,0,0.7,0,1.1C287.6,279.9,287.6,293.8,287.6,307.6z"/>
		<path class="st7" d="M224.3,265c0,14.2,0,28.4,0,42.6c-1.7-0.4-3.3-0.7-5-1.1c-7-1.6-14-3.2-21-4.8c-6.1-1.4-12.1-2.8-18.2-4.2
			c-0.2,0-0.4,0-0.4-0.4c0-7.9,0-15.8,0-23.7c0-3.1,0-6.3,0-9.4c0-0.7,0.1-1,0.9-0.7c0.2,0.1,0.4,0.1,0.5,0.1
			c2.2,0.1,4.5,0.1,6.7,0.2c2.7,0.1,5.4,0.2,8.1,0.3c2.5,0.1,5.1,0.2,7.6,0.3c2.7,0.1,5.3,0.2,8,0.3c2.6,0.1,5.1,0.2,7.7,0.3
			C220.9,264.9,222.6,264.7,224.3,265z"/>
		<path class="st7" d="M224.5,246.9c0,0.1,0,0.1,0,0.2c-2.4,0.1-4.9,0.1-7.3,0.2c-2.7,0.1-5.3,0.2-8,0.3c-2.5,0.1-5.1,0.2-7.6,0.3
			c-2.7,0.1-5.3,0.2-8,0.3c-2.6,0.1-5.1,0.2-7.7,0.3c-1.8,0.1-3.6,0.1-5.4,0.3c-0.6,0.1-0.8-0.1-0.8-0.8c0-10.9,0-21.8,0-32.6
			c0-0.6,0.2-0.8,0.7-0.9c4.1-0.9,8.1-1.9,12.2-2.8c7.4-1.7,14.9-3.4,22.3-5.1c3.1-0.7,6.2-1.4,9.4-2.2c0,0.1,0,0.1,0,0.2
			c0,13.9,0,27.8,0,41.8C224.3,246.5,224.3,246.8,224.5,246.9z"/>
		<path class="st6" d="M287.6,247c0,0,0-0.1,0-0.1c0.2-0.3,0.1-0.6,0.1-0.9c0-13.5,0-27,0-40.4c0-0.4,0-0.7,0-1.1
			c2.7,0.5,5.3,1.2,7.9,1.8c11,2.5,22,5.1,33,7.6c1.2,0.3,2.4,0.5,3.6,0.9c0,2.2,0,4.4,0,6.6c0,9.1,0,18.2,0,27.4
			c-4.6-0.2-9.2-0.4-13.7-0.6c-1.4-0.1-2.7-0.1-4.1-0.1c-3.5-0.2-7-0.2-10.5-0.4c-4-0.1-7.9-0.3-11.9-0.5
			C290.6,247.1,289.1,247.2,287.6,247z"/>
		<path class="st6" d="M332.3,297.3c0,0,0,0.1,0,0.1c-2.8,0.6-5.6,1.3-8.4,1.9c-10.6,2.4-21.3,4.9-31.9,7.3
			c-1.4,0.3-2.8,0.6-4.2,0.9c0-14.2,0-28.4,0-42.5c2.3-0.2,4.6-0.3,6.9-0.3c4.2-0.1,8.5-0.3,12.7-0.5c2.5-0.1,5-0.2,7.5-0.3
			c3.9-0.2,7.9-0.3,11.8-0.5c1.5-0.1,3.1-0.1,4.6-0.1c0.3,0,0.7-0.1,1-0.1c0,0,0,0.1,0,0.1c-0.2,0.2-0.1,0.5-0.1,0.8
			c0,10.8,0,21.6,0,32.4C332.2,296.7,332.1,297,332.3,297.3z"/>
		<path class="st1" d="M287.8,204.5c0,0.4,0,0.7,0,1.1c0,13.5,0,27,0,40.4c0,0.3,0.1,0.6-0.1,0.9c0-0.2,0-0.4,0-0.6
			c0-13.8,0-27.6,0-41.3c0-0.2,0-0.4,0-0.5C287.7,204.4,287.7,204.5,287.8,204.5z"/>
		<path class="st1" d="M287.8,265c0,14.2,0,28.4,0,42.5c-0.1,0-0.1,0-0.2,0c0-13.8,0-27.6,0-41.5c0-0.4,0-0.7,0-1.1
			C287.7,265,287.7,265,287.8,265z"/>
		<path class="st6" d="M224.5,246.9c-0.2-0.1-0.1-0.4-0.1-0.6c0-13.9,0-27.8,0-41.8c0-0.1,0-0.1,0-0.2c0,0,0.1,0,0.1,0
			c0,12.2,0,24.4,0,36.7C224.5,243,224.5,245,224.5,246.9z"/>
		<path class="st1" d="M332.3,311.8c0,6.1,0,12.2,0,18.4c0,5.1,0,10.3,0,15.4c-0.3-0.3-0.1-0.6-0.1-1c0-10.9,0-21.8,0-32.7
			C332.2,311.9,332.3,311.8,332.3,311.8z"/>
		<path class="st1" d="M332.3,166.3c0,11.3,0,22.6,0,33.9c-0.1,0-0.1-0.1-0.2-0.1c0-11,0-22,0-33
			C332.2,166.9,332.1,166.6,332.3,166.3z"/>
		<path class="st1" d="M332.3,297.3c-0.2-0.2-0.1-0.5-0.1-0.8c0-10.8,0-21.6,0-32.4c0-0.3-0.1-0.6,0.1-0.8
			C332.3,274.6,332.3,286,332.3,297.3z"/>
	</g>
</g>
</svg>
