<?xml version="1.0" encoding="utf-8"?>
<!-- Generator: Adobe Illustrator 24.2.0, SVG Export Plug-In . SVG Version: 6.00 Build 0)  -->
<svg version="1.1" id="Capa_1" xmlns="http://www.w3.org/2000/svg" xmlns:xlink="http://www.w3.org/1999/xlink" x="0px" y="0px"
	 viewBox="0 0 512 512" style="enable-background:new 0 0 512 512;" xml:space="preserve">
<style type="text/css">
	.st0{fill:#6FA0CF;}
	.st1{fill:#849CB1;}
	.st2{fill:#1A476F;}
	.st3{fill:#2D72B7;}
	.st4{fill:#205B98;}
	.st5{fill:#5293CE;}
	.st6{fill:#205B97;}
</style>
<g id="JiZfUo.tif">
	<g>
		<path class="st0" d="M183.5,0.5c0-0.2,0-0.2,0-0.5c48.4,0,96.7,0,145.1,0v0.2c0,31.5,0,63,0,94.4c0,0.7,0.2,1.6-0.2,2.3
			c0-0.7,0-1.6,0-2.3c0-30.6,0-61.4,0-91.9c0-2.3,0-2.3-2.5-2.3c-46.5,0-93.1,0-139.4,0c-0.7,0-1.4,0-2.1,0c-0.2,0-0.2,0-0.5,0
			C183.7,0.7,183.5,0.5,183.5,0.5z"/>
		<path class="st1" d="M29.3,167.5c-0.2,0-0.2,0-0.5,0c0-18,0-36.3,0-54.3H29c0,7.5,0,15.1,0,22.6C29,146.2,29.3,157,29.3,167.5z"/>
		<path class="st1" d="M29.3,321.9c-0.2,0-0.2,0-0.5,0c0-18,0-36,0-54.1H29c0,0.9,0,1.6,0,2.5C29,287.5,29,304.8,29.3,321.9z"/>
		<path class="st1" d="M28.8,344.9c0.2,0,0.2,0,0.5,0c0,17.1,0,34.4,0,51.6c0,0.9,0,1.6,0,2.5H29l-0.2-0.2
			C28.8,381,28.8,363,28.8,344.9z"/>
		<path class="st2" d="M29,399.2c0-0.9,0-1.6,0-2.5c0-17.1,0-34.4,0-51.6c3.2,0.2,6.4-0.7,9.6-0.9c1.6,0,3.2-0.5,5-0.5
			c0.9,0,1.1-0.2,1.1-1.1c0-3.7,0-7.3,0-11c0-1.1-0.7-1.4-1.4-1.8c-4.8-2.5-9.6-5.2-14.4-7.8c0-17.1,0-34.4,0-51.6
			c0-0.9,0-1.6,0-2.5c4.8,0,9.6,0,14.1,0c1.1,0,1.6-0.2,1.4-1.6c0-6.6,0-13.2,0-19.6c0-1.1-0.2-1.6-1.6-1.6c-4.3,0-8.4-0.2-12.8-0.2
			c-1.4,0-1.6-0.5-1.6-1.6c0-17.1,0-34,0-51.1c0-1.1,0.5-1.8,1.4-2.3c4.3-2.3,8.7-4.6,13-6.8c1.1-0.7,1.4-1.4,1.4-2.5
			c0-3.4,0-6.8,0-10c0-0.9,0-1.4-1.1-1.4c-4.8-0.5-9.6-0.9-14.4-1.4c0-10.5,0-21.2,0-31.7c0-7.5,0-15.1,0-22.6
			c13.9-16.4,28.1-32.9,42-49.3c3.7-4.3,7.3-8.4,11-12.5c0,0.9,0,1.6,0,2.5c0,24.4,0,48.6,0,73c0,2.3,0,2.3,2.1,1.6
			c3.4-0.9,6.6-2.1,10-3c10-3.2,20.1-6.2,30.1-9.4c18-5.7,36-11.2,54.1-16.9c1.8-0.7,3.9-1.4,5.7-1.6c47.7,0,95.1,0,142.8,0
			c0.5,0,0.9,0,1.1,0c0.5,0,0.9,0.2,1.4,0.2c24,7.5,48.1,14.8,72.1,22.4c9.4,3,18.7,5.7,28.1,8.7c0.2,0,0.2,0.2,0.5,0.2
			c2.3,1.6,4.3,3.2,6.6,4.8c13.7,9.8,27.1,19.6,40.8,29.7c1.8,1.4,3.9,2.1,5,4.1c-4.6,0.5-9.1,1.1-13.5,1.4
			c-1.4,0.2-1.6,0.7-1.6,1.8c0,3.7,0,7.3,0,10.7c-0.9,0-1.8-0.7-2.5-1.1c-7.3-3.9-14.6-7.8-22.1-11.6c-4.1-2.3-8.2-4.6-12.5-6.6
			c-2.7-0.9-5.5-1.4-8.2-2.1c-25.1-5.9-50.2-11.6-75.3-17.3c-5.9-1.4-12.1-3-18-4.1c-0.2,0-0.2-0.2-0.5-0.2c-0.7,0-1.1,0-1.8,0
			c-46.8,0-93.8,0-140.5,0c-0.7,0-1.1,0-1.8,0h-0.2c-7.1,1.6-14.1,3.2-21.4,5c-16.9,3.9-34,7.8-50.9,11.6
			c-9.4,2.1-18.5,4.3-27.8,6.4c-1.1,0.2-1.6,0.7-1.6,2.1c0,24.9,0,49.7,0,74.4c0,1.4,0.5,1.8,1.8,1.8c4.1-0.5,8.2-0.5,12.3-0.7
			c5.9-0.2,11.6-0.5,17.6-0.7c6.2-0.2,12.1-0.5,18.3-0.7c5.7-0.2,11.6-0.5,17.3-0.7c6.2-0.2,12.1-0.5,18.3-0.7
			c5.5-0.2,11.2-0.2,16.7-0.5c47.5,0,95.1,0,142.6,0c0.5,0,0.9,0,1.4,0c3.4,0.2,6.8,0.2,10.3,0.5c9.1,0.5,18,0.7,27.1,1.1
			c8,0.2,16,0.5,24,0.9c3.2,0.2,6.2,0.2,9.4,0.2c10.5,0.5,21,0.9,31.3,1.4c0.2,0,0.5,0.2,0.9,0.2c4.3,0.2,8.4,0.7,12.8,1.1
			s8.9,0.7,13.2,1.1c6.2,0.5,12.3,1.1,18.5,1.8c1.6,0.2,3.2,0.5,4.8,0.7c-3.9,0-7.5,0.2-11.4,0.2c-1.1,0-1.6,0.2-1.6,1.4
			c0,6.6,0,13.2,0,19.8c0,1.1,0.2,1.6,1.6,1.6c4.1,0,8.2,0,12.3,0.2c-4.6,0.9-9.4,0.9-14.1,1.4c-4.8,0.5-9.6,0.7-14.4,1.1
			c-7.5,0.7-15.1,1.4-22.6,2.1c-0.7,0-1.6,0.2-2.3,0.2c-3.4,0-7.1,0.2-10.5,0.2c-8.9,0.5-18,0.7-26.9,1.1
			c-5.7,0.2-11.4,0.5-17.1,0.7c-9.6,0.5-19.4,0.7-29,1.1c-5.2,0.2-10.5,0.2-15.7,0.7h-0.2c-0.5,0-0.9,0-1.4,0c-47.7,0-95.4,0-143,0
			c-3.9-0.7-7.8-0.5-11.6-0.7c-5.9-0.5-11.6-0.5-17.6-0.7c-6.2-0.2-12.1-0.5-18.3-0.7c-5.7-0.2-11.6-0.5-17.3-0.7
			c-6.2-0.2-12.3-0.5-18.5-0.7c-5-0.2-10.3-0.2-15.3-0.5c-0.5,0-0.9,0-1.1-0.2c-1.8-0.7-2.1,0.2-2.1,1.6c0,7.1,0,14.4,0,21.4
			c0,18,0,36,0,54.1c0,0.9,0.5,0.7,0.9,0.9c13.9,3.2,27.6,6.4,41.5,9.6c16,3.7,31.9,7.3,47.9,11c3.9,0.9,7.5,1.6,11.4,2.5
			c48.1,0,96.3,0,144.4,0c0.2,0,0.2,0,0.5,0c3.2-0.7,6.4-1.4,9.6-2.1c24.2-5.5,48.6-11.2,72.8-16.7c6.4-1.4,12.8-3,19.2-4.3
			c3.2-1.8,6.6-3.4,9.8-5.2c5.7-3,11.4-6.2,17.1-9.1c3.4-1.8,6.6-3.9,10.3-5.2c0,3.7,0,7.5,0,11.2c0,1.1,0.2,1.4,1.4,1.6
			c4.8,0.5,9.4,1.1,14.1,1.6c-11,8.2-22.1,16-33.3,24.2c-6.4,4.8-13,9.4-19.6,14.1l-0.2,0.2c-0.5,0-0.7,0-1.1,0.2
			c-26.5,8.2-52.9,16.4-79.4,24.6c-7.1,2.1-13.9,4.3-21,6.6c-0.2,0-0.2,0-0.5,0c-0.5,0-0.9,0-1.4,0c-47.7,0-95.4,0-143,0
			c-6.4-2.1-12.5-3.9-18.9-5.9c-13.5-4.1-26.9-8.2-40.2-12.5c-13.5-4.1-26.9-8.2-40.2-12.5c-2.3-0.7-2.3-0.7-2.3,1.8
			c0,24.2,0,48.6,0,72.8c0,0.7,0.2,1.4-0.2,2.1c-9.1-10.5-18-21.2-27.1-31.7C46.1,419.3,37.7,409.3,29,399.2z"/>
		<path class="st3" d="M183.7,415c47.7,0,95.4,0,143,0c0.5,0,0.9,0,1.4,0c0,32.4,0,64.8,0,97c-0.7,0-1.4,0-2.1,0
			c-46.8,0-93.5,0-140.5,0c-0.9,0-1.6,0.2-2.5-0.2c0.7-0.7,0.5-1.6,0.5-2.3C183.7,478.2,183.7,446.5,183.7,415z"/>
		<path class="st4" d="M183.7,415c0,31.5,0,63,0,94.4c0,0.7,0.2,1.6-0.5,2.3c-8.7-4.3-17.3-8.7-25.8-12.8
			c-24.6-12.3-49.3-24.6-74.1-37c-0.5-0.2-1.4-0.5-1.6-1.1c0.5-0.7,0.2-1.4,0.2-2.1c0-24.2,0-48.6,0-72.8c0-2.5,0-2.5,2.3-1.8
			c13.5,4.1,26.9,8.2,40.2,12.5c13.5,4.1,26.9,8.2,40.2,12.5C171.2,411.1,177.5,413.2,183.7,415z"/>
		<path class="st5" d="M429.9,128.9c-9.4-3-18.7-5.7-28.1-8.7c-24-7.5-48.1-14.8-72.1-22.4c-0.5-0.2-0.9-0.2-1.4-0.2v-0.2
			c0.5-0.7,0.2-1.6,0.2-2.3c0-31.5,0-63,0-94.4c5.7,2.7,11.4,5.5,17.1,8.4c27.6,13.7,55,27.4,82.6,41.1c0.7,0.5,1.6,0.5,2.1,1.4v0.2
			c-0.7,0.5-0.5,1.1-0.5,1.8C429.9,78.7,429.9,103.8,429.9,128.9z"/>
		<path class="st5" d="M328.6,415c7.1-2.3,13.9-4.3,21-6.6c26.5-8.2,52.9-16.4,79.4-24.6c0.2,0,0.7-0.2,1.1-0.2
			c0,24.9,0,49.7,0,74.6c0,0.7-0.2,1.6,0.2,2.3c0,0.2,0,0.2,0,0.5c-0.9,0.9-2.1,1.4-3.2,1.8c-32.2,16-64.3,32.2-96.5,48.1
			c-0.5,0.2-1.1,0.5-1.6,0.7c-0.7-0.7-0.5-1.6-0.5-2.3C328.6,478,328.6,446.5,328.6,415z"/>
		<path class="st3" d="M467.3,331c-3.7,1.4-6.8,3.4-10.3,5.2c-5.7,3-11.4,6.2-17.1,9.1c-3.2,1.8-6.6,3.4-9.8,5.2v-0.2
			c0-25.8,0-51.6,0-77.6v-0.2c7.5-0.7,15.1-1.4,22.6-2.1c4.8-0.5,9.6-0.7,14.4-1.1c4.8-0.5,9.4-0.5,14.1-1.4c1.6-0.5,1.8,0,1.8,1.6
			c0,16.9,0,34,0,50.9c0,1.1-0.2,1.8-1.4,2.3c-4.3,2.3-8.7,4.6-13,6.8C468.4,330.1,467.5,330.1,467.3,331z"/>
		<path class="st3" d="M480.3,244.8c-1.6-0.2-3.2-0.5-4.8-0.7c-6.2-0.7-12.3-1.1-18.5-1.8c-4.3-0.5-8.9-0.7-13.2-1.1
			c-4.3-0.5-8.4-0.9-12.8-1.1c-0.2,0-0.5-0.2-0.9-0.2c0-20.8,0-41.5,0-62.5c0-5,0-10,0-15.1c4.3,1.8,8.4,4.3,12.5,6.6
			c7.3,3.9,14.6,7.8,22.1,11.6c0.9,0.5,1.6,1.1,2.5,1.1c0.2,0.7,0.9,0.9,1.4,1.1c4.3,2.3,8.7,4.8,13,6.8c1.1,0.5,1.4,1.1,1.4,2.3
			c0,16.7,0,33.3,0,50.2C483.3,244.8,483.3,244.8,480.3,244.8z"/>
		<path class="st3" d="M430.1,51.6v-0.2c3.9,3.9,7.3,8.2,10.7,12.3c13.7,16,27.4,31.9,41.1,47.9c0.9,1.1,1.4,2.1,1.4,3.4
			c0,16.9,0,33.5,0,50.4c0,0.7,0.7,1.6-0.7,1.8c-1.1-2.1-3.2-2.7-5-4.1c-13.5-9.8-27.1-19.6-40.8-29.7c-2.3-1.6-4.3-3.2-6.6-4.8
			C430.1,103.1,430.1,77.3,430.1,51.6z"/>
		<path class="st3" d="M430.1,461.1c0-0.2,0-0.2,0-0.5c0-11.6,0-23.5,0-35.1c0-13.9,0-27.8,0-42c6.6-4.8,13-9.4,19.6-14.1
			c11-8,22.4-15.7,33.3-24.2c0.5,0.5,0.2,1.1,0.2,1.6c0,16.9,0,33.8,0,50.6c0,0.9-0.2,1.6-0.7,2.5c-17.1,20.1-34.2,39.9-51.3,60
			C430.8,460.4,430.6,460.6,430.1,461.1z"/>
		<path class="st0" d="M328.6,415c0,31.5,0,63,0,94.4c0,0.7-0.2,1.6,0.5,2.3c-0.2,0.2-0.5,0.2-0.9,0.2c0-32.4,0-64.8,0-97
			C328.3,415,328.3,415,328.6,415z"/>
		<path class="st6" d="M184.2,97.4c-2.1,0.2-3.9,0.9-5.7,1.6c-18,5.5-36,11.2-54.1,16.9c-10,3.2-20.1,6.2-30.1,9.4
			c-3.4,1.1-6.6,2.1-10,3c-2.1,0.7-2.1,0.7-2.1-1.6c0-24.4,0-48.6,0-73c0-0.9,0-1.6,0-2.5c0.2-0.5,0.7-0.7,1.1-0.9
			c33.5-16.7,66.8-33.3,100.4-50h0.2c0,0.7,0,1.6,0,2.3c0,30.8,0,61.4,0,92.2c0,0.7-0.2,1.6,0.5,2.3
			C184.2,97.4,184.2,97.4,184.2,97.4z"/>
		<path class="st3" d="M184.2,97.4v-0.2c0-32.2,0-64.3,0-96.7c0.7,0,1.4,0,2.1,0c46.5,0,93.1,0,139.4,0c2.5,0,2.5,0,2.5,2.3
			c0,30.6,0,61.4,0,91.9c0,0.7,0,1.6,0,2.3v0.2c-0.5,0-0.9,0-1.1,0C279.3,97.6,231.8,97.6,184.2,97.4z"/>
		<path class="st3" d="M184.2,0.5c0,32.2,0,64.3,0,96.7c-0.7-0.7-0.5-1.4-0.5-2.3c0-30.8,0-61.4,0-92.2c0-0.7,0-1.6,0-2.3
			C183.9,0.7,183.9,0.7,184.2,0.5z"/>
		<path class="st3" d="M184.2,138.5c0.7,0,1.1,0,1.8,0c46.8,0,93.8,0,140.5,0c0.7,0,1.1,0,1.8,0c0,0.5,0,0.9,0,1.1
			c0,31.5,0,63,0,94.2c0,0.5,0,0.9,0,1.4v0.2c-0.5,0-0.9,0-1.4,0c-47.5,0-95.1,0-142.6,0c0-0.2,0-0.2,0-0.5c0-4.3,0-8.9,0-13.2
			C184.2,194.4,184.2,166.3,184.2,138.5z"/>
		<path class="st3" d="M328.1,373.9c-48.1,0-96.3,0-144.4,0c0-32.4,0-64.8,0-97.2c47.7,0,95.4,0,143,0c0.5,0,0.9,0,1.4,0
			c0,0.9,0,1.6,0,2.5C328.1,310.7,328.1,342.4,328.1,373.9z"/>
		<path class="st6" d="M183.7,276.7c0,32.4,0,64.8,0,97.2c-3.9-0.9-7.5-1.6-11.4-2.5c-16-3.7-31.9-7.3-47.9-11
			c-13.9-3.2-27.6-6.4-41.5-9.6c-0.5,0-0.9,0-0.9-0.9c0-18,0-36,0-54.1c0-7.1,0-14.4,0-21.4c0-1.6,0.2-2.3,2.1-1.6
			c0.5,0.2,0.9,0.2,1.1,0.2c5,0.2,10.3,0.2,15.3,0.5c6.2,0.2,12.3,0.5,18.5,0.7c5.7,0.2,11.6,0.5,17.3,0.7
			c6.2,0.2,12.1,0.5,18.3,0.7c5.9,0.2,11.6,0.5,17.6,0.7C176,276.5,179.8,276,183.7,276.7z"/>
		<path class="st6" d="M184.2,235.4c0,0.2,0,0.2,0,0.5c-5.5,0.2-11.2,0.2-16.7,0.5c-6.2,0.2-12.1,0.5-18.3,0.7
			c-5.7,0.2-11.6,0.5-17.3,0.7c-6.2,0.2-12.1,0.5-18.3,0.7c-5.9,0.2-11.6,0.5-17.6,0.7c-4.1,0.2-8.2,0.2-12.3,0.7
			c-1.4,0.2-1.8-0.2-1.8-1.8c0-24.9,0-49.7,0-74.4c0-1.4,0.5-1.8,1.6-2.1c9.4-2.1,18.5-4.3,27.8-6.4c16.9-3.9,34-7.8,50.9-11.6
			c7.1-1.6,14.1-3.2,21.4-5c0,0.2,0,0.2,0,0.5c0,31.7,0,63.4,0,95.4C183.7,234.5,183.7,235.2,184.2,235.4z"/>
		<path class="st5" d="M328.1,235.7v-0.2c0.5-0.7,0.2-1.4,0.2-2.1c0-30.8,0-61.6,0-92.2c0-0.9,0-1.6,0-2.5c6.2,1.1,12.1,2.7,18,4.1
			c25.1,5.7,50.2,11.6,75.3,17.3c2.7,0.7,5.5,1.1,8.2,2.1c0,5,0,10,0,15.1c0,20.8,0,41.5,0,62.5c-10.5-0.5-21-0.9-31.3-1.4
			c-3.2-0.2-6.2-0.2-9.4-0.2c-8-0.5-16-0.5-24-0.9c-9.1-0.2-18-0.7-27.1-1.1C335,235.9,331.5,236.1,328.1,235.7z"/>
		<path class="st5" d="M430.1,350.4v0.2c-6.4,1.4-12.8,3-19.2,4.3c-24.2,5.5-48.6,11.2-72.8,16.7c-3.2,0.7-6.4,1.4-9.6,2.1
			c0-32.4,0-64.8,0-97c5.2-0.5,10.5-0.7,15.7-0.7c9.6-0.2,19.4-0.7,29-1.1c5.7-0.2,11.4-0.5,17.1-0.7c8.9-0.5,18-0.7,26.9-1.1
			c3.4-0.2,7.1-0.2,10.5-0.2c0.7,0,1.6-0.2,2.3-0.2v0.2c-0.5,0.5-0.2,1.1-0.2,1.8c0,24.6,0,49.3,0,73.9
			C429.9,349.1,429.6,349.7,430.1,350.4z"/>
		<path class="st0" d="M328.6,138.7c0,0.9,0,1.6,0,2.5c0,30.8,0,61.6,0,92.2c0,0.7,0.2,1.4-0.2,2.1c0-0.5,0-0.9,0-1.4
			c0-31.5,0-63,0-94.2c0-0.5,0-0.9,0-1.1C328.3,138.5,328.3,138.7,328.6,138.7z"/>
		<path class="st0" d="M328.6,276.7c0,32.4,0,64.8,0,97c-0.2,0-0.2,0-0.5,0c0-31.5,0-63,0-94.7c0-0.9,0-1.6,0-2.5
			C328.3,276.7,328.3,276.7,328.6,276.7z"/>
		<path class="st5" d="M184.2,235.4c-0.5-0.2-0.2-0.9-0.2-1.4c0-31.7,0-63.4,0-95.4c0-0.2,0-0.2,0-0.5h0.2c0,27.8,0,55.7,0,83.7
			C184.2,226.5,184.2,231.1,184.2,235.4z"/>
		<path class="st0" d="M430.1,383.5c0,13.9,0,27.8,0,42c0,11.6,0,23.5,0,35.1c-0.7-0.7-0.2-1.4-0.2-2.3c0-24.9,0-49.7,0-74.6
			C429.9,383.7,430.1,383.5,430.1,383.5z"/>
		<path class="st0" d="M430.1,51.6c0,25.8,0,51.6,0,77.3c-0.2,0-0.2-0.2-0.5-0.2c0-25.1,0-50.2,0-75.3
			C429.9,52.9,429.6,52.2,430.1,51.6z"/>
		<path class="st0" d="M430.1,350.4c-0.5-0.5-0.2-1.1-0.2-1.8c0-24.6,0-49.3,0-73.9c0-0.7-0.2-1.4,0.2-1.8
			C430.1,298.6,430.1,324.6,430.1,350.4z"/>
	</g>
</g>
</svg>
