<?xml version="1.0" encoding="utf-8"?>
<!-- Generator: Adobe Illustrator 24.2.0, SVG Export Plug-In . SVG Version: 6.00 Build 0)  -->
<svg version="1.1" id="Capa_1" xmlns="http://www.w3.org/2000/svg" xmlns:xlink="http://www.w3.org/1999/xlink" x="0px" y="0px"
	 viewBox="0 0 512 512" style="enable-background:new 0 0 512 512;" xml:space="preserve">
<style type="text/css">
	.st0{fill:#4B32C3;}
	.st1{fill:#8080F2;}
</style>
<g>
	<path class="st0" d="M508.9,268.8L393,464.3c-4.4,7-12.2,11-20.4,10.6h-232c-8.2,0.3-16-3.8-20.4-10.8L4.2,268.9
		c-4.2-7.2-4.2-16,0-23.2l116-196.4c4.2-7.4,11.9-12,20.4-12.3h231.9c8.5,0.3,16.2,5,20.4,12.4l116,196.8
		C513,253.2,513,261.8,508.9,268.8L508.9,268.8z M412.9,345.4V170L256.5,82l-156.2,88v175.4l156.2,87.9L412.9,345.4z"/>
	<polygon class="st1" points="362.4,314.2 257.5,373.2 152.7,314.2 152.7,196.1 257.5,137 362.4,196.1 	"/>
</g>
</svg>
