<?xml version="1.0" encoding="utf-8"?>
<!-- Generator: Adobe Illustrator 24.2.0, SVG Export Plug-In . SVG Version: 6.00 Build 0)  -->
<svg version="1.1" id="Capa_1" xmlns="http://www.w3.org/2000/svg" xmlns:xlink="http://www.w3.org/1999/xlink" x="0px" y="0px"
	 viewBox="0 0 512 512" style="enable-background:new 0 0 512 512;" xml:space="preserve">
<style type="text/css">
	.st0{fill:#E4BA42;}
	.st1{fill:#F2F2F2;}
</style>
<path class="st0" d="M512,256c0,33.4-6.4,65.2-18,94.4c-6.2,15.6-13.9,30.5-22.9,44.5c-11.2,17.4-24.5,33.3-39.5,47.4
	c-8.8,8.3-18.1,15.9-28,22.9C361.8,494.7,310.9,512,256,512s-105.8-17.3-147.5-46.7C96.1,456.5,84.6,446.7,74,436
	C28.2,389.8,0,326.2,0,256S28.2,122.2,74,76c11.2-11.4,23.5-21.7,36.7-30.8C152,16.7,202,0,256,0s104,16.7,145.3,45.2
	c10.1,6.9,19.6,14.6,28.6,22.9c15.7,14.5,29.5,31,41.2,49c9,13.9,16.7,28.8,22.9,44.4C505.6,190.8,512,222.6,512,256z"/>
<g>
	<g>
		<path class="st1" d="M403.3,213.7c-6.3-18.4-32.4-18.4-37.4-3.2c-5.1,15.2,12,24.2,38.8,33.1c26.6,8.9,43.2,32.4,40,53.4
			c-3.2,21-12,48.3-64.8,48.3c-33,0-51.2-20.6-60.3-36l29.9-17.9c0,0,10.2,21.6,29.2,21.6c19.1,0,26.6-6.3,26.6-20.9
			c0-17.8-61.6-24.2-71.1-54.6s3.2-73.7,47.6-70.5c27.8,2,43.4,15.6,51.2,25.6L403.3,213.7z"/>
		<path class="st1" d="M264.9,169.9c0,0,0,107.3,0,121.9c0,14.6-12.7,22.2-25.4,19.7c-12.7-2.6-18.4-17.8-18.4-17.8l-29.2,19.7
			c0,0,6.3,29.2,46.3,31.7c40,2.6,62.8-21.6,62.8-41.9s0-133.3,0-133.3L264.9,169.9L264.9,169.9z"/>
	</g>
	<g>
		<path class="st1" d="M176.2,333v4.6H66.9V174.4h108.4v4.6H71.5v71.3h97.6v4.6H71.5V333H176.2z"/>
	</g>
</g>
</svg>
