<?xml version="1.0" encoding="utf-8"?>
<!-- Generator: Adobe Illustrator 24.2.0, SVG Export Plug-In . SVG Version: 6.00 Build 0)  -->
<svg version="1.1" id="Capa_1" xmlns="http://www.w3.org/2000/svg" xmlns:xlink="http://www.w3.org/1999/xlink" x="0px" y="0px"
	 viewBox="0 0 512 512" style="enable-background:new 0 0 512 512;" xml:space="preserve">
<style type="text/css">
	.st0{fill:#FECA2C;}
	.st1{fill:#FECB2F;}
	.st2{fill:#FEA50F;}
	.st3{fill:#F4820C;}
	.st4{fill:#FEA714;}
	.st5{fill:#FCA30F;}
	.st6{fill:#FEA91B;}
	.st7{fill:#FCD44C;}
	.st8{fill:#EE7006;}
</style>
<g>
	<path class="st0" d="M394.8,132.9c7,40.6,14.2,81.3,21,121.9c8.1,48.3,15.7,96.7,24,144.9c1.2,7.1-0.9,10.1-6.5,13.2
		c-53.6,29.6-107,59.4-160.5,89.1c-9.9,5.5-20.7,7.1-30.8,1.5c-33.5-18.4-66.7-37.3-100-56.2c-1.2-0.7-1.7-2.4-2.5-3.7
		c-4.8-11.3-1.3-19.4,7.5-28.1c77.1-76.3,153.5-153.3,230.4-229.8c7.3-7.3,11.3-14.4,11.5-25.2C389,151.4,389.2,141.3,394.8,132.9z"
		/>
	<path class="st1" d="M394.8,132.9c-5.6,8.4-5.8,18.5-6,27.6c-0.2,10.8-4.2,18-11.5,25.2C300.5,262.3,224,339.2,146.9,415.5
		c-8.8,8.7-12.3,16.8-7.5,28.1c-21.8-7.7-40.6-21.3-61.2-31.4c1-4,1.9-8.1,2.9-12.1c0,0-0.1,0.1-0.1,0.1c1.1-1,2.2-2,3.3-3
		c1-1,2-2,3.1-3.1c1-1,2-2,3.1-3.1c1-1.1,2-2.1,3-3.2c0,0-0.1,0.1-0.1,0.1c1.1-1.1,2.1-2.1,3.2-3.2l-0.1,0.1
		c1.1-1.1,2.1-2.1,3.2-3.2l-0.1,0.1c1.1-1.1,2.1-2.1,3.2-3.2l-0.1,0.1c1.1-1.1,2.1-2.1,3.2-3.2l-0.1,0.1c1.1-1.1,2.1-2.1,3.2-3.2
		c0,0-0.1,0.1-0.1,0.1c1.1-1.1,2.1-2.1,3.2-3.2l-0.1,0.1c1.1-1.1,2.1-2.1,3.2-3.2l-0.1,0.1c1.1-1.1,2.1-2.1,3.2-3.2l-0.1,0.1
		c1.1-1.1,2.1-2.1,3.2-3.2l-0.1,0.1c1.1-1.1,2.1-2.1,3.2-3.2l-0.1,0.1c1.1-1.1,2.1-2.1,3.2-3.2l-0.1,0.1c1.1-1.1,2.1-2.1,3.2-3.2
		l-0.1,0.1c1.1-1.1,2.1-2.1,3.2-3.2l-0.1,0.1c1.1-1.1,2.1-2.1,3.2-3.2c0,0-0.1,0.1-0.1,0.1c1.1-1.1,2.1-2.1,3.2-3.2
		c0,0-0.1,0.1-0.1,0.1c1.1-1.1,2.1-2.1,3.2-3.2c0,0-0.1,0.1-0.1,0.1c1.1-1.1,2.1-2.1,3.2-3.2c0,0-0.1,0.1-0.1,0.1
		c1.1-1.1,2.1-2.1,3.2-3.2c0,0-0.1,0.1-0.1,0.1c1.1-1.1,2.1-2.1,3.2-3.2c0,0-0.1,0.1-0.1,0.1c1.1-1.1,2.1-2.1,3.2-3.2l-0.1,0.1
		c1.1-1.1,2.1-2.1,3.2-3.2l-0.1,0.1c1.1-1.1,2.1-2.1,3.2-3.2l-0.1,0.1c1.1-1.1,2.1-2.1,3.2-3.2l-0.1,0.1c1.1-1.1,2.1-2.1,3.2-3.2
		c0,0-0.1,0.1-0.1,0.1c1.1-1.1,2.1-2.1,3.2-3.2l-0.1,0.1c1.1-1.1,2.1-2.1,3.2-3.2c0,0-0.1,0.1-0.1,0.1c1.1-1.1,2.1-2.1,3.2-3.2
		l-0.1,0.1c1.1-1.1,2.1-2.1,3.2-3.2l-0.1,0.1c1.1-1.1,2.1-2.1,3.2-3.2l-0.1,0.1c1.1-1.1,2.1-2.1,3.2-3.2l-0.1,0.1
		c1.1-1.1,2.1-2.1,3.2-3.2l-0.1,0.1c1.1-1.1,2.1-2.1,3.2-3.2c0,0-0.1,0.1-0.1,0.1c1.1-1.1,2.1-2.1,3.2-3.2c0,0-0.1,0.1-0.1,0.1
		c1.1-1.1,2.1-2.1,3.2-3.2l-0.1,0.1c1.1-1.1,2.1-2.1,3.2-3.2l-0.1,0.1c1.1-1.1,2.1-2.1,3.2-3.2l-0.1,0.1c1.1-1.1,2.1-2.1,3.2-3.2
		l-0.1,0.1c1.1-1.1,2.1-2.1,3.2-3.2l-0.1,0.1c1.1-1.1,2.1-2.1,3.2-3.2l-0.1,0.1c1.1-1.1,2.1-2.1,3.2-3.2l-0.1,0.1
		c1.1-1.1,2.1-2.1,3.2-3.2l-0.1,0.1c1.1-1.1,2.1-2.1,3.2-3.2c0,0-0.1,0.1-0.1,0.1c1.1-1.1,2.1-2.1,3.2-3.2l-0.1,0.1
		c1.1-1.1,2.1-2.1,3.2-3.2l-0.1,0.1c1.1-1.1,2.1-2.1,3.2-3.2l-0.1,0.1c1.1-1.1,2.1-2.1,3.2-3.2l-0.1,0.1c1.1-1.1,2.1-2.1,3.2-3.2
		l-0.1,0.1c1.1-1.1,2.1-2.1,3.2-3.2l-0.1,0.1c1.1-1.1,2.1-2.1,3.2-3.2l-0.1,0.1c1.1-1.1,2.1-2.1,3.2-3.2l-0.1,0.1
		c1.1-1.1,2.1-2.1,3.2-3.2c0,0-0.1,0.1-0.1,0.1c1.1-1.1,2.1-2.1,3.2-3.2l-0.1,0.1c1.1-1.1,2.1-2.1,3.2-3.2l-0.1,0.1
		c1.1-1.1,2.1-2.1,3.2-3.2l-0.1,0.1c1.1-1.1,2.1-2.1,3.2-3.2l-0.1,0.1c1.1-1.1,2.1-2.1,3.2-3.2l-0.1,0.1c1.1-1.1,2.1-2.1,3.2-3.2
		c0,0-0.1,0.1-0.1,0.1c1.1-1.1,2.1-2.1,3.2-3.2c0,0-0.1,0.1-0.1,0.1c1.1-1.1,2.1-2.1,3.2-3.2c0,0-0.2,0.1-0.2,0.1
		c1.1-1,2.2-2.1,3.3-3.1l-0.1,0.1c1.1-1.1,2.1-2.1,3.2-3.2l-0.1,0.1c1.1-1.1,2.1-2.1,3.2-3.2l-0.1,0.1c1.1-1.1,2.1-2.1,3.2-3.2
		l-0.1,0.1c1.1-1.1,2.1-2.1,3.2-3.2l-0.1,0.1c1.1-1.1,2.1-2.1,3.2-3.2l-0.1,0.1c1.1-1.1,2.1-2.1,3.2-3.2l-0.1,0.1
		c1.1-1.1,2.1-2.1,3.2-3.2l-0.1,0.1c1.1-1.1,2.1-2.1,3.2-3.2l-0.1,0.1c1.1-1.1,2.1-2.1,3.2-3.2l-0.1,0.1c1.1-1.1,2.1-2.1,3.2-3.2
		l-0.1,0.1c1.1-1.1,2.1-2.1,3.2-3.2l-0.1,0.1c3.9,0,6.2-1.7,6.4-5.8c16.7-17.1,33.3-34.3,50.1-51.4c4.2-4.3,8.5-10.4,15.2-8.6
		c7.7,2,8.6,10.4,10.9,16.7C395.2,124.5,394.6,128.9,394.8,132.9z"/>
	<path class="st2" d="M198.2,86.9c9.5,11.1,10.3,27.1,21.2,37.4c-11.2,22.3-22.2,44.7-33.7,66.8c-17.2,33-35.7,65.3-52,98.7
		c-16,33-36.4,63.7-49.6,98.1c-3.4,2.4-3.2,5.9-2.9,9.5l0.2-0.1c-2.1,0-4.2,0.1-6.4,0.1c2.7-34.7,9.9-68.7,15.1-103
		c7.3-47.9,15.2-95.7,22.9-143.6c8-2.5,8.6,16.4,17.8,7.1c18.2-18.4,39.3-33.5,56.5-52.9C192.3,99.6,187.8,88.9,198.2,86.9z"/>
	<path class="st3" d="M84.1,388c13.2-34.4,33.5-65.2,49.6-98.1c16.3-33.4,34.8-65.7,52-98.7c11.5-22.1,22.5-44.5,33.7-66.8
		c1-0.2,2-0.4,3-0.6c-0.1,4.2,1.1,7.7,3.4,11.4c8.3,13.3,17.6,26.3,23.6,40.6c5.5,12.9,13.1,22.2,25.4,28.2
		c-0.2,0.9-0.3,1.9-0.4,2.8c0,0,0.2-0.1,0.2-0.1c-1.1,1.1-2.1,2.1-3.2,3.2c0,0,0.1-0.1,0.1-0.1c-1.1,1.1-2.1,2.1-3.2,3.2
		c0,0,0.1-0.1,0.1-0.1c-1.1,1.1-2.1,2.1-3.2,3.2c0,0,0.1-0.1,0.1-0.1c-1.1,1.1-2.1,2.1-3.2,3.2c0,0,0.1-0.1,0.1-0.1
		c-1.1,1.1-2.1,2.1-3.2,3.2c0,0,0.1-0.1,0.1-0.1c-1.1,1.1-2.1,2.1-3.2,3.2c0,0,0.1-0.1,0.1-0.1c-1.1,1.1-2.1,2.1-3.2,3.2
		c0,0,0.1-0.1,0.1-0.1c-1.1,1.1-2.1,2.1-3.2,3.2c0,0,0.1-0.1,0.1-0.1c-1.1,1.1-2.1,2.1-3.2,3.2c0,0,0.1-0.1,0.1-0.1
		c-1.1,1.1-2.1,2.1-3.2,3.2c0,0,0.1-0.1,0.1-0.1c-1.1,1.1-2.1,2.1-3.2,3.2c0,0,0.1-0.1,0.1-0.1c-1.1,1.1-2.1,2.1-3.2,3.2
		c0,0,0.1-0.1,0.1-0.1c-1.1,1.1-2.1,2.1-3.2,3.2c0,0,0.1-0.1,0.1-0.1c-1.1,1.1-2.1,2.1-3.2,3.2c0,0,0.1-0.1,0.1-0.1
		c-1.1,1.1-2.1,2.1-3.2,3.2c0,0,0.1-0.1,0.1-0.1c-1.1,1.1-2.1,2.1-3.2,3.2c0,0,0.1-0.1,0.1-0.1c-1.1,1.1-2.1,2.1-3.2,3.2
		c0,0,0.1-0.1,0.1-0.1c-1.1,1.1-2.1,2.1-3.2,3.2c0,0,0.1-0.1,0.1-0.1c-1.1,1.1-2.1,2.1-3.2,3.2c0,0,0.1-0.1,0.1-0.1
		c-1.1,1.1-2.1,2.1-3.2,3.2c0,0,0.1-0.1,0.1-0.1c-1.1,1.1-2.1,2.1-3.2,3.2c0,0,0.1-0.1,0.1-0.1c-1.1,1.1-2.1,2.1-3.2,3.2
		c0,0,0.1-0.1,0.1-0.1c-1.1,1.1-2.1,2.1-3.2,3.2c0,0,0.1-0.1,0.1-0.1c-1.1,1.1-2.1,2.1-3.2,3.2c0,0,0.1-0.1,0.1-0.1
		c-1.1,1.1-2.1,2.1-3.2,3.2c0,0,0.1-0.1,0.1-0.1c-1.1,1.1-2.1,2.1-3.2,3.2c0,0,0.1-0.1,0.1-0.1c-1.1,1.1-2.1,2.1-3.2,3.2
		c0,0,0.1-0.1,0.1-0.1c-1.1,1.1-2.1,2.1-3.2,3.2c0,0,0.1-0.1,0.1-0.1c-1.1,1.1-2.1,2.1-3.2,3.2c0,0,0.1-0.1,0.1-0.1
		c-1.1,1.1-2.1,2.1-3.2,3.2c0,0,0.1-0.1,0.1-0.1c-1.1,1.1-2.1,2.1-3.2,3.2c0,0,0.1-0.1,0.1-0.1c-1.1,1.1-2.1,2.1-3.2,3.2
		c0,0,0.1-0.1,0.1-0.1c-1.1,1.1-2.1,2.1-3.2,3.2c0,0,0.1-0.1,0.1-0.1c-1.1,1.1-2.1,2.1-3.2,3.2c0,0,0.1-0.1,0.1-0.1
		c-1.1,1.1-2.1,2.1-3.2,3.2c0,0,0.1-0.1,0.1-0.1c-1.1,1.1-2.1,2.1-3.2,3.2c0,0,0.1-0.1,0.1-0.1c-1.1,1.1-2.1,2.1-3.2,3.2
		c0,0,0.1-0.1,0.1-0.1c-1.1,1.1-2.1,2.1-3.2,3.2c0,0,0.1-0.1,0.1-0.1c-1.1,1.1-2.1,2.1-3.2,3.2c0,0,0.1-0.1,0.1-0.1
		c-1.1,1.1-2.1,2.1-3.2,3.2c0,0,0.1-0.1,0.1-0.1c-1.1,1.1-2.1,2.1-3.2,3.2c0,0,0.1-0.1,0.1-0.1c-1.1,1.1-2.1,2.1-3.2,3.2
		c0,0,0.1-0.1,0.1-0.1c-1.1,1.1-2.1,2.1-3.2,3.2c0,0,0.1-0.1,0.1-0.1c-1.1,1.1-2.1,2.1-3.2,3.2c0,0,0.1-0.1,0.1-0.1
		c-1.1,1.1-2.1,2.1-3.2,3.2c0,0,0.1-0.1,0.1-0.1c-1.1,1.1-2.1,2.1-3.2,3.2c0,0,0.1-0.1,0.1-0.1c-1.1,1.1-2.1,2.1-3.2,3.2
		c0,0,0.1-0.1,0.1-0.1c-1.1,1.1-2.1,2.1-3.2,3.2c0,0,0.1-0.1,0.1-0.1c-1.1,1.1-2.1,2.1-3.2,3.2c0,0,0.1-0.1,0.1-0.1
		c-1.1,1.1-2.1,2.1-3.2,3.2c0,0,0.1-0.1,0.1-0.1c-1.1,1.1-2.1,2.1-3.2,3.2c0,0,0.1-0.1,0.1-0.1c-1.1,1.1-2.1,2.1-3.2,3.2
		c0,0,0.1-0.1,0.1-0.1c-1.1,1.1-2.1,2.1-3.2,3.2c0,0,0.1-0.1,0.1-0.1c-1.1,1.1-2.1,2.1-3.2,3.2c0,0,0.1-0.1,0.1-0.1
		c-1.1,1.1-2.1,2.1-3.2,3.2c0,0,0.1-0.1,0.1-0.1c-1.1,1.1-2.1,2.1-3.2,3.2c0,0,0.1-0.1,0.1-0.1c-1.1,1.1-2.1,2.1-3.2,3.2
		c0,0,0.1-0.1,0.1-0.1c-1.1,1.1-2.1,2.1-3.2,3.2c0,0,0.1-0.1,0.1-0.1c-1.1,1.1-2.1,2.1-3.2,3.2c0,0,0.1-0.1,0.1-0.1
		c-0.8,0.1-1.6,0.2-2.5,0.3C88.7,388.1,86.4,388,84.1,388z"/>
	<path class="st4" d="M198.2,86.9c-10.3,1.9-5.9,12.6-10.8,18.2c-17.2,19.4-38.3,34.5-56.5,52.9c-9.2,9.3-9.8-9.7-17.8-7.1
		c5.7-41,11.2-82,19.5-122.5c15.9,10.9,15.8,10.9,23.2-8.9c0.5-1.4,3.1-2.1,4.8-3C170.8,41.2,188.6,61.9,198.2,86.9z"/>
	<path class="st5" d="M274.8,204c-12.3-6-19.9-15.3-25.4-28.2c-6.1-14.3-15.3-27.3-23.6-40.6c-2.3-3.7-3.5-7.2-3.4-11.4
		c7-13.6,13.9-27.1,21-40.7c2.8-5.4,5.3-11.3,12.9-11.4c7.5-0.1,10.2,5.7,13.1,11.1c14.1,27,28.2,54.1,42.4,81.2c-0.1,2-0.1,4-0.2,6
		c0,0,0.1-0.1,0.1-0.1c-1.1,1.1-2.1,2.1-3.2,3.2c0,0,0.1-0.1,0.1-0.1c-1.1,1.1-2.1,2.1-3.2,3.2c0,0,0.1-0.1,0.1-0.1
		c-1.1,1.1-2.1,2.1-3.2,3.2c0,0,0.1-0.1,0.1-0.1c-1.1,1.1-2.1,2.1-3.2,3.2c0,0,0.1-0.1,0.1-0.1c-1.1,1.1-2.1,2.1-3.2,3.2
		c0,0,0.1-0.1,0.1-0.1c-1.1,1.1-2.1,2.1-3.2,3.2c0,0,0.1-0.1,0.1-0.1c-1.1,1.1-2.1,2.1-3.2,3.2c0,0,0.1-0.1,0.1-0.1
		c-1.1,1.1-2.1,2.1-3.2,3.2c0,0,0.1-0.1,0.1-0.1c-1.1,1.1-2.1,2.1-3.2,3.2c0,0,0.1-0.1,0.1-0.1c-1.1,1.1-2.1,2.1-3.2,3.2
		c0,0,0.1-0.1,0.1-0.1c-1.1,1.1-2.1,2.1-3.2,3.2c0,0,0.1-0.1,0.1-0.1C276.8,203.7,275.8,203.8,274.8,204z"/>
	<path class="st6" d="M160.6,16.4c-1.6,1-4.3,1.6-4.8,3c-7.4,19.8-7.3,19.8-23.2,8.9c0.1-2.5,0.2-5,0.4-7.5
		c0.6-8.6,0.8-18.9,11.2-20.7C154.9-1.6,157.4,8.6,160.6,16.4z"/>
	<path class="st7" d="M81.1,400.2c-1,4-1.9,8.1-2.9,12.1c-3.5-2-8.9-2.8-4.9-8.9C75.8,402.3,78.5,401.2,81.1,400.2z"/>
	<path class="st7" d="M311.4,169.9c0.1-2,0.1-4,0.2-6c2.1,0.1,4.1,0.1,6.2,0.2C317.6,168.2,315.3,170,311.4,169.9z"/>
	<path class="st8" d="M81.1,400.2c-2.6,1.1-5.2,2.1-7.8,3.2c0.6-2,1.2-3.9,1.8-5.9c2.1,0,4.2-0.1,6.3-0.1c-0.1,1-0.3,1.9-0.4,2.9
		C81,400.3,81.1,400.2,81.1,400.2z"/>
	<path class="st7" d="M299.1,182.3c1.1-1.1,2.1-2.1,3.2-3.2C301.2,180.1,300.2,181.2,299.1,182.3z"/>
	<path class="st7" d="M296.1,185.3c1.1-1.1,2.1-2.1,3.2-3.2C298.2,183.2,297.1,184.3,296.1,185.3z"/>
	<path class="st7" d="M293,188.4c1.1-1.1,2.1-2.1,3.2-3.2C295.1,186.3,294,187.3,293,188.4z"/>
	<path class="st7" d="M289.9,191.5c1.1-1.1,2.1-2.1,3.2-3.2C292,189.4,291,190.4,289.9,191.5z"/>
	<path class="st7" d="M286.8,194.5c1.1-1.1,2.1-2.1,3.2-3.2C289,192.4,287.9,193.5,286.8,194.5z"/>
	<path class="st7" d="M283.8,197.6c1.1-1.1,2.1-2.1,3.2-3.2C285.9,195.5,284.8,196.6,283.8,197.6z"/>
	<path class="st7" d="M280.7,200.7c1.1-1.1,2.1-2.1,3.2-3.2C282.8,198.6,281.8,199.6,280.7,200.7z"/>
	<path class="st7" d="M277.6,203.8c1.1-1.1,2.1-2.1,3.2-3.2C279.7,201.6,278.7,202.7,277.6,203.8z"/>
	<path class="st7" d="M274.8,204c1-0.1,1.9-0.2,2.9-0.3c-1.1,1-2.2,2.1-3.3,3.1C274.5,205.8,274.6,204.9,274.8,204z"/>
	<path class="st7" d="M271.4,209.9c1.1-1.1,2.1-2.1,3.2-3.2C273.6,207.7,272.5,208.8,271.4,209.9z"/>
	<path class="st7" d="M268.4,212.9c1.1-1.1,2.1-2.1,3.2-3.2C270.5,210.8,269.4,211.9,268.4,212.9z"/>
	<path class="st7" d="M265.3,216c1.1-1.1,2.1-2.1,3.2-3.2C267.4,213.9,266.4,215,265.3,216z"/>
	<path class="st7" d="M262.3,219.1c1.1-1.1,2.1-2.1,3.2-3.2C264.4,217,263.3,218,262.3,219.1z"/>
	<path class="st7" d="M259.2,222.2c1.1-1.1,2.1-2.1,3.2-3.2C261.3,220,260.2,221.1,259.2,222.2z"/>
	<path class="st7" d="M256.1,225.2c1.1-1.1,2.1-2.1,3.2-3.2C258.2,223.1,257.2,224.2,256.1,225.2z"/>
	<path class="st7" d="M253,228.3c1.1-1.1,2.1-2.1,3.2-3.2C255.2,226.2,254.1,227.2,253,228.3z"/>
	<path class="st7" d="M250,231.4c1.1-1.1,2.1-2.1,3.2-3.2C252.1,229.3,251,230.3,250,231.4z"/>
	<path class="st7" d="M246.9,234.5c1.1-1.1,2.1-2.1,3.2-3.2C249,232.3,248,233.4,246.9,234.5z"/>
	<path class="st7" d="M243.8,237.5c1.1-1.1,2.1-2.1,3.2-3.2C245.9,235.4,244.9,236.5,243.8,237.5z"/>
	<path class="st7" d="M240.8,240.6c1.1-1.1,2.1-2.1,3.2-3.2C242.9,238.5,241.8,239.5,240.8,240.6z"/>
	<path class="st7" d="M237.7,243.7c1.1-1.1,2.1-2.1,3.2-3.2C239.8,241.5,238.7,242.6,237.7,243.7z"/>
	<path class="st7" d="M234.6,246.7c1.1-1.1,2.1-2.1,3.2-3.2C236.7,244.6,235.7,245.7,234.6,246.7z"/>
	<path class="st7" d="M231.5,249.8c1.1-1.1,2.1-2.1,3.2-3.2C233.7,247.7,232.6,248.8,231.5,249.8z"/>
	<path class="st7" d="M228.5,252.9c1.1-1.1,2.1-2.1,3.2-3.2C230.6,250.8,229.5,251.8,228.5,252.9z"/>
	<path class="st7" d="M225.4,256c1.1-1.1,2.1-2.1,3.2-3.2C227.5,253.8,226.5,254.9,225.4,256z"/>
	<path class="st7" d="M222.3,259c1.1-1.1,2.1-2.1,3.2-3.2C224.5,256.9,223.4,258,222.3,259z"/>
	<path class="st7" d="M219.3,262.1c1.1-1.1,2.1-2.1,3.2-3.2C221.4,260,220.3,261,219.3,262.1z"/>
	<path class="st7" d="M216.2,265.2c1.1-1.1,2.1-2.1,3.2-3.2C218.3,263,217.2,264.1,216.2,265.2z"/>
	<path class="st7" d="M213.1,268.2c1.1-1.1,2.1-2.1,3.2-3.2C215.2,266.1,214.2,267.2,213.1,268.2z"/>
	<path class="st7" d="M210,271.3c1.1-1.1,2.1-2.1,3.2-3.2C212.2,269.2,211.1,270.3,210,271.3z"/>
	<path class="st7" d="M207,274.4c1.1-1.1,2.1-2.1,3.2-3.2C209.1,272.3,208,273.3,207,274.4z"/>
	<path class="st7" d="M302.2,179.2c1.1-1.1,2.1-2.1,3.2-3.2C304.3,177.1,303.3,178.1,302.2,179.2z"/>
	<path class="st7" d="M200.8,280.5c1.1-1.1,2.1-2.1,3.2-3.2C203,278.4,201.9,279.5,200.8,280.5z"/>
	<path class="st7" d="M197.8,283.6c1.1-1.1,2.1-2.1,3.2-3.2C199.9,281.5,198.8,282.5,197.8,283.6z"/>
	<path class="st7" d="M194.7,286.7c1.1-1.1,2.1-2.1,3.2-3.2C196.8,284.6,195.8,285.6,194.7,286.7z"/>
	<path class="st7" d="M191.6,289.7c1.1-1.1,2.1-2.1,3.2-3.2C193.7,287.6,192.7,288.7,191.6,289.7z"/>
	<path class="st7" d="M188.6,292.8c1.1-1.1,2.1-2.1,3.2-3.2C190.7,290.7,189.6,291.8,188.6,292.8z"/>
	<path class="st7" d="M185.5,295.9c1.1-1.1,2.1-2.1,3.2-3.2C187.6,293.8,186.5,294.8,185.5,295.9z"/>
	<path class="st7" d="M182.4,299c1.1-1.1,2.1-2.1,3.2-3.2C184.5,296.8,183.5,297.9,182.4,299z"/>
	<path class="st7" d="M179.3,302c1.1-1.1,2.1-2.1,3.2-3.2C181.5,299.9,180.4,301,179.3,302z"/>
	<path class="st7" d="M176.3,305.1c1.1-1.1,2.1-2.1,3.2-3.2C178.4,303,177.3,304,176.3,305.1z"/>
	<path class="st7" d="M173.2,308.2c1.1-1.1,2.1-2.1,3.2-3.2C175.3,306.1,174.3,307.1,173.2,308.2z"/>
	<path class="st7" d="M170.1,311.2c1.1-1.1,2.1-2.1,3.2-3.2C172.2,309.1,171.2,310.2,170.1,311.2z"/>
	<path class="st7" d="M167.1,314.3c1.1-1.1,2.1-2.1,3.2-3.2C169.2,312.2,168.1,313.3,167.1,314.3z"/>
	<path class="st7" d="M164,317.4c1.1-1.1,2.1-2.1,3.2-3.2C166.1,315.3,165,316.3,164,317.4z"/>
	<path class="st7" d="M160.9,320.5c1.1-1.1,2.1-2.1,3.2-3.2C163,318.3,162,319.4,160.9,320.5z"/>
	<path class="st7" d="M157.8,323.5c1.1-1.1,2.1-2.1,3.2-3.2C160,321.4,158.9,322.5,157.8,323.5z"/>
	<path class="st7" d="M154.8,326.6c1.1-1.1,2.1-2.1,3.2-3.2C156.9,324.5,155.8,325.5,154.8,326.6z"/>
	<path class="st7" d="M151.7,329.7c1.1-1.1,2.1-2.1,3.2-3.2C153.8,327.6,152.8,328.6,151.7,329.7z"/>
	<path class="st7" d="M148.6,332.8c1.1-1.1,2.1-2.1,3.2-3.2C150.8,330.6,149.7,331.7,148.6,332.8z"/>
	<path class="st7" d="M145.6,335.8c1.1-1.1,2.1-2.1,3.2-3.2C147.7,333.7,146.6,334.8,145.6,335.8z"/>
	<path class="st7" d="M142.5,338.9c1.1-1.1,2.1-2.1,3.2-3.2C144.6,336.8,143.6,337.8,142.5,338.9z"/>
	<path class="st7" d="M139.4,342c1.1-1.1,2.1-2.1,3.2-3.2C141.5,339.9,140.5,340.9,139.4,342z"/>
	<path class="st7" d="M136.4,345c1.1-1.1,2.1-2.1,3.2-3.2C138.5,342.9,137.4,344,136.4,345z"/>
	<path class="st7" d="M133.3,348.1c1.1-1.1,2.1-2.1,3.2-3.2C135.4,346,134.3,347.1,133.3,348.1z"/>
	<path class="st7" d="M130.2,351.2c1.1-1.1,2.1-2.1,3.2-3.2C132.3,349.1,131.3,350.1,130.2,351.2z"/>
	<path class="st7" d="M127.1,354.2c1.1-1.1,2.1-2.1,3.2-3.2C129.3,352.1,128.2,353.2,127.1,354.2z"/>
	<path class="st7" d="M124.1,357.3c1.1-1.1,2.1-2.1,3.2-3.2C126.2,355.2,125.1,356.3,124.1,357.3z"/>
	<path class="st7" d="M121,360.4c1.1-1.1,2.1-2.1,3.2-3.2C123.1,358.3,122.1,359.3,121,360.4z"/>
	<path class="st7" d="M117.9,363.5c1.1-1.1,2.1-2.1,3.2-3.2C120,361.4,119,362.4,117.9,363.5z"/>
	<path class="st7" d="M114.9,366.5c1.1-1.1,2.1-2.1,3.2-3.2C117,364.4,115.9,365.5,114.9,366.5z"/>
	<path class="st7" d="M111.8,369.6c1.1-1.1,2.1-2.1,3.2-3.2C113.9,367.5,112.8,368.6,111.8,369.6z"/>
	<path class="st7" d="M108.7,372.7c1.1-1.1,2.1-2.1,3.2-3.2C110.8,370.6,109.8,371.6,108.7,372.7z"/>
	<path class="st7" d="M105.7,375.8c1.1-1.1,2.1-2.1,3.2-3.2C107.8,373.6,106.7,374.7,105.7,375.8z"/>
	<path class="st7" d="M102.6,378.8c1.1-1.1,2.1-2.1,3.2-3.2C104.7,376.7,103.6,377.8,102.6,378.8z"/>
	<path class="st7" d="M99.5,381.9c1.1-1.1,2.1-2.1,3.2-3.2C101.6,379.8,100.6,380.8,99.5,381.9z"/>
	<path class="st7" d="M96.4,385c1.1-1.1,2.1-2.1,3.2-3.2C98.5,382.9,97.5,383.9,96.4,385z"/>
	<path class="st7" d="M93.4,388c1.1-1.1,2.1-2.1,3.2-3.2C95.5,385.9,94.4,387,93.4,388z"/>
	<path class="st7" d="M305.3,176.1c1.1-1.1,2.1-2.1,3.2-3.2C307.4,174,306.3,175.1,305.3,176.1z"/>
	<path class="st7" d="M91,388.2c0.8,0,1.7-0.1,2.5-0.3c-1,1.1-2,2.1-3,3.2c0,0-0.1-0.1-0.1-0.1C90.4,390.1,90.7,389.1,91,388.2z"/>
	<path class="st7" d="M90.4,391.2c-1,1-2,2-3.1,3.1c0,0-0.1-0.1-0.1-0.1c1-1,2-2,3.1-3.1L90.4,391.2z"/>
	<path class="st7" d="M87.3,394.2c-1,1-2,2-3.1,3.1c0,0-0.1-0.1-0.1-0.1c1-1,2-2,3.1-3.1L87.3,394.2z"/>
	<path class="st7" d="M308.3,173c1.1-1.1,2.1-2.1,3.2-3.2C310.5,170.9,309.4,172,308.3,173z"/>
	<path class="st7" d="M81,400.3c0.2-1,0.3-1.9,0.4-2.9c0,0-0.2,0.1-0.2,0.1c1-0.1,1.9-0.1,2.9-0.3c0,0,0.1,0.1,0.1,0.1
		C83.2,398.3,82.1,399.3,81,400.3z"/>
	<path class="st7" d="M203.9,277.5c1.1-1.1,2.1-2.1,3.2-3.2C206,275.3,205,276.4,203.9,277.5z"/>
	<path class="st8" d="M84.2,397.2c-1,0.1-1.9,0.2-2.9,0.3c-0.3-3.5-0.5-7.1,2.9-9.5c2.3,0.1,4.6,0.2,6.8,0.2
		c-0.3,0.9-0.6,1.9-0.7,2.8c-1,1-2,2-3.1,3.1C86.2,395.1,85.2,396.1,84.2,397.2z"/>
</g>
</svg>
