<?xml version="1.0" encoding="utf-8"?>
<!-- Generator: Adobe Illustrator 24.2.0, SVG Export Plug-In . SVG Version: 6.00 Build 0)  -->
<svg version="1.1" id="Capa_1" xmlns="http://www.w3.org/2000/svg" xmlns:xlink="http://www.w3.org/1999/xlink" x="0px" y="0px"
	 viewBox="0 0 512 512" style="enable-background:new 0 0 512 512;" xml:space="preserve">
<style type="text/css">
	.st0{fill:#663399;}
</style>
<g>
	<path class="st0" d="M256,0C114.6,0,0,114.6,0,256s114.6,256,256,256s256-114.6,256-256C511.6,114.8,397.2,0.4,256,0z M113.4,398.6
		c-37-36.8-58-86.8-58.5-139l199.3,197.5C201.5,456.2,151.2,435.3,113.4,398.6z M299.9,451.7L60.3,212.1
		c24.2-108.4,131.6-176.6,240-152.4c47.6,10.6,89.7,38.1,118.4,77.5l-27.4,23.8c-31.5-43.3-81.7-69.1-135.3-69.5
		c-69.7,0.4-131.7,44.2-155.4,109.7l210.3,210.3c53.3-18.9,93.3-63.7,106.1-118.9h-87.8V256h128C456.6,349.9,391.4,431,299.9,451.7z
		"/>
</g>
</svg>
