<?xml version="1.0" encoding="utf-8"?>
<!-- Generator: Adobe Illustrator 24.2.0, SVG Export Plug-In . SVG Version: 6.00 Build 0)  -->
<svg version="1.1" id="Capa_1" xmlns="http://www.w3.org/2000/svg" xmlns:xlink="http://www.w3.org/1999/xlink" x="0px" y="0px"
	 viewBox="0 0 512 512" style="enable-background:new 0 0 512 512;" xml:space="preserve">
<style type="text/css">
	.st0{fill:#DD4C35;}
</style>
<g>
	<path class="st0" d="M502.3,233.3L279.5,10.4c-12.8-12.8-33.6-12.9-46.4-0.1c0,0-0.1,0.1-0.1,0.1l-46.3,46.3l58.7,58.7
		c20.4-6.9,42.6,4,49.5,24.4c2.8,8.2,2.8,17.2-0.1,25.4l56.5,56.5c20.4-7,42.6,3.8,49.6,24.3c7,20.4-3.8,42.6-24.3,49.6
		c-20.4,7-42.6-3.8-49.6-24.3c-3.1-9-2.8-18.8,0.8-27.6L275.2,191v138.8c19.3,9.6,27.2,33,17.6,52.3c-9.6,19.3-33,27.2-52.3,17.6
		s-27.2-33-17.6-52.3c4.2-8.5,11.4-15.2,20.1-18.8V188.6c-20-8.2-29.5-31.1-21.3-51c0-0.1,0.1-0.2,0.1-0.3L164,79.4L11.2,232.3
		c-12.8,12.8-12.9,33.6-0.1,46.4c0,0,0.1,0.1,0.1,0.1L234,501.6c12.8,12.8,33.6,12.9,46.4,0.1c0,0,0.1-0.1,0.1-0.1l221.8-221.9
		C515.2,266.9,515.2,246.1,502.3,233.3C502.4,233.3,502.4,233.2,502.3,233.3"/>
</g>
</svg>
