<?xml version="1.0" encoding="utf-8"?>
<!-- Generator: Adobe Illustrator 24.2.0, SVG Export Plug-In . SVG Version: 6.00 Build 0)  -->
<svg version="1.1" id="Capa_1" xmlns="http://www.w3.org/2000/svg" xmlns:xlink="http://www.w3.org/1999/xlink" x="0px" y="0px"
	 viewBox="0 0 512 512" style="enable-background:new 0 0 512 512;" xml:space="preserve">
<style type="text/css">
	.st0{fill:#E44D26;}
	.st1{fill:#F16529;}
	.st2{fill:#EBEBEB;}
	.st3{fill:#FFFFFF;}
</style>
<g>
	<path class="st0" d="M107.6,470.9l-33-370.3h362.7l-33,370.2L255.8,512L107.6,470.9z"/>
	<path class="st1" d="M256,480.5l120-33.3l28.2-316.3H256V480.5z"/>
	<path class="st2" d="M256,268.2h-60.1l-4.1-46.5H256v-45.4H142.1l1.1,12.2l11.2,125.1H256V268.2z M256,386.2l-0.2,0.1l-50.6-13.7
		l-3.2-36.2h-45.6l6.4,71.3l93,25.8l0.2-0.1L256,386.2z"/>
	<path d="M108.4,0h23.1v22.8h21.1V0h23.1v69h-23.1V45.9h-21.1V69h-23.1C108.4,69,108.4,0,108.4,0z M206,22.9h-20.3V0h63.7v22.9
		h-20.3V69H206C206,69,206,22.9,206,22.9z M259.5,0h24.1l14.8,24.3L313.2,0h24.1v69h-23V34.8l-15.9,24.5H298l-15.9-24.5V69h-22.6
		L259.5,0L259.5,0z M348.7,0h23.1v46.2h32.5V69h-55.5C348.7,69,348.7,0,348.7,0z"/>
	<path class="st3" d="M255.8,268.2v45.4h55.9l-5.3,58.9l-50.6,13.7v47.2l93.1-25.8l0.7-7.7l10.7-119.5l1.1-12.2h-12.2H255.8z
		 M255.8,176.3v45.4h109.7l0.9-10.2l2.1-23l1.1-12.2H255.8z"/>
</g>
</svg>
