<?xml version="1.0" encoding="utf-8"?>
<!-- Generator: Adobe Illustrator 24.2.0, SVG Export Plug-In . SVG Version: 6.00 Build 0)  -->
<svg version="1.1" id="Capa_1" xmlns="http://www.w3.org/2000/svg" xmlns:xlink="http://www.w3.org/1999/xlink" x="0px" y="0px"
	 viewBox="0 0 512 512" style="enable-background:new 0 0 512 512;" xml:space="preserve">
<style type="text/css">
	.st0{fill:#FA930D;}
	.st1{fill:#136BA2;}
</style>
<g>
	<g id="original">
		<path class="st0" d="M5.5,259.1c0,40.5,32.9,73.4,73.4,73.4s73.4-32.9,73.4-73.4c0-40.5-32.9-73.4-73.4-73.4
			C38.4,185.7,5.6,218.5,5.5,259.1z"/>
		<path class="st1" d="M443.5,1.2c-40.4,0-64.5,32.5-64.5,86.9v334.3c0,54.4,24,86.9,64.5,86.9s64.5-32.5,64.5-86.9V310.8l0,0V88.3
			C507.9,33.8,483.8,1.2,443.5,1.2z"/>
		<path class="st1" d="M330.8,8.3H67.1l0,0C31.7,9.9,4.3,39.9,5.9,75.2c1.5,33.2,28,59.7,61.2,61.2v0.5h135v116.9c0,0.9,0,1.8,0,2.8
			l0,0c0,0.8,0,1.5,0,2.3c0,68-55,123.2-123,123.3c-1.1,0-2.2,0-3.3,0l-0.3,0.4c-1.8,0-3.7-0.3-5.5-0.3
			C34.4,381.5,4.9,409.5,4,444.9s27.1,64.9,62.5,65.8c1.1,0,2.2,0,3.3,0c1.9,0,3.9,0,5.8-0.3v0.2H79
			c139-0.1,251.6-112.6,251.9-251.6c0-0.7,0-1.5,0-2.3l0,0c0-5.5,0-20.6,0-41.2c0,0,0-0.3,0-0.5S330.8,14,330.8,8.3z"/>
	</g>
</g>
</svg>
