<?xml version="1.0" encoding="utf-8"?>
<!-- Generator: Adobe Illustrator 24.2.0, SVG Export Plug-In . SVG Version: 6.00 Build 0)  -->
<svg version="1.1" id="Capa_1" xmlns="http://www.w3.org/2000/svg" xmlns:xlink="http://www.w3.org/1999/xlink" x="0px" y="0px"
	 viewBox="0 0 512 512" style="enable-background:new 0 0 512 512;" xml:space="preserve">
<style type="text/css">
	.st0{fill:#C63D14;}
	.st1{fill:#FFFFFF;}
</style>
<g>
	<path class="st0" d="M458.1,252.1c0-26.2-21.3-47.5-47.5-47.5c-1.7,0-3.3,0.1-5,0.3l65.2-192.4H193.6l65.2,192.3
		c-0.9,0-1.9-0.1-2.9-0.1c-26.2,0-47.5,21.2-47.5,47.4c0,20.7,13.4,39.1,33.1,45.3c-10.1,17.4-22.7,33.2-37.3,47
		c-19.1,18.2-41.8,32.3-66.6,41.3c-28.9-13.7-42.1-47.4-30.3-77.1c1.4-3.3,2.8-6.6,4.2-9.9c25.5-6,41.4-31.6,35.4-57.1
		c-6-25.5-31.6-41.4-57.1-35.4c-25.5,6-41.4,31.6-35.4,57.1c2.7,11.4,9.5,21.4,19,28.1c-15.2,27.5-26.7,56.8-34.4,87.2
		c-6.5,38.9,0,80.2,33.6,103.5c78.4,54.3,163.5-33.7,253.2-55.8c32.5-8,68.2-6.7,96.8-23.3c20.9-11.9,35.5-32.6,39.7-56.3
		c3.8-22.6-1.6-45.7-15.1-64.2C454.1,274.1,458.1,263.3,458.1,252.1L458.1,252.1z M303.3,252.4v-0.2c0-16.6-8.7-32-22.9-40.6
		l51.8-105l51.9,106c-13.2,8.8-21.2,23.6-21.2,39.5c0,0.3,0,0.7,0,1L303.3,252.4z"/>
	<path class="st1" d="M469.7,252.1c0-28.4-20.3-52.8-48.2-58.1L487,0.8H177.4L243,194.4c-31.8,7.1-51.9,38.7-44.8,70.5
		c3.5,15.5,13,29,26.5,37.3c-8.2,12.2-17.8,23.5-28.6,33.6c-16.6,15.9-36.2,28.5-57.6,37c-20.8-12-29.5-37.5-20.7-59.8l0.7-1.7
		l1.3-3.2c30.9-10.7,47.2-44.4,36.5-75.3c-10.7-30.9-44.4-47.2-75.3-36.5c-30.9,10.7-47.2,44.4-36.5,75.3c3,8.6,7.9,16.4,14.4,22.8
		c-2,4.2-4,8.5-6.2,12.9c-11.8,21.7-20.4,45.1-25.5,69.3c-8.5,51,5.2,91.9,38.5,115c17.9,12.8,39.3,19.6,61.3,19.6
		c38.9,0,78.2-19.5,116.6-38.6c26.9-14.6,55.2-26.3,84.6-35c10.5-2.6,21.3-4.2,32.8-5.8c23.4-1.9,46.1-8.2,67.1-18.7
		c23.9-13.7,40.5-37.2,45.3-64.3c3.9-22.7-0.6-46.1-12.6-65.8C466.7,273.6,469.7,262.9,469.7,252.1L469.7,252.1z M446.5,252.1
		c0,19.8-16.1,35.9-35.9,35.9s-35.9-16.1-35.9-35.9s16.1-35.9,35.9-35.9l0,0C430.4,216.2,446.4,232.3,446.5,252.1z M454.6,24
		l-57.8,170.6c-2.5,0.6-4.9,1.4-7.3,2.3L332.3,80.3L275,196.2c-2.5-0.9-5-1.6-7.6-2.1L209.7,24H454.6z M255.8,216.2
		c19.8,0,35.9,16.1,35.9,35.9S275.7,288,255.8,288s-35.9-16.1-35.9-35.9C219.9,232.3,236,216.2,255.8,216.2z M100.5,216.5
		c19.8,0,35.9,16.1,35.9,35.9c0,19.8-16.1,35.9-35.9,35.9c-19.8,0-35.9-16.1-35.9-35.9c0,0,0,0,0-0.1
		C64.6,232.5,80.7,216.5,100.5,216.5L100.5,216.5z M450.8,344.7c-3.6,20.3-16.1,38-34.1,48.2c-18.4,8.9-38.3,14.3-58.7,15.8
		c-11.5,1.7-23.4,3.4-35.1,6.3c-31,9-60.9,21.3-89.3,36.7c-57.7,28.6-107.5,53.4-154.4,20.8c-34.4-23.8-32.8-67.9-28.8-92.1
		c4.7-22,12.6-43.2,23.4-62.9c1.7-3.4,3.3-6.8,4.9-10.2c4.9,2,10,3.2,15.3,3.8c-9.6,33.8,6.6,69.6,38.3,84.8l4.5,2.3l4.7-1.7
		c26.3-9.5,50.4-24.4,70.6-43.7c13.4-12.6,25.1-26.8,35-42.3c32.3,4.9,62.4-17.3,67.3-49.5c3-19.8-4.2-39.7-19.2-53l37.1-75.1
		l37.5,76.5c-23.5,22.6-24.2,60-1.5,83.5c20.1,20.8,52.2,24,76,7.6C451,314.3,453.3,329.7,450.8,344.7L450.8,344.7z"/>
</g>
</svg>
