<?xml version="1.0" encoding="utf-8"?>
<!-- Generator: Adobe Illustrator 24.2.0, SVG Export Plug-In . SVG Version: 6.00 Build 0)  -->
<svg version="1.1" id="Capa_1" xmlns="http://www.w3.org/2000/svg" xmlns:xlink="http://www.w3.org/1999/xlink" x="0px" y="0px"
	 viewBox="0 0 512 512" style="enable-background:new 0 0 512 512;" xml:space="preserve">
<style type="text/css">
	.st0{fill:#2684FF;}
	.st1{fill:url(#SVGID_1_);}
	.st2{fill:url(#SVGID_2_);}
</style>
<g>
	<g transform="matrix(6.249587 0 0 6.249587 -228.82126 -169.26286)">
		<path class="st0" d="M116.2,65.8L77.6,27.1L38.9,65.8c-1.3,1.3-1.3,3.3,0,4.6L77.6,109l38.7-38.7C117.5,69.1,117.5,67,116.2,65.8
			L116.2,65.8z M77.6,80.2L65.5,68l12.1-12.1L89.7,68L77.6,80.2z"/>
		
			<linearGradient id="SVGID_1_" gradientUnits="userSpaceOnUse" x1="-60.2486" y1="146.3692" x2="-77.16" y2="129.4577" gradientTransform="matrix(6.2496 0 0 -6.2496 451.9373 958.4224)">
			<stop  offset="0.18" style="stop-color:#0052CC"/>
			<stop  offset="1" style="stop-color:#2684FF"/>
		</linearGradient>
		<path class="st1" d="M77.6,56c-7.9-7.9-8-20.8-0.1-28.8L50.9,53.7l14.4,14.4L77.6,56z"/>
		
			<linearGradient id="SVGID_2_" gradientUnits="userSpaceOnUse" x1="-59.5317" y1="138.5942" x2="-42.6523" y2="155.4736" gradientTransform="matrix(6.2496 0 0 -6.2496 451.9373 958.4224)">
			<stop  offset="0.18" style="stop-color:#0052CC"/>
			<stop  offset="1" style="stop-color:#2684FF"/>
		</linearGradient>
		<path class="st2" d="M89.7,68L77.6,80.2c8,8,8,20.9,0,28.8c0,0,0,0,0,0l26.6-26.6L89.7,68z"/>
	</g>
</g>
</svg>
