<?xml version="1.0" encoding="utf-8"?>
<!-- Generator: Adobe Illustrator 24.2.0, SVG Export Plug-In . SVG Version: 6.00 Build 0)  -->
<svg version="1.1" id="Capa_1" xmlns="http://www.w3.org/2000/svg" xmlns:xlink="http://www.w3.org/1999/xlink" x="0px" y="0px"
	 viewBox="0 0 512 512" style="enable-background:new 0 0 512 512;" xml:space="preserve">
<style type="text/css">
	.st0{fill:url(#path3212_1_);}
	.st1{fill:none;}
	.st2{fill:#BE202E;}
	.st3{opacity:0.35;fill:#BE202E;enable-background:new    ;}
	.st4{fill:url(#path3239_1_);}
	.st5{fill:url(#path3250_1_);}
	.st6{fill:url(#path3261_1_);}
	.st7{fill:url(#path3272_1_);}
	.st8{fill:url(#path3283_1_);}
	.st9{fill:url(#path3294_1_);}
	.st10{fill:url(#path3309_1_);}
	.st11{fill:url(#path3324_1_);}
	.st12{fill:url(#path3339_1_);}
	.st13{fill:#B0AFB0;}
	.st14{fill:#D22128;stroke:#D22128;stroke-width:2.4153;stroke-linejoin:round;}
	.st15{fill:url(#path3720_1_);stroke:url(#path3720_2_);stroke-width:2.4153;stroke-linejoin:round;}
	.st16{fill:url(#path3879_1_);}
	.st17{fill:url(#path3881_1_);}
	.st18{fill:#D22128;}
</style>
<g id="layer1" transform="translate(-433.58814,-211.85279)">
	<g id="g3347" transform="matrix(0.61056696,0,0,0.61056696,-671.81995,122.75139)">
	</g>
	<g id="g3349" transform="matrix(0.61056696,0,0,0.61056696,-671.81995,122.75139)">
	</g>
	<g id="g3351" transform="matrix(0.61056696,0,0,0.61056696,-671.81995,122.75139)">
	</g>
	<g id="g3353" transform="matrix(0.61056696,0,0,0.61056696,-671.81995,122.75139)">
	</g>
	<g id="g3355" transform="matrix(0.61056696,0,0,0.61056696,-671.81995,122.75139)">
	</g>
	<g id="g3357" transform="matrix(0.61056696,0,0,0.61056696,-671.81995,122.75139)">
	</g>
	<g id="g3203" transform="matrix(0.16486497,0,0,0.16486497,427.12543,209.04631)">
		
			<linearGradient id="path3212_1_" gradientUnits="userSpaceOnUse" x1="-54872.9453" y1="-21933.0684" x2="-54724.2617" y2="-22106.9316" gradientTransform="matrix(6.967194e-02 -0.1494 -0.1494 -6.967194e-02 982.1016 -8594.4219)">
			<stop  offset="0" style="stop-color:#F69923"/>
			<stop  offset="0.3123" style="stop-color:#F79A23"/>
			<stop  offset="0.8383" style="stop-color:#E97826"/>
		</linearGradient>
		<path id="path3212" class="st0" d="M487.2,1048.5c-16.5,9.8-44,37.3-76.7,77.2l30.1,56.8c21-30.3,42.7-57.4,64.3-80.6
			c1.6-1.8,2.6-2.8,2.6-2.8c-0.8,1-1.8,1.8-2.6,2.8c-7.1,7.7-28.3,32.4-60.3,81.8c30.9-1.6,78.2-7.9,117-14.5
			c11.6-64.5-11.2-94-11.2-94S521.2,1028.3,487.2,1048.5z"/>
		<path id="path3214" class="st1" d="M436.1,1372.4c0.2,0,0.4,0,0.6-0.2l-4.3,0.4c-0.2,0.2-0.6,0.2-0.8,0.4
			C433.1,1372.8,434.7,1372.6,436.1,1372.4z"/>
		<path id="path3216" class="st1" d="M405.4,1474.1c-2.4,0.6-4.9,1-7.5,1.4C400.5,1475,403,1474.7,405.4,1474.1z"/>
		<path id="path3218" class="st1" d="M196.6,1702.3c0.4-0.8,0.6-1.8,1-2.6c6.7-17.5,13.2-34.4,19.7-51.1
			c7.3-18.5,14.5-36.6,21.6-54.1c7.5-18.3,14.9-36.2,22.2-53.3c7.7-18.1,15.1-35.4,22.6-52.1c6.1-13.6,12-26.7,17.9-39.5
			c2-4.3,3.9-8.5,5.9-12.6c3.9-8.3,7.7-16.3,11.4-24.2c3.5-7.3,6.9-14.3,10.2-21.4c1.2-2.4,2.4-4.7,3.3-6.9c0.2-0.4,0.4-0.8,0.6-1.2
			l-3.7,0.4l-2.9-5.7c-0.2,0.6-0.6,1.2-0.8,1.8c-5.3,10.4-10.6,21-15.7,31.8c-2.9,6.1-5.9,12.4-9,18.7
			c-8.3,17.3-16.3,34.6-24.2,52.3c-8.1,17.7-15.9,35.6-23.6,53.3c-7.7,17.5-14.9,35-22.2,52.5c-7.3,17.5-14.3,34.8-21.2,52.1
			c-7.3,18.1-14.3,36-21,53.7c-1.6,3.9-3.1,8.1-4.5,12c-5.5,14.3-10.8,28.3-15.9,42.3l4.7,9.2l4.1-0.4c0.2-0.4,0.4-0.8,0.4-1.2
			C183.5,1737.5,190.2,1719.6,196.6,1702.3z"/>
		<path id="path3220" class="st1" d="M396,1475.6L396,1475.6L396,1475.6L396,1475.6z"/>
		<path id="path3222" class="st2" d="M385.9,1525.4c-3.9,0.8-7.9,1.4-11.8,2l0,0c2-0.2,4.1-0.6,6.1-1
			C382.2,1526.1,384.2,1525.8,385.9,1525.4z"/>
		<path id="path3224" class="st3" d="M385.9,1525.4c-3.9,0.8-7.9,1.4-11.8,2l0,0c2-0.2,4.1-0.6,6.1-1
			C382.2,1526.1,384.2,1525.8,385.9,1525.4z"/>
		<path id="path3226" class="st2" d="M396.2,1475.6L396.2,1475.6C396,1475.6,396,1475.6,396.2,1475.6c0.6,0,1.2-0.2,1.8-0.2
			c2.6-0.4,5.1-0.8,7.5-1.4C402.4,1474.7,399.3,1475,396.2,1475.6L396.2,1475.6L396.2,1475.6z"/>
		<path id="path3228" class="st3" d="M396.2,1475.6L396.2,1475.6C396,1475.6,396,1475.6,396.2,1475.6c0.6,0,1.2-0.2,1.8-0.2
			c2.6-0.4,5.1-0.8,7.5-1.4C402.4,1474.7,399.3,1475,396.2,1475.6L396.2,1475.6L396.2,1475.6z"/>
		
			<linearGradient id="path3239_1_" gradientUnits="userSpaceOnUse" x1="-61547.4805" y1="-21813.8633" x2="-60486.6797" y2="-21813.8633" gradientTransform="matrix(6.967194e-02 -0.1494 -0.1494 -6.967194e-02 982.1016 -8594.4219)">
			<stop  offset="0.3233" style="stop-color:#9E2064"/>
			<stop  offset="0.6302" style="stop-color:#C92037"/>
			<stop  offset="0.7514" style="stop-color:#CD2335"/>
			<stop  offset="1" style="stop-color:#E97826"/>
		</linearGradient>
		<path id="path3239" class="st4" d="M351.7,1329.2c9.2-17.1,18.5-33.8,27.7-50.1c9.6-16.9,19.5-33.2,29.5-49.1c0.6-1,1.2-2,1.8-2.8
			c9.8-15.5,19.7-30.5,29.7-44.8l-30.1-56.6c-2.2,2.8-4.5,5.5-6.9,8.5c-8.6,10.8-17.7,22.4-26.9,34.8c-10.4,14-21,28.7-32,44.2
			c-10,14.3-20.2,29.5-30.5,45c-8.6,13.4-17.3,26.9-25.9,40.9c-0.4,0.6-0.6,1-1,1.6l39.1,77.2
			C334.8,1361.6,343.3,1345.3,351.7,1329.2z"/>
		
			<linearGradient id="path3250_1_" gradientUnits="userSpaceOnUse" x1="-60770.7695" y1="-22460.502" x2="-60138.6328" y2="-22460.502" gradientTransform="matrix(6.967194e-02 -0.1494 -0.1494 -6.967194e-02 982.1016 -8594.4219)">
			<stop  offset="0" style="stop-color:#282662"/>
			<stop  offset="9.548389e-02" style="stop-color:#662E8D"/>
			<stop  offset="0.7882" style="stop-color:#9F2064"/>
			<stop  offset="0.9487" style="stop-color:#CD2032"/>
		</linearGradient>
		<path id="path3250" class="st5" d="M173.5,1765c-5.1,14.2-10.4,28.7-15.5,43.6c0,0.2-0.2,0.4-0.2,0.6c-0.8,2.2-1.6,4.1-2.2,6.3
			c-3.5,10-6.5,19.1-13.6,39.5c11.6,5.3,20.8,19.1,29.5,34.8c-1-16.3-7.7-31.6-20.4-43.4c56.8,2.6,105.9-11.8,131.1-53.5
			c2.2-3.7,4.3-7.7,6.3-11.8c-11.6,14.5-25.7,20.8-52.7,19.3h-0.2h0.2c39.5-17.7,59.4-34.8,76.9-62.9c4.1-6.7,8.3-14,12.4-22
			c-34.6,35.6-74.7,45.6-117,37.9l-31.6,3.5C175.4,1759.7,174.4,1762.2,173.5,1765z"/>
		
			<linearGradient id="path3261_1_" gradientUnits="userSpaceOnUse" x1="-61186.1016" y1="-21754.4316" x2="-60125.3008" y2="-21754.4316" gradientTransform="matrix(6.967194e-02 -0.1494 -0.1494 -6.967194e-02 982.1016 -8594.4219)">
			<stop  offset="0.3233" style="stop-color:#9E2064"/>
			<stop  offset="0.6302" style="stop-color:#C92037"/>
			<stop  offset="0.7514" style="stop-color:#CD2335"/>
			<stop  offset="1" style="stop-color:#E97826"/>
		</linearGradient>
		<path id="path3261" class="st6" d="M188.2,1694c6.9-17.7,14-35.6,21-53.7c6.9-17.3,14-34.6,21.2-52.1c7.3-17.5,14.7-35,22.2-52.5
			c7.7-17.9,15.5-35.6,23.6-53.3c7.9-17.5,16.1-35,24.2-52.3c2.9-6.3,5.9-12.4,9-18.7c5.1-10.6,10.4-21.2,15.7-31.8
			c0.2-0.6,0.6-1.2,0.8-1.8l-38.7-77.1c-0.6,1-1.2,2.2-2,3.1c-9,14.9-18.3,30.1-27.1,45.6c-9,15.7-17.9,31.6-26.5,48
			c-7.3,13.8-14.3,27.5-21.4,41.5c-1.4,2.8-2.8,5.7-4.1,8.5c-8.5,17.5-16.3,34.6-23.2,50.9c-7.9,18.5-14.7,36.2-20.8,52.9
			c-3.9,11-7.7,21.6-11,31.8c-2.8,8.6-5.3,17.5-7.9,26.1c-5.9,20.4-10.8,40.9-14.9,61.3l39.3,77.6c5.1-14,10.6-27.9,15.9-42.3
			C185,1702.1,186.6,1698.1,188.2,1694z"/>
		
			<linearGradient id="path3272_1_" gradientUnits="userSpaceOnUse" x1="-60716.8281" y1="-21842.584" x2="-60159.3438" y2="-21842.584" gradientTransform="matrix(6.967194e-02 -0.1494 -0.1494 -6.967194e-02 982.1016 -8594.4219)">
			<stop  offset="0" style="stop-color:#282662"/>
			<stop  offset="9.548389e-02" style="stop-color:#662E8D"/>
			<stop  offset="0.7882" style="stop-color:#9F2064"/>
			<stop  offset="0.9487" style="stop-color:#CD2032"/>
		</linearGradient>
		<path id="path3272" class="st7" d="M127.7,1673.4c-4.9,24.8-8.5,49.5-10.2,74.3c0,0.8-0.2,1.8-0.2,2.6
			c-12.2-19.7-45.2-38.9-45-38.7c23.6,34.2,41.5,68,44,101.2c-12.6,2.6-29.9-1.2-49.7-8.5c20.8,19.1,36.4,24.4,42.5,25.7
			c-19.1,1.2-38.9,14.3-59,29.5c29.3-12,53.1-16.7,70-12.8c-26.9,76.1-53.9,160.2-80.8,249.4c8.3-2.4,13.2-8.1,15.9-15.5
			c4.7-16.1,36.8-122.3,86.7-261.6c1.4-3.9,2.9-7.9,4.3-12c0.4-1.2,0.8-2.2,1.2-3.3c5.3-14.5,10.8-29.5,16.5-44.8
			c1.4-3.5,2.6-6.9,3.9-10.4v-0.2l-39.3-77.6C128,1671.6,127.8,1672.4,127.7,1673.4L127.7,1673.4z"/>
		
			<linearGradient id="path3283_1_" gradientUnits="userSpaceOnUse" x1="-61186.1016" y1="-22420.3027" x2="-60125.3008" y2="-22420.3027" gradientTransform="matrix(6.967194e-02 -0.1494 -0.1494 -6.967194e-02 982.1016 -8594.4219)">
			<stop  offset="0.3233" style="stop-color:#9E2064"/>
			<stop  offset="0.6302" style="stop-color:#C92037"/>
			<stop  offset="0.7514" style="stop-color:#CD2335"/>
			<stop  offset="1" style="stop-color:#E97826"/>
		</linearGradient>
		<path id="path3283" class="st8" d="M332.5,1384.6c-1.2,2.4-2.2,4.5-3.3,6.9c-3.3,7.1-6.9,14.2-10.2,21.4
			c-3.7,7.9-7.5,15.9-11.4,24.2c-2,4.1-3.9,8.3-5.9,12.6c-5.9,12.8-11.8,25.9-17.9,39.5c-7.5,16.7-14.9,34-22.6,52.1
			c-7.3,17.1-14.7,35-22.2,53.3c-7.1,17.5-14.3,35.4-21.6,54.1c-6.5,16.5-13,33.6-19.7,51.1c-0.4,0.8-0.6,1.8-1,2.6
			c-6.5,17.3-13.2,35.2-19.9,53.5c-0.2,0.4-0.4,0.8-0.4,1.2l31.6-3.5c-0.6-0.2-1.2-0.2-2-0.4c37.9-4.7,88.3-33,120.7-68
			c14.9-16.1,28.5-35,41.1-57.2c9.4-16.5,18.1-34.8,26.5-55.2c7.3-17.7,14.3-37,21-57.8c-8.6,4.5-18.7,7.9-29.7,10.2
			c-2,0.4-3.9,0.8-5.9,1.2c-2,0.4-3.9,0.6-6.1,1l0,0l0,0l0,0c35.4-13.6,57.6-39.7,73.7-71.9c-9.2,6.3-24.4,14.5-42.5,18.7
			c-2.4,0.6-4.9,1-7.5,1.4c-0.6,0-1.2,0.2-2,0.2l0,0l0,0l0,0l0,0l0,0c12.2-5.1,22.6-10.8,31.6-17.7c2-1.4,3.7-2.9,5.5-4.5
			c2.8-2.4,5.3-4.9,7.9-7.5c1.6-1.8,3.1-3.3,4.7-5.1c3.5-4.1,6.9-8.6,9.8-13.6c1-1.6,2-2.9,2.8-4.5c1.2-2.4,2.4-4.5,3.3-6.7
			c4.9-9.8,8.8-18.7,12-26.5c1.6-3.9,2.9-7.5,4.1-10.8c0.4-1.4,1-2.6,1.4-3.9c1.2-3.7,2.4-7.1,3.1-10c1.2-4.3,2-7.9,2.4-10.4l0,0
			l0,0c-1.2,1-2.6,2-4.1,2.8c-10.6,6.3-28.9,12.2-43.6,14.9l29.1-3.1l-29.1,3.1c-0.2,0-0.4,0-0.6,0.2c-1.4,0.2-2.9,0.4-4.5,0.8
			c0.2-0.2,0.6-0.2,0.8-0.4l-99.5,10.8C332.9,1384,332.7,1384.4,332.5,1384.6z"/>
		
			<linearGradient id="path3294_1_" gradientUnits="userSpaceOnUse" x1="-61585.2383" y1="-22388.0293" x2="-60524.4375" y2="-22388.0293" gradientTransform="matrix(6.967194e-02 -0.1494 -0.1494 -6.967194e-02 982.1016 -8594.4219)">
			<stop  offset="0.3233" style="stop-color:#9E2064"/>
			<stop  offset="0.6302" style="stop-color:#C92037"/>
			<stop  offset="0.7514" style="stop-color:#CD2335"/>
			<stop  offset="1" style="stop-color:#E97826"/>
		</linearGradient>
		<path id="path3294" class="st9" d="M444.5,1183.7c-8.8,13.6-18.5,29.1-28.9,46.4c-0.6,1-1.2,1.8-1.6,2.8
			c-9,15.1-18.5,31.6-28.5,49.9c-8.6,15.7-17.7,32.4-27.1,50.7c-8.3,15.7-16.5,32.4-25.4,50.1l99.5-10.8
			c28.9-13.4,41.9-25.4,54.4-42.9c3.3-4.7,6.7-9.8,10-15.1c10.2-15.9,20.2-33.4,29.1-50.9c8.6-16.9,16.3-33.6,22-48.6
			c3.7-9.6,6.7-18.5,8.8-26.3c1.8-6.9,3.1-13.4,4.3-19.7C522.7,1175.9,475.4,1182.2,444.5,1183.7z"/>
		<path id="path3296" class="st2" d="M380.2,1526.5c-2,0.4-3.9,0.6-6.1,1l0,0C376.1,1527.1,378.1,1526.7,380.2,1526.5z"/>
		<path id="path3298" class="st3" d="M380.2,1526.5c-2,0.4-3.9,0.6-6.1,1l0,0C376.1,1527.1,378.1,1526.7,380.2,1526.5z"/>
		
			<linearGradient id="path3309_1_" gradientUnits="userSpaceOnUse" x1="-61186.1016" y1="-22619.7402" x2="-60125.3008" y2="-22619.7402" gradientTransform="matrix(6.967194e-02 -0.1494 -0.1494 -6.967194e-02 982.1016 -8594.4219)">
			<stop  offset="0.3233" style="stop-color:#9E2064"/>
			<stop  offset="0.6302" style="stop-color:#C92037"/>
			<stop  offset="0.7514" style="stop-color:#CD2335"/>
			<stop  offset="1" style="stop-color:#E97826"/>
		</linearGradient>
		<path id="path3309" class="st10" d="M380.2,1526.5c-2,0.4-3.9,0.6-6.1,1l0,0C376.1,1527.1,378.1,1526.7,380.2,1526.5z"/>
		<path id="path3311" class="st2" d="M396,1475.6c0.6,0,1.2-0.2,2-0.2C397.3,1475.4,396.7,1475.6,396,1475.6L396,1475.6z"/>
		<path id="path3313" class="st3" d="M396,1475.6c0.6,0,1.2-0.2,2-0.2C397.3,1475.4,396.7,1475.6,396,1475.6L396,1475.6z"/>
		
			<linearGradient id="path3324_1_" gradientUnits="userSpaceOnUse" x1="-61186.1016" y1="-22596.3262" x2="-60125.3008" y2="-22596.3262" gradientTransform="matrix(6.967194e-02 -0.1494 -0.1494 -6.967194e-02 982.1016 -8594.4219)">
			<stop  offset="0.3233" style="stop-color:#9E2064"/>
			<stop  offset="0.6302" style="stop-color:#C92037"/>
			<stop  offset="0.7514" style="stop-color:#CD2335"/>
			<stop  offset="1" style="stop-color:#E97826"/>
		</linearGradient>
		<path id="path3324" class="st11" d="M396,1475.6c0.6,0,1.2-0.2,2-0.2C397.3,1475.4,396.7,1475.6,396,1475.6L396,1475.6z"/>
		<path id="path3326" class="st2" d="M396.2,1475.6L396.2,1475.6L396.2,1475.6L396.2,1475.6L396.2,1475.6L396.2,1475.6z"/>
		<path id="path3328" class="st3" d="M396.2,1475.6L396.2,1475.6L396.2,1475.6L396.2,1475.6L396.2,1475.6L396.2,1475.6z"/>
		
			<linearGradient id="path3339_1_" gradientUnits="userSpaceOnUse" x1="-56861.0117" y1="-22592.2559" x2="-56861.0117" y2="-22592.2559" gradientTransform="matrix(6.967194e-02 -0.1494 -0.1494 -6.967194e-02 982.1016 -8594.4219)">
			<stop  offset="0.3233" style="stop-color:#9E2064"/>
			<stop  offset="0.6302" style="stop-color:#C92037"/>
			<stop  offset="0.7514" style="stop-color:#CD2335"/>
			<stop  offset="1" style="stop-color:#E97826"/>
		</linearGradient>
		<path id="path3339" class="st12" d="M396.2,1475.6L396.2,1475.6L396.2,1475.6L396.2,1475.6L396.2,1475.6L396.2,1475.6z"/>
	</g>
	<path id="path3343" class="st13" d="M499.9,435.1v2.4h-0.7v-2.4h-0.8v-0.6h2.3v0.6H499.9z"/>
	<path id="path3345" class="st13" d="M503.9,435.6l-0.8,1.6h-0.4l-0.8-1.6v1.9h-0.6v-2.9h0.9l0.8,1.6l0.8-1.6h0.9v2.9h-0.6
		L503.9,435.6L503.9,435.6z"/>
	<path id="path3718" class="st14" d="M526.9,550c-2.7,0-5.1-0.1-7.2-0.4c-2.1-0.3-3.8-0.6-5.2-0.9v-16.3c1.6,0.3,3.2,0.6,4.9,0.9
		c1.7,0.3,3.5,0.4,5.6,0.4c1.9,0,3.7-0.2,5.4-0.6c1.7-0.4,3.1-1.2,4.4-2.2c1.3-1,2.2-2.4,2.9-4.1c0.7-1.7,1.1-3.9,1.1-6.5v-89.7
		h19.6v89c0,5.3-0.8,9.9-2.3,13.7c-1.5,3.8-3.7,7-6.4,9.5c-2.7,2.5-6,4.4-9.9,5.6C535.7,549.4,531.5,550,526.9,550"/>
	
		<linearGradient id="path3720_1_" gradientUnits="userSpaceOnUse" x1="-264.8083" y1="997.8655" x2="-262.8427" y2="997.8655" gradientTransform="matrix(167.1251 0 0 -47.6275 44824.8164 48003.0781)">
		<stop  offset="0" style="stop-color:#000000"/>
		<stop  offset="1" style="stop-color:#000000"/>
	</linearGradient>
	
		<linearGradient id="path3720_2_" gradientUnits="userSpaceOnUse" x1="-264.8083" y1="997.8655" x2="-262.8427" y2="997.8655" gradientTransform="matrix(167.1251 0 0 -47.6275 44824.8164 48003.0781)">
		<stop  offset="0" style="stop-color:#000000"/>
		<stop  offset="1" style="stop-color:#000000"/>
	</linearGradient>
	<path id="path3720" class="st15" d="M568.7,430.5v92.4h17.5v-43c0-1.2,0-2.5-0.1-4c0-1.5,0-3-0.1-4.6c0-1.6-0.1-3.2-0.2-4.9
		c0-1.6-0.1-3.2-0.2-4.8c-0.2-3.6-0.4-7.4-0.6-11.2h0.6l20.3,72.5h18l21.9-72.3h0.5c-0.1,3.8-0.3,7.5-0.4,11c0,1.5-0.1,3.1-0.2,4.7
		c0,1.6-0.1,3.2-0.1,4.7c0,1.6-0.1,3-0.1,4.4c0,1.4,0,2.6,0,3.7v43.7h18.3v-92.4h-26.7l-21.2,70.6h-0.4l-20-70.6L568.7,430.5
		L568.7,430.5z M752.1,437.2l-5.6,14.9l-10.6,6.5v8.2h9.2v34c0,4.5,0.5,8.3,1.6,11.4c1.1,3,2.7,5.4,4.6,7.2c1.9,1.8,4.2,3,6.9,3.7
		c2.7,0.7,5.5,1.1,8.6,1.1c3.2,0,6.1-0.3,8.7-0.9c2.7-0.6,4.9-1.4,6.7-2.3v-14.3c-1.8,0.6-3.5,1.2-5.2,1.6c-1.7,0.4-3.5,0.6-5.4,0.6
		c-2.2,0-4-0.7-5.3-2c-1.3-1.3-2-3.3-2-6.1v-34h17.2v-14.5h-17.2v-15L752.1,437.2L752.1,437.2z M702.6,450.9
		c-4.8,0-9.2,0.8-13.1,2.3c-3.9,1.6-7.3,3.9-10.1,7c-2.8,3.1-5,6.9-6.5,11.6c-1.6,4.6-2.3,10-2.3,16.2c0,6.1,0.9,11.5,2.5,16
		c1.7,4.5,4.1,8.3,7.2,11.2c3.1,2.9,6.7,5.1,11,6.6c4.3,1.5,8.9,2.2,14,2.2c2.6,0,5-0.1,7.2-0.3c2.2-0.2,4.2-0.5,6.1-0.9
		c1.9-0.4,3.7-0.9,5.4-1.5c1.7-0.6,3.4-1.4,5.1-2.3v-14.9c-1.9,0.9-3.7,1.7-5.4,2.5c-1.8,0.7-3.6,1.2-5.4,1.7
		c-1.8,0.5-3.7,0.8-5.6,1.1c-1.9,0.2-3.9,0.3-6.1,0.3c-2.6,0-4.9-0.4-6.9-1.2c-2-0.8-3.7-1.9-5.1-3.4c-1.4-1.5-2.5-3.4-3.3-5.5
		c-0.8-2.2-1.2-4.6-1.3-7.3h43.1V483c0-5.1-0.7-9.7-2.1-13.6c-1.4-4-3.4-7.4-6.1-10.1c-2.6-2.7-5.8-4.8-9.6-6.2
		C711.5,451.6,707.3,450.9,702.6,450.9L702.6,450.9z M818.6,450.9c-4.8,0-9.2,0.8-13.1,2.3c-3.9,1.6-7.3,3.9-10.1,7
		c-2.8,3.1-5,6.9-6.5,11.6c-1.6,4.6-2.3,10-2.3,16.2c0,6.1,0.9,11.5,2.5,16c1.7,4.5,4.1,8.3,7.2,11.2c3.1,2.9,6.7,5.1,11,6.6
		c4.3,1.5,8.9,2.2,14,2.2c2.6,0,5-0.1,7.2-0.3c2.2-0.2,4.2-0.5,6.1-0.9c1.9-0.4,3.7-0.9,5.4-1.5c1.7-0.6,3.4-1.4,5.1-2.3v-14.9
		c-1.9,0.9-3.7,1.7-5.4,2.5c-1.8,0.7-3.6,1.2-5.4,1.7c-1.8,0.5-3.7,0.8-5.6,1.1c-1.9,0.2-3.9,0.3-6.1,0.3c-2.6,0-4.9-0.4-6.9-1.2
		c-2-0.8-3.7-1.9-5.1-3.4c-1.4-1.5-2.5-3.4-3.3-5.5c-0.8-2.2-1.2-4.6-1.3-7.3h43.1V483c0-5.1-0.7-9.7-2.1-13.6
		c-1.4-4-3.4-7.4-6.1-10.1c-2.6-2.7-5.8-4.8-9.6-6.2C827.5,451.6,823.3,450.9,818.6,450.9L818.6,450.9z M891.1,450.9
		c-2.4,0-4.5,0.3-6.3,0.9c-1.8,0.5-3.5,1.3-4.9,2.4c-1.4,1-2.7,2.3-3.9,3.7c-1.2,1.5-2.3,3.1-3.3,4.9h-1l-2.8-10.6h-14.6v70.6h19.3
		v-36c0-3.3,0.4-6.1,1.2-8.4c0.8-2.3,2-4.2,3.5-5.6c1.5-1.4,3.3-2.5,5.4-3.1c2.1-0.6,4.4-1,6.9-1c0.4,0,1,0,1.6,0.1
		c0.6,0,1.3,0,1.9,0.1c0.7,0,1.3,0.1,1.9,0.2c0.6,0.1,1,0.2,1.4,0.3v-18.1c-0.3-0.1-0.6-0.1-1.1-0.2c-0.5-0.1-1-0.2-1.6-0.2
		c-0.5-0.1-1.1-0.1-1.8-0.1C892.1,450.9,891.6,450.9,891.1,450.9L891.1,450.9z M702.7,464.6c2,0,3.8,0.4,5.3,1.1
		c1.5,0.8,2.8,1.8,3.8,3.1c1,1.3,1.8,2.9,2.3,4.7c0.5,1.8,0.8,3.8,0.8,5.9h-24.6c0.3-5.1,1.6-8.9,3.8-11.3
		C696.5,465.8,699.3,464.6,702.7,464.6L702.7,464.6z M818.8,464.6c2,0,3.8,0.4,5.3,1.1c1.5,0.8,2.8,1.8,3.8,3.1
		c1,1.3,1.8,2.9,2.3,4.7c0.5,1.8,0.8,3.8,0.8,5.9h-24.6c0.3-5.1,1.6-8.9,3.8-11.3C812.5,465.8,815.3,464.6,818.8,464.6L818.8,464.6z
		"/>
	<g id="text3756" transform="matrix(0.40958848,0,0,0.40958848,409.7852,177.21243)">
		
			<linearGradient id="path3879_1_" gradientUnits="userSpaceOnUse" x1="-1347.3969" y1="1915.2123" x2="-1345.4313" y2="1915.2123" gradientTransform="matrix(7.3489 0 0 -10.3111 11116.374 20390.8887)">
			<stop  offset="0" style="stop-color:#4D4D4D"/>
			<stop  offset="1" style="stop-color:#4D4D4D"/>
		</linearGradient>
		<path id="path3879" class="st16" d="M1237.3,667.7h-10.5V627h-12.4v-8.7h35.3v8.7h-12.4V667.7"/>
		
			<linearGradient id="path3881_1_" gradientUnits="userSpaceOnUse" x1="-1440.6074" y1="1915.2124" x2="-1438.6418" y2="1915.2124" gradientTransform="matrix(10.5932 0 0 -10.3111 16517.9238 20390.9023)">
			<stop  offset="0" style="stop-color:#4D4D4D"/>
			<stop  offset="1" style="stop-color:#4D4D4D"/>
		</linearGradient>
		<path id="path3881" class="st17" d="M1277.2,667.7l-10.9-38.8h-0.3c0.1,2.1,0.2,4.1,0.3,6c0,0.8,0.1,1.7,0.1,2.6
			c0,0.9,0.1,1.7,0.1,2.6c0,0.9,0.1,1.7,0.1,2.5c0,0.8,0,1.5,0,2.1v23h-9.4v-49.5h14.3l10.7,37.8h0.2l11.4-37.8h14.3v49.5h-9.8
			v-23.4c0-0.6,0-1.3,0-2c0-0.7,0-1.5,0.1-2.4c0-0.8,0-1.7,0.1-2.5c0-0.9,0.1-1.7,0.1-2.5c0.1-1.9,0.2-3.9,0.2-5.9h-0.3l-11.7,38.8
			H1277.2"/>
	</g>
	<g id="g8126" transform="matrix(0.14276681,0,0,0.14276681,453.68012,190.16516)">
		<g id="g8128">
			<path id="path8130" class="st18" d="M593.1,1583.7l96.9-231.5h18.7l96.9,231.5h-24.4l-30.1-72.3H647l-29.7,72.3
				C617.3,1583.7,593.1,1583.7,593.1,1583.7z M699.4,1378.9l-47.6,114.4h94C745.8,1493.3,699.4,1378.9,699.4,1378.9z"/>
			<path id="path8132" class="st18" d="M830.3,1583.7v-231.5h95.9c39.7,0,68.4,36.8,68.4,72.7c0,37.7-26.7,73.3-66.4,73.3h-75.3
				v85.5H830.3z M852.9,1477.9H927c27.3,0,45-25.2,45-53.1c0-29.1-21.4-52.5-47-52.5h-72.1V1477.9z"/>
			<path id="path8134" class="st18" d="M982.1,1583.7l96.9-231.5h18.7l96.9,231.5h-24.8l-30.1-72.3h-104l-29.7,72.3H982.1z
				 M1088.4,1378.9l-47.6,114.4h94C1134.8,1493.3,1088.4,1378.9,1088.4,1378.9z"/>
			<path id="path8136" class="st18" d="M1303.9,1350.7c41.1,0,71.2,20.8,85.5,50.5l-18.3,11c-14.7-30.7-43.4-41.1-68.4-41.1
				c-55.4,0-85.7,49.5-85.7,96.1c0,51.1,37.5,97.5,86.7,97.5c26.1,0,56.8-13,71.4-43l18.9,9.8c-14.9,34.6-56,53.9-91.6,53.9
				c-63.5,0-108.3-60.7-108.3-119.3C1194,1410.5,1234.1,1350.7,1303.9,1350.7z"/>
			<path id="path8138" class="st18" d="M1608.3,1352.1v231.5h-22.8v-108.3h-137.2v108.3h-22.4v-231.5h22.4v103h137.2v-103H1608.3z"
				/>
			<path id="path8140" class="st18" d="M1816.1,1563.4v20.2h-155.5v-231.5h152.5v20.2H1683v83.5h113.4v19.3H1683v88.3H1816.1z"/>
		</g>
	</g>
	<g id="g8326" transform="translate(132.42046,222.12974)">
	</g>
	<g id="g8328" transform="translate(132.42046,222.12974)">
	</g>
	<g id="g8330" transform="translate(132.42046,222.12974)">
	</g>
	<g id="g8332" transform="translate(132.42046,222.12974)">
	</g>
	<g id="g8334" transform="translate(132.42046,222.12974)">
	</g>
	<g id="g8336" transform="translate(132.42046,222.12974)">
	</g>
</g>
</svg>
