<?xml version="1.0" encoding="utf-8"?>
<!-- Generator: Adobe Illustrator 24.2.0, SVG Export Plug-In . SVG Version: 6.00 Build 0)  -->
<svg version="1.1" id="Capa_1" xmlns="http://www.w3.org/2000/svg" xmlns:xlink="http://www.w3.org/1999/xlink" x="0px" y="0px"
	 viewBox="0 0 512 512" style="enable-background:new 0 0 512 512;" xml:space="preserve">
<style type="text/css">
	.st0{fill:#0868AC;}
</style>
<g>
	<path class="st0" d="M32.5,125.2c-45.3,65.1-39.7,149.9-5.1,219.1c0.8,1.7,1.7,3.3,2.5,4.9l1.6,3.1l1,1.8l1.8,3.2
		c1.1,1.9,2.2,3.8,3.3,5.7l1.9,3.1c1.2,2,2.5,4,3.8,6l1.6,2.5c1.8,2.7,3.6,5.4,5.6,8l0.2,0.2l0.9,1.3c1.6,2.3,3.3,4.5,5.1,6.7
		l1.9,2.4c1.5,1.9,3.1,3.8,4.7,5.8l1.8,2.1c2.1,2.5,4.3,5,6.5,7.4l0.1,0.1l0.3,0.3c2.2,2.4,4.4,4.7,6.6,7l2.1,2.1
		c1.7,1.8,3.5,3.5,5.3,5.2l2.2,2.1c2.4,2.2,4.8,4.5,7.3,6.6l0.1,0.1l1.3,1.1c2.2,1.9,4.4,3.7,6.6,5.6l2.7,2.2
		c1.8,1.5,3.6,2.9,5.5,4.3l2.9,2.2c2,1.5,4.1,3,6.2,4.4l2.2,1.6l0.6,0.4c2,1.4,4,2.7,6,4l2.6,1.7c3.1,1.9,6.2,3.9,9.4,5.7l2.6,1.5
		c2.3,1.3,4.7,2.7,7,3.9c1.3,0.7,2.6,1.3,3.9,2c1.7,0.9,3.3,1.8,5,2.6l1.2,0.6l2.1,1c2.6,1.3,5.3,2.5,8,3.7l1.7,0.8
		c3.1,1.3,6.2,2.6,9.3,3.9l2.3,0.9c2.9,1.1,5.8,2.2,8.8,3.3l1.1,0.4c3.2,1.1,6.5,2.2,9.8,3.2l2.4,0.7c3.3,1,6.7,2.2,10.1,2.8
		c219.2,40,282.9-131.7,282.9-131.7c-53.5,69.7-148.4,88.1-238.4,67.6c-3.4-0.8-6.7-1.8-10-2.8l-2.5-0.8c-3.2-1-6.5-2-9.7-3.1
		l-1.3-0.5c-2.9-1-5.7-2.1-8.5-3.2l-2.4-0.9c-3.1-1.2-6.2-2.5-9.2-3.8l-1.8-0.8c-2.6-1.2-5.2-2.4-7.8-3.6l-2.2-1.1c-2-1-4-2-6-3.1
		c-1.3-0.7-2.7-1.4-4-2.1c-2.4-1.3-4.8-2.7-7.2-4l-2.4-1.4c-3.2-1.9-6.3-3.8-9.4-5.7l-2.5-1.7c-2.2-1.4-4.5-2.9-6.7-4.4l-2.1-1.5
		c-2.1-1.5-4.2-3-6.3-4.6l-2.8-2.1c-1.9-1.5-3.8-2.9-5.7-4.4l-2.5-2c-2.4-2-4.8-3.9-7.1-6l-0.8-0.7c-2.5-2.2-5-4.5-7.4-6.8l-2.1-2
		c-1.8-1.7-3.6-3.5-5.4-5.2l-2.1-2.1c-2.2-2.3-4.4-4.6-6.6-6.9l-0.3-0.3c-2.3-2.5-4.5-5-6.7-7.6L108,335c-1.6-2-3.2-3.9-4.8-5.9
		l-1.8-2.2c-1.9-2.4-3.7-4.9-5.5-7.4C45.9,251.4,28,157.5,67.9,80.3 M173.2,70.3c-32.8,47.2-31,110.3-5.4,160.2
		c4.3,8.4,9.1,16.5,14.5,24.2c4.9,7,10.4,15.4,16.9,21.1c2.4,2.6,4.8,5.1,7.4,7.6l1.9,1.9c2.4,2.4,4.9,4.7,7.5,7l0.3,0.3l0.1,0.1
		c2.8,2.5,5.8,4.9,8.8,7.3l2,1.6c3,2.3,6.1,4.5,9.2,6.7l0.3,0.2c1.4,1,2.8,1.8,4.2,2.8l2,1.3c2.2,1.4,4.5,2.8,6.8,4.2l1,0.6
		c2,1.1,4,2.3,6,3.4l2.1,1.1c1.4,0.7,2.8,1.5,4.2,2.2l0.6,0.3c2.9,1.4,5.8,2.8,8.8,4.1l1.9,0.8c2.4,1,4.8,2,7.2,2.9l3.1,1.1
		c2.2,0.8,4.4,1.6,6.6,2.3l3,1c3.2,1,6.3,2.2,9.6,2.8C472.9,367.2,512,236.8,512,236.8c-35.2,50.7-103.4,74.9-176.2,56
		c-3.2-0.9-6.4-1.8-9.6-2.8l-2.9-0.9c-2.3-0.7-4.5-1.5-6.7-2.3l-3-1.1c-2.4-0.9-4.8-1.9-7.2-2.9l-1.9-0.8c-3-1.3-5.9-2.7-8.8-4.1
		c-1.5-0.7-3-1.5-4.4-2.3l-2.6-1.3c-1.9-1-3.8-2.1-5.6-3.2l-1.3-0.8c-2.3-1.3-4.5-2.7-6.8-4.1l-2-1.4c-1.5-1-2.9-1.9-4.4-2.9
		c-3.1-2.2-6.2-4.4-9.1-6.7l-2.1-1.6c-31.9-25.2-57.1-59.5-69.1-98.5c-12.6-40.4-9.9-85.8,11.9-122.6 M291.6,29.3
		c-19.3,28.4-21.2,63.8-7.8,95.2c14.1,33.3,43.1,59.5,76.9,71.9c1.4,0.5,2.8,1,4.2,1.5l1.9,0.6c2,0.6,4,1.4,6,1.7
		c93.5,18.1,118.8-48,125.6-57.7c-22.2,32-59.5,39.6-105.3,28.5c-3.6-0.9-7.6-2.2-11.1-3.4c-4.5-1.6-8.9-3.4-13.2-5.5
		c-8.1-3.9-15.9-8.6-23.1-14.1C304.8,117,279.3,57.7,306,9.4"/>
</g>
</svg>
