<?xml version="1.0" encoding="utf-8"?>
<!-- Generator: Adobe Illustrator 24.2.0, SVG Export Plug-In . SVG Version: 6.00 Build 0)  -->
<svg version="1.1" id="Capa_1" xmlns="http://www.w3.org/2000/svg" xmlns:xlink="http://www.w3.org/1999/xlink" x="0px" y="0px"
	 viewBox="0 0 512 512" style="enable-background:new 0 0 512 512;" xml:space="preserve">
<style type="text/css">
	.st0{fill:#FFFFFF;}
	.st1{fill:#9D5025;}
	.st2{fill:#F68536;}
	.st3{fill:#6B3A19;}
	.st4{fill:#FBBF93;}
</style>
<path class="st0" d="M512,256c0,33.4-6.4,65.2-18,94.4c-6.2,15.6-13.9,30.5-22.9,44.5c-11.2,17.4-24.5,33.3-39.5,47.4
	c-8.8,8.3-18.1,15.9-28,22.9C361.8,494.7,310.9,512,256,512s-105.8-17.3-147.5-46.7C96.1,456.5,84.6,446.7,74,436
	C28.2,389.8,0,326.2,0,256S28.2,122.2,74,76c11.2-11.4,23.5-21.7,36.7-30.8C152,16.7,202,0,256,0s104,16.7,145.3,45.2
	c10.1,6.9,19.6,14.6,28.6,22.9c15.7,14.5,29.5,31,41.2,49c9,13.9,16.7,28.8,22.9,44.4C505.6,190.8,512,222.6,512,256z"/>
<g>
	<path class="st1" d="M120.6,351.9l17.3,8.6l2.8-5V155.2l-2.8-3.7l-17.3,8.6V351.9"/>
	<path class="st2" d="M171,159.7l-33.2-8.2v209.1l33.2-7.7V159.7"/>
	<path class="st3" d="M272.8,175.6l23.6-12.3l78.6,30.4l-20.9,2.7L272.8,175.6"/>
	<path class="st4" d="M273.7,336.4l23.2,12.3l78.6-30.4l-20.9-2.7L273.7,336.4"/>
	<path class="st1" d="M279.6,302.8l41.4,5.5l2.4-4.3v-95.2l-2.4-5l-41.4,5.5V302.8 M158.3,141l25.5-12.7l2.8,5.4v244.4l-2.8,5.6
		L158.3,371V141"/>
	<path class="st2" d="M235.5,366.4l-51.8,16.8v-255l51.8,16.8V366.4"/>
	<path class="st1" d="M215.6,399.2l40.4,20.5l4.2-4.9V98.4l-4.2-6l-40.4,20.5V399.2 M353.3,196.5l20.9-2.7l1.8,2.6v119.3l-1.8,3.1
		l-20.9-2.7V196.5"/>
	<path class="st2" d="M321,203.7v105l43.2-52.7L321,203.7"/>
	<path class="st2" d="M374.2,151.5L256,92.4v327.2l135.4-67.7V160.1L374.2,151.5z M374.2,318.9l-77.7,23.2V169.9l77.7,23.2V318.9z"
		/>
</g>
</svg>
