<?xml version="1.0" encoding="utf-8"?>
<!-- Generator: Adobe Illustrator 24.2.0, SVG Export Plug-In . SVG Version: 6.00 Build 0)  -->
<svg version="1.1" id="Capa_1" xmlns="http://www.w3.org/2000/svg" xmlns:xlink="http://www.w3.org/1999/xlink" x="0px" y="0px"
	 viewBox="0 0 512 512" style="enable-background:new 0 0 512 512;" xml:space="preserve">
<style type="text/css">
	.st0{fill:#69B140;}
	.st1{fill:#599737;}
	.st2{fill:#BFC3B9;}
</style>
<g>
	<path class="st0" d="M245.6,449.3c-34.3-26.9-61.9-59.3-81.1-98.5c-14.3-29.2-22.4-60.1-23.4-92.8c-1.5-47.2,7.5-92.3,26.3-135.5
		c13.9-32,33.4-60.3,58.1-85c6.5-6.5,14.1-11.6,20.1-18.5c4.7-5.4,7.4-11.5,7.5-19c2.6,1.2,2.5,3.2,3,4.7c-1.5,1.2-1.1,2.9-0.9,4.4
		c2,16.7,2.4,33.5,2.8,50.3c0.6,22.4,0,44.8,0.8,67.1c1.7,47.7,0.6,95.4,1.8,143c1,39.7-1.6,79.4-3.2,119.1c-3,13.7-3,27.8-5.9,41.4
		C250.1,436.6,251.4,444.1,245.6,449.3z"/>
	<path class="st1" d="M257.3,388.7c1.6-39.7,4.2-79.4,3.2-119.1c-1.2-47.7-0.1-95.4-1.8-143c-0.8-22.3-0.2-44.7-0.8-67.1
		c-0.4-16.8-0.9-33.6-2.8-50.3c-0.2-1.5-0.5-3.2,0.9-4.4c8.7,23.6,27.5,39.5,43.3,57.8c22.8,26.3,39.7,56.1,52.1,88.5
		c11.4,29.9,18.9,60.6,19.5,92.8c0.9,48.7-10.3,94.1-35.9,135.7c-15.1,24.6-33.8,46.1-56.9,63.7c-1.3,1-2.7,1.7-4,2.6
		c-3.6-3.1-6.6-6.5-8.6-11C259.2,420.1,257.7,404.5,257.3,388.7z"/>
	<path class="st2" d="M257.3,388.7c0.4,15.8,1.9,31.4,8.3,46.1c1.9,4.5,5,7.9,8.6,11c-11.1,18.9-6,39.7-7.3,59.8
		c-0.1,2.2,2.4,6.2-2.2,6.4c-5.6,0.2-10.9-3.7-10.9-7.3c0-18.9-1.9-37.5-8.3-55.4c5.9-5.2,4.5-12.7,5.9-19.2
		C254.3,416.5,254.4,402.4,257.3,388.7z"/>
</g>
</svg>
