<?xml version="1.0" encoding="utf-8"?>
<!-- Generator: Adobe Illustrator 24.2.0, SVG Export Plug-In . SVG Version: 6.00 Build 0)  -->
<svg version="1.1" id="Capa_1" xmlns="http://www.w3.org/2000/svg" xmlns:xlink="http://www.w3.org/1999/xlink" x="0px" y="0px"
	 viewBox="0 0 512 512" style="enable-background:new 0 0 512 512;" xml:space="preserve">
<style type="text/css">
	.st0{fill:#FFFFFF;}
</style>
<g>
	<path class="st0" d="M0,309.9c3-5,8.7-7.6,14.4-6.5c13.2,1.4,26.5,1.4,39.6-0.2c4.3-0.6,8.7-0.6,13-0.1l20.2,1.7
		c2.1,0.1,4.2,0.4,6.2,0.9c1.8,0.3,3.3,1.6,3.7,3.4c0.4,2-0.6,4-2.4,4.8c-1.8,1-3.8,1.6-5.9,1.7l-21.7-1c-6.3-0.2-12.6,0-18.8,0.5
		c-8.7,0.9-17.4,0.9-26,0.2c-4.8-0.4-9.7-0.2-14.5-0.2c-3,0.4-5.9-0.8-7.8-3.1L0,309.9z M97,224l0.7,16.5c0.1,3.5,0,7.2-0.3,10.6
		c-1,7.4-1,14.8,0,22.2c0.5,3.2,0.4,6.4-0.3,9.6c-0.3,4.5-4.2,8-8.8,7.7c-0.1,0-0.2,0-0.3,0c-5.3-0.3-10.6-1.1-15.8-2.3
		c-3.8-1.2-7-3.7-9-7c-2.1-3-4.1-6.2-5.9-9.5c-3.1-5.7-6.8-11-11.2-15.8c-2.6-3.1-4.9-6.4-7-9.8c-0.5-0.9-1-1.7-1.5-2.5
		c-1.1-1.4-3.2-1.7-4.6-0.6c-0.6,0.4-1,1-1.2,1.7c-0.4,1.2-0.6,2.5-0.6,3.8l-0.5,22.3c-0.1,1.3-0.3,2.6-0.8,3.8
		c-1.5,2.9-1.6,6.3-0.2,9.3c0.9,1.8,0.2,4.1-1.6,5c-0.3,0.2-0.7,0.3-1.1,0.4c-5.5,2.1-11.6,1.9-17-0.5c-2.9-1.2-4.8-4.1-4.8-7.2
		l-0.6-16c-0.3-3.3,0.9-6.6,3.4-8.8c1.1-1,2-2.1,2.7-3.4c1.6-2.4,1.5-5.5-0.3-7.7c-4.8-6.4-7-14.4-5.9-22.4l0.4-16l0-3.9
		c-0.5-2.6,1.3-5.1,3.9-5.6c0.8-0.1,1.5-0.1,2.3,0.1c4,0,8.1-0.8,11.8-2.2c3.6-1.7,7.8-0.1,9.5,3.5c0.1,0.3,0.2,0.6,0.3,0.9
		c0.6,1.3,1.1,2.7,1.6,4c0.8,2.3,2.6,4.2,4.9,5.1c2.4,1,4.5,2.7,5.8,5l15.2,21.9c1.6,2.3,3.4,4.4,5.4,6.2c2.2,2,4,1.4,4.3-1.6
		c0.7-4.6,0.9-9.3,0.6-14c-0.4-7.2-0.3-14.5,0.2-21.8c-0.5-2.5,0.4-5,2.2-6.7s4.5-2.3,6.9-1.6l5.4,0.3c5.3-0.3,9.9,3.4,10.8,8.6
		c0.6,2,0.9,4.1,1,6.2l0,12.1L97,224z M212.8,250.2c-0.4-5.2,0.1-10.3,1.4-15.3c2.5-8,9.5-13.6,17.9-14.2c7.6-1.4,15.4,0.2,21.8,4.5
		c0.7,0.5,1.4,0.9,2.1,1.3c1.9,1.5,4.7,1.2,6.2-0.7c0.1-0.1,0.2-0.2,0.2-0.3c5.6-4.3,13.1-5,19.4-1.8c4.1,3,5.6,8.4,3.6,13
		c-2.8,6.9-3.4,14.5-1.6,21.8l1.5,14.9l1.3,16.4c0.2,5.5-1.7,10.9-5.1,15.2c-3.2,4.1-7.1,7.5-11.6,10c-2.4,1.8-5.5,2.2-8.3,1
		c-5.9-2.5-12.5-2.5-18.4-0.3c-4.9,1.8-10.2,2.1-15.3,0.9c-6.8-1.3-12.5-5.9-15.3-12.2c-1.8-2.4-1.6-5.8,0.3-8.1
		c2.2-2.1,5.4-2.6,8.1-1.1l2.2,0.9l2.2,1.1c6.8,2.5,13.8,4.1,20.7,6.3c6.2,1.5,12.4-2.2,13.9-8.4c0.1-0.5,0.2-1,0.3-1.5
		c0.5-3,0.6-6.1,0.3-9.1c0.1-1.8-1.3-3.4-3.1-3.5c-0.6,0-1.2,0.1-1.7,0.4c-2.5,0.8-4.8,1.8-7,3.1c-4.1,2.5-8.8,3.3-13.5,2.6
		c-6.7-1-12.4-5.6-14.7-12.1c-1.3-3.8-3.3-7.4-5.9-10.4c-1.1-1.6-1.7-3.4-1.7-5.4C212.6,256.3,212.8,253.2,212.8,250.2L212.8,250.2z
		 M261.3,255.1c-0.5-3-1.1-6-2-8.9c-1.7-5.4-6.7-9.1-12.3-9.2c-5.6,0.7-10.2,4.8-11.5,10.3c-0.2,0.4-0.3,0.9-0.4,1.4
		c-0.1,4,0.1,8,0.5,12c0.4,4.5,3.7,8.2,8.1,9.2c4.8,1.4,9.9,0,13.3-3.7C259.7,263.1,261.2,259.2,261.3,255.1L261.3,255.1z
		 M117.4,272v-3.9c-0.3-3.8,1.1-7.5,3.9-10c2.8-2.5,6.7-3.6,10.4-3c0.8,0.1,1.6,0.2,2.4,0.3c3.4,0.8,6.9,0.1,9.6-2
		c3.9-2.9,8.6-4.5,13.5-4.7c2.2-0.1,4.5-0.5,6.6-1.1c2.1-0.5,3.9-1.8,5-3.6c1.1-1.8,1.4-4,0.9-6.1c-0.1-1.4-0.7-2.7-1.8-3.6
		c-1.1-0.9-2.5-1.3-3.8-1.2c-8.2-0.4-16.2,2.3-22.3,7.7c-0.9,0.9-2.1,1.5-3.3,1.6c-4.7,0-9.3-0.4-13.8-1.4c-3.4-0.4-5.8-3.5-5.4-6.9
		c0.2-2.1,1.5-3.9,3.4-4.8c7.3-6.1,16.7-9,26.2-7.9c5.1,0.8,10.3,0.7,15.4-0.3c12.4-1.5,23.9,6.7,26.5,18.9c0.2,2.2,0,4.5-0.7,6.6
		c-1.5,4.6-1.2,9.7,0.8,14.1c0.8,2.3,0.9,4.7,0.3,7c-0.8,3.8-0.7,7.7,0.1,11.5c0.9,2.2,0.5,4.8-1,6.7s-3.9,2.8-6.3,2.5
		c-2.6,0-5.2,0-7.7,0.1c-2.9,0.5-5.9-0.5-8-2.6c-0.7-0.9-1.8-1.4-3-1.5c-1.2-0.1-2.3,0.3-3.1,1.1c-0.8,0.8-1.8,1.4-2.9,1.8
		l-23.3,4.1c-3.4,0.1-6.8-0.6-9.8-2c-5.6-1.8-9.3-7.2-8.8-13.1L117.4,272L117.4,272z M150.3,278.2c0.8,0.1,1.6,0,2.4-0.2l17.3-7.3
		c1.9-1,2.6-3.4,1.6-5.3c-0.3-0.5-0.7-1-1.1-1.3c-2.8-4-7.7-5.7-12.4-4.3c-1.7,0.3-3.5,0.5-5.3,0.4c-2.1,0-4.2,0.3-6.2,0.6
		c-4.3,1.1-6.9,5.4-5.9,9.8c-0.1,3.9,2.9,7.2,6.8,7.5C148.4,278.1,149.3,278.1,150.3,278.2L150.3,278.2z M428.7,254.9
		c-0.3,7-2.1,13.8-5.3,20.1c-2.2,3.8-5.3,7-9.1,9.2c-2.4,1.7-5.5,2.2-8.3,1.3c-3.1-1.2-6.6-0.3-8.9,2.2c-2.4,2.4-6,3.3-9.3,2.3
		c-4.3-0.8-8.6-1.2-13-1.2c-3.2,0-6.4-1.2-8.9-3.2l-10.2-7.4c-2.2-1.4-3.5-3.9-3.6-6.5c-0.2-5-1.4-9.9-3.3-14.6
		c-2-6.1-0.8-12.8,3.2-17.9c0.6-0.9,1.6-1.6,2.7-1.9c4-1.1,7.3-3.8,9-7.6c2.1-5.2,7.8-8,13.1-6.4c0.9,0.2,1.9,0.3,2.9,0.1
		c7-1,14.1-0.9,21.1,0.1c10.1,0,19.3,6,23.5,15.2C427,243.8,428.4,249.3,428.7,254.9L428.7,254.9z M402.1,257.5
		c0.5-5-0.6-10.1-3.1-14.5c-3-6.1-10.4-8.5-16.4-5.5c-1.4,0.7-2.6,1.6-3.6,2.8c-6.6,8.4-7.4,20-2.1,29.3c3.7,4.5,9.7,6.3,15.3,4.8
		c5.4-1.6,9.3-6.5,9.6-12.1L402.1,257.5L402.1,257.5z M476,219.8l16.3,1.9c3.3,0.8,6.4,2.2,9.2,4c1.6,1.1,2.9,2.5,3.8,4.3
		c1,1.3,1.2,3.1,0.5,4.6s-2.1,2.5-3.8,2.7c-6.2,2.6-13.3,2.1-19.1-1.4c-2.1-1.2-4.4-2-6.8-2.4c-2.9-0.7-5.9,0-8.3,1.9
		c-1.5,0.8-2.4,2.4-2.4,4c0,1.7,0.9,3.2,2.3,4.1c0.6,0.5,1.3,1,2.1,1.2c5.6,2,11.5,3.3,17.4,3.7c3.6-0.2,7.1,0.8,10.1,2.8
		c2.5,1.5,5,2.9,7.7,4.1c4.5,1.9,7.2,6.4,7,11.3c-0.4,10.9-4.6,17.9-15.4,19.8c-4,0.3-8,1.5-11.5,3.3c-1.2,0.5-2.5,0.8-3.7,0.8
		l-10.6,0.9c-8.2-0.5-16.2-2.7-23.5-6.6c-0.8-0.6-1.5-1.2-2.2-1.9c-2.7-1.9-3.4-5.6-1.5-8.4c1-1.5,2.7-2.5,4.5-2.6
		c4.4-1,8.9-1.3,13.4-1c2.3,0.6,4.4,1.9,6,3.7c3.5,3.2,8.3,4.7,13,4c2.1-0.2,4.1-0.9,5.9-1.9c1.9-1,3.1-3,3-5.2
		c-0.1-2.2-1.6-4-3.6-4.7c-0.9-0.4-1.8-0.6-2.7-1c-3-1.1-5.9-2.4-8.8-3.9c-3.9-2.4-8.4-3.4-13-2.9c-7.8,1.4-15.5-3.2-18-10.7
		c-2.7-7.5-0.2-16,6.2-20.8c5.5-4.6,12.5-7.1,19.7-7C471.5,220.5,473.8,220.2,476,219.8L476,219.8z M329.8,248.9
		c-0.2,2.1-0.1,4.1,0.1,6.2l1.9,25.1c0.6,5.1-3.1,9.7-8.2,10.3c-0.8,0.1-1.7,0.1-2.5-0.1c-5.3,0.1-10.3-2.6-13.1-7.2
		c-2.8-4.6-2.9-10.3-0.3-15c1.9-4.5,2.4-9.4,1.2-14.2l-3-20.5c-0.2-1.8,0-3.6,0.4-5.3c0.6-3.7,3.8-6.4,7.5-6.3
		c3.1-0.2,6.1-0.1,9.2,0.2c2.3,0,4.5,1,6,2.7c1.5,1.7,2.3,4,2.1,6.3v5.8C331.3,237.1,330.2,245,329.8,248.9L329.8,248.9z M319,194.8
		h1.4c3.4-0.4,6.7,1.3,8.3,4.3c1.6,3,1.3,6.7-0.8,9.4c-0.9,1.8-2.8,2.9-4.7,2.9c-3.2,0.1-6.4,0-9.6-0.4c-1.9,0-3.7-0.9-4.9-2.4
		c-1.2-1.5-1.8-3.3-1.6-5.2c0-4.4,3.2-8.1,7.6-8.7c1.4-0.1,2.9,0,4.3,0L319,194.8L319,194.8z"/>
</g>
</svg>
