<?xml version="1.0" encoding="utf-8"?>
<!-- Generator: Adobe Illustrator 24.2.0, SVG Export Plug-In . SVG Version: 6.00 Build 0)  -->
<svg version="1.1" id="Capa_1" xmlns="http://www.w3.org/2000/svg" xmlns:xlink="http://www.w3.org/1999/xlink" x="0px" y="0px"
	 viewBox="0 0 512 512" style="enable-background:new 0 0 512 512;" xml:space="preserve">
<style type="text/css">
	.st0{fill:#39AEBB;}
	.st1{fill:#2DBAB9;}
	.st2{fill:#3EA9BC;}
	.st3{fill:#40A7BC;}
	.st4{fill:#34B4BA;}
	.st5{fill:#42A5BC;}
	.st6{fill:#35B2BA;}
	.st7{fill:#2FB6B9;}
	.st8{fill:#25C1B7;}
	.st9{fill:#499EBE;}
	.st10{fill:#46A2BD;}
	.st11{fill:#2ABCB8;}
</style>
<g>
	<path class="st0" d="M348.8,221.9c-3,18.5-5.9,36.7-8.9,54.9c-1.4,8.5-2.8,17-4.1,25.5c-0.4,2.7-1,4.6-4.6,5.2
		c-5.5,0.8-10.2,3.8-13.4,8.6c-1.7,2.5-3.6,2.9-6.3,2.3c-40.9-8.5-81.8-16.9-122.7-25.3c-3.2-0.7-4.2-2.6-4.8-5.4
		c-0.7-3.2,1.8-3.4,3.6-4.1c51.3-21.9,102.7-43.8,154-65.7C346.5,215.8,349.1,217.5,348.8,221.9z"/>
	<path class="st1" d="M367.5,103.9c-2,12.6-4.1,26.1-6.3,39.6c-1.6,9.9-3.3,19.7-4.9,29.6c-0.8,5.2-8,9-13.1,6.9
		c-21.5-9.1-42.7-19.1-64.6-27c-9.5-3.4-11-10.5-14.1-17.5c-0.8-1.7,0.5-3,1.3-4.3c16.6-25.7,33.1-51.4,49.7-77.1
		c1.6-2.5,2.7-3.1,5-0.7c15.1,15.3,30.3,30.4,45.5,45.5C367,100,368.1,101.1,367.5,103.9z"/>
	<path class="st2" d="M464.9,248.9c13.9,5.8,27.8,11.6,41.8,17.3c2.5,1,2.8,2.3,1.2,4.2c-2.7,3.2-5.4,6.5-8.3,9.5
		c-20.3,20.4-40.7,40.8-61.1,61.2c-2.1,2.1-3.8,2.7-6.9,2.1c-22.6-4.9-45.3-9.5-68-14.1c-2.9-0.6-4.8-1.6-5.2-4.8
		c-0.3-2.5-1.1-5.1-2.9-6.7c-6.5-5.7-4.8-12.4-2.9-19.2c1-0.1,2.1,0,3.1-0.3c18.1-4.6,35.9-10,53.1-17.2
		c18.2-7.7,35.8-16.3,52.8-26.3C463.7,253.3,465.2,251.6,464.9,248.9z"/>
	<path class="st3" d="M231.6,388.1c-17.3-24.9-34.7-49.8-52-74.7c-1-1.4-1.7-2.5-0.5-4.2c1.4-2.1,3.3-1.6,5.2-1.3
		c11.2,2.3,22.3,4.6,33.5,6.9c29.9,6.2,59.7,12.3,89.6,18.4c3.6,0.7,6.3,1.6,7.7,5.7c1.5,4.5,5,8.1,9.3,10.4c2,1.1,2.8,2.3,2.4,4.6
		c-1.8,10-3.5,20-5.3,30c-6.5-0.3-12.6,2.4-19.2,2.5c-4.5,0.1-9.2-1.9-13.4-0.2c-6.3,2.5-12.8,1.8-19.2,1.8
		C256.9,388.2,244.3,388.1,231.6,388.1z"/>
	<path class="st4" d="M176.5,269.4c4.6-7.2,9.3-14.3,13.9-21.5c14.6-22.6,29.1-45.1,43.6-67.8c1.8-2.8,3.6-4.1,7.2-3.9
		c8.6,0.6,15.8-2.9,21.2-9.6c1.8-2.2,3.2-2.5,5.8-1.4c22.3,9.5,44.6,18.9,66.9,28.3c2.1,0.9,3.4,1.8,3.4,4.5c0,3.5-1.6,4.8-4.5,6
		c-45.9,19.5-91.7,39-137.6,58.5c-6.3,2.7-12.5,5.3-18.8,7.9C177.2,270.1,176.8,269.8,176.5,269.4z"/>
	<path class="st5" d="M149,409.4c-12.1-12-24.2-24-36.3-35.9c-1.8-1.8-1.5-3.1-0.2-5c9.4-14.4,18.7-28.9,27.9-43.3
		c1.4-2.1,2.9-2.6,5.3-2c5.4,1.3,10.9,1.5,16.1-0.5c3.4-1.3,4.9-0.3,6.8,2.5c15.4,22.8,30.9,45.4,46.4,68.1
		c6.1,8.9,12.2,17.6,18.4,26.5c-13,1-26-0.4-38.7-2.4c-14.5-2.3-29.6-1.8-43.5-7.9C150.6,409,149.7,409.3,149,409.4z"/>
	<path class="st6" d="M202.8,199.3c-13.3,20.7-26.5,41.3-39.8,62c-0.3,0.4-0.5,0.9-0.9,1.3c-1.8,1.8-17.3,0.3-18.8-1.8
		c-19.9-29.1-39.9-58.2-59.9-87.3c-1.3-1.9-2.1-3.3,0-5.3c6.9-6.5,13.6-13.2,20.3-19.9c-0.6,4.5,1.3,7.3,5.6,8.9
		c1.6,0.6,3,1.7,4.4,2.8c8.8,7.3,19,12.5,29,17.7C161.8,187.5,182.3,193.4,202.8,199.3z"/>
	<path class="st7" d="M202.8,199.3c-20.5-5.9-41.1-11.7-60.1-21.5c-10-5.2-20.2-10.4-29-17.7c-1.3-1.1-2.8-2.2-4.4-2.8
		c-4.2-1.6-6.2-4.4-5.6-8.9c11.6-11.7,23.2-23.4,34.8-35.2c1.4-1.5,2.7-1.7,4.6-0.9c23.1,10,46.2,20,69.3,29.9
		c2.5,1.1,3.3,2.2,2.7,5c-1.5,7.3,1.2,13.6,5.4,19.3c0.9,1.3,1.9,1.9,0.6,3.9C214.9,179.9,208.9,189.6,202.8,199.3z"/>
	<path class="st0" d="M69.5,182.1c9.2,13.3,18,26.1,26.9,38.9c10.7,15.5,21.4,30.9,32.1,46.4c1.4,2,3.3,3.9,0.7,6.4
		c-2.4,2.3-2.9,6.3-8.4,5.1c-36.2-7.9-72.4-15.3-108.7-22.8c-6-1.3-6.5-2.1-4.3-8.1c1-2.9,2.5-5.5,4.5-7.7
		C30.6,220.3,50.5,201.9,69.5,182.1z"/>
	<path class="st8" d="M194.6,57.6c15.4-16,30.8-31.9,47.1-46.9c11.2-10.3,24.2-10.1,35.5,0.2c9.1,8.3,17.6,17.2,26.5,25.7
		c1.6,1.5,2.3,2.7,0.8,4.9c-8.9,13.5-17.7,27-26.5,40.6c-8.1,2.1-16.6,2.5-24.7,1.9c-18.6-1.4-36.3-6.9-52-17.3
		C198.1,64.7,193.7,62.8,194.6,57.6z"/>
	<path class="st9" d="M149,409.4c0.7,0,1.5-0.3,2.1,0c13.9,6.1,29,5.6,43.5,7.9c12.7,2.1,25.7,3.4,38.7,2.4
		c16.7,24.1,33.4,48.2,50.1,72.3c0.8,1.2,1.4,2.2,0.3,3.7c-6.1,9.3-18.9,14.8-29.9,12.8c-5.8-1.1-10.3-4.5-14.3-8.5
		c-24.1-23.9-48.1-47.8-72.1-71.8C161.3,421.9,155.2,415.6,149,409.4z"/>
	<path class="st0" d="M464.9,248.9c0.4,2.7-1.2,4.4-3.2,5.6c-17,10-34.6,18.6-52.8,26.3c-17.2,7.3-35,12.7-53.1,17.2
		c-1,0.3-2.1,0.2-3.1,0.3c3.2-24.2,7.5-48.2,11.5-72.2c0.4-2.7,1.8-3.8,4.2-4.4c4-0.9,7.6-2.8,10.3-6c2.1-2.4,3.9-2.1,6.5-1
		c18.3,8,36.7,15.9,55.1,23.7C448.5,242,456.7,245.4,464.9,248.9z"/>
	<path class="st10" d="M231.6,388.1c12.7,0,25.3,0.1,38,0c6.4-0.1,12.9,0.7,19.2-1.8c4.3-1.7,8.9,0.3,13.4,0.2
		c6.6-0.1,12.6-2.9,19.2-2.5c-2.2,14-4.3,28.1-6.5,42.1c-2.3,14.2-4.8,28.4-7,42.6c-1,6.4-6.4,8.9-10.3,12.8
		c-1.8,1.9-2.7-1.3-3.5-2.5c-13.2-18.9-26.3-37.8-39.3-56.8C247,410.8,239.3,399.5,231.6,388.1z"/>
	<path class="st11" d="M194.6,57.6c-0.9,5.2,3.5,7.1,6.6,9.1c15.8,10.4,33.4,15.9,52,17.3c8.1,0.6,16.6,0.2,24.7-1.9
		c-8.5,13.3-17,26.6-25.5,39.9c-1.2,2-2.6,2.3-4.8,1.8c-7.3-1.6-14.4-0.6-20.7,3.6c-2.4,1.6-4.4,1.4-6.8,0.3
		c-21.1-9-42.3-17.9-63.5-26.8c-2.3-1-4.3-1.6-1.4-4.5C168.5,83.6,181.5,70.6,194.6,57.6z"/>
	<path class="st10" d="M327.9,448.9c1.7-10.3,3.6-22.2,5.5-34c3-18.9,6.2-37.7,9.1-56.6c1.4-8.8,10.5-15.3,19.3-13.5
		c19.7,4,39.4,8.1,58.3,11.9C389.3,387.5,358.3,418.6,327.9,448.9z"/>
	<path class="st0" d="M388.9,197.6c13.4-5.7,26.7-11.4,40.1-17c13.1-5.5,13.1-5.5,23,4.5c16.1,16.1,32.3,32.2,48.4,48.5
		c4.6,4.6,9.3,9.4,11.3,17.5c-41.7-17.6-82.2-34.8-122.8-51.9C388.9,198.6,388.9,198.1,388.9,197.6z"/>
	<path class="st3" d="M118.5,294.5c-0.6,2.2-2,2.3-3,2.7c-17.3,7.4-34.6,14.7-51.9,22c-1.9,0.8-3.5,1.7-5.6-0.4
		c-14.8-14.8-29.7-29.4-44.6-44.1c0.3-0.6,0.6-1.2,0.8-1.8C48.9,280.1,83.6,287.3,118.5,294.5z"/>
	<path class="st4" d="M381.8,116.5c15.7,15.8,31.2,31.3,46.7,47c-15.1,6.4-30.7,13.1-46.3,19.7c-4.2,1.7-10.7-4-10-8.6
		C375.3,155.1,378.6,135.8,381.8,116.5z"/>
	<path class="st3" d="M99.7,359.2c-8.9-8.9-17.7-17.7-26.8-26.8c7.7-3.3,15.6-6.7,23.6-10.1c8.9-3.8,17.7-7.6,26.6-11.3
		c1.6-0.7,3.1-1.7,4.6,0.4c1.3,1.8,0.8,3.2-0.3,4.8C118.1,330.6,108.8,345,99.7,359.2z"/>
</g>
</svg>
