<?xml version="1.0" encoding="utf-8"?>
<!-- Generator: Adobe Illustrator 24.2.0, SVG Export Plug-In . SVG Version: 6.00 Build 0)  -->
<svg version="1.1" id="Capa_1" xmlns="http://www.w3.org/2000/svg" xmlns:xlink="http://www.w3.org/1999/xlink" x="0px" y="0px"
	 viewBox="0 0 512 512" style="enable-background:new 0 0 512 512;" xml:space="preserve">
<style type="text/css">
	.st0{fill:#F2F2F2;}
	.st1{fill:#3B8739;}
	.st2{fill:#333333;}
	.st3{fill:#66A060;}
	.st4{fill:#6DA75D;}
	.st5{fill:#55A344;}
	.st6{fill:#639D57;}
</style>
<path class="st0" d="M512,256c0,141.4-114.6,256-256,256C125.6,512,17.9,414.4,2,288.3c-1.3-10.6-2-21.4-2-32.3
	c0-20,2.3-39.5,6.7-58.3C33,84.4,134.7,0,256,0c121,0,222.5,84,249.1,196.9c3.5,14.8,5.7,30,6.5,45.6C511.9,247,512,251.5,512,256z"
	/>
<polygon class="st1" points="243.2,276.6 243.2,210 185.6,176.7 127.9,210 127.9,276.6 185.6,309.8 "/>
<path class="st2" d="M470.2,266.5l37.6,21.7l-37.6,21.7l-57.6-33.3V210l57.6-33.3l34.9,20.2c3.5,14.8,5.7,30,6.5,45.6l-21.4,12.3
	v-23.2l-20.1-11.6l-20.1,11.6v23.2L470.2,266.5z"/>
<polygon class="st3" points="481.4,249.7 481.4,236.8 470.2,230.4 459,236.8 459,249.7 470.2,256.2 "/>
<path class="st2" d="M100.7,210v87.8l-38.4-21.9v-45L43,219.8l-19.2,11.1v45L2,288.3c-1.3-10.6-2-21.4-2-32.3
	c0-20,2.3-39.5,6.7-58.3l36.4-21L100.7,210z"/>
<rect x="152.3" y="185.6" transform="matrix(0.866 -0.5 0.5 0.866 -96.7793 125.3708)" class="st4" width="66.6" height="115.3"/>
<polygon class="st5" points="127.9,276.6 147.7,244.3 127.9,210 "/>
<polygon class="st6" points="224,243.3 243.2,210 185.6,176.7 "/>
<path class="st2" d="M346.6,99.6v88.3l-19.3-11.2L269.6,210v66.6l57.6,33.3l57.6-33.3V120.1L346.6,99.6z M346.4,254.4l-19.2,11.1
	L308,254.4v-22.2l19.2-11.1l19.2,11.1V254.4z"/>
<g>
	<path class="st3" d="M282.1,358.7c0,0-1.1-9.7-11.5-9.7c-10.4,0-17.5,1.4-17.5,7.1s20.2,5.8,27.9,8c7.7,2.3,14.5,8.1,11.1,18.6
		c-3.4,10.4-13.8,11.5-29.9,11.5s-19.7-13.4-19.7-18.6h9.1c0,0-1.1,8.1,9.5,9.5c10.6,1.4,20.8,2.1,22.2-6.1
		c1.8-10.9-34.4-5.4-37.6-16.1c-2.7-9-1.1-20.8,17-22.6s28.1,6.2,28.1,18.1L282.1,358.7z"/>
	<path class="st3" d="M194.7,401.1l20,11.6c10.1,5.8,22.6-1.5,22.6-13.1v-20.2v-37.3h-8.2v55.2c0,6.3-6.9,10.3-12.4,7.1l-14-8.1
		v-58.9l51-29.5l51,29.5v58.9l-51,29.5l-14.7-8.5l-9.6,3.9l24.3,14l59.2-34.2v-68.4l-59.2-34.2l-59.2,34.2L194.7,401.1L194.7,401.1
		L194.7,401.1z"/>
</g>
</svg>
