<?xml version="1.0" encoding="utf-8"?>
<!-- Generator: Adobe Illustrator 24.2.0, SVG Export Plug-In . SVG Version: 6.00 Build 0)  -->
<svg version="1.1" id="Capa_1" xmlns="http://www.w3.org/2000/svg" xmlns:xlink="http://www.w3.org/1999/xlink" x="0px" y="0px"
	 viewBox="0 0 512 512" style="enable-background:new 0 0 512 512;" xml:space="preserve">
<style type="text/css">
	.st0{fill:#76CF4B;}
	.st1{fill:#4F4D3F;}
</style>
<path class="st0" d="M509.6,256.3c0-37.5-0.1-75,0-112.4c0-11.6-4.9-20.3-16.6-26.2c-73-37.2-145.9-74.5-218.6-112
	c-12.8-6.6-24.2-6.7-37.2,0c-72.4,37.5-145,74.6-217.8,111.6c-12,6.1-17.3,14.4-17.3,26.6c0.2,74.7,0.2,149.4,0,224.1
	c0,12.2,5.3,20.6,17.2,26.7c73.3,37.3,146.4,74.8,219.5,112.3c11.6,5.9,22.3,5.9,33.8,0c72.8-37.4,145.7-74.7,218.7-111.9
	c12.5-6.4,18.4-15.1,18.3-28C509.4,330.2,509.6,293.2,509.6,256.3z"/>
<path class="st1" d="M124.2,103.3c2.6,5.1,5.1,10.4,8,15.3c10.8,18.5,23.4,35.1,45.1,41.9c8.6,2.7,16.6,2.4,24.9-2.8
	c14.2-9,29.3-16.6,43.8-25.2c6.6-3.9,12.8-3.8,19.1-0.2c14.2,8,28.5,15.8,42.3,24.5c11.3,7.1,22.2,6.6,33.5,1.2
	c17.2-8.3,28.5-22.4,37.7-38.4c3.2-5.6,5.9-11.4,9.4-18.2c4.7,13.6,4.5,26.6,4.6,39.5c0.1,18.5-4,36.1-14,52
	c-2.1,3.4-0.4,4.5,2.1,5.6c10.4,4.4,12.9,12.8,12.8,23.2c-0.6,59.4-0.8,118.8-1.3,178.3c-0.1,10.8-4.2,13.2-13.4,8
	c-22-12.4-43.9-25.1-66-37.3c-8.4-4.6-11.9-11.2-11.8-20.5c0.2-26.6-0.2-53.3,0.2-79.9c0.1-8.2-2.7-13.9-10-17.8
	c-9.1-4.9-18.1-10.2-27.1-15.5c-5.7-3.4-11-3.2-16.7,0.1c-9.4,5.5-19.1,10.7-28.6,16.3c-6.3,3.7-9.3,9.1-9.3,16.7
	c0.2,27.2-0.1,54.4,0.2,81.6c0.1,8.6-3.1,14.2-10.5,18.4c-22.1,12.3-43.9,25.1-65.9,37.6c-9.9,5.6-14.9,2.8-14.9-8.4
	c-0.1-60.9,0-121.7-0.2-182.6c0-8,3.1-13.6,10.2-16.8c5.2-2.3,5.3-5,2.7-9.7C115.9,162.8,116.2,133.6,124.2,103.3z"/>
</svg>
