<?xml version="1.0" encoding="utf-8"?>
<!-- Generator: Adobe Illustrator 24.2.0, SVG Export Plug-In . SVG Version: 6.00 Build 0)  -->
<svg version="1.1" id="Capa_1" xmlns="http://www.w3.org/2000/svg" xmlns:xlink="http://www.w3.org/1999/xlink" x="0px" y="0px"
	 viewBox="0 0 512 512" style="enable-background:new 0 0 512 512;" xml:space="preserve">
<style type="text/css">
	.st0{fill:#CB3837;}
	.st1{fill:#FFFFFF;}
</style>
<path class="st0" d="M512,256c0,33.4-6.4,65.2-18,94.4c-6.2,15.6-13.9,30.5-22.9,44.5c-11.2,17.4-24.5,33.3-39.5,47.4
	c-8.8,8.3-18.1,15.9-28,22.9C361.8,494.7,310.9,512,256,512s-105.8-17.3-147.5-46.7C96.1,456.5,84.6,446.7,74,436
	C28.2,389.8,0,326.2,0,256S28.2,122.2,74,76c11.2-11.4,23.5-21.7,36.7-30.8C152,16.7,202,0,256,0s104,16.7,145.3,45.2
	c10.1,6.9,19.6,14.6,28.6,22.9c15.7,14.5,29.5,31,41.2,49c9,13.9,16.7,28.8,22.9,44.4C505.6,190.8,512,222.6,512,256z"/>
<g>
	<polygon class="st1" points="42,296.1 95.5,296.1 95.5,215.9 122.2,215.9 122.2,296.1 149,296.1 149,189.1 42,189.1 	"/>
	<path class="st1" d="M175.8,189.1v133.8h53.5v-26.8h53.5v-107H175.8z M256,269.4h-26.8v-53.5H256V269.4z"/>
	<polygon class="st1" points="309.5,189.1 309.5,296.1 363,296.1 363,215.9 389.8,215.9 389.8,296.1 416.5,296.1 416.5,215.9 
		443.2,215.9 443.2,296.1 470,296.1 470,189.1 	"/>
</g>
</svg>
