<?xml version="1.0" encoding="utf-8"?>
<!-- Generator: Adobe Illustrator 24.2.0, SVG Export Plug-In . SVG Version: 6.00 Build 0)  -->
<svg version="1.1" id="Capa_1" xmlns="http://www.w3.org/2000/svg" xmlns:xlink="http://www.w3.org/1999/xlink" x="0px" y="0px"
	 viewBox="0 0 512 512" style="enable-background:new 0 0 512 512;" xml:space="preserve">
<style type="text/css">
	.st0{opacity:0.2;enable-background:new    ;}
	.st1{fill:#E97247;}
	.st2{fill:#FFFFFF;}
	.st3{fill:#666666;}
	
		.st4{opacity:0.2;fill:none;stroke:#000000;stroke-width:17.5764;stroke-linecap:round;stroke-linejoin:round;enable-background:new    ;}
	.st5{fill:none;stroke:#F3F3F3;stroke-width:17.5764;stroke-linecap:round;stroke-linejoin:round;}
	.st6{opacity:0.2;fill:#FFFFFF;enable-background:new    ;}
</style>
<g>
	<circle class="st0" cx="256" cy="265.9" r="246.1"/>
	<circle class="st1" cx="256" cy="248.4" r="246.1"/>
	<circle class="st0" cx="256" cy="265.9" r="175.8"/>
	<circle class="st2" cx="256" cy="248.4" r="175.8"/>
	<path class="st3" d="M384.7,128.9l-40.8,37.9L256,248.4l87.9,81.6l40.8,37.8c30.2-32.4,47-75.1,47.1-119.4
		C431.7,204,414.9,161.3,384.7,128.9z"/>
	<path class="st4" d="M370.3,230.8c0,0,18.4,11.3,17.6,35.2c-0.8,23.9-17.6,35.2-17.6,35.2"/>
	<path class="st5" d="M370.3,213.2c0,0,18.4,11.3,17.6,35.2c-0.8,23.9-17.6,35.2-17.6,35.2"/>
	<path class="st6" d="M256,2.3C120.1,2.3,9.9,112.5,9.9,248.4c0.1,3.4,0.2,6.9,0.4,10.3C14.2,125.7,123,20,256,19.9
		c131.8,0.1,240.2,104.1,245.7,235.8c0.2-2.4,0.3-4.9,0.4-7.3C502.1,112.5,391.9,2.3,256,2.3z"/>
</g>
</svg>
