<?xml version="1.0" encoding="utf-8"?>
<!-- Generator: Adobe Illustrator 24.2.0, SVG Export Plug-In . SVG Version: 6.00 Build 0)  -->
<svg version="1.1" id="Capa_1" xmlns="http://www.w3.org/2000/svg" xmlns:xlink="http://www.w3.org/1999/xlink" x="0px" y="0px"
	 viewBox="0 0 512 512" style="enable-background:new 0 0 512 512;" xml:space="preserve">
<style type="text/css">
	.st0{fill:#56B3B4;}
	.st1{fill:#EA5E5E;}
	.st2{fill:#BF85BF;}
	.st3{fill:#F7BA3E;}
	.st4{opacity:0.5;fill:#D0D4D8;enable-background:new    ;}
</style>
<g>
	<g id="Page-1">
		<g id="prettier-icon-light">
			<g id="Icon-_Light_">
				<g id="Group">
					<path id="Rectangle" class="st0" d="M375,101.2h23.8c6.6,0,11.9,5.3,11.9,11.9l0,0c0,6.6-5.3,11.9-11.9,11.9H375
						c-6.6,0-11.9-5.3-11.9-11.9l0,0C363.1,106.6,368.5,101.2,375,101.2z"/>
					<path id="Rectangle-2" class="st1" d="M17.9,482.2h119c6.6,0,11.9,5.3,11.9,11.9l0,0c0,6.6-5.3,11.9-11.9,11.9h-119
						C11.3,506,6,500.7,6,494.1l0,0C6,487.5,11.3,482.2,17.9,482.2C17.9,482.2,17.9,482.2,17.9,482.2z"/>
					<path id="Rectangle-3" class="st2" d="M303.6,291.7h71.4c6.6,0,11.9,5.3,11.9,11.9l0,0c0,6.6-5.3,11.9-11.9,11.9h-71.4
						c-6.6,0-11.9-5.3-11.9-11.9l0,0C291.7,297,297.1,291.7,303.6,291.7z"/>
					<path id="Rectangle-4" class="st1" d="M160.8,291.7H256c6.6,0,11.9,5.3,11.9,11.9l0,0c0,6.6-5.3,11.9-11.9,11.9h-95.2
						c-6.6,0-11.9-5.3-11.9-11.9l0,0C148.9,297,154.2,291.7,160.8,291.7z"/>
					<path id="Rectangle-5" class="st0" d="M17.9,291.7h95.2c6.6,0,11.9,5.3,11.9,11.9l0,0c0,6.6-5.3,11.9-11.9,11.9H17.9
						c-6.6,0-11.9-5.3-11.9-11.9l0,0C6,297.1,11.3,291.7,17.9,291.7C17.9,291.7,17.9,291.7,17.9,291.7z"/>
					<path id="Rectangle-6" class="st2" d="M17.9,387h119c6.6,0,11.9,5.3,11.9,11.9l0,0c0,6.6-5.3,11.9-11.9,11.9h-119
						c-6.6,0-11.9-5.3-11.9-11.9l0,0C6,392.3,11.3,387,17.9,387C17.9,387,17.9,387,17.9,387z"/>
					<path id="Rectangle-7" class="st2" d="M17.9,196.5h119c6.6,0,11.9,5.3,11.9,11.9l0,0l0,0c0,6.6-5.3,11.9-11.9,11.9l0,0h-119
						C11.3,220.3,6,215,6,208.4l0,0l0,0C6,201.8,11.3,196.5,17.9,196.5L17.9,196.5z"/>
					<path id="Rectangle-8" class="st3" d="M137,53.6H375c6.6,0,11.9,5.3,11.9,11.9l0,0c0,6.6-5.3,11.9-11.9,11.9H137
						c-6.6,0-11.9-5.3-11.9-11.9l0,0l0,0C125.1,59,130.4,53.6,137,53.6L137,53.6z"/>
					<path id="Rectangle-9" class="st1" d="M17.9,53.6h71.4c6.6,0,11.9,5.3,11.9,11.9l0,0l0,0c0,6.6-5.3,11.9-11.9,11.9c0,0,0,0,0,0
						H17.9C11.3,77.4,6,72.1,6,65.6c0,0,0,0,0,0l0,0C6,59,11.3,53.6,17.9,53.6L17.9,53.6z"/>
					<path id="Rectangle-10" class="st3" d="M113.1,434.6H137c6.6,0,11.9,5.3,11.9,11.9l0,0c0,6.6-5.3,11.9-11.9,11.9h-23.8
						c-6.6,0-11.9-5.3-11.9-11.9l0,0C101.3,439.9,106.6,434.6,113.1,434.6z"/>
					<path id="Rectangle-11" class="st0" d="M113.1,148.9H137c6.6,0,11.9,5.3,11.9,11.9l0,0l0,0c0,6.6-5.3,11.9-11.9,11.9l0,0h-23.8
						c-6.6,0-11.9-5.3-11.9-11.9l0,0l0,0C101.3,154.2,106.6,148.9,113.1,148.9L113.1,148.9z"/>
					<path id="Rectangle-12" class="st0" d="M17.9,434.6h47.6c6.6,0,11.9,5.3,11.9,11.9l0,0c0,6.6-5.3,11.9-11.9,11.9H17.9
						c-6.6,0-11.9-5.3-11.9-11.9l0,0C6,439.9,11.3,434.6,17.9,434.6C17.9,434.6,17.9,434.6,17.9,434.6z"/>
					<path id="Rectangle-13" class="st3" d="M17.9,148.9h47.6c6.6,0,11.9,5.3,11.9,11.9l0,0l0,0c0,6.6-5.3,11.9-11.9,11.9
						c0,0,0,0,0,0H17.9c-6.6,0-11.9-5.3-11.9-11.9l0,0l0,0C6,154.2,11.3,148.9,17.9,148.9C17.9,148.9,17.9,148.9,17.9,148.9z"/>
					<path id="Rectangle-14" class="st4" d="M327.4,434.6h23.8c6.6,0,11.9,5.3,11.9,11.9l0,0c0,6.6-5.3,11.9-11.9,11.9h-23.8
						c-6.6,0-11.9-5.3-11.9-11.9l0,0C315.5,439.9,320.9,434.6,327.4,434.6z"/>
					<path id="Rectangle-15" class="st4" d="M184.6,434.6h95.2c6.6,0,11.9,5.3,11.9,11.9l0,0c0,6.6-5.3,11.9-11.9,11.9h-95.2
						c-6.6,0-11.9-5.3-11.9-11.9l0,0C172.7,439.9,178,434.6,184.6,434.6C184.5,434.6,184.6,434.6,184.6,434.6z"/>
					<path id="Rectangle-16" class="st4" d="M398.9,434.6h95.2c6.6,0,11.9,5.3,11.9,11.9l0,0c0,6.6-5.3,11.9-11.9,11.9h-95.2
						c-6.6,0-11.9-5.3-11.9-11.9l0,0C387,439.9,392.3,434.6,398.9,434.6z"/>
					<path id="Rectangle-17" class="st0" d="M208.4,244.1h190.5c6.6,0,11.9,5.3,11.9,11.9l0,0c0,6.6-5.3,11.9-11.9,11.9H208.4
						c-6.6,0-11.9-5.3-11.9-11.9l0,0C196.5,249.4,201.8,244.1,208.4,244.1L208.4,244.1z"/>
					<path id="Rectangle-18" class="st3" d="M89.3,244.1h71.4c6.6,0,11.9,5.3,11.9,11.9l0,0l0,0c0,6.6-5.3,11.9-11.9,11.9H89.3
						c-6.6,0-11.9-5.3-11.9-11.9l0,0C77.4,249.4,82.8,244.1,89.3,244.1L89.3,244.1z"/>
					<path id="Rectangle-19" class="st1" d="M17.9,244.1h23.8c6.6,0,11.9,5.3,11.9,11.9c0,0,0,0,0,0l0,0c0,6.6-5.3,11.9-11.9,11.9
						H17.9C11.3,267.9,6,262.6,6,256l0,0C6,249.4,11.3,244.1,17.9,244.1L17.9,244.1z"/>
					<path id="Rectangle-20" class="st2" d="M232.2,101.2h95.2c6.6,0,11.9,5.3,11.9,11.9c0,0,0,0,0,0l0,0c0,6.6-5.3,11.9-11.9,11.9
						h-95.3c-6.6,0-11.9-5.3-11.9-11.9l0,0l0,0C220.3,106.6,225.6,101.3,232.2,101.2C232.2,101.2,232.2,101.2,232.2,101.2z"/>
					<path id="Rectangle-21" class="st0" d="M17.9,101.2h166.7c6.6,0,11.9,5.3,11.9,11.9l0,0l0,0c0,6.6-5.3,11.9-11.9,11.9l0,0H17.9
						C11.3,125,6,119.7,6,113.2l0,0C6,106.6,11.3,101.3,17.9,101.2C17.9,101.2,17.9,101.2,17.9,101.2z"/>
					<path id="Rectangle-22" class="st3" d="M89.3,339.3h214.3c6.6,0,11.9,5.3,11.9,11.9l0,0c0,6.6-5.3,11.9-11.9,11.9H89.3
						c-6.6,0-11.9-5.3-11.9-11.9l0,0C77.4,344.7,82.8,339.3,89.3,339.3z"/>
					<path id="Rectangle-23" class="st2" d="M17.9,339.3h23.8c6.6,0,11.9,5.3,11.9,11.9l0,0c0,6.6-5.3,11.9-11.9,11.9H17.9
						c-6.6,0-11.9-5.3-11.9-11.9l0,0C6,344.7,11.3,339.3,17.9,339.3z"/>
					<path id="Rectangle-24" class="st1" d="M303.6,148.9h119c6.6,0,11.9,5.3,11.9,11.9l0,0c0,6.6-5.3,11.9-11.9,11.9c0,0,0,0,0,0
						h-119c-6.6,0-11.9-5.3-11.9-11.9l0,0C291.7,154.2,297,148.9,303.6,148.9C303.6,148.9,303.6,148.9,303.6,148.9z"/>
					<path id="Rectangle-25" class="st3" d="M303.6,196.5h119c6.6,0,11.9,5.3,11.9,11.9l0,0c0,6.6-5.3,11.9-11.9,11.9h-119
						c-6.6,0-11.9-5.3-11.9-11.9l0,0C291.7,201.8,297.1,196.5,303.6,196.5z"/>
					<path id="Rectangle-26" class="st0" d="M17.9,6h285.7c6.6,0,11.9,5.3,11.9,11.9l0,0c0,6.6-5.3,11.9-11.9,11.9H17.9
						C11.3,29.8,6,24.5,6,17.9l0,0l0,0C6,11.3,11.3,6,17.9,6L17.9,6z"/>
					<path id="Rectangle-27" class="st4" d="M351.2,6h142.9c6.6,0,11.9,5.3,11.9,11.9c0,0,0,0,0,0l0,0c0,6.6-5.3,11.9-11.9,11.9
						H351.2c-6.6,0-11.9-5.3-11.9-11.9l0,0C339.3,11.3,344.7,6,351.2,6z"/>
					<path id="Rectangle-28" class="st4" d="M351.2,339.3h47.6c6.6,0,11.9,5.3,11.9,11.9l0,0c0,6.6-5.3,11.9-11.9,11.9h-47.6
						c-6.6,0-11.9-5.3-11.9-11.9l0,0C339.3,344.7,344.7,339.3,351.2,339.3z"/>
					<path id="Rectangle-29" class="st4" d="M446.5,339.3h47.6c6.6,0,11.9,5.3,11.9,11.9l0,0c0,6.6-5.3,11.9-11.9,11.9h-47.6
						c-6.6,0-11.9-5.3-11.9-11.9l0,0C434.6,344.7,439.9,339.3,446.5,339.3z"/>
					<path id="Rectangle-30" class="st4" d="M422.7,291.7h71.4c6.6,0,11.9,5.3,11.9,11.9l0,0c0,6.6-5.3,11.9-11.9,11.9h-71.4
						c-6.6,0-11.9-5.3-11.9-11.9l0,0C410.8,297,416.1,291.7,422.7,291.7z"/>
					<path id="Rectangle-31" class="st4" d="M422.7,53.6h71.4c6.6,0,11.9,5.3,11.9,11.9l0,0c0,6.6-5.3,11.9-11.9,11.9h-71.4
						c-6.6,0-11.9-5.3-11.9-11.9l0,0C410.8,59,416.1,53.6,422.7,53.6z"/>
					<path id="Rectangle-32" class="st4" d="M446.5,244.1h47.6c6.6,0,11.9,5.3,11.9,11.9v0l0,0c0,6.6-5.3,11.9-11.9,11.9h-47.6
						c-6.6,0-11.9-5.3-11.9-11.9c0,0,0,0,0,0l0,0C434.6,249.4,439.9,244.1,446.5,244.1C446.5,244.1,446.5,244.1,446.5,244.1z"/>
					<path id="Rectangle-33" class="st4" d="M446.5,101.2h47.6c6.6,0,11.9,5.3,11.9,11.9c0,0,0,0,0,0l0,0c0,6.6-5.3,11.9-11.9,11.9
						h-47.6c-6.6,0-11.9-5.3-11.9-11.9l0,0C434.6,106.6,439.9,101.3,446.5,101.2C446.5,101.2,446.5,101.2,446.5,101.2z"/>
					<path id="Rectangle-34" class="st4" d="M470.3,148.9h23.8c6.6,0,11.9,5.3,11.9,11.9l0,0c0,6.6-5.3,11.9-11.9,11.9h-23.8
						c-6.6,0-11.9-5.3-11.9-11.9l0,0C458.4,154.2,463.7,148.9,470.3,148.9z"/>
					<path id="Rectangle-35" class="st4" d="M470.3,196.5h23.8c6.6,0,11.9,5.3,11.9,11.9l0,0c0,6.6-5.3,11.9-11.9,11.9h-23.8
						c-6.6,0-11.9-5.3-11.9-11.9l0,0C458.4,201.8,463.7,196.5,470.3,196.5z"/>
					<path id="Rectangle-36" class="st4" d="M279.8,387h214.3c6.6,0,11.9,5.3,11.9,11.9l0,0c0,6.6-5.3,11.9-11.9,11.9H279.8
						c-6.6,0-11.9-5.3-11.9-11.9l0,0C267.9,392.3,273.2,387,279.8,387z"/>
					<path id="Rectangle-37" class="st4" d="M184.6,387h47.6c6.6,0,11.9,5.3,11.9,11.9l0,0c0,6.6-5.3,11.9-11.9,11.9h-47.6
						c-6.6,0-11.9-5.3-11.9-11.9l0,0C172.7,392.3,178,387,184.6,387L184.6,387z"/>
					<path id="Rectangle-38" class="st4" d="M375,482.2h119c6.6,0,11.9,5.3,11.9,11.9l0,0c0,6.6-5.3,11.9-11.9,11.9H375
						c-6.6,0-11.9-5.3-11.9-11.9l0,0C363.1,487.5,368.5,482.2,375,482.2z"/>
					<path id="Rectangle-39" class="st4" d="M184.6,482.2h142.9c6.6,0,11.9,5.3,11.9,11.9l0,0c0,6.6-5.3,11.9-11.9,11.9H184.6
						c-6.6,0-11.9-5.3-11.9-11.9l0,0C172.7,487.5,178,482.2,184.6,482.2C184.5,482.2,184.6,482.2,184.6,482.2z"/>
					<path id="Rectangle-40" class="st4" d="M184.6,148.9H256c6.6,0,11.9,5.3,11.9,11.9l0,0c0,6.6-5.3,11.9-11.9,11.9c0,0,0,0,0,0
						h-71.4c-6.6,0-11.9-5.3-11.9-11.9l0,0l0,0C172.7,154.2,178,148.9,184.6,148.9C184.5,148.9,184.6,148.9,184.6,148.9z"/>
					<path id="Rectangle-41" class="st4" d="M184.6,196.5H256c6.6,0,11.9,5.3,11.9,11.9l0,0c0,6.6-5.3,11.9-11.9,11.9l0,0h-71.4
						c-6.6,0-11.9-5.3-11.9-11.9l0,0l0,0C172.7,201.8,178,196.5,184.6,196.5L184.6,196.5z"/>
				</g>
			</g>
		</g>
	</g>
</g>
</svg>
