<?xml version="1.0" encoding="utf-8"?>
<!-- Generator: Adobe Illustrator 24.2.0, SVG Export Plug-In . SVG Version: 6.00 Build 0)  -->
<svg version="1.1" id="Capa_1" xmlns="http://www.w3.org/2000/svg" xmlns:xlink="http://www.w3.org/1999/xlink" x="0px" y="0px"
	 viewBox="0 0 512 512" style="enable-background:new 0 0 512 512;" xml:space="preserve">
<style type="text/css">
	.st0{fill:#5ADAFD;}
	.st1{fill:#F2F2F2;}
	.st2{enable-background:new    ;}
</style>
<path class="st0" d="M512,256c0,84.3-40.8,159.2-103.7,205.8c-26.3,19.5-56.6,34.1-89.3,42.4c-20.2,5.1-41.3,7.8-63,7.8
	s-42.9-2.7-63-7.8c-32.7-8.3-62.9-22.9-89.3-42.4C40.8,415.1,0,340.3,0,256C0,114.6,114.6,0,256,0S512,114.6,512,256z"/>
<g>
	<path class="st1" d="M408.5,400.1c-1.2-8.1-2.8-16.4-4.8-24.8c-1.7-7.5-3.8-15-6-22.8c-6-20.2-13.9-41.3-23.6-62.6
		c-4.2-9.3-8.7-18.6-13.6-28c-4.3-8.2-8.8-16.5-13.5-24.6c-4.7-8.2-9.6-16.2-14.6-24c-5.7-8.9-11.5-17.4-17.4-25.7
		c-13.6-19-27.9-36.4-42.4-51.7c-5.5-5.8-11.1-11.4-16.7-16.6c-6.4-6-12.8-11.5-19.1-16.6c-41.7-33.1-79-43-105.1-28
		c-26.1,15.1-36.1,52.3-28.3,105c1.2,8.1,2.8,16.4,4.8,24.8c1.7,7.4,3.7,15,6,22.8c6,20.2,13.9,41.3,23.6,62.6
		c4.2,9.3,8.7,18.6,13.6,28c4.3,8.2,8.8,16.5,13.5,24.6s9.6,16.2,14.6,24c5.7,8.9,11.5,17.5,17.4,25.7c13.6,19,27.9,36.4,42.4,51.7
		c5.5,5.8,11.1,11.4,16.7,16.6c6.4,6,12.8,11.5,19.1,16.5c15.3,12.2,30.1,21.2,43.9,27c32.7-8.3,62.9-22.9,89.3-42.4
		C412,444.9,412.1,424.1,408.5,400.1z M385.1,458c-3,13.1-8.6,22.2-16.6,26.8c-8,4.6-18.6,5-31.5,1c-14-4.3-30.3-13.6-47.2-27
		c-5.7-4.5-11.4-9.4-17.1-14.7c-5.6-5.2-11.2-10.7-16.7-16.6c-9.5-10.1-18.9-21.1-28.1-32.9c-6.1-7.9-12.2-16.1-18-24.7
		c-8.5-12.4-16.8-25.5-24.6-39c-7.8-13.6-15-27.3-21.5-40.8c-4.5-9.4-8.6-18.7-12.4-28c-5.7-13.9-10.5-27.5-14.5-40.8
		c-2.3-7.7-4.3-15.3-6-22.7c-1.7-7.6-3.1-15-4.2-22.1c-3.2-21.3-3.1-40.2,0.2-54.4c3-13.1,8.6-22.2,16.6-26.8
		c4.3-2.5,9.4-3.7,15.2-3.7c4.9,0,10.4,0.9,16.3,2.7c14,4.3,30.3,13.6,47.2,27c5.7,4.5,11.4,9.4,17.1,14.7
		c5.6,5.2,11.2,10.7,16.7,16.6c9.5,10.1,18.9,21.1,28.1,32.9c6.1,7.9,12.2,16.1,18,24.7c8.5,12.4,16.8,25.5,24.6,39
		c7.8,13.6,15,27.3,21.5,40.8c4.5,9.4,8.6,18.7,12.4,28c5.7,13.9,10.5,27.5,14.5,40.8c2.3,7.7,4.3,15.3,6,22.7
		c1.7,7.6,3.1,15,4.2,22.1C388.4,425,388.4,443.8,385.1,458z"/>
	<path class="st1" d="M427.7,213c-7.6-3-15.6-5.8-23.9-8.3c-7.3-2.2-14.9-4.3-22.7-6.2c-20.5-4.9-42.7-8.6-66-10.9
		c-10.1-1-20.5-1.8-31-2.2c-9.3-0.4-18.6-0.6-28.1-0.6s-18.8,0.2-28.1,0.6c-10.5,0.5-20.9,1.2-31,2.2c-23.2,2.3-45.4,6-66,10.9
		c-7.8,1.9-15.4,3.9-22.7,6.2c-8.3,2.5-16.3,5.3-23.9,8.3c-49.5,19.5-76.8,46.9-76.8,77c0,30.1,27.3,57.5,76.8,77
		c7.6,3,15.5,5.8,23.9,8.3c7.3,2.2,14.9,4.3,22.7,6.1c20.5,4.9,42.7,8.6,66,10.9c10.1,1,20.5,1.7,31,2.2c9.3,0.4,18.6,0.6,28.1,0.6
		s18.8-0.2,28.1-0.6c10.5-0.5,20.8-1.2,31-2.2c23.2-2.3,45.4-6,66-10.9c7.8-1.9,15.4-3.9,22.7-6.2c8.3-2.5,16.3-5.3,23.9-8.3
		c49.5-19.5,76.8-46.9,76.8-77C504.4,259.9,477.2,232.5,427.7,213z M466,317.8c-10.7,10-26.9,19.4-47,27.4
		c-6.8,2.7-13.9,5.2-21.3,7.4c-7.3,2.2-14.9,4.3-22.7,6.2c-13.5,3.2-27.7,5.8-42.5,7.9c-9.9,1.4-20,2.5-30.4,3.3
		c-15,1.2-30.4,1.8-46.1,1.8s-31.1-0.6-46.1-1.8c-10.4-0.8-20.5-1.9-30.4-3.3c-14.8-2-29.1-4.7-42.5-7.9c-7.8-1.9-15.4-3.9-22.7-6.2
		c-7.4-2.3-14.5-4.8-21.3-7.4c-20.1-7.9-36.3-17.4-47-27.4c-9.9-9.2-14.9-18.5-14.9-27.8s5-18.6,14.9-27.8
		c10.7-10,26.9-19.4,47-27.4c6.8-2.7,13.9-5.2,21.3-7.4c7.3-2.2,14.9-4.3,22.7-6.2c13.5-3.2,27.7-5.8,42.5-7.9
		c9.9-1.4,20-2.5,30.4-3.3c15-1.2,30.4-1.8,46.1-1.8s31.1,0.6,46.1,1.8c10.4,0.8,20.5,1.9,30.4,3.3c14.8,2,29.1,4.7,42.5,7.9
		c7.8,1.9,15.4,3.9,22.7,6.2c7.4,2.3,14.5,4.8,21.3,7.4c20.1,7.9,36.3,17.4,47,27.4c9.9,9.2,14.9,18.5,14.9,27.8
		C480.9,299.2,475.9,308.5,466,317.8z"/>
	<path class="st1" d="M380.2,74.8c-26.1-15.1-63.4-5.1-105.1,28c-6.4,5.1-12.8,10.6-19.1,16.6c-5.6,5.2-11.2,10.8-16.7,16.6
		c-14.5,15.3-28.8,32.7-42.4,51.7c-5.9,8.3-11.8,16.9-17.4,25.7c-5,7.8-9.9,15.8-14.6,24s-9.2,16.4-13.5,24.6
		c-4.8,9.3-9.4,18.7-13.6,28c-9.6,21.3-17.6,42.3-23.6,62.6c-2.3,7.7-4.3,15.3-6,22.8c-2,8.5-3.6,16.8-4.8,24.8
		c-3.6,23.9-3.4,44.7,0.3,61.6c26.3,19.5,56.6,34.1,89.3,42.4c13.8-5.8,28.5-14.8,43.9-27c6.4-5.1,12.8-10.6,19.1-16.5
		c5.6-5.2,11.2-10.8,16.7-16.6c14.5-15.3,28.8-32.7,42.4-51.7c5.9-8.3,11.8-16.9,17.4-25.7c5-7.8,9.9-15.8,14.6-24
		c4.7-8.2,9.2-16.4,13.5-24.6c4.8-9.3,9.4-18.7,13.6-28c9.6-21.3,17.5-42.3,23.6-62.6c2.3-7.7,4.3-15.3,6-22.8
		c2-8.5,3.6-16.8,4.8-24.8C416.4,127.2,406.3,89.9,380.2,74.8z M375.1,221.2c-4,13.3-8.8,26.9-14.5,40.8c-3.8,9.2-7.9,18.6-12.4,28
		c-6.5,13.6-13.7,27.3-21.5,40.8c-7.8,13.6-16.1,26.6-24.6,39c-5.9,8.6-11.9,16.8-18,24.7c-9.2,11.8-18.6,22.8-28.1,32.9
		c-5.5,5.9-11.1,11.4-16.7,16.6c-5.7,5.3-11.4,10.2-17.1,14.7c-16.9,13.4-33.2,22.8-47.2,27c-12.9,3.9-23.5,3.6-31.5-1
		c-8-4.6-13.6-13.6-16.6-26.8c-3.3-14.2-3.4-33-0.2-54.4c1.1-7.2,2.5-14.6,4.2-22.1c1.7-7.4,3.7-15,6-22.7
		c4-13.3,8.8-26.9,14.5-40.8c3.8-9.2,7.9-18.6,12.4-28c6.5-13.6,13.7-27.3,21.5-40.8c7.8-13.6,16.1-26.6,24.6-39
		c5.9-8.6,11.9-16.8,18-24.7c9.2-11.8,18.6-22.8,28.1-32.9c5.5-5.9,11.1-11.4,16.7-16.6c5.7-5.3,11.4-10.2,17.1-14.7
		c16.9-13.4,33.2-22.8,47.2-27c5.9-1.8,11.4-2.7,16.3-2.7c5.8,0,10.9,1.3,15.2,3.7c8,4.6,13.6,13.6,16.6,26.8
		c3.3,14.2,3.4,33,0.2,54.4c-1.1,7.2-2.5,14.6-4.2,22.1C379.4,205.9,377.4,213.5,375.1,221.2z"/>
	
		<ellipse transform="matrix(8.248056e-02 -0.9966 0.9966 8.248056e-02 -54.107 521.19)" class="st1" cx="256" cy="290" rx="46.7" ry="46.7"/>
</g>
<g class="st2">
	<path d="M182.1,334.6c10,0.2,17.5,3,22.6,8.4c5.1,5.4,7.6,13.5,7.6,24.4c0,10.9-2.5,19-7.6,24.4c-5.1,5.4-12.6,8.2-22.6,8.4h-22.7
		v-65.6H182.1z M179,394.9c4.7,0,8.8-0.5,12.2-1.5c3.4-1,6.2-2.6,8.4-4.8s3.8-5.1,4.9-8.5c1-3.5,1.6-7.7,1.6-12.6
		c0-4.9-0.5-9.1-1.6-12.6c-1-3.5-2.7-6.3-4.9-8.5s-5-3.8-8.4-4.8c-3.4-1-7.5-1.5-12.2-1.5h-13.3v54.9H179z"/>
	<path d="M220.8,354.5c1.3-4.1,3.2-7.7,5.8-10.9c2.6-3.2,5.8-5.7,9.7-7.5c3.9-1.9,8.4-2.8,13.6-2.8s9.6,0.9,13.5,2.8
		c3.9,1.9,7.1,4.4,9.6,7.5c2.6,3.2,4.5,6.8,5.8,10.9c1.3,4.1,1.9,8.4,1.9,13c0,4.5-0.6,8.9-1.9,13c-1.3,4.1-3.2,7.7-5.8,10.8
		s-5.8,5.6-9.6,7.5c-3.9,1.9-8.4,2.8-13.5,2.8s-9.7-0.9-13.6-2.8c-3.9-1.9-7.1-4.4-9.7-7.5c-2.6-3.1-4.5-6.7-5.8-10.8
		c-1.3-4.1-1.9-8.4-1.9-13C218.8,362.9,219.5,358.6,220.8,354.5z M226.5,378c0.9,3.5,2.4,6.6,4.4,9.3c2,2.7,4.5,4.9,7.7,6.6
		c3.1,1.7,6.9,2.5,11.2,2.5c4.3,0,8.1-0.8,11.2-2.5c3.1-1.7,5.6-3.8,7.6-6.6c2-2.7,3.5-5.8,4.4-9.3c0.9-3.5,1.4-7,1.4-10.5
		c0-3.6-0.5-7.1-1.4-10.6c-1-3.4-2.4-6.5-4.4-9.2c-2-2.7-4.5-4.9-7.6-6.6c-3.1-1.7-6.8-2.5-11.2-2.5c-4.3,0-8.1,0.8-11.2,2.5
		c-3.1,1.7-5.7,3.8-7.7,6.6c-2,2.7-3.5,5.8-4.4,9.2c-1,3.4-1.4,7-1.4,10.6C225.1,371,225.6,374.5,226.5,378z"/>
	<path d="M299.4,334.6l21.8,57.5l22.6-57.5h9.2v65.6h-6.2v-56.7h-0.2l-22.4,56.7h-5.9l-21.6-56.7h-0.2v56.7h-6.2v-65.6H299.4z"/>
</g>
</svg>
