<?xml version="1.0" encoding="utf-8"?>
<!-- Generator: Adobe Illustrator 24.2.0, SVG Export Plug-In . SVG Version: 6.00 Build 0)  -->
<svg version="1.1" id="Capa_1" xmlns="http://www.w3.org/2000/svg" xmlns:xlink="http://www.w3.org/1999/xlink" x="0px" y="0px"
	 viewBox="0 0 512 512" style="enable-background:new 0 0 512 512;" xml:space="preserve">
<style type="text/css">
	.st0{fill:#5ADAFD;}
</style>
<g>
	<path class="st0" d="M136.9,358.7c13.5,3.2,27.7,5.8,42.5,7.9c0,0,0,0,0,0c0,0,0,0,0,0c-5-7.8-9.9-15.8-14.6-24
		c-4.7-8.2-9.2-16.4-13.5-24.6c0,0,0,0,0,0v0C145.7,331.8,140.9,345.5,136.9,358.7C136.9,358.7,136.9,358.7,136.9,358.7z"/>
	<path class="st0" d="M360.6,318c-4.3,8.2-8.8,16.5-13.5,24.6c-4.7,8.2-9.6,16.2-14.6,24c0,0,0,0,0,0c14.8-2,29.1-4.7,42.5-7.9
		C371.1,345.5,366.3,331.8,360.6,318z"/>
	<path class="st0" d="M375.1,221.2c-13.5-3.2-27.7-5.8-42.5-7.9c5,7.8,9.9,15.8,14.6,24c4.7,8.2,9.2,16.4,13.5,24.6
		C366.3,248.2,371.1,234.5,375.1,221.2C375.1,221.2,375.1,221.2,375.1,221.2z"/>
	<path class="st0" d="M326.7,330.8c7.8-13.6,15-27.2,21.5-40.8c0,0,0,0,0,0c-6.5-13.6-13.7-27.3-21.5-40.8
		c-7.8-13.6-16.1-26.6-24.6-39c0,0,0,0,0,0c-15-1.2-30.4-1.8-46.1-1.8c-15.7,0-31.1,0.6-46.1,1.8c-8.5,12.4-16.8,25.5-24.6,39
		c-7.8,13.6-15,27.3-21.5,40.8c0,0,0,0,0,0c6.5,13.6,13.7,27.3,21.5,40.8c7.8,13.6,16.1,26.6,24.6,39c0,0,0,0,0,0
		c15,1.2,30.4,1.8,46.1,1.8c15.7,0,31.1-0.6,46.1-1.8c0,0,0,0,0,0c0,0,0,0,0,0C310.7,357.5,318.9,344.4,326.7,330.8z M256,336.7
		c-25.8,0-46.7-20.9-46.7-46.7s20.9-46.7,46.7-46.7s46.7,20.9,46.7,46.7S281.8,336.7,256,336.7z"/>
	<path class="st0" d="M284.1,394.6c-9.3,0.4-18.6,0.6-28.1,0.6s-18.8-0.2-28.1-0.6l0,0c9.2,11.8,18.6,22.8,28.1,32.9l0,0
		c0,0,0,0,0,0C265.5,417.4,274.9,406.4,284.1,394.6C284.1,394.6,284.1,394.6,284.1,394.6z"/>
	<path class="st0" d="M179.5,213.4C179.5,213.4,179.5,213.4,179.5,213.4c-14.8,2-29.1,4.7-42.5,7.9c4,13.3,8.8,26.9,14.5,40.8
		c0,0,0,0,0,0c0,0,0,0,0,0c4.3-8.2,8.8-16.5,13.5-24.6C169.6,229.2,174.5,221.2,179.5,213.4z"/>
	<path class="st0" d="M227.9,185.4c9.3-0.4,18.7-0.6,28.1-0.6c9.5,0,18.8,0.2,28.1,0.6c-9.2-11.8-18.6-22.8-28.1-32.9
		C246.5,162.6,237.1,173.6,227.9,185.4L227.9,185.4z"/>
	<path class="st0" d="M272.7,135.9c14.5,15.3,28.8,32.7,42.4,51.7c0,0,0,0,0,0c23.2,2.3,45.4,6,66,10.9c0,0,0,0,0,0
		c1.7-7.6,3.1-15,4.2-22.1c3.2-21.3,3.1-40.2-0.2-54.4c-3-13.1-8.6-22.2-16.6-26.8c-4.3-2.5-9.4-3.7-15.2-3.7
		c-4.9,0-10.4,0.9-16.3,2.7c-14,4.3-30.3,13.6-47.2,27C284.1,125.7,278.4,130.6,272.7,135.9C272.7,135.9,272.7,135.9,272.7,135.9z"
		/>
	<path class="st0" d="M381.1,381.5C381.1,381.5,381.1,381.5,381.1,381.5c-20.5,4.9-42.7,8.6-66,10.9c-13.6,19-27.9,36.4-42.4,51.7
		c0,0,0,0,0,0c5.7,5.3,11.4,10.2,17.1,14.7c16.9,13.4,33.2,22.8,47.2,27c12.9,3.9,23.5,3.6,31.5-1c8-4.6,13.6-13.6,16.6-26.8
		c3.3-14.2,3.4-33,0.2-54.4C384.2,396.4,382.8,389,381.1,381.5z"/>
	<path class="st0" d="M319,504.2c-13.8-5.8-28.5-14.8-43.8-27c-6.4-5.1-12.8-10.6-19.1-16.5c-6.4,5.9-12.8,11.5-19.1,16.5
		c-15.2,12.1-29.9,21.1-43.6,26.9c0,0.1,0,0.1,0.1,0.2c20,5.1,41,7.7,62.6,7.7C277.7,512,298.8,509.3,319,504.2
		C319,504.2,319,504.2,319,504.2z"/>
	<path class="st0" d="M256,0C114.6,0,0,114.6,0,256c0,84.3,40.7,159,103.5,205.7c0,0,0.1-0.1,0.1-0.1c-3.6-16.9-3.8-37.6-0.2-61.4
		c1.2-8.1,2.8-16.3,4.8-24.8l0,0c-8.3-2.6-16.3-5.3-23.9-8.3c-49.5-19.5-76.8-46.9-76.8-77s27.3-57.5,76.8-77
		c7.6-3,15.6-5.8,23.9-8.3c0,0,0,0,0,0c-2-8.5-3.6-16.8-4.8-24.8c-7.8-52.7,2.2-89.9,28.3-105c26.1-15.1,63.4-5.1,105.1,28
		c6.4,5.1,12.8,10.6,19.1,16.6c6.4-6,12.8-11.5,19.1-16.6c41.7-33.1,79-43,105.1-28c26.1,15.1,36.1,52.3,28.3,105
		c-1.2,8.1-2.8,16.4-4.8,24.8c0,0,0,0,0,0c8.3,2.5,16.3,5.3,23.9,8.3c49.5,19.5,76.8,46.9,76.8,77c0,30.1-27.3,57.5-76.8,77
		c-7.6,3-15.6,5.8-23.9,8.3c2,8.5,3.6,16.8,4.8,24.8c3.5,23.6,3.4,44-0.1,60.8c0.2,0.1,0.5,0.1,0.7,0.2C471.6,414.5,512,340,512,256
		C512,114.6,397.4,0,256,0z"/>
	<path class="st0" d="M466,262.2c-10.7-10-26.9-19.4-47-27.4c-6.8-2.7-13.9-5.2-21.3-7.4c-6,20.2-13.9,41.3-23.6,62.6c0,0,0,0,0,0
		c0,0,0,0,0,0c9.6,21.3,17.5,42.3,23.6,62.6c7.4-2.3,14.5-4.8,21.3-7.4c20.1-7.9,36.3-17.4,47-27.4c9.9-9.2,14.9-18.5,14.9-27.8
		C480.9,280.8,475.9,271.4,466,262.2z"/>
	<path class="st0" d="M196.9,392.3C196.9,392.3,196.9,392.3,196.9,392.3c-23.2-2.3-45.4-6-66-10.9c-1.7,7.6-3.1,15-4.2,22.1
		c-3.2,21.3-3.1,40.2,0.2,54.4c3,13.1,8.6,22.2,16.6,26.8c8,4.6,18.6,5,31.5,1c14-4.3,30.3-13.6,47.2-27c5.7-4.5,11.4-9.4,17.1-14.7
		C224.8,428.7,210.5,411.3,196.9,392.3z"/>
	<path class="st0" d="M114.2,352.5C114.2,352.5,114.2,352.5,114.2,352.5c6-20.3,13.9-41.3,23.6-62.6c-9.6-21.3-17.6-42.3-23.6-62.6
		c0,0,0,0,0,0c-7.4,2.3-14.5,4.8-21.3,7.4c-20.1,7.9-36.3,17.4-47,27.4c-9.9,9.2-14.9,18.5-14.9,27.8s5,18.6,14.9,27.8
		c10.7,10,26.9,19.4,47,27.4C99.7,347.8,106.8,350.3,114.2,352.5C114.2,352.5,114.2,352.5,114.2,352.5z"/>
	<path class="st0" d="M196.9,187.6C196.9,187.6,196.9,187.6,196.9,187.6C196.9,187.6,196.9,187.6,196.9,187.6
		c13.6-19,27.9-36.4,42.4-51.7c0,0,0,0,0,0c-5.7-5.3-11.4-10.2-17.1-14.7c-16.9-13.4-33.2-22.8-47.2-27c-5.9-1.8-11.4-2.7-16.3-2.7
		c-5.8,0-10.8,1.3-15.2,3.7c-8,4.6-13.6,13.6-16.6,26.8c-3.3,14.2-3.4,33-0.2,54.4c1.1,7.2,2.5,14.6,4.2,22.1l0,0h0
		C151.5,193.6,173.7,189.9,196.9,187.6z"/>
</g>
</svg>
