<?xml version="1.0" encoding="utf-8"?>
<!-- Generator: Adobe Illustrator 24.2.0, SVG Export Plug-In . SVG Version: 6.00 Build 0)  -->
<svg version="1.1" id="Capa_1" xmlns="http://www.w3.org/2000/svg" xmlns:xlink="http://www.w3.org/1999/xlink" x="0px" y="0px"
	 viewBox="0 0 512 512" style="enable-background:new 0 0 512 512;" xml:space="preserve">
<style type="text/css">
	.st0{fill:#5ADAFD;}
	.st1{fill:#F2F2F2;}
	.st2{enable-background:new    ;}
</style>
<path class="st0" d="M512,256c0,84.3-40.8,159.2-103.7,205.8c-26.3,19.5-56.6,34.1-89.3,42.4c-20.2,5.1-41.3,7.8-63,7.8
	s-42.9-2.7-63-7.8c-32.7-8.3-62.9-22.9-89.3-42.4C40.8,415.1,0,340.3,0,256C0,114.6,114.6,0,256,0S512,114.6,512,256z"/>
<g>
	<path class="st1" d="M408.5,400.1c-1.2-8.1-2.8-16.4-4.8-24.8c-1.7-7.5-3.8-15-6-22.8c-6-20.2-13.9-41.3-23.6-62.6
		c-4.2-9.3-8.7-18.6-13.6-28c-4.3-8.2-8.8-16.5-13.5-24.6c-4.7-8.2-9.6-16.2-14.6-24c-5.7-8.9-11.5-17.4-17.4-25.7
		c-13.6-19-27.9-36.4-42.4-51.7c-5.5-5.8-11.1-11.4-16.7-16.6c-6.4-6-12.8-11.5-19.1-16.6c-41.7-33.1-79-43-105.1-28
		c-26.1,15.1-36.1,52.3-28.3,105c1.2,8.1,2.8,16.4,4.8,24.8c1.7,7.4,3.7,15,6,22.8c6,20.2,13.9,41.3,23.6,62.6
		c4.2,9.3,8.7,18.6,13.6,28c4.3,8.2,8.8,16.5,13.5,24.6s9.6,16.2,14.6,24c5.7,8.9,11.5,17.5,17.4,25.7c13.6,19,27.9,36.4,42.4,51.7
		c5.5,5.8,11.1,11.4,16.7,16.6c6.4,6,12.8,11.5,19.1,16.5c15.3,12.2,30.1,21.2,43.9,27c32.7-8.3,62.9-22.9,89.3-42.4
		C412,444.9,412.1,424.1,408.5,400.1z M385.1,458c-3,13.1-8.6,22.2-16.6,26.8c-8,4.6-18.6,5-31.5,1c-14-4.3-30.3-13.6-47.2-27
		c-5.7-4.5-11.4-9.4-17.1-14.7c-5.6-5.2-11.2-10.7-16.7-16.6c-9.5-10.1-18.9-21.1-28.1-32.9c-6.1-7.9-12.2-16.1-18-24.7
		c-8.5-12.4-16.8-25.5-24.6-39c-7.8-13.6-15-27.3-21.5-40.8c-4.5-9.4-8.6-18.7-12.4-28c-5.7-13.9-10.5-27.5-14.5-40.8
		c-2.3-7.7-4.3-15.3-6-22.7c-1.7-7.6-3.1-15-4.2-22.1c-3.2-21.3-3.1-40.2,0.2-54.4c3-13.1,8.6-22.2,16.6-26.8
		c4.3-2.5,9.4-3.7,15.2-3.7c4.9,0,10.4,0.9,16.3,2.7c14,4.3,30.3,13.6,47.2,27c5.7,4.5,11.4,9.4,17.1,14.7
		c5.6,5.2,11.2,10.7,16.7,16.6c9.5,10.1,18.9,21.1,28.1,32.9c6.1,7.9,12.2,16.1,18,24.7c8.5,12.4,16.8,25.5,24.6,39
		c7.8,13.6,15,27.3,21.5,40.8c4.5,9.4,8.6,18.7,12.4,28c5.7,13.9,10.5,27.5,14.5,40.8c2.3,7.7,4.3,15.3,6,22.7
		c1.7,7.6,3.1,15,4.2,22.1C388.4,425,388.4,443.8,385.1,458z"/>
	<path class="st1" d="M427.7,213c-7.6-3-15.6-5.8-23.9-8.3c-7.3-2.2-14.9-4.3-22.7-6.2c-20.5-4.9-42.7-8.6-66-10.9
		c-10.1-1-20.5-1.8-31-2.2c-9.3-0.4-18.6-0.6-28.1-0.6s-18.8,0.2-28.1,0.6c-10.5,0.5-20.9,1.2-31,2.2c-23.2,2.3-45.4,6-66,10.9
		c-7.8,1.9-15.4,3.9-22.7,6.2c-8.3,2.5-16.3,5.3-23.9,8.3c-49.5,19.5-76.8,46.9-76.8,77c0,30.1,27.3,57.5,76.8,77
		c7.6,3,15.5,5.8,23.9,8.3c7.3,2.2,14.9,4.3,22.7,6.1c20.5,4.9,42.7,8.6,66,10.9c10.1,1,20.5,1.7,31,2.2c9.3,0.4,18.6,0.6,28.1,0.6
		s18.8-0.2,28.1-0.6c10.5-0.5,20.8-1.2,31-2.2c23.2-2.3,45.4-6,66-10.9c7.8-1.9,15.4-3.9,22.7-6.2c8.3-2.5,16.3-5.3,23.9-8.3
		c49.5-19.5,76.8-46.9,76.8-77C504.4,259.9,477.2,232.5,427.7,213z M466,317.8c-10.7,10-26.9,19.4-47,27.4
		c-6.8,2.7-13.9,5.2-21.3,7.4c-7.3,2.2-14.9,4.3-22.7,6.2c-13.5,3.2-27.7,5.8-42.5,7.9c-9.9,1.4-20,2.5-30.4,3.3
		c-15,1.2-30.4,1.8-46.1,1.8s-31.1-0.6-46.1-1.8c-10.4-0.8-20.5-1.9-30.4-3.3c-14.8-2-29.1-4.7-42.5-7.9c-7.8-1.9-15.4-3.9-22.7-6.2
		c-7.4-2.3-14.5-4.8-21.3-7.4c-20.1-7.9-36.3-17.4-47-27.4c-9.9-9.2-14.9-18.5-14.9-27.8s5-18.6,14.9-27.8
		c10.7-10,26.9-19.4,47-27.4c6.8-2.7,13.9-5.2,21.3-7.4c7.3-2.2,14.9-4.3,22.7-6.2c13.5-3.2,27.7-5.8,42.5-7.9
		c9.9-1.4,20-2.5,30.4-3.3c15-1.2,30.4-1.8,46.1-1.8s31.1,0.6,46.1,1.8c10.4,0.8,20.5,1.9,30.4,3.3c14.8,2,29.1,4.7,42.5,7.9
		c7.8,1.9,15.4,3.9,22.7,6.2c7.4,2.3,14.5,4.8,21.3,7.4c20.1,7.9,36.3,17.4,47,27.4c9.9,9.2,14.9,18.5,14.9,27.8
		C480.9,299.2,475.9,308.5,466,317.8z"/>
	<path class="st1" d="M380.2,74.8c-26.1-15.1-63.4-5.1-105.1,28c-6.4,5.1-12.8,10.6-19.1,16.6c-5.6,5.2-11.2,10.8-16.7,16.6
		c-14.5,15.3-28.8,32.7-42.4,51.7c-5.9,8.3-11.8,16.9-17.4,25.7c-5,7.8-9.9,15.8-14.6,24s-9.2,16.4-13.5,24.6
		c-4.8,9.3-9.4,18.7-13.6,28c-9.6,21.3-17.6,42.3-23.6,62.6c-2.3,7.7-4.3,15.3-6,22.8c-2,8.5-3.6,16.8-4.8,24.8
		c-3.6,23.9-3.4,44.7,0.3,61.6c26.3,19.5,56.6,34.1,89.3,42.4c13.8-5.8,28.5-14.8,43.9-27c6.4-5.1,12.8-10.6,19.1-16.5
		c5.6-5.2,11.2-10.8,16.7-16.6c14.5-15.3,28.8-32.7,42.4-51.7c5.9-8.3,11.8-16.9,17.4-25.7c5-7.8,9.9-15.8,14.6-24
		c4.7-8.2,9.2-16.4,13.5-24.6c4.8-9.3,9.4-18.7,13.6-28c9.6-21.3,17.5-42.3,23.6-62.6c2.3-7.7,4.3-15.3,6-22.8
		c2-8.5,3.6-16.8,4.8-24.8C416.4,127.2,406.3,89.9,380.2,74.8z M375.1,221.2c-4,13.3-8.8,26.9-14.5,40.8c-3.8,9.2-7.9,18.6-12.4,28
		c-6.5,13.6-13.7,27.3-21.5,40.8c-7.8,13.6-16.1,26.6-24.6,39c-5.9,8.6-11.9,16.8-18,24.7c-9.2,11.8-18.6,22.8-28.1,32.9
		c-5.5,5.9-11.1,11.4-16.7,16.6c-5.7,5.3-11.4,10.2-17.1,14.7c-16.9,13.4-33.2,22.8-47.2,27c-12.9,3.9-23.5,3.6-31.5-1
		c-8-4.6-13.6-13.6-16.6-26.8c-3.3-14.2-3.4-33-0.2-54.4c1.1-7.2,2.5-14.6,4.2-22.1c1.7-7.4,3.7-15,6-22.7
		c4-13.3,8.8-26.9,14.5-40.8c3.8-9.2,7.9-18.6,12.4-28c6.5-13.6,13.7-27.3,21.5-40.8c7.8-13.6,16.1-26.6,24.6-39
		c5.9-8.6,11.9-16.8,18-24.7c9.2-11.8,18.6-22.8,28.1-32.9c5.5-5.9,11.1-11.4,16.7-16.6c5.7-5.3,11.4-10.2,17.1-14.7
		c16.9-13.4,33.2-22.8,47.2-27c5.9-1.8,11.4-2.7,16.3-2.7c5.8,0,10.9,1.3,15.2,3.7c8,4.6,13.6,13.6,16.6,26.8
		c3.3,14.2,3.4,33,0.2,54.4c-1.1,7.2-2.5,14.6-4.2,22.1C379.4,205.9,377.4,213.5,375.1,221.2z"/>
	
		<ellipse transform="matrix(8.248056e-02 -0.9966 0.9966 8.248056e-02 -54.107 521.19)" class="st1" cx="256" cy="290" rx="46.7" ry="46.7"/>
</g>
<g class="st2">
	<path d="M94.7,334.6c2.8,0,5.4,0.3,7.9,0.8c2.5,0.5,4.8,1.4,6.7,2.7c1.9,1.3,3.5,2.9,4.6,5c1.2,2.1,1.7,4.6,1.7,7.7
		c0,1.7-0.3,3.4-0.8,5c-0.6,1.6-1.3,3.1-2.3,4.4c-1,1.3-2.2,2.4-3.6,3.4c-1.4,0.9-2.9,1.6-4.6,1.9v0.2c4.2,0.6,7.6,2.3,10.1,5.2
		c2.5,2.9,3.8,6.5,3.8,10.8c0,1-0.1,2.2-0.3,3.5c-0.2,1.3-0.6,2.7-1.1,4c-0.6,1.4-1.3,2.7-2.4,4.1c-1,1.3-2.4,2.5-4.2,3.5
		c-1.7,1-3.9,1.8-6.4,2.5c-2.5,0.6-5.6,1-9.1,1H66.9v-65.6H94.7z M94.7,363.4c2.5,0,4.7-0.3,6.5-0.9c1.8-0.6,3.4-1.4,4.6-2.4
		c1.2-1,2.1-2.2,2.8-3.5c0.6-1.3,0.9-2.8,0.9-4.3c0-8.2-4.9-12.3-14.8-12.3H73.2v23.4H94.7z M94.7,394.9c2.3,0,4.5-0.2,6.6-0.6
		c2.1-0.4,3.9-1.1,5.5-2.2c1.6-1,2.8-2.4,3.8-4.2c0.9-1.7,1.4-3.9,1.4-6.6c0-4.2-1.5-7.4-4.5-9.5c-3-2.1-7.2-3.2-12.8-3.2H73.2v26.2
		H94.7z"/>
	<path d="M156.7,353.5c2.8,1.3,5.1,3.2,7,5.4c1.9,2.3,3.3,4.9,4.3,7.9c1,3,1.5,6.3,1.5,9.7c0,3.4-0.5,6.7-1.5,9.7
		c-1,3-2.4,5.7-4.3,7.9c-1.9,2.3-4.2,4.1-7,5.4c-2.8,1.3-6,2-9.6,2c-3.6,0-6.8-0.7-9.6-2c-2.8-1.3-5.1-3.1-7-5.4
		c-1.9-2.3-3.3-4.9-4.3-7.9c-1-3-1.5-6.3-1.5-9.7c0-3.4,0.5-6.7,1.5-9.7c1-3,2.4-5.7,4.3-7.9c1.9-2.3,4.2-4.1,7-5.4
		c2.8-1.3,6-2,9.6-2C150.7,351.5,153.9,352.1,156.7,353.5z M139.9,358.1c-2.1,1.2-3.8,2.7-5.2,4.6c-1.4,1.9-2.4,4.1-3.1,6.5
		c-0.7,2.4-1.1,4.9-1.1,7.4c0,2.5,0.4,5,1.1,7.4c0.7,2.4,1.7,4.6,3.1,6.5c1.4,1.9,3.1,3.4,5.2,4.6c2.1,1.2,4.5,1.7,7.3,1.7
		c2.8,0,5.2-0.6,7.3-1.7c2.1-1.2,3.8-2.7,5.2-4.6c1.4-1.9,2.4-4.1,3.1-6.5c0.7-2.4,1.1-4.9,1.1-7.4c0-2.5-0.4-5-1.1-7.4
		c-0.7-2.4-1.7-4.6-3.1-6.5c-1.4-1.9-3.1-3.4-5.2-4.6c-2.1-1.2-4.5-1.7-7.3-1.7C144.4,356.3,141.9,356.9,139.9,358.1z"/>
	<path d="M207.8,353.5c2.8,1.3,5.1,3.2,7,5.4c1.9,2.3,3.3,4.9,4.3,7.9c1,3,1.5,6.3,1.5,9.7c0,3.4-0.5,6.7-1.5,9.7
		c-1,3-2.4,5.7-4.3,7.9c-1.9,2.3-4.2,4.1-7,5.4c-2.8,1.3-6,2-9.6,2c-3.6,0-6.8-0.7-9.6-2s-5.1-3.1-7-5.4c-1.9-2.3-3.3-4.9-4.3-7.9
		c-1-3-1.5-6.3-1.5-9.7c0-3.4,0.5-6.7,1.5-9.7c1-3,2.4-5.7,4.3-7.9c1.9-2.3,4.2-4.1,7-5.4c2.8-1.3,6-2,9.6-2
		C201.8,351.5,205,352.1,207.8,353.5z M191,358.1c-2.1,1.2-3.8,2.7-5.2,4.6c-1.4,1.9-2.4,4.1-3.1,6.5c-0.7,2.4-1.1,4.9-1.1,7.4
		c0,2.5,0.4,5,1.1,7.4c0.7,2.4,1.7,4.6,3.1,6.5c1.4,1.9,3.1,3.4,5.2,4.6c2.1,1.2,4.5,1.7,7.3,1.7c2.8,0,5.2-0.6,7.3-1.7
		c2.1-1.2,3.8-2.7,5.2-4.6c1.4-1.9,2.4-4.1,3.1-6.5c0.7-2.4,1.1-4.9,1.1-7.4c0-2.5-0.4-5-1.1-7.4c-0.7-2.4-1.7-4.6-3.1-6.5
		c-1.4-1.9-3.1-3.4-5.2-4.6c-2.1-1.2-4.5-1.7-7.3-1.7C195.5,356.3,193,356.9,191,358.1z"/>
	<path d="M248.1,352.8v4.9h-9.6v32c0,1.9,0.3,3.4,0.8,4.5c0.5,1.1,1.8,1.7,3.9,1.8c1.7,0,3.3-0.1,5-0.3v4.9c-0.9,0-1.7,0-2.6,0.1
		c-0.9,0.1-1.7,0.1-2.6,0.1c-3.9,0-6.6-0.7-8.1-2.3c-1.5-1.5-2.3-4.3-2.2-8.3v-32.4h-8.3v-4.9h8.3v-14.2h5.8v14.2H248.1z"/>
	<path d="M283.7,362.1c-0.7-1.3-1.6-2.4-2.7-3.3c-1.1-0.9-2.4-1.5-3.9-1.9c-1.5-0.4-3-0.6-4.7-0.6c-1.3,0-2.6,0.1-3.9,0.4
		c-1.3,0.3-2.5,0.7-3.6,1.4c-1.1,0.6-2,1.5-2.7,2.5c-0.7,1-1,2.3-1,3.9c0,1.3,0.3,2.4,1,3.3c0.6,0.9,1.5,1.6,2.4,2.3
		c1,0.6,2.1,1.1,3.2,1.5c1.2,0.4,2.2,0.7,3.2,1l7.7,1.7c1.7,0.2,3.3,0.7,4.9,1.3c1.6,0.6,3.1,1.5,4.3,2.5c1.3,1,2.3,2.3,3.1,3.9
		c0.8,1.5,1.2,3.3,1.2,5.4c0,2.6-0.6,4.8-1.7,6.6c-1.2,1.8-2.7,3.3-4.5,4.4c-1.8,1.1-3.8,1.9-6.1,2.4c-2.3,0.5-4.5,0.7-6.7,0.7
		c-5.6,0-10.1-1.3-13.6-4c-3.5-2.6-5.4-6.9-5.9-12.7h5.8c0.2,3.9,1.7,6.9,4.3,8.9c2.6,2,5.8,3,9.7,3c1.4,0,2.9-0.2,4.4-0.5
		c1.5-0.3,2.9-0.8,4.2-1.6s2.3-1.7,3.2-2.8c0.8-1.1,1.2-2.5,1.2-4.2c0-1.4-0.3-2.6-0.9-3.5c-0.6-0.9-1.4-1.7-2.3-2.4
		c-1-0.6-2.1-1.2-3.4-1.6c-1.3-0.4-2.5-0.8-3.8-1.1l-7.4-1.7c-1.9-0.5-3.6-1.1-5.2-1.7c-1.6-0.6-3-1.4-4.2-2.4
		c-1.2-0.9-2.1-2.1-2.8-3.5c-0.7-1.4-1-3.1-1-5.1c0-2.4,0.5-4.4,1.6-6.2c1.1-1.7,2.5-3.1,4.2-4.1c1.7-1,3.6-1.8,5.7-2.3
		c2.1-0.5,4.2-0.7,6.3-0.7c2.4,0,4.6,0.3,6.7,0.9c2.1,0.6,3.9,1.6,5.4,2.8c1.6,1.3,2.8,2.9,3.7,4.8c0.9,1.9,1.4,4.1,1.6,6.7h-5.8
		C284.8,364.9,284.4,363.4,283.7,362.1z"/>
	<path d="M319.5,352.8v4.9h-9.6v32c0,1.9,0.3,3.4,0.8,4.5c0.5,1.1,1.8,1.7,3.9,1.8c1.7,0,3.3-0.1,5-0.3v4.9c-0.9,0-1.7,0-2.6,0.1
		c-0.9,0.1-1.7,0.1-2.6,0.1c-3.9,0-6.6-0.7-8.1-2.3c-1.5-1.5-2.3-4.3-2.2-8.3v-32.4h-8.3v-4.9h8.3v-14.2h5.8v14.2H319.5z"/>
	<path d="M333.2,352.8V364h0.2c1.5-3.9,3.8-6.8,6.8-8.9c3.1-2.1,6.8-3,11.1-2.8v5.8c-2.6-0.1-5,0.2-7.2,1.1c-2.1,0.8-4,2-5.6,3.5
		c-1.6,1.5-2.8,3.4-3.6,5.5c-0.9,2.1-1.3,4.4-1.3,6.9v25.3h-5.8v-47.4H333.2z"/>
	<path d="M358,360.2c1-2,2.3-3.7,4-5c1.7-1.3,3.7-2.2,5.9-2.8c2.3-0.6,4.8-0.9,7.5-0.9c2.1,0,4.2,0.2,6.2,0.6c2.1,0.4,4,1.1,5.6,2.3
		c1.7,1.1,3,2.7,4,4.6c1,2,1.6,4.6,1.6,7.8v25.2c0,2.3,1.1,3.5,3.4,3.5c0.7,0,1.3-0.1,1.8-0.4v4.9c-0.7,0.1-1.3,0.2-1.8,0.3
		c-0.5,0.1-1.2,0.1-2,0.1c-1.5,0-2.7-0.2-3.5-0.6c-0.9-0.4-1.6-1-2.1-1.7c-0.5-0.7-0.8-1.6-1-2.6c-0.2-1-0.2-2.1-0.2-3.4h-0.2
		c-1,1.5-2.1,2.9-3.2,4.1c-1.1,1.2-2.3,2.2-3.6,3c-1.3,0.8-2.8,1.4-4.5,1.8c-1.7,0.4-3.7,0.6-6,0.6c-2.2,0-4.3-0.3-6.2-0.8
		c-1.9-0.5-3.6-1.3-5.1-2.5c-1.4-1.1-2.6-2.6-3.4-4.3c-0.8-1.7-1.2-3.8-1.2-6.2c0-3.3,0.7-5.9,2.2-7.8c1.5-1.9,3.4-3.3,5.8-4.3
		c2.4-1,5.1-1.7,8.2-2.1c3-0.4,6.1-0.8,9.2-1.1c1.2-0.1,2.3-0.3,3.2-0.5c0.9-0.2,1.7-0.5,2.3-1c0.6-0.5,1.1-1.1,1.4-1.9
		c0.3-0.8,0.5-1.8,0.5-3.1c0-2-0.3-3.6-1-4.8c-0.6-1.3-1.5-2.3-2.7-3c-1.1-0.7-2.5-1.2-4-1.5c-1.5-0.3-3.1-0.4-4.8-0.4
		c-3.7,0-6.7,0.9-9,2.6c-2.3,1.7-3.6,4.5-3.7,8.4h-5.8C356.4,364.6,357,362.2,358,360.2z M386.9,374.3c-0.4,0.7-1.1,1.2-2.1,1.5
		c-1,0.3-2,0.5-2.8,0.6c-2.5,0.4-5,0.8-7.6,1.1c-2.6,0.3-5,0.8-7.1,1.5c-2.1,0.7-3.9,1.6-5.3,2.9c-1.4,1.3-2.1,3-2.1,5.4
		c0,1.5,0.3,2.8,0.9,3.9c0.6,1.1,1.4,2.1,2.3,2.9c1,0.8,2.1,1.5,3.4,1.9c1.3,0.4,2.6,0.6,4,0.6c2.2,0,4.3-0.3,6.3-1
		c2-0.7,3.8-1.7,5.3-2.9c1.5-1.3,2.7-2.8,3.6-4.7c0.9-1.8,1.3-3.9,1.3-6.2v-7.5H386.9z"/>
	<path d="M409.8,352.8v9h0.2c1.3-3.3,3.5-5.9,6.6-7.7c3-1.8,6.5-2.7,10.3-2.7c3.6,0,6.8,0.7,9.4,2c2.7,1.3,4.9,3.2,6.7,5.5
		c1.8,2.3,3.1,5,4,8c0.9,3,1.3,6.2,1.3,9.6c0,3.4-0.4,6.6-1.3,9.6c-0.9,3-2.2,5.7-4,8c-1.8,2.3-4,4.1-6.7,5.4c-2.7,1.3-5.8,2-9.4,2
		c-1.7,0-3.4-0.2-5.1-0.6c-1.7-0.4-3.3-1.1-4.8-1.9c-1.5-0.9-2.8-1.9-3.9-3.2c-1.1-1.3-2-2.8-2.6-4.5h-0.2v26.5h-5.8v-64.9H409.8z
		 M441.5,369.2c-0.6-2.4-1.5-4.6-2.8-6.5c-1.3-1.9-2.9-3.4-4.8-4.6c-2-1.2-4.3-1.8-7.1-1.8c-3.2,0-5.8,0.6-8,1.7
		c-2.1,1.1-3.9,2.6-5.1,4.4c-1.3,1.8-2.2,4-2.7,6.4c-0.5,2.5-0.8,5-0.8,7.7c0,2.5,0.3,4.9,0.9,7.3c0.6,2.4,1.5,4.6,2.8,6.5
		c1.3,1.9,3,3.4,5.1,4.6s4.7,1.8,7.8,1.8c2.8,0,5.1-0.6,7.1-1.8c2-1.2,3.6-2.7,4.8-4.6c1.3-1.9,2.2-4.1,2.8-6.5
		c0.6-2.4,0.9-4.9,0.9-7.3C442.4,374.1,442.1,371.7,441.5,369.2z"/>
</g>
</svg>
