<?xml version="1.0" encoding="utf-8"?>
<!-- Generator: Adobe Illustrator 24.2.0, SVG Export Plug-In . SVG Version: 6.00 Build 0)  -->
<svg version="1.1" id="Capa_1" xmlns="http://www.w3.org/2000/svg" xmlns:xlink="http://www.w3.org/1999/xlink" x="0px" y="0px"
	 viewBox="0 0 512 512" style="enable-background:new 0 0 512 512;" xml:space="preserve">
<style type="text/css">
	.st0{fill:#FEFEFE;}
	.st1{fill:#D73028;}
	.st2{fill:#A42122;}
</style>
<g>
	<path class="st0" d="M512.4,256c0,83.9,0,167.9,0.1,251.8c0,3.2-0.4,4.2-4,4.2c-168.1-0.1-336.1-0.1-504.2,0
		c-3.2,0-3.8-0.8-3.8-3.9C0.6,340.1,0.6,172,0.5,3.9C0.5,0.2,1.7,0,4.8,0c167.9,0.1,335.8,0.1,503.7,0c3.5,0,4.1,0.8,4.1,4.1
		C512.4,88.1,512.4,172,512.4,256z M4.7,315c-0.1,14.2,0.4,28.3-0.4,42.5c-0.5,8.5,3.1,13.5,9.8,17.3c1.3,0.7,2.6,1.5,3.9,2.2
		c24.5,12.3,50.1,22.1,75.4,32.8c44.2,18.7,88.9,36.2,132.7,56c17,7.7,34,8.6,51.2,1.1c10.2-4.4,20.1-9.5,30.3-14.1
		c52.9-24.1,106.8-46,159.8-69.8c11.5-5.2,23.2-10,33.5-17.6c3.3-2.5,6.6-5.3,6.6-10c0-15.8-0.1-31.6-0.2-47.5
		c0.9-4.1-0.9-7-4.2-9.3c-3.7-2.6-7.8-4.4-11.8-6.2c-1.2-0.5-3.3-0.2-3-2.5c5.6-2.3,10.5-5.6,15-9.6c2.4-2.1,4.2-4.7,4.2-8.1
		c-0.1-15.8-0.1-31.5-0.2-47.3c0.9-4.2-1-7-4.2-9.3c-3.4-2.4-7.2-4-11-5.8c-2.6-1.2-5.9-1.1-7.8-3.9c6.5-2.6,12.4-6.2,17.9-10.6
		c2.9-2.3,5.4-5,5.3-9.1c-0.1-15.8-0.1-31.5-0.2-47.3c0.9-4.2-1-7-4.2-9.3c-4.1-3-8.7-4.9-13.3-6.7c-14.1-5.5-28.2-10.8-42.3-16.3
		c-50.6-19.7-101.2-39.5-151.8-59.2c-13.3-5.2-27-8.4-41.5-5.5c-9.6,2-19,5-28.1,8.5c-67.2,25.2-133.9,51.7-200.8,77.8
		c-5.7,2.2-11.4,4.5-16.4,8.4c-3.1,2.4-5.1,5.3-4.2,9.4c-0.1,15,0.1,29.9-0.3,44.9c-0.2,5.9,2.1,10,6.8,12.9
		c5.2,3.2,10.6,6.1,15.9,9.2c-5.1,3.3-11.3,4.6-16.2,8.2c-3.7,2.7-7.3,5.4-6.1,10.8c-0.1,15.3,0,30.6-0.3,45.9
		c-0.1,4.5,1.6,7.5,4.8,10.3c4.5,4,10.2,6,15.1,9.5c-5.4,1.7-10.5,4.2-15.1,7.5C5.9,307.7,3.7,310.6,4.7,315z"/>
	<path class="st1" d="M4.7,146.1c-0.9-4.2,1-7,4.2-9.4c4.9-3.8,10.6-6.1,16.4-8.4c66.9-26,133.6-52.5,200.8-77.8
		c9.2-3.4,18.5-6.5,28.1-8.5c14.5-3,28.1,0.3,41.5,5.5c50.6,19.7,101.2,39.5,151.8,59.2c14.1,5.5,28.2,10.8,42.3,16.3
		c4.7,1.8,9.2,3.7,13.3,6.7c3.2,2.3,5.1,5.2,4.2,9.3c-2.4,3-4.7,6.1-8.1,8c-6.8,3.9-13.5,7.7-20.6,11c-28.2,13.1-56.9,25-85.3,37.4
		c-36.7,16-73.8,31.1-109.7,49c-17.7,8.8-36,10.9-54.3,2.7c-31.4-14.1-63.3-26.9-94.9-40.3c-34.4-14.5-69-28.7-103.3-43.4
		C21.3,159.4,11.3,155.2,4.7,146.1z M153.4,117.9c-10.7-0.2-21.3,0.8-31.7,3.2c-9,2.1-17.7,4.8-25,10.7c-7.9,6.4-7.7,14.2,0.2,20.5
		c3.5,2.8,7.5,5.1,11.7,6.5c29.3,9.9,58.8,9.9,88.2,0.3c5.5-1.8,10.7-4.6,14.8-8.9c5-5.3,5.1-11,0.1-16.4c-3.2-3.5-7.3-5.8-11.6-7.6
		C185.2,119.7,169.4,117.9,153.4,117.9z M297.4,141.4c22,8.7,43.1,17.1,64.2,25.6c2.9,1.2,5.7,1.2,8.7,0c21-8.3,42-16.5,63-24.9
		c2.6-1,5.7-1.4,7.9-4c-0.9-0.5-1.5-0.8-2-1.1c-19.8-7.8-39.6-15.4-59.2-23.6c-4.6-1.9-8.2-1.8-12.6,0C354,119,340.5,124,327,129.4
		C317.4,133.2,307.8,137.2,297.4,141.4z M185.4,184.8c1.7,0.9,2.2,1.3,2.7,1.5c25,10.4,50,20.7,74.9,31.2c2.4,1,3.5,0.3,4.8-1.7
		c5.8-8.7,11.8-17.3,17.7-26c5-7.4,10.1-14.7,15.6-22.9C262.3,173,224.5,178.8,185.4,184.8z M202.9,101.8c4,0.5,6.6,0.9,9.2,1.1
		c10.1,0.9,20.2,2.6,30.3,2.5c8.5-0.1,12.9,3.5,16.3,10.7c2.6,5.5,6.3,10.6,9.9,16.5c3-7.3,5.7-13.5,8.1-19.9c1-2.7,2.5-3.7,5.4-3.9
		c12.7-1.1,25.4-2.6,39.6-4.1c-10.8-4.1-20.1-7.8-29.6-11c-3.4-1.2-3.8-2.6-2.4-5.6c2.4-5.5,5.2-10.8,6.8-17.3
		c-9.7,3.2-18.7,6.1-27.6,9.2c-3.3,1.2-6.3,1.2-9.6-0.2c-9.7-4-19.6-7.7-30.6-12c3.5,6.5,6.2,12,9.4,17.2c1.9,3.2,0.8,4.1-2.1,5.1
		C225.4,93.7,214.8,97.6,202.9,101.8z"/>
	<path class="st2" d="M24.3,297.8c-4.9-3.4-10.5-5.5-15.1-9.5c-3.2-2.8-4.9-5.9-4.8-10.3c0.3-15.3,0.2-30.6,0.3-45.9
		c3.9,5.6,9.5,9.2,15.4,12.2c13.8,7,28.2,12.7,42.4,18.7c31.1,13.1,62.2,25.9,93.3,39c21.1,8.9,42.2,17.9,63.3,26.8
		c9.6,4.1,18.9,8.7,29.7,9.3c13.6,0.7,25.9-3.1,37.8-9.2c19.7-10.1,40.1-18.6,60.3-27.6c22.8-10.1,45.8-19.6,68.7-29.5
		c22.2-9.7,44.5-19.3,66.5-29.4c9.3-4.3,18.7-8.8,25.1-17.4c0.1,15.8,0.1,31.5,0.2,47.3c0,3.5-1.8,6-4.2,8.1
		c-4.5,3.9-9.4,7.3-15,9.6c-1.9,1.1-3.6,2.4-5.6,3.2c-23.4,10.4-46.7,20.9-70.1,31c-44.2,19-88.6,37.6-132,58.5
		c-15.5,7.5-32,9-48.3,2.4c-17.1-6.9-33.8-14.7-50.8-21.8c-39-16.3-78.2-32.4-117.2-48.7C50.8,309.2,37.6,303.5,24.3,297.8z"/>
	<path class="st2" d="M4.7,146.1c6.6,9.1,16.5,13.3,26.3,17.4c34.3,14.7,68.9,28.9,103.3,43.4c31.7,13.3,63.6,26.2,94.9,40.3
		c18.3,8.2,36.6,6.1,54.3-2.7c35.9-17.8,73-33,109.7-49c28.5-12.4,57.2-24.3,85.3-37.4c7.1-3.3,13.9-7.2,20.6-11
		c3.4-1.9,5.7-5,8.1-8c0.1,15.8,0.1,31.5,0.2,47.3c0,4.1-2.5,6.8-5.3,9.1c-5.4,4.4-11.4,8-17.9,10.6c-2.3,2-5.2,2.8-8,4
		c-28.4,12.5-56.7,25.2-85.3,37.5c-36.6,15.8-73.4,31.1-109.2,48.6c-18.1,8.8-36.5,9.4-55.2,0.9c-17.8-8.1-35.9-15.6-54-23.2
		c-21.7-9.1-43.6-18-65.3-27.1c-26.8-11.2-53.5-22.5-80.3-33.8c-5.3-3.1-10.7-6-15.9-9.2c-4.6-2.9-7-6.9-6.8-12.9
		C4.9,176,4.7,161.1,4.7,146.1z"/>
	<path class="st2" d="M507.3,308c0.1,15.8,0.1,31.6,0.2,47.5c0,4.7-3.3,7.5-6.6,10c-10.2,7.6-21.9,12.4-33.5,17.6
		c-53,23.8-106.9,45.6-159.8,69.8c-10.1,4.6-20.1,9.7-30.3,14.1c-17.2,7.5-34.2,6.6-51.2-1.1c-43.7-19.8-88.5-37.3-132.7-56
		C68.2,399.2,42.5,389.4,18,377c-1.3-0.7-2.6-1.5-3.9-2.2C7.4,371,3.8,366,4.3,357.5c0.8-14.1,0.3-28.3,0.4-42.5
		c3.9,5.6,9.4,9.3,15.5,12.2c31,14.9,63.1,27.3,94.8,40.6c37.8,15.9,75.9,31,113.3,47.9c11.2,5.1,23,6.6,35.1,4.5
		c9.2-1.6,17.7-5.5,26-9.8c16.6-8.5,33.8-15.7,50.8-23.3c25.1-11.1,50.4-21.6,75.5-32.5c22.2-9.6,44.5-19.3,66.5-29.4
		C491.4,321.1,501.1,316.9,507.3,308z"/>
	<path class="st1" d="M27.1,213c26.8,11.3,53.5,22.6,80.3,33.8c21.7,9.1,43.6,17.9,65.3,27.1c18.1,7.6,36.2,15.1,54,23.2
		c18.7,8.5,37.1,7.9,55.2-0.9c35.8-17.5,72.6-32.8,109.2-48.6c28.5-12.3,56.8-25,85.3-37.5c2.7-1.2,5.6-2,8-4
		c1.9,2.7,5.2,2.6,7.8,3.9c3.8,1.8,7.6,3.4,11,5.8c3.2,2.3,5.2,5.2,4.2,9.3c-6.4,8.6-15.8,13.2-25.1,17.4
		c-22.1,10.1-44.3,19.7-66.5,29.4c-22.8,9.9-45.9,19.4-68.7,29.5c-20.2,8.9-40.6,17.5-60.3,27.6c-11.9,6.1-24.2,9.9-37.8,9.2
		c-10.8-0.6-20.1-5.2-29.7-9.3c-21.1-8.9-42.2-18-63.3-26.8c-31.1-13-62.2-25.9-93.3-39c-14.2-6-28.6-11.6-42.4-18.7
		c-6-3-11.5-6.6-15.4-12.2c-1.2-5.4,2.4-8.2,6.1-10.8C15.8,217.7,21.9,216.3,27.1,213z"/>
	<path class="st1" d="M507.3,308c-6.2,8.8-15.9,13.1-25.1,17.4c-22,10.2-44.3,19.8-66.5,29.4c-25.1,10.9-50.5,21.4-75.5,32.5
		c-17,7.5-34.2,14.7-50.8,23.3c-8.3,4.3-16.8,8.2-26,9.8c-12,2.1-23.9,0.5-35.1-4.5c-37.4-16.9-75.5-32-113.3-47.9
		c-31.7-13.3-63.8-25.8-94.8-40.6c-6.1-2.9-11.5-6.6-15.5-12.2c-1.1-4.4,1.2-7.4,4.5-9.7c4.6-3.3,9.7-5.8,15.1-7.5
		c13.3,5.6,26.5,11.4,39.9,16.9c39.1,16.3,78.2,32.4,117.2,48.7c17,7.1,33.7,14.8,50.8,21.8c16.3,6.6,32.8,5.1,48.3-2.4
		c43.4-20.9,87.8-39.4,132-58.5c23.5-10.1,46.8-20.6,70.1-31c2-0.9,3.7-2.1,5.6-3.2c-0.3,2.3,1.9,2,3,2.5c4.1,1.8,8.2,3.5,11.8,6.2
		C506.3,301.1,508.2,303.9,507.3,308z"/>
	<path class="st0" d="M153.4,117.9c16.1,0,31.9,1.8,46.8,8.3c4.3,1.9,8.4,4.1,11.6,7.6c5,5.4,4.9,11-0.1,16.4
		c-4.1,4.4-9.3,7.1-14.8,8.9c-29.4,9.6-58.8,9.6-88.2-0.3c-4.3-1.4-8.2-3.7-11.7-6.5c-7.9-6.3-8.1-14.1-0.2-20.5
		c7.3-5.9,16-8.6,25-10.7C132.1,118.7,142.7,117.7,153.4,117.9z"/>
	<path class="st2" d="M297.4,141.4c10.4-4.2,20-8.2,29.6-12c13.4-5.3,26.9-10.4,40.3-15.9c4.4-1.8,8-2,12.6,0
		c19.6,8.2,39.4,15.8,59.2,23.6c0.6,0.2,1.1,0.6,2,1.1c-2.3,2.6-5.3,3-7.9,4c-21,8.3-42,16.6-63,24.9c-3,1.2-5.7,1.2-8.7,0
		C340.5,158.5,319.4,150.1,297.4,141.4z"/>
	<path class="st0" d="M185.4,184.8c39-6,76.9-11.8,115.8-17.8c-5.6,8.2-10.6,15.5-15.6,22.9c-5.9,8.6-11.9,17.3-17.7,26
		c-1.3,1.9-2.4,2.7-4.8,1.7c-24.9-10.5-50-20.8-74.9-31.2C187.6,186.1,187.1,185.7,185.4,184.8z"/>
	<path class="st0" d="M202.9,101.8c11.9-4.3,22.5-8.1,33.1-11.8c2.9-1,4.1-2,2.1-5.1c-3.2-5.2-5.9-10.7-9.4-17.2
		c11,4.3,20.8,8,30.6,12c3.3,1.4,6.2,1.4,9.6,0.2c8.9-3.1,17.9-6,27.6-9.2c-1.7,6.5-4.5,11.8-6.8,17.3c-1.3,3.1-1,4.5,2.4,5.6
		c9.5,3.3,18.9,7,29.6,11c-14.2,1.5-26.9,3-39.6,4.1c-2.9,0.3-4.4,1.2-5.4,3.9c-2.4,6.4-5.1,12.6-8.1,19.9
		c-3.6-5.9-7.3-10.9-9.9-16.5c-3.4-7.1-7.8-10.8-16.3-10.7c-10.1,0.1-20.2-1.6-30.3-2.5C209.5,102.7,206.9,102.3,202.9,101.8z"/>
</g>
</svg>
