<?xml version="1.0" encoding="utf-8"?>
<!-- Generator: Adobe Illustrator 24.2.0, SVG Export Plug-In . SVG Version: 6.00 Build 0)  -->
<svg version="1.1" id="Capa_1" xmlns="http://www.w3.org/2000/svg" xmlns:xlink="http://www.w3.org/1999/xlink" x="0px" y="0px"
	 viewBox="0 0 512 512" style="enable-background:new 0 0 512 512;" xml:space="preserve">
<style type="text/css">
	.st0{fill:none;}
	.st1{fill:#764ABC;}
</style>
<g>
	<path class="st0" d="M0,0h512v512H0V0z"/>
	<path class="st1" d="M354.8,352.4c-36,73.6-99,123.1-182.4,139.4c-12.8,3.1-25.9,4.7-39.1,4.6c-48,0-92-20-113.4-52.8
		C-8.8,400-18.6,307.5,76,239c1.9,10.4,5.8,24.8,8.4,33.2c-18.6,13.8-33.8,31.6-44.4,52.1c-17.6,34.6-15.6,69.1,5.2,101
		c14.4,21.5,37.2,34.6,66.5,38.6c36.6,4.6,73.8-2.4,106.2-20c50.8-26.7,84.7-58.6,106.9-102.3c-6.3-6.5-10-15-10.4-24
		c-0.7-20.1,15-37,35.1-37.7h1.4c20.2-0.1,36.7,16.2,36.8,36.4c0.1,18.8-14.1,34.6-32.8,36.6L354.8,352.4z M469.4,271.6
		c48.8,55.4,50.2,120.5,31.3,158.3c-17.6,34.5-64,69.1-126.4,69.1c-29.1-0.6-57.8-7.5-84-20.2c9.2-6.5,22.2-17,29.3-23.5
		c20.2,8.8,42,13.4,64,13.7c40.4,0,71-18.9,89.2-53.4c11.7-22.8,12.4-49.5,1.3-76.9c-13.6-34.4-37.8-63.6-69.1-83.4
		c-41.1-27.7-89.5-42.4-139-42.4h-11.7c-5.6,12.9-18,21.5-32,22.2h-1.2c-20.2-0.2-36.3-16.8-36.1-37c0.2-19.4,15.5-35.2,34.9-36h1.3
		c13.5,0,25.8,7.6,32,19.6h10.4C347,181.7,420,213.6,469.4,271.6z M138.4,363.6c-0.7-6.6,0.9-13.3,4.6-18.9
		c-36.5-63.2-56-143.3-26-226.7c21.5-62.7,75.6-105,134.2-105c62.6,0,127.7,54.8,135.5,160.3c-9.8-3.2-24-8-32.6-9.8
		C352,129,322.8,43,253.8,44.2c-24.8,0.7-61.2,12.4-80,36.5c-23.2,28.7-36.7,64.1-38.6,101c-4.4,50.6,7.5,101.3,33.9,144.6
		c1.5-0.5,3-0.8,4.6-0.6h1.3c20.1-0.4,36.8,15.7,37.1,35.8c0.4,20.1-15.7,36.8-35.8,37.1h-1.3c-19.6-0.1-35.7-15.6-36.5-35.2V363.6z
		"/>
</g>
</svg>
