<?xml version="1.0" encoding="utf-8"?>
<!-- Generator: Adobe Illustrator 24.2.0, SVG Export Plug-In . SVG Version: 6.00 Build 0)  -->
<svg version="1.1" id="Capa_1" xmlns="http://www.w3.org/2000/svg" xmlns:xlink="http://www.w3.org/1999/xlink" x="0px" y="0px"
	 viewBox="0 0 512 512" style="enable-background:new 0 0 512 512;" xml:space="preserve">
<style type="text/css">
	.st0{fill:#004194;}
	.st1{enable-background:new    ;}
</style>
<path class="st0" d="M512,256c0,33.4-6.4,65.2-18,94.4c-6.2,15.6-13.9,30.5-22.9,44.5c-11.2,17.4-24.5,33.3-39.5,47.4
	c-8.8,8.3-18.1,15.9-28,22.9C361.8,494.7,310.9,512,256,512s-105.8-17.3-147.5-46.7C96.1,456.5,84.6,446.7,74,436
	C28.2,389.8,0,326.2,0,256S28.2,122.2,74,76c11.2-11.4,23.5-21.7,36.7-30.8C152,16.7,202,0,256,0s104,16.7,145.3,45.2
	c10.1,6.9,19.6,14.6,28.6,22.9c15.7,14.5,29.5,31,41.2,49c9,13.9,16.7,28.8,22.9,44.4C505.6,190.8,512,222.6,512,256z"/>
<g class="st1">
	<path d="M266.4,149.7c10.5,0,19.5,1.4,26.9,4.2c7.4,2.8,13.5,6.7,18.2,11.8c4.7,5.1,8,11.1,10.1,18c2.1,6.9,3.1,14.5,3.1,22.6
		c0,14.3-2.9,25.8-8.6,34.5c-5.8,8.7-15,14.1-27.7,16.1v0.6c13.3,1.2,22.4,5.9,27.4,14c5,8.1,7.4,19.3,7.4,33.6v18.2
		c0,2.8,0,5.7,0,8.6s0.1,5.8,0.3,8.5c0.2,2.7,0.5,5.1,0.9,7.3c0.4,2.2,0.9,3.9,1.5,5.1c0.8,1.2,1.6,2.3,2.4,3.4
		c0.8,1.1,2.1,2.1,3.9,3.1v3h-58.9c-1.4-2.8-2.4-6.1-3.1-9.8c-0.7-3.8-1.2-7.5-1.5-11.3c-0.3-3.8-0.5-7.4-0.6-10.9
		c-0.1-3.5-0.1-6.3-0.1-8.5v-14.3c0-6-0.3-10.9-0.9-14.9c-0.6-4-1.6-7.1-3.1-9.4c-1.5-2.3-3.4-3.9-5.7-4.8c-2.3-0.9-5.1-1.3-8.5-1.3
		h-14.6v85.1h-55.4V149.7H266.4z M246.2,239.6c7.9,0,13.8-2.3,17.6-7c3.8-4.7,5.7-10.8,5.7-18.3c0-8.9-1.8-15.3-5.5-19
		c-3.7-3.8-9.7-5.7-18-5.7h-10.7v50H246.2z"/>
</g>
</svg>
