<?xml version="1.0" encoding="utf-8"?>
<!-- Generator: Adobe Illustrator 24.2.0, SVG Export Plug-In . SVG Version: 6.00 Build 0)  -->
<svg version="1.1" id="Capa_1" xmlns="http://www.w3.org/2000/svg" xmlns:xlink="http://www.w3.org/1999/xlink" x="0px" y="0px"
	 viewBox="0 0 512 512" style="enable-background:new 0 0 512 512;" xml:space="preserve">
<style type="text/css">
	.st0{fill-rule:evenodd;clip-rule:evenodd;fill:#CC6699;}
	.st1{fill:#FFFFFF;}
</style>
<g>
	<path class="st0" d="M256,0c141.4,0,256,114.6,256,256S397.4,512,256,512S0,397.4,0,256S114.6,0,256,0L256,0L256,0z"/>
	<path class="st1" d="M205.1,341.3c3.7,13.8,3.3,26.6-0.5,38.3c-0.4,1.3-0.9,2.6-1.4,3.8c-0.5,1.3-1.1,2.5-1.7,3.7
		c-3,6.2-6.9,11.9-11.8,17.2c-14.9,16.2-35.7,22.4-44.6,17.2c-9.6-5.6-4.8-28.5,12.4-46.7c18.6-19.6,45.2-32.2,45.2-32.2l0-0.1
		C203.6,342.1,204.3,341.7,205.1,341.3L205.1,341.3z M416.6,109.6c-11.6-45.5-87-60.4-158.3-35.1c-42.5,15.1-88.4,38.8-121.5,69.7
		c-39.3,36.8-45.6,68.8-43,82.1c9.1,47.2,73.7,78,100.3,100.9v0.1c-7.8,3.9-65.2,32.9-78.6,62.5c-14.2,31.3,2.3,53.8,13.1,56.8
		c33.7,9.4,68.2-7.5,86.8-35.2c17.9-26.7,16.4-61.2,8.6-78.4c10.7-2.8,23.3-4.1,39.2-2.2c44.9,5.2,53.7,33.3,52,45
		c-1.7,11.7-11.1,18.2-14.3,20.1c-3.2,1.9-4.1,2.6-3.8,4.1c0.4,2.1,1.8,2,4.5,1.6c3.7-0.6,23.6-9.5,24.4-31.2
		c1.1-27.5-25.3-58.3-71.9-57.5c-19.2,0.3-31.3,2.2-40,5.4c-0.6-0.7-1.3-1.5-2-2.2c-28.9-30.8-82.2-52.6-79.9-93.9
		c0.8-15,6.1-54.7,102.5-102.7C313.7,80.2,377,91,387.9,115c15.6,34.3-33.8,98-115.8,107.2c-31.3,3.5-47.7-8.6-51.8-13.1
		c-4.3-4.7-5-5-6.6-4.1c-2.6,1.5-1,5.6,0,8.1c2.4,6.4,12.5,17.7,29.6,23.3c15.1,4.9,51.8,7.7,96.1-9.5
		C389.2,207.8,428,154.3,416.6,109.6L416.6,109.6z"/>
</g>
</svg>
