<?xml version="1.0" encoding="utf-8"?>
<!-- Generator: Adobe Illustrator 24.2.0, SVG Export Plug-In . SVG Version: 6.00 Build 0)  -->
<svg version="1.1" id="Capa_1" xmlns="http://www.w3.org/2000/svg" xmlns:xlink="http://www.w3.org/1999/xlink" x="0px" y="0px"
	 viewBox="0 0 512 512" style="enable-background:new 0 0 512 512;" xml:space="preserve">
<style type="text/css">
	.st0{fill:#D42700;}
	.st1{enable-background:new    ;}
</style>
<path class="st0" d="M512,256c0,33.4-6.4,65.2-18,94.4c-6.2,15.6-13.9,30.5-22.9,44.5c-11.2,17.4-24.5,33.3-39.5,47.4
	c-8.8,8.3-18.1,15.9-28,22.9C361.8,494.7,310.9,512,256,512s-105.8-17.3-147.5-46.7C96.1,456.5,84.6,446.7,74,436
	C28.2,389.8,0,326.2,0,256S28.2,122.2,74,76c11.2-11.4,23.5-21.7,36.7-30.8C152,16.7,202,0,256,0s104,16.7,145.3,45.2
	c10.1,6.9,19.6,14.6,28.6,22.9c15.7,14.5,29.5,31,41.2,49c9,13.9,16.7,28.8,22.9,44.4C505.6,190.8,512,222.6,512,256z"/>
<g class="st1">
	<path d="M271.9,206.4c0-6.3-1.3-11.8-3.9-16.2c-2.6-4.5-6.5-6.7-11.9-6.7c-6,0-10.3,1.9-13.1,5.8c-2.8,3.9-4.2,8.2-4.2,12.9
		c0,6.9,2.2,12.5,6.7,16.5c4.5,4.1,10.1,7.6,16.8,10.6c6.7,3,14,6,21.7,9.1c7.7,3.1,15,7.1,21.7,12.1c6.7,5,12.4,11.5,16.8,19.5
		c4.5,8,6.7,18.5,6.7,31.4c0,22.6-6.5,39-19.3,49.3c-12.9,10.2-31.5,15.3-56,15.3c-11.5,0-21.7-0.9-30.5-2.8
		c-8.8-1.9-16.3-5.2-22.3-9.8c-6.1-4.7-10.7-10.8-13.8-18.3c-3.2-7.5-4.8-16.9-4.8-28v-7.4h53.6v5.1c0,9.1,1.7,15.5,5.1,19.2
		c3.4,3.7,7.7,5.5,13.1,5.5c5.8,0,10.2-2,13.2-6c3.1-4,4.6-8.8,4.6-14.6c0-6.9-2.1-12.5-6.4-16.5c-4.3-4.1-9.6-7.5-16.1-10.4
		c-6.5-2.9-13.4-5.8-21-8.8c-7.5-3-14.5-6.8-21-11.6c-6.5-4.8-11.8-11-16.1-18.8c-4.3-7.7-6.4-17.9-6.4-30.4
		c0-21.6,5.8-38.1,17.3-49.4c11.5-11.3,29-17,52.4-17c24.2,0,41.7,5.2,52.5,15.6c10.8,10.4,16.2,27,16.2,49.9h-51.8V206.4z"/>
</g>
</svg>
