<?xml version="1.0" encoding="utf-8"?>
<!-- Generator: Adobe Illustrator 24.2.0, SVG Export Plug-In . SVG Version: 6.00 Build 0)  -->
<svg version="1.1" id="Capa_1" xmlns="http://www.w3.org/2000/svg" xmlns:xlink="http://www.w3.org/1999/xlink" x="0px" y="0px"
	 viewBox="0 0 512 512" style="enable-background:new 0 0 512 512;" xml:space="preserve">
<style type="text/css">
	.st0{fill:#584682;}
	.st1{fill:#5A4984;}
</style>
<g>
	<path class="st0" d="M411.8,327.9c-9.9,0-19.9-0.6-29.8,0.2c-11.2,0.9-12.6-4.2-10.5-13.5c8.7-39.7,17.1-79.4,25.4-119.2
		c1.4-6.8,3.9-11.5,11.8-11.3c19.8,0.6,39.7-1.4,59.5,1.3c33.2,4.7,48.3,25.7,42.7,58.7c-2.4,14-5.1,27.9-10,41.2
		c-9.8,26.9-29.5,40.8-57.9,42.3c-10.4,0.5-20.8,0.1-31.2,0.1C411.8,327.8,411.8,327.8,411.8,327.9z M429.7,296.5
		c13.1,1,25-1.1,31-13.3c7.8-15.8,11-33.2,11.7-50.7c0.5-12.6-9-16.7-20.1-17c-10.2-0.2-21.7-3.9-23.8,13.2
		c-2.2,17.7-6.6,35.3-11.2,52.6C414.1,293.9,416.7,299.4,429.7,296.5z"/>
	<path class="st1" d="M182.3,327.9c-14.7,0-29.4-0.3-44,0.1c-8.7,0.3-10.7-3.1-8.9-11.1c8.9-41.1,17.6-82.3,26.2-123.5
		c1.4-6.7,5.1-9.5,11.9-9.5c29.3,0.1,58.7,0.1,88,0c6.8,0,8.9,2.6,8,9.6c-2.4,20.7-3.7,22.2-24.1,22.2c-13.7,0-27.5,0.4-41.2-0.1
		c-14.8-0.5-11.9,11.5-12.9,19c-1.4,9.8,7.7,5.6,12.2,5.9c12.3,0.7,24.6,0,36.9,0.4c5.3,0.2,14.8-2.9,12.4,7.6
		c-1.9,8.3,2.3,22-13.6,22.2c-14.7,0.1-29.3,0-44,0.1c-10.4,0-20,13.4-16.5,23c1.6,4.6,5.5,2.8,8.4,2.8c15.6,0.2,31.2-0.2,46.8,0.3
		c5.2,0.1,15.1-3.2,13.1,6.9c-1.7,8.7,2.7,23.2-13.3,23.9C212.6,328.4,197.4,327.9,182.3,327.9z"/>
	<path class="st1" d="M302.8,327.9c-14.2,0-28.4-0.3-42.6,0.1c-8.3,0.2-12.3-1.5-10.1-11.3c9-40.1,17.5-80.4,25.7-120.7
		c1.9-9.3,6.2-12.4,15.4-12.2c26.5,0.4,53,0,79.5,0.3c5.3,0.1,13.4-3.4,14,6.8c0.9,13.2-5.6,24.5-14.8,24.7
		c-16.5,0.4-33.1,0-49.7,0.2c-9.1,0.1-17.7,13-14.7,21.6c1.6,4.6,5.3,3.2,8.3,3.3c13.7,0.2,27.4-0.2,41.1,0.2
		c5.3,0.2,14.9-3,12.6,7.4c-1.8,8.3,2.3,22-13.4,22.3c-15.1,0.3-30.3,0-45.4,0.1c-9.3,0.1-18.2,13.8-14.9,22.7
		c1.6,4.5,5.4,3.1,8.3,3.1c15.6,0.2,31.2-0.2,46.8,0.2c5.3,0.1,15-3,12.9,7.2c-1.8,8.7,2.6,23.1-13.6,23.7
		C333.1,328.3,318,327.9,302.8,327.9z"/>
	<path class="st0" d="M57.9,330.2c-12.9,0-25.5-1.8-37.2-7.6c-7.9-3.9-14.2-9.4-17.8-17.6c-6.4-14.6-2.3-20.9,13.6-21.1
		c11.2-0.1,21.7-1,30.1,10.5c6,8.2,28.1,5.8,35.7-1.6c6.7-6.5,6.5-13-2.7-16.4c-9.7-3.6-20.1-5.4-30-8.5
		c-15.4-4.8-30.1-11.3-32.1-29.9c-2-18.4,4.9-34.1,20.6-43.9c25.2-15.6,51.8-16.4,78.3-2.6c7.2,3.8,13,9.5,16.6,17
		c6.1,12.8,2.5,19-11.4,18.8c-11.2-0.1-23.1,3.6-31.3-9.8c-4.4-7.2-22.6-5-28.5,1.7c-6.3,7.1-4.8,13.5,3.8,16.7
		c8.8,3.2,18.3,4.6,27.4,7.3c16.2,4.8,32.3,10.1,34.7,30.5c2.2,19.3-8.6,38.5-26.9,47.7C87.2,328.3,72.7,330.2,57.9,330.2z"/>
</g>
</svg>
