<?xml version="1.0" encoding="utf-8"?>
<!-- Generator: Adobe Illustrator 24.2.0, SVG Export Plug-In . SVG Version: 6.00 Build 0)  -->
<svg version="1.1" id="Capa_1" xmlns="http://www.w3.org/2000/svg" xmlns:xlink="http://www.w3.org/1999/xlink" x="0px" y="0px"
	 viewBox="0 0 512 512" style="enable-background:new 0 0 512 512;" xml:space="preserve">
<style type="text/css">
	.st0{fill:#FFBBC5;}
	.st1{fill:none;stroke:#FD5750;stroke-width:6.4242;}
	.st2{fill-rule:evenodd;clip-rule:evenodd;fill:#FD5750;stroke:#FD5750;stroke-width:6.4242;}
	.st3{enable-background:new    ;}
</style>
<path class="st0" d="M512,256c0,33.4-6.4,65.2-18,94.4c-6.2,15.6-13.9,30.5-22.9,44.5c-11.2,17.4-24.5,33.3-39.5,47.4
	c-8.8,8.3-18.1,15.9-28,22.9C361.8,494.7,310.9,512,256,512s-105.8-17.3-147.5-46.7C96.1,456.5,84.6,446.7,74,436
	C28.2,389.8,0,326.2,0,256S28.2,122.2,74,76c11.2-11.4,23.5-21.7,36.7-30.8C152,16.7,202,0,256,0s104,16.7,145.3,45.2
	c10.1,6.9,19.6,14.6,28.6,22.9c15.7,14.5,29.5,31,41.2,49c9,13.9,16.7,28.8,22.9,44.4C505.6,190.8,512,222.6,512,256z"/>
<g>
	<g id="Artwork">
		<g id="icon-serverles-framework" transform="translate(-53.000000, -24.000000)">
			<g id="bolt-filled" transform="translate(57.000000, 28.000000)">
				<path id="Stroke-1" class="st1" d="M283.3,161.4L305,125l0.3-28.2c-0.2-0.2-0.1-0.1-0.3-0.3c-34.2,29.2-74.7,64.1-108.9,93.2
					c0.1,0.1,0,5.7,0,16.8l40.5-6.6c-14,22.9-28.6,47.9-28.6,47.9l0.1,28.5l100-90.1l-0.3-27.7C307.7,158.6,289.6,160.6,283.3,161.4
					z"/>
				<path id="Stroke-3" class="st2" d="M263.1,165.1c13.7-1.6,41.8-5.1,41.8-4.9c0,0.2-64.3,58.3-96.3,87.2
					c-0.2-0.1-0.1-0.1-0.3-0.2c13.9-22.8,27.9-45.7,41.8-68.5c-0.1-0.2-0.2-0.2-0.3-0.4c-16,2.4-31.9,4.9-47.9,7.3
					c34-29.4,101.4-86,101.4-86c0.1,0.2-27.4,44.1-40.6,65C263,164.8,263,164.8,263.1,165.1z"/>
			</g>
		</g>
	</g>
	<g class="st3">
		<path d="M109.9,364.8c0-6.3,0.9-12.4,2.7-18c1.8-5.7,4.4-10.6,7.9-14.9c3.5-4.3,7.8-7.6,12.9-10.1c5.1-2.5,11-3.8,17.7-3.8
			c6.7,0,12.6,1.3,17.7,3.8c5.1,2.5,9.4,5.9,12.9,10.1c3.5,4.3,6.1,9.2,7.9,14.9c1.8,5.7,2.7,11.7,2.7,18c0,6.3-0.9,12.4-2.7,18
			c-1.8,5.7-4.4,10.6-7.9,14.9c-3.5,4.3-7.8,7.6-12.9,10.1c-5.1,2.5-11,3.7-17.7,3.7c-6.7,0-12.6-1.2-17.7-3.7
			c-5.1-2.5-9.4-5.8-12.9-10.1c-3.5-4.3-6.1-9.2-7.9-14.9C110.8,377.1,109.9,371.1,109.9,364.8z M112.4,364.8
			c0.1,6.4,1,12.4,2.8,17.8c1.8,5.4,4.3,10.1,7.6,14c3.3,3.9,7.3,7,12.1,9.2c4.8,2.2,10.1,3.3,16.2,3.3c6,0,11.4-1.1,16.2-3.3
			c4.8-2.2,8.8-5.3,12.1-9.2c3.3-3.9,5.8-8.6,7.6-14c1.8-5.4,2.7-11.4,2.8-17.8c-0.1-6.4-1-12.4-2.8-17.8c-1.8-5.4-4.3-10.1-7.6-14
			c-3.3-3.9-7.3-7-12.1-9.2c-4.8-2.2-10.1-3.3-16.2-3.3c-6,0-11.4,1.1-16.2,3.3c-4.8,2.2-8.8,5.3-12.1,9.2c-3.3,3.9-5.8,8.6-7.6,14
			C113.4,352.4,112.5,358.3,112.4,364.8z"/>
		<path d="M196.2,345.1h10.9v-14.3c0-2.6,0.4-4.6,1.2-6c0.8-1.4,1.8-2.5,3.1-3.2c1.3-0.7,2.6-1.1,4.1-1.3c1.5-0.2,2.9-0.2,4.3-0.2
			c1.2,0,2.2,0.1,3.1,0.2c0.9,0.1,1.6,0.2,2.3,0.3v2.5c-1.2-0.2-2.2-0.3-3.1-0.4c-0.9-0.1-1.8-0.1-2.8-0.1c-4,0-6.6,0.7-7.8,2.2
			c-1.2,1.5-1.8,3.8-1.8,7v13.4h13.9v2.5h-13.9v61.9h-2.5v-61.9h-10.9V345.1z"/>
		<path d="M221.8,345.1h10.9v-14.3c0-2.6,0.4-4.6,1.2-6c0.8-1.4,1.8-2.5,3.1-3.2c1.3-0.7,2.6-1.1,4.1-1.3c1.5-0.2,2.9-0.2,4.3-0.2
			c1.2,0,2.2,0.1,3.1,0.2c0.9,0.1,1.6,0.2,2.3,0.3v2.5c-1.2-0.2-2.2-0.3-3.1-0.4c-0.9-0.1-1.8-0.1-2.8-0.1c-4,0-6.6,0.7-7.8,2.2
			c-1.2,1.5-1.8,3.8-1.8,7v13.4h13.9v2.5h-13.9v61.9h-2.5v-61.9h-10.9V345.1z"/>
		<path d="M256.7,320v89.4h-2.5V320H256.7z"/>
		<path d="M270.5,332.7V320h2.5v12.7H270.5z M270.5,409.5v-64.4h2.5v64.4H270.5z"/>
		<path d="M289.3,345.1V361h0.3c0.6-2.5,1.5-4.8,2.8-6.9c1.3-2.1,2.9-3.9,4.9-5.5c2-1.6,4.2-2.8,6.8-3.7c2.6-0.9,5.5-1.3,8.6-1.3
			c3.3,0,6.4,0.5,9.2,1.5c2.8,1,5.2,2.5,7.3,4.4c2,2,3.6,4.4,4.8,7.3c1.1,2.9,1.7,6.2,1.7,10v42.7h-2.5v-42.3c0-3.8-0.5-7-1.6-9.6
			c-1.1-2.6-2.6-4.8-4.4-6.5c-1.9-1.7-4.1-3-6.5-3.8c-2.5-0.8-5.1-1.2-7.8-1.2c-3.8,0-7.2,0.7-10.1,2.2c-2.9,1.5-5.4,3.4-7.3,5.9
			c-2,2.5-3.4,5.3-4.4,8.6c-1,3.3-1.5,6.7-1.5,10.3v36.5h-2.5v-64.4H289.3z"/>
		<path d="M349.7,389.9c1,3.7,2.4,7,4.4,9.7c2,2.8,4.6,4.9,7.8,6.5c3.2,1.6,7.1,2.4,11.7,2.4c6.8,0,12.4-1.8,16.9-5.3
			c4.5-3.5,7.2-8.9,8.3-16h2.5c-0.9,7.5-3.9,13.3-8.9,17.5c-5,4.1-11.2,6.2-18.5,6.2c-5,0.1-9.3-0.7-12.8-2.4
			c-3.6-1.7-6.5-4-8.7-7.1c-2.3-3-3.9-6.6-5-10.8c-1.1-4.1-1.6-8.6-1.6-13.3c0-5.3,0.8-10.1,2.4-14.3c1.6-4.2,3.7-7.7,6.3-10.6
			c2.6-2.9,5.6-5.1,9-6.6c3.4-1.5,6.9-2.3,10.5-2.3c5,0,9.3,1,13,2.9c3.6,1.9,6.6,4.5,8.9,7.6c2.3,3.2,4,6.8,5,10.9
			c1,4.1,1.5,8.4,1.3,12.8h-53.9C348.3,382.1,348.8,386.2,349.7,389.9z M397.9,364.1c-1.1-3.5-2.7-6.7-4.8-9.3
			c-2.1-2.7-4.8-4.8-8-6.3c-3.2-1.5-6.8-2.3-11-2.3c-3.5,0-6.8,0.7-9.8,2c-3,1.3-5.7,3.3-8,5.8c-2.3,2.5-4.2,5.6-5.6,9.2
			c-1.4,3.6-2.3,7.6-2.5,12.2h51.4C399.5,371.4,399,367.6,397.9,364.1z"/>
	</g>
</g>
</svg>
