<?xml version="1.0" encoding="utf-8"?>
<!-- Generator: Adobe Illustrator 24.2.0, SVG Export Plug-In . SVG Version: 6.00 Build 0)  -->
<svg version="1.1" id="Capa_1" xmlns="http://www.w3.org/2000/svg" xmlns:xlink="http://www.w3.org/1999/xlink" x="0px" y="0px"
	 viewBox="0 0 512 512" style="enable-background:new 0 0 512 512;" xml:space="preserve">
<style type="text/css">
	.st0{fill:#FFBBC5;}
	.st1{fill:none;stroke:#FD5750;stroke-width:9.11;}
	.st2{fill-rule:evenodd;clip-rule:evenodd;fill:#FD5750;stroke:#FD5750;stroke-width:9.11;}
</style>
<path class="st0" d="M512,256c0,33.4-6.4,65.2-18,94.4c-6.2,15.6-13.9,30.5-22.9,44.5c-11.2,17.4-24.5,33.3-39.5,47.4
	c-8.8,8.3-18.1,15.9-28,22.9C361.8,494.7,310.9,512,256,512s-105.8-17.3-147.5-46.7C96.1,456.5,84.6,446.7,74,436
	C28.2,389.8,0,326.2,0,256S28.2,122.2,74,76c11.2-11.4,23.5-21.7,36.7-30.8C152,16.7,202,0,256,0s104,16.7,145.3,45.2
	c10.1,6.9,19.6,14.6,28.6,22.9c15.7,14.5,29.5,31,41.2,49c9,13.9,16.7,28.8,22.9,44.4C505.6,190.8,512,222.6,512,256z"/>
<g id="Artwork">
	<g id="icon-serverles-framework" transform="translate(-53.000000, -24.000000)">
		<g id="bolt-filled" transform="translate(57.000000, 28.000000)">
			<path id="Stroke-1" class="st1" d="M296.4,216.4l30.8-51.5l0.4-40c-0.3-0.2-0.2-0.2-0.5-0.4c-48.5,41.3-105.9,90.9-154.5,132.2
				c0.1,0.2,0.1,8.1,0,23.9l57.4-9.4c-19.8,32.5-40.6,68-40.6,68l0.1,40.4l141.8-127.7l-0.4-39.3
				C330.9,212.5,305.4,215.4,296.4,216.4z"/>
			<path id="Stroke-3" class="st2" d="M267.8,221.7c19.5-2.3,59.3-7.2,59.3-6.9c0,0.3-91.2,82.6-136.5,123.7
				c-0.2-0.2-0.2-0.1-0.4-0.4c19.8-32.4,39.6-64.8,59.3-97.2c-0.2-0.3-0.2-0.3-0.4-0.6c-22.6,3.4-45.3,6.9-67.9,10.3
				c48.2-41.7,143.8-121.9,143.8-121.9c0.1,0.2-38.9,62.6-57.6,92.2C267.5,221.3,267.6,221.3,267.8,221.7z"/>
		</g>
	</g>
</g>
</svg>
