<?xml version="1.0" encoding="utf-8"?>
<!-- Generator: Adobe Illustrator 24.2.0, SVG Export Plug-In . SVG Version: 6.00 Build 0)  -->
<svg version="1.1" id="Capa_1" xmlns="http://www.w3.org/2000/svg" xmlns:xlink="http://www.w3.org/1999/xlink" x="0px" y="0px"
	 viewBox="0 0 512 512" style="enable-background:new 0 0 512 512;" xml:space="preserve">
<style type="text/css">
	.st0{fill:#2399F0;}
	.st1{fill:#FFFFFF;}
</style>
<path class="st0" d="M512,256c0,33.4-6.4,65.2-18,94.4c-6.2,15.6-13.9,30.5-22.9,44.5c-11.2,17.4-24.5,33.3-39.5,47.4
	c-8.8,8.3-18.1,15.9-28,22.9C361.8,494.7,310.9,512,256,512s-105.8-17.3-147.5-46.7C96.1,456.5,84.6,446.7,74,436
	C28.2,389.8,0,326.2,0,256S28.2,122.2,74,76c11.2-11.4,23.5-21.7,36.7-30.8C152,16.7,202,0,256,0s104,16.7,145.3,45.2
	c10.1,6.9,19.6,14.6,28.6,22.9c15.7,14.5,29.5,31,41.2,49c9,13.9,16.7,28.8,22.9,44.4C505.6,190.8,512,222.6,512,256z"/>
<path class="st1" d="M343.4,208.6H165.2v-30.2h178.2V208.6z M264,274.5h-98.8v-30.2H264V274.5z M297.1,105.8h-82.3
	c-54,0-98,44.8-98,99.9V254c0,31.1,12.3,57.4,35.6,76.1c20.5,16.4,43.8,23.2,67.8,23.7v0h55.5c-3.8,17.3-13.2,31.6-29.1,48.3
	c8.2,3.7,18.1,4.4,27,3.8c28.9-2,56.8-20.9,75.4-42.7c25.6-29.9,38-68.7,43-107.5c2-15.6,3-31.9,3-50.1
	C395.1,150.6,351.2,105.8,297.1,105.8"/>
</svg>
