<?xml version="1.0" encoding="utf-8"?>
<!-- Generator: Adobe Illustrator 24.2.0, SVG Export Plug-In . SVG Version: 6.00 Build 0)  -->
<svg version="1.1" id="Capa_1" xmlns="http://www.w3.org/2000/svg" xmlns:xlink="http://www.w3.org/1999/xlink" x="0px" y="0px"
	 viewBox="0 0 512 512" style="enable-background:new 0 0 512 512;" xml:space="preserve">
<style type="text/css">
	.st0{fill:#010101;}
	.st1{fill:#FFFFFF;}
</style>
<path class="st0" d="M191.2,8.1c66.3-17,139.6-7.1,198.1,29c73.7,44,121.7,127.4,123,213.1c2.7,86.6-42.5,172.5-115,219.6
	c-80.8,54.3-192.5,56.4-274.9,4.8C38.3,424.4-10.8,323.3,1.8,226.1C12,123.5,91.3,32.9,191.2,8.1L191.2,8.1z"/>
<path class="st1" d="M181.1,50C306.4-0.1,460,92.5,473,226.8c20.2,120.9-80.1,243.7-202.6,247.3C153.9,485.7,41.4,387,38.1,270
	C29.4,175.3,91.8,81.4,181.1,50L181.1,50z"/>
<path class="st0" d="M193.7,243c56.2-45.9,111.1-93.4,168.5-137.9c-30.1,46.3-61.1,91.9-91.2,138.1
	C245.2,243.4,219.4,243.4,193.7,243L193.7,243z M241.2,268.6c25.9,0,51.8,0,77.6,0.4c-56.5,45.6-111.2,93.5-168.7,137.9
	C180.1,360.6,211.1,314.8,241.2,268.6L241.2,268.6z"/>
</svg>
