<?xml version="1.0" encoding="utf-8"?>
<!-- Generator: Adobe Illustrator 24.2.0, SVG Export Plug-In . SVG Version: 6.00 Build 0)  -->
<svg version="1.1" id="Capa_1" xmlns="http://www.w3.org/2000/svg" xmlns:xlink="http://www.w3.org/1999/xlink" x="0px" y="0px"
	 viewBox="0 0 512 512" style="enable-background:new 0 0 512 512;" xml:space="preserve">
<style type="text/css">
	.st0{fill:#0078CF;}
	.st1{fill:#F2F2F2;}
</style>
<path class="st0" d="M512,256c0,23.2-3.1,45.6-8.8,66.9c-13.5,49.9-41.7,93.7-79.6,126.6C378.6,488.5,320.1,512,256,512
	C114.6,512,0,397.4,0,256S114.6,0,256,0S512,114.6,512,256z"/>
<g>
	<path class="st1" d="M503.2,322.9c-13.5,49.9-41.7,93.7-79.6,126.6c-3.7,0.2-7.6,0.3-11.6,0.3c-53.2,0-82.7-33.2-97.4-58.1l48.2-29
		c0,0,16.4,34.8,47.1,34.8c30.7,0,43-10.2,43-33.8c0-28.7-99.4-38.9-114.8-88.1s5.1-118.9,76.9-113.7c44.8,3.2,70,25.2,82.7,41.3
		l-47.8,34.5c-10.2-29.7-52.3-29.7-60.5-5.1c-8.2,24.6,19.5,38.9,62.5,53.3C474,293.3,491.8,306.9,503.2,322.9z"/>
	<polygon class="st1" points="300.9,169.8 83.1,169.8 83.1,221.2 162.9,221.2 162.9,444.5 221.1,444.5 221.1,221.2 300.9,221.2 	"/>
</g>
</svg>
