<?xml version="1.0" encoding="utf-8"?>
<!-- Generator: Adobe Illustrator 24.2.0, SVG Export Plug-In . SVG Version: 6.00 Build 0)  -->
<svg version="1.1" id="Capa_1" xmlns="http://www.w3.org/2000/svg" xmlns:xlink="http://www.w3.org/1999/xlink" x="0px" y="0px"
	 viewBox="0 0 512 512" style="enable-background:new 0 0 512 512;" xml:space="preserve">
<style type="text/css">
	.st0{fill:#529400;}
	.st1{enable-background:new    ;}
</style>
<path class="st0" d="M512,256c0,33.4-6.4,65.2-18,94.4c-6.2,15.6-13.9,30.5-22.9,44.5c-11.2,17.4-24.5,33.3-39.5,47.4
	c-8.8,8.3-18.1,15.9-28,22.9C361.8,494.7,310.9,512,256,512s-105.8-17.3-147.5-46.7C96.1,456.5,84.6,446.7,74,436
	C28.2,389.8,0,326.2,0,256S28.2,122.2,74,76c11.2-11.4,23.5-21.7,36.7-30.8C152,16.7,202,0,256,0s104,16.7,145.3,45.2
	c10.1,6.9,19.6,14.6,28.6,22.9c15.7,14.5,29.5,31,41.2,49c9,13.9,16.7,28.8,22.9,44.4C505.6,190.8,512,222.6,512,256z"/>
<g class="st1">
	<path d="M156.6,301.4c0,10.3,1.5,17.2,4.5,20.7c3,3.5,7,5.2,12.2,5.2c5.2,0,9.2-1.7,12.2-5.2c3-3.5,4.5-10.4,4.5-20.7V148.1h55.4
		v139.3c0,14.9-1.6,27.3-4.8,37.2c-3.2,9.9-7.8,17.9-13.8,23.8c-6.1,6-13.5,10-22.5,12.2s-19.2,3.3-31,3.3
		c-11.5,0-21.8-1.1-30.8-3.3c-9-2.2-16.6-6.2-22.6-12.2c-6.1-6-10.7-13.9-13.8-23.8c-3.2-9.9-4.8-22.3-4.8-37.2V148.1h55.4V301.4z"
		/>
	<path d="M322.1,301.4c0,10.3,1.5,17.2,4.5,20.7c3,3.5,7,5.2,12.2,5.2c5.2,0,9.2-1.7,12.2-5.2c3-3.5,4.5-10.4,4.5-20.7V148.1h55.4
		v139.3c0,14.9-1.6,27.3-4.8,37.2c-3.2,9.9-7.8,17.9-13.8,23.8c-6.1,6-13.5,10-22.5,12.2c-8.9,2.2-19.2,3.3-31,3.3
		c-11.5,0-21.8-1.1-30.8-3.3c-9-2.2-16.6-6.2-22.6-12.2c-6.1-6-10.7-13.9-13.8-23.8c-3.2-9.9-4.8-22.3-4.8-37.2V148.1h55.4V301.4z"
		/>
</g>
</svg>
