<?xml version="1.0" encoding="utf-8"?>
<!-- Generator: Adobe Illustrator 24.2.0, SVG Export Plug-In . SVG Version: 6.00 Build 0)  -->
<svg version="1.1" id="Capa_1" xmlns="http://www.w3.org/2000/svg" xmlns:xlink="http://www.w3.org/1999/xlink" x="0px" y="0px"
	 viewBox="0 0 512 512" style="enable-background:new 0 0 512 512;" xml:space="preserve">
<style type="text/css">
	.st0{opacity:0.2;enable-background:new    ;}
	.st1{fill:#3F3F3F;}
	.st2{opacity:0.1;fill:#FFFFFF;enable-background:new    ;}
	.st3{fill:#1C65C2;}
	.st4{fill:#2996DD;}
	.st5{opacity:0.2;fill:#FFFFFF;enable-background:new    ;}
</style>
<g>
	<path class="st0" d="M446.3,431.4L381.2,40.5c-2-12-13.4-20.1-25.5-18.1L49.3,72.7C37.2,74.6,29,85.9,31,98l65.1,390.9
		c2,12,13.4,20.1,25.5,18.1L428,456.7C440.2,454.7,448.3,443.4,446.3,431.4z"/>
	<path class="st1" d="M446.3,414L381.2,23.2c-2-12-13.4-20.1-25.5-18.1L49.3,55.3C37.2,57.3,29,68.6,31,80.6l65.1,390.9
		c2,12,13.4,20.1,25.5,18.1L428,439.4C440.2,437.4,448.3,426.1,446.3,414z"/>
	<path class="st0" d="M100.1,209l191.1,142.4l51.4-32.3L126.9,199.8L100.1,209z"/>
	<path class="st2" d="M360.2,4.8c-1.5-0.1-3,0.1-4.5,0.3L49.3,55.3C37.2,57.3,29,68.6,31,80.6l1.1,6.8C34.7,80,40.9,74,49.3,72.6
		l306.3-50.3c12.1-2,23.5,6.1,25.5,18.1l64,384.1c1.1-3.3,1.7-6.8,1.1-10.5L381.1,23.2C379.4,12.6,370.5,5.1,360.2,4.8z"/>
	<path class="st3" d="M103.5,351.3h281.4l10,69.3L103.5,351.3z"/>
	<path class="st0" d="M334,56.7l98,22l49.3,308.6l-86.4,50.6L334,56.7z"/>
	<path class="st4" d="M334,39.4l98,22L481.3,370l-86.4,50.6L334,39.4z"/>
	<path class="st3" d="M256.5,108.7l58.7,14.6l27.4,178.3L291.2,334L256.5,108.7z"/>
	<path class="st4" d="M100.1,191.6L291.2,334l51.4-32.3L126.9,182.5L100.1,191.6z"/>
	<path class="st2" d="M126.9,182.5l-26.8,9.1l16,11.9l10.8-3.7l201.1,111l14.7-9.2L126.9,182.5z"/>
	<path class="st0" d="M117.4,321.6l139.2-195.5l58.7,14.6L145.6,321.8L117.4,321.6z"/>
	<path class="st4" d="M117.4,304.3l139.2-195.5l58.7,14.6L145.6,304.5L117.4,304.3z"/>
	<path class="st5" d="M334,39.4l2.9,18l95.1,21.4l46.8,292.7l2.5-1.5L431.9,61.4L334,39.4z"/>
	<path class="st5" d="M256.5,108.7L117.4,304.3l12.3,0.1l126.9-178.3l45.5,11.3l13.2-14L256.5,108.7z"/>
</g>
</svg>
