<?xml version="1.0" encoding="utf-8"?>
<!-- Generator: Adobe Illustrator 24.2.0, SVG Export Plug-In . SVG Version: 6.00 Build 0)  -->
<svg version="1.1" id="Capa_1" xmlns="http://www.w3.org/2000/svg" xmlns:xlink="http://www.w3.org/1999/xlink" x="0px" y="0px"
	 viewBox="0 0 512 512" style="enable-background:new 0 0 512 512;" xml:space="preserve">
<style type="text/css">
	.st0{fill:#8ED6FB;}
	.st1{fill:#1C78C0;}
</style>
<g>
	<g id="original">
		<path class="st0" d="M471.9,394.9L265.1,512v-91.2l128.7-70.9L471.9,394.9z M486.1,382.1V137.4l-75.7,43.8v157.3L486.1,382.1
			L486.1,382.1z M40.1,394.9l206.6,117v-91.1L118,349.9L40.1,394.9z M25.9,382.1V137.4l75.7,43.8v157.3L25.9,382.1z M34.8,121.6
			L246.9,1.5v88.2L111,164.4l-1.1,0.6L34.8,121.6z M477.1,121.6L265.1,1.5v88.2L401,164.4l1.1,0.6L477.1,121.6L477.1,121.6z"/>
		<path class="st1" d="M246.9,400l-127.2-70V191.6l127.2,73.3V400z M265.1,400l127.2-69.9V191.6l-127.2,73.3V400z M128.4,175.7
			L256,105.4l127.6,70.3L256,249.3L128.4,175.7z"/>
	</g>
</g>
</svg>
