<?xml version="1.0" encoding="utf-8"?>
<!-- Generator: Adobe Illustrator 24.2.0, SVG Export Plug-In . SVG Version: 6.00 Build 0)  -->
<svg version="1.1" id="Capa_1" xmlns="http://www.w3.org/2000/svg" xmlns:xlink="http://www.w3.org/1999/xlink" x="0px" y="0px"
	 viewBox="0 0 512 512" style="enable-background:new 0 0 512 512;" xml:space="preserve">
<style type="text/css">
	.st0{fill:#FFFFFF;}
	.st1{fill:#8ED6FB;}
	.st2{fill:#1C78C0;}
</style>
<path class="st0" d="M256,0l226.3,128v256L256,512L29.7,384V128L256,0z"/>
<path class="st1" d="M442.2,375.2L263.8,476.1v-78.6L375,336.3L442.2,375.2z M454.4,364.1v-211l-65.3,37.7v135.6L454.4,364.1z
	 M69.8,375.2l178.4,100.9v-78.6L137,336.3L69.8,375.2L69.8,375.2z M57.6,364.1v-211l65.3,37.7v135.6L57.6,364.1z M65.2,139.4
	l183-103.5v76L131,176.4l-0.9,0.5L65.2,139.4z M446.8,139.4l-183-103.5v76L381,176.4l0.9,0.5L446.8,139.4z"/>
<path class="st2" d="M248.2,383.1l-109.7-60.3V203.3l109.7,63.3V383.1z M263.8,383.1l109.7-60.3V203.3l-109.7,63.3V383.1z
	 M145.9,189.5L256,128.9l110.1,60.5L256,253.1L145.9,189.5z"/>
</svg>
