<?xml version="1.0" encoding="utf-8"?>
<!-- Generator: Adobe Illustrator 24.2.0, SVG Export Plug-In . SVG Version: 6.00 Build 0)  -->
<svg version="1.1" id="Capa_1" xmlns="http://www.w3.org/2000/svg" xmlns:xlink="http://www.w3.org/1999/xlink" x="0px" y="0px"
	 viewBox="0 0 512 512" style="enable-background:new 0 0 512 512;" xml:space="preserve">
<style type="text/css">
	.st0{fill:#2C8EBB;}
</style>
<g>
	<g id="original">
		<path class="st0" d="M401.5,325c-17.9,0.2-33.6,9.5-46.9,17.7C329.9,358,317.5,357,317.5,357l-0.4-0.7c-1.7-2.8,7.9-27.6-2.8-57.1
			c-11.6-32.3-30.1-40.1-28.7-42.6c6.3-10.7,22.1-27.7,28.4-59.3c3.8-19.2,2.8-50.7-5.7-67.2c-1.6-3.1-15.6,5.1-15.6,5.1
			s-13.1-29.3-16.8-31.6C264,96,251.1,135,251.1,135c-18.1-1.8-36.1,5.1-48.4,18.6c-4.5,4.3-9.9,7.5-15.9,9.4
			c-1.7,0.6-3.8,0.5-8.9,14.3c-7.8,20.9,13.4,44.6,13.4,44.6S166,239.8,156.7,262c-6.3,15.3-8.7,31.8-7.2,48.2
			c0,0-18,15.6-19.2,31.7c-1.1,11.3,1.5,22.6,7.3,32.3c1.9,4,6.6,5.7,10.7,3.9c0.1,0,0.1-0.1,0.2-0.1c0,0-12,14-0.8,19.9
			c10.2,5.3,27.4,8.3,36.5-0.8c6.6-6.6,7.9-21.3,10.4-27.4c0.6-1.4,2.6,2.4,4.5,4.1c1.8,1.5,3.6,2.9,5.6,4.1c0,0-16.1,6.9-9.5,22.8
			c2.2,5.2,10,8.6,22.8,8.5c4.7,0,56.8-3,70.7-6.3c4.2-0.7,8-2.8,10.8-6c22.5-6.7,44-16.4,64-28.9c19.6-12.8,27.6-16.2,43.4-20
			C419.7,344.9,418.8,324.7,401.5,325z"/>
		<path class="st0" d="M256,0C114.6,0,0,114.6,0,256s114.6,256,256,256s256-114.6,256-256S397.4,0,256,0z M410,362.7
			c-13.8,3.3-20.3,5.9-38.9,18c-20.1,12.6-41.7,22.6-64.2,29.6c-4.4,3.6-9.5,6.1-15,7.3c-15.7,3.8-69.7,6.7-74,6.7h-1
			c-16.5,0-25.9-5.1-30.9-10.5c-14,7-32.2,4.1-45.4-2.8c-6.4-3.1-11-9.1-12.4-16.1c-0.5-2.8-0.5-5.7,0-8.5c-1.2-1.3-2.3-2.7-3.3-4.1
			c-7.5-12.5-10.8-27-9.3-41.5c1.2-15.4,11.9-29.2,18.8-36.5c-0.6-16.5,2.3-33,8.5-48.3c6.6-14.2,16.2-26.9,28.2-37.2
			c-6.8-11.5-13.7-29.2-7-47.2c4.8-12.8,8.8-20,17.5-23l0,0c3.8-1.1,7.3-3,10.4-5.5c12.7-13.8,30.2-22.2,49-23.4
			c0.8-2,1.7-4.1,2.7-6c6.6-14,13.6-21.9,21.8-24.8c6-2.3,12.8-1.5,18.2,2.1c2.7,1.8,6.1,4.1,16.1,24.8c3.8-1.4,7.9-1.5,11.8-0.4
			c4.3,1.2,7.9,4.1,9.9,8c10.2,19.6,11.6,54.5,7.1,76.9c-4,19.9-12.2,38.6-24.1,55c10.7,11.1,18.8,24.4,23.8,38.9
			c4.9,13.8,6.9,28.4,5.8,43c4.4-2.1,8.7-4.5,12.9-7.2c12.6-7.8,31.7-19.6,54.5-19.9c14.3-1,26.9,9.3,28.9,23.5
			C432,347.1,423.2,359.7,410,362.7z"/>
	</g>
</g>
</svg>
