<svg version="1.1" id="Layer_1" xmlns="http://www.w3.org/2000/svg" xmlns:xlink="http://www.w3.org/1999/xlink" x="0px" y="0px"
	 viewBox="0 0 287.69 273.43" style="enable-background:new 0 0 287.69 273.43;" xml:space="preserve">
<g id="browser">
	<g>
		<path class="st0" d="M145.83,159.36c-0.08,0.01-0.16,0.02-0.25,0.02c-0.09,0-0.18-0.01-0.27-0.02c-0.09-0.01-0.18-0.02-0.26-0.04
			c-0.09-0.02-0.19-0.06-0.28-0.09c-0.12-0.05-0.25-0.09-0.36-0.16l-1.63-0.94c-0.87-0.5-2.29-1.32-3.16-1.82l-23.53-13.58
			c-0.13-0.07-0.24-0.16-0.34-0.25c-0.03-0.03-0.06-0.06-0.09-0.09c-0.07-0.07-0.13-0.14-0.19-0.21c-0.03-0.04-0.07-0.08-0.09-0.13
			c-0.02-0.02-0.03-0.05-0.04-0.07c-0.04-0.08-0.08-0.15-0.12-0.23c0-0.01-0.01-0.02-0.01-0.03c-0.03-0.08-0.05-0.16-0.06-0.23
			c0-0.01-0.01-0.02-0.01-0.03c0-0.01,0-0.03,0-0.04c-0.01-0.11-0.01-0.21,0.01-0.32c0.01-0.03,0.01-0.06,0.02-0.09
			c0.03-0.11,0.07-0.22,0.15-0.32l25.25-35.47c0.07-0.1,0.15-0.17,0.23-0.22l0,0c0,0,0,0,0,0l-8.46,4.92
			c-0.08,0.05-0.16,0.12-0.23,0.22l-25.25,35.47c-0.07,0.1-0.12,0.21-0.15,0.32c-0.01,0.03-0.01,0.06-0.02,0.09
			c-0.02,0.1-0.02,0.21-0.01,0.32c0,0.01,0,0.02,0,0.03c0,0,0,0.01,0,0.01c0,0.01,0,0.02,0.01,0.03c0.01,0.04,0.02,0.09,0.03,0.13
			c0.01,0.03,0.02,0.07,0.03,0.1c0,0.01,0.01,0.02,0.01,0.03c0,0.01,0,0.01,0.01,0.02c0.02,0.05,0.05,0.1,0.07,0.15
			c0.01,0.02,0.02,0.03,0.03,0.05c0.01,0.02,0.03,0.05,0.04,0.07c0.02,0.02,0.03,0.05,0.05,0.07c0.01,0.02,0.03,0.03,0.05,0.05
			c0.06,0.07,0.12,0.14,0.19,0.21c0.03,0.03,0.06,0.06,0.09,0.08c0.1,0.09,0.22,0.17,0.34,0.25l23.53,13.58
			c0.87,0.5,2.29,1.32,3.16,1.82l1.63,0.94c0.06,0.04,0.13,0.07,0.19,0.1c0.06,0.03,0.11,0.03,0.17,0.06
			c0.09,0.04,0.18,0.07,0.28,0.09c0.03,0.01,0.07,0.03,0.1,0.03c0.05,0.01,0.11,0.01,0.16,0.01c0.09,0.01,0.18,0.02,0.27,0.02
			c0.03,0,0.07,0.01,0.11,0.01c0.05,0,0.09-0.02,0.14-0.03c0.09-0.01,0.17-0.03,0.25-0.05c0.03-0.01,0.07-0.01,0.1-0.02
			c0.09-0.03,0.17-0.07,0.24-0.11l8.46-4.92c-0.1,0.06-0.23,0.1-0.35,0.13C146.01,159.33,145.92,159.34,145.83,159.36z"/>
		<path class="st0" d="M241.73,215.82c-0.03,0.02-0.07,0.03-0.12,0.04c-0.01,0-0.03,0.01-0.04,0.01c-0.04,0-0.08,0-0.12,0
			c-0.02,0-0.03,0-0.05,0c-0.01,0-0.03-0.01-0.05-0.01c-0.06-0.02-0.13-0.04-0.21-0.07c-0.06-0.03-0.13-0.06-0.2-0.1l-45.35-26.18
			l-3.98-2.3l-9.91-5.72l-6.53-3.77c-0.87-0.5-2.3-1.33-3.17-1.83l-1.63-0.94c-0.12-0.07-0.25-0.16-0.37-0.26
			c-0.04-0.03-0.08-0.07-0.12-0.1c-0.09-0.07-0.17-0.15-0.26-0.23c-0.05-0.04-0.09-0.09-0.14-0.14c-0.08-0.08-0.16-0.17-0.24-0.26
			c-0.05-0.05-0.09-0.1-0.14-0.16c-0.08-0.1-0.16-0.19-0.23-0.29c-0.04-0.05-0.07-0.1-0.11-0.14c-0.16-0.22-0.31-0.46-0.44-0.69
			c-0.03-0.05-0.05-0.09-0.08-0.14c-0.06-0.11-0.11-0.22-0.16-0.33c-0.03-0.07-0.07-0.14-0.09-0.21l-6.51-16.82
			c-0.1-0.24-0.19-0.52-0.27-0.81c-0.01-0.03-0.02-0.05-0.02-0.08c-0.08-0.28-0.15-0.57-0.21-0.85c-0.01-0.04-0.02-0.08-0.03-0.12
			c-0.06-0.28-0.11-0.56-0.15-0.83c-0.01-0.05-0.02-0.11-0.02-0.16c-0.02-0.13-0.03-0.25-0.04-0.37c-0.01-0.06-0.01-0.11-0.02-0.17
			c-0.01-0.17-0.02-0.33-0.02-0.47l0.02-7.53c0-1.01,0.36-2.33,0.8-2.94l32.66-45.9c0.07-0.1,0.15-0.17,0.23-0.22l-8.46,4.91
			c-0.08,0.05-0.16,0.12-0.23,0.22l-32.66,45.9c-0.44,0.61-0.8,1.93-0.8,2.94l-0.02,7.53c0,0.14,0.01,0.3,0.02,0.47
			c0,0.05,0.01,0.11,0.02,0.17c0.01,0.12,0.02,0.24,0.04,0.37c0,0.03,0.01,0.06,0.01,0.09c0,0.02,0.01,0.05,0.01,0.07
			c0.04,0.27,0.09,0.55,0.15,0.83c0.01,0.04,0.02,0.08,0.03,0.13c0.06,0.29,0.13,0.58,0.21,0.85c0,0.01,0,0.02,0.01,0.03
			c0.01,0.02,0.01,0.03,0.02,0.05c0.08,0.29,0.17,0.56,0.27,0.8l6.51,16.82c0.01,0.03,0.02,0.06,0.04,0.09
			c0.02,0.04,0.04,0.08,0.06,0.12c0.05,0.11,0.1,0.22,0.16,0.33c0.01,0.03,0.02,0.05,0.04,0.07c0.01,0.02,0.03,0.04,0.04,0.06
			c0.13,0.23,0.28,0.46,0.44,0.69c0.01,0.01,0.01,0.02,0.02,0.03c0.03,0.04,0.06,0.07,0.09,0.11c0.08,0.1,0.15,0.2,0.23,0.29
			c0.05,0.05,0.09,0.11,0.14,0.16c0.08,0.09,0.16,0.17,0.24,0.26c0.05,0.05,0.09,0.1,0.14,0.14c0.09,0.08,0.17,0.16,0.26,0.23
			c0.04,0.03,0.08,0.07,0.12,0.1c0.13,0.1,0.25,0.19,0.37,0.26l1.63,0.94c0.87,0.5,2.3,1.33,3.17,1.83l6.53,3.77l9.91,5.72l3.98,2.3
			l45.35,26.18c0.06,0.03,0.11,0.06,0.16,0.08c0.01,0.01,0.02,0.01,0.03,0.01c0.07,0.03,0.14,0.06,0.21,0.07
			c0.01,0,0.03,0.01,0.04,0.01c0,0,0.01,0,0.01,0c0.02,0,0.03,0,0.05,0c0.04,0,0.07,0.01,0.1,0.01c0.01,0,0.01,0,0.02,0
			c0.01,0,0.03-0.01,0.04-0.01c0.02,0,0.04,0,0.06-0.01c0.02-0.01,0.04-0.02,0.06-0.03c0,0,0,0,0,0L241.73,215.82z"/>
	</g>
	<g>
		<polygon class="st1" points="77.35,10.74 85.81,5.82 271.92,113.28 263.46,118.19 		"/>
	</g>
	<g>
		<path class="st0" d="M85.01,5.41c-0.28-0.13-0.56-0.24-0.84-0.33c-0.07-0.02-0.13-0.03-0.2-0.05c-0.21-0.06-0.41-0.12-0.61-0.16
			c-0.02,0-0.04-0.01-0.05-0.01c-0.14-0.03-0.28-0.04-0.41-0.06c-0.08-0.01-0.16-0.03-0.23-0.03c-0.23-0.02-0.45-0.02-0.66-0.01
			c0,0-0.01,0-0.01,0c0,0,0,0,0,0c-0.22,0.01-0.43,0.04-0.64,0.08c-0.07,0.01-0.13,0.04-0.2,0.05c-0.12,0.03-0.24,0.06-0.36,0.1
			c-0.01,0-0.02,0.01-0.04,0.02c-0.21,0.08-0.42,0.17-0.62,0.28l-8.46,4.91c0.2-0.11,0.4-0.21,0.62-0.28
			c0.13-0.05,0.26-0.08,0.39-0.11c0.07-0.02,0.13-0.04,0.2-0.05c0.21-0.04,0.42-0.07,0.64-0.08c0,0,0.01,0,0.01,0
			c0.21-0.01,0.43-0.01,0.66,0.01c0.08,0.01,0.16,0.02,0.23,0.03c0.15,0.02,0.31,0.04,0.47,0.07c0.2,0.04,0.41,0.1,0.61,0.16
			c0.06,0.02,0.13,0.03,0.19,0.05c0.27,0.09,0.55,0.2,0.84,0.33c0.26,0.12,0.53,0.26,0.79,0.41l8.46-4.91
			c-0.26-0.15-0.52-0.28-0.77-0.4C85.03,5.42,85.02,5.42,85.01,5.41z"/>
		<path class="st0" d="M279.82,126.12c-0.01-0.1-0.02-0.2-0.03-0.3c-0.02-0.16-0.03-0.32-0.05-0.48c-0.01-0.04-0.02-0.08-0.02-0.12
			c-0.03-0.17-0.06-0.35-0.09-0.52c-0.03-0.16-0.06-0.32-0.09-0.48c-0.04-0.17-0.09-0.35-0.13-0.52c-0.03-0.12-0.06-0.25-0.09-0.37
			c-0.01-0.04-0.03-0.08-0.04-0.12c-0.04-0.13-0.08-0.27-0.13-0.4c-0.06-0.19-0.12-0.37-0.19-0.56c-0.05-0.14-0.1-0.27-0.16-0.41
			c-0.04-0.11-0.08-0.23-0.13-0.34c-0.01-0.04-0.04-0.07-0.05-0.11c-0.23-0.55-0.49-1.09-0.77-1.62c-0.02-0.04-0.04-0.09-0.06-0.13
			c-0.03-0.06-0.07-0.12-0.11-0.18c-0.12-0.22-0.25-0.43-0.38-0.65c-0.08-0.12-0.15-0.25-0.23-0.37c-0.15-0.24-0.31-0.47-0.48-0.7
			c-0.05-0.07-0.1-0.15-0.15-0.23c-0.01-0.01-0.02-0.02-0.03-0.04c-0.28-0.39-0.58-0.76-0.89-1.11c-0.07-0.09-0.15-0.17-0.22-0.25
			c-0.29-0.33-0.6-0.65-0.91-0.95c-0.03-0.03-0.05-0.05-0.08-0.08c-0.33-0.32-0.68-0.6-1.03-0.88c-0.09-0.07-0.17-0.13-0.26-0.19
			c-0.36-0.27-0.72-0.52-1.1-0.73l-8.46,4.92c0.37,0.22,0.74,0.47,1.1,0.73c0.09,0.06,0.17,0.13,0.26,0.19
			c0.35,0.27,0.7,0.56,1.03,0.88c0.03,0.03,0.05,0.05,0.08,0.08c0.31,0.3,0.62,0.62,0.91,0.95c0.07,0.08,0.15,0.17,0.22,0.25
			c0.31,0.36,0.6,0.73,0.89,1.11c0.06,0.09,0.12,0.18,0.18,0.26c0.16,0.23,0.32,0.46,0.48,0.7c0.08,0.12,0.15,0.25,0.23,0.37
			c0.13,0.21,0.26,0.43,0.38,0.65c0.06,0.1,0.11,0.21,0.17,0.31c0.28,0.53,0.54,1.07,0.77,1.62c0.06,0.15,0.12,0.3,0.18,0.45
			c0.05,0.14,0.11,0.27,0.16,0.41c0.07,0.19,0.13,0.37,0.19,0.56c0.04,0.13,0.09,0.27,0.13,0.4c0.05,0.16,0.09,0.32,0.13,0.49
			c0.05,0.17,0.09,0.35,0.13,0.52c0.04,0.16,0.06,0.32,0.09,0.48c0.03,0.17,0.07,0.35,0.09,0.52c0.03,0.2,0.05,0.4,0.07,0.6
			c0.01,0.1,0.02,0.2,0.03,0.3c0.02,0.3,0.04,0.6,0.04,0.9l-0.36,127.63c0,1.56-0.35,2.84-0.96,3.78c-0.37,0.56-0.83,1.01-1.36,1.32
			l0,0c0,0,0,0,0,0l8.46-4.92c1.43-0.83,2.32-2.6,2.33-5.1l0.36-127.63C279.86,126.72,279.84,126.42,279.82,126.12z"/>
	</g>
	<g>
		<path class="st2" d="M263.46,118.19c4.38,2.53,7.95,8.71,7.94,13.75l-0.36,127.63c-0.01,5.03-3.61,7.08-7.99,4.55L76.93,156.67
			c-4.38-2.53-7.95-8.71-7.94-13.75l0.36-127.63c0.01-5.03,3.61-7.08,7.99-4.55L263.46,118.19z M232.49,220.59
			c0.87,0.5,1.23,0,0.8-1.12l-45.97-118.71c-0.22-0.56-0.5-0.94-0.79-1.11c-0.29-0.17-0.58-0.12-0.79,0.19l-32.66,45.9
			c-0.44,0.61-0.8,1.93-0.8,2.94l-0.02,7.53c0,1.01,0.34,2.73,0.78,3.85l6.51,16.82c0.43,1.12,1.5,2.44,2.37,2.95l1.63,0.94
			c0.87,0.5,2.3,1.33,3.17,1.83l6.53,3.77l9.91,5.72l3.98,2.3L232.49,220.59 M145.72,151.58l0.02-7.55c0-1.01-0.35-2.74-0.78-3.85
			l-4.93-12.71c-0.03-0.08-0.14-0.36-0.29-0.76l-0.15-0.37c-0.2-0.52-0.46-1.2-0.76-1.97l-0.2-0.54c-0.69-1.76-1.52-3.92-2.32-5.97
			l-0.24-0.62c-0.32-0.82-0.63-1.63-0.91-2.35l-0.63-1.62c-0.3-0.78-0.55-1.4-0.69-1.78l-0.13-0.33c-0.26-0.67-0.54-1.05-0.83-1.22
			c-0.29-0.17-0.57-0.11-0.79,0.19l-25.25,35.47c-0.44,0.61-0.09,1.53,0.78,2.03l23.53,13.58c0.87,0.5,2.29,1.32,3.16,1.82
			l1.63,0.94c0.87,0.5,1.94,0.41,2.38-0.21l6.59-9.26C145.36,153.9,145.72,152.58,145.72,151.58 M261.19,133.32l0.02-7.98
			c0-0.37-0.26-0.82-0.58-1L99.07,31.06c-0.32-0.18-0.58-0.03-0.58,0.34l-0.02,7.98c0,0.37,0.25,0.82,0.57,1l161.56,93.28
			C260.93,133.84,261.19,133.69,261.19,133.32 M92.64,36l0.02-7.98c0-0.37-0.26-0.82-0.57-1l-15.44-8.91
			c-0.31-0.18-0.58-0.03-0.58,0.34l-0.02,7.98c0,0.37,0.26,0.82,0.57,1l15.44,8.91C92.37,36.52,92.64,36.37,92.64,36"/>
	</g>
	<g>
		<path class="st3" d="M92.09,27.02c0.31,0.18,0.57,0.63,0.57,1L92.64,36c0,0.37-0.26,0.52-0.58,0.34l-15.44-8.91
			c-0.31-0.18-0.57-0.63-0.57-1l0.02-7.98c0-0.37,0.26-0.52,0.58-0.34L92.09,27.02z"/>
	</g>
	<path class="st3" d="M260.64,124.33c0.32,0.18,0.58,0.64,0.58,1l-0.02,7.98c0,0.37-0.26,0.52-0.58,0.33L99.05,40.37
		c-0.32-0.18-0.57-0.63-0.57-1l0.02-7.98c0-0.37,0.26-0.52,0.58-0.34L260.64,124.33z"/>
</g>
<g id="logo">
	<path class="st4" d="M51.58,141.11c0-0.05-0.01-0.11-0.02-0.16c-0.01-0.12-0.02-0.24-0.04-0.36c0-0.03-0.01-0.05-0.01-0.08
		c0-0.02-0.01-0.05-0.01-0.08c-0.04-0.28-0.09-0.56-0.15-0.85c-0.01-0.04-0.02-0.08-0.03-0.12c-0.06-0.3-0.14-0.59-0.22-0.87
		c0-0.01,0-0.02-0.01-0.03c-0.01-0.02-0.01-0.03-0.02-0.05c-0.08-0.28-0.17-0.55-0.26-0.79L45.89,125
		c-0.03-0.08-0.14-0.36-0.29-0.76l-0.15-0.37c-0.2-0.52-0.46-1.2-0.76-1.97l-0.21-0.54c-0.68-1.76-1.52-3.92-2.31-5.97l-0.24-0.62
		c-0.32-0.82-0.63-1.63-0.91-2.35l-0.63-1.62c-0.3-0.78-0.55-1.4-0.69-1.78l-0.17-0.44c-0.01-0.02-0.02-0.05-0.03-0.07
		c-0.03-0.08-0.07-0.15-0.1-0.22c-0.02-0.04-0.03-0.08-0.05-0.11c0-0.01-0.01-0.01-0.01-0.02c-0.06-0.1-0.11-0.19-0.17-0.28
		c0,0,0-0.01-0.01-0.01c0,0,0,0,0,0c-0.05-0.06-0.09-0.11-0.14-0.17c-0.02-0.02-0.04-0.05-0.06-0.07c-0.07-0.07-0.14-0.12-0.21-0.16
		c-0.02-0.01-0.04-0.02-0.06-0.03c-0.05-0.02-0.1-0.04-0.15-0.05c-0.02,0-0.04,0-0.06,0c-0.01,0-0.02,0-0.03,0
		c-0.01,0-0.03,0-0.04,0c-0.05,0-0.09,0.01-0.14,0.03c-0.03,0.01-0.06,0.02-0.09,0.04l-8.46,4.91c0.08-0.05,0.17-0.07,0.26-0.07
		c0.01,0,0.02,0,0.03,0c0.09,0.01,0.18,0.03,0.27,0.09c0.07,0.04,0.14,0.1,0.21,0.16c0.02,0.02,0.04,0.05,0.06,0.07
		c0.05,0.05,0.1,0.1,0.14,0.17c0,0,0.01,0.01,0.01,0.01c0.06,0.09,0.12,0.18,0.18,0.29c0.02,0.04,0.04,0.08,0.06,0.12
		c0.04,0.09,0.09,0.18,0.13,0.28l0.17,0.44c0.15,0.38,0.39,1,0.69,1.78l0.63,1.62c0.28,0.73,0.59,1.53,0.91,2.35l0.24,0.62
		c0.79,2.05,1.63,4.21,2.31,5.97l0.21,0.54c0.3,0.77,0.56,1.45,0.76,1.97l0.15,0.37c0.15,0.4,0.26,0.68,0.29,0.76l4.93,12.71
		c0.09,0.24,0.18,0.51,0.26,0.79c0.01,0.03,0.02,0.06,0.03,0.08c0.08,0.28,0.15,0.58,0.22,0.87c0.01,0.04,0.02,0.08,0.03,0.12
		c0.06,0.29,0.11,0.57,0.15,0.85c0.01,0.05,0.02,0.11,0.02,0.16c0.02,0.12,0.03,0.24,0.04,0.36c0.01,0.06,0.01,0.11,0.02,0.17
		c0.01,0.17,0.02,0.32,0.02,0.46l-0.02,7.55c0,1-0.36,2.32-0.8,2.93l-6.59,9.26c-0.09,0.13-0.22,0.24-0.36,0.32l8.46-4.92
		c0.14-0.08,0.26-0.19,0.36-0.32l6.59-9.26c0.44-0.61,0.8-1.93,0.8-2.93l0.02-7.55C51.6,141.43,51.59,141.27,51.58,141.11z"/>
	<g>
		<path class="st5" d="M30.29,112.39c0.29,0.17,0.57,0.55,0.79,1.11l0.17,0.44c0.15,0.38,0.39,1,0.69,1.78l0.63,1.62
			c0.28,0.73,0.59,1.53,0.91,2.35l0.24,0.62c0.79,2.05,1.63,4.21,2.31,5.97l0.21,0.54c0.3,0.77,0.56,1.45,0.76,1.97l0.15,0.37
			c0.15,0.4,0.26,0.68,0.29,0.76l4.93,12.71c0.43,1.12,0.78,2.85,0.78,3.85l-0.02,7.55c0,1-0.36,2.32-0.8,2.93l-6.59,9.26
			c-0.44,0.61-1.51,0.71-2.38,0.21l-1.63-0.94c-0.87-0.5-2.29-1.32-3.16-1.82L5.03,150.08c-0.87-0.5-1.22-1.42-0.78-2.03
			l25.25-35.47C29.72,112.27,30,112.22,30.29,112.39z"/>
	</g>
	<g>
		<path class="st5" d="M83.93,102.12c0.29,0.17,0.57,0.55,0.79,1.11l45.97,118.71c0.43,1.12,0.08,1.63-0.8,1.12l-45.35-26.18
			l-3.98-2.3l-9.91-5.72l-6.53-3.77c-0.87-0.5-2.3-1.33-3.17-1.83l-1.63-0.94c-0.87-0.51-1.94-1.83-2.37-2.95l-6.51-16.82
			c-0.44-1.12-0.78-2.85-0.78-3.85l0.02-7.53c0-1.01,0.36-2.33,0.8-2.94l32.66-45.9C83.35,102,83.64,101.95,83.93,102.12z"/>
	</g>
	<path class="st4" d="M139.3,217.53c-0.01-0.04-0.02-0.08-0.03-0.12c-0.01-0.03-0.01-0.06-0.02-0.1c-0.03-0.09-0.06-0.19-0.1-0.3
		L93.18,98.31c-0.01-0.03-0.02-0.06-0.03-0.08c-0.03-0.07-0.06-0.14-0.1-0.2c-0.02-0.04-0.03-0.08-0.05-0.11
		c0-0.01-0.01-0.01-0.01-0.02c-0.05-0.1-0.11-0.18-0.16-0.26c0-0.01-0.01-0.02-0.01-0.02c0,0,0,0,0,0c-0.05-0.07-0.1-0.12-0.15-0.17
		c-0.02-0.02-0.04-0.05-0.06-0.07c-0.07-0.07-0.14-0.12-0.21-0.16c-0.02-0.01-0.04-0.02-0.06-0.03c-0.05-0.02-0.1-0.04-0.15-0.05
		c-0.02,0-0.04,0-0.06,0c-0.01,0-0.02,0-0.03,0c-0.01,0-0.03,0-0.04,0c-0.05,0-0.09,0.01-0.14,0.03c-0.03,0.01-0.06,0.02-0.09,0.04
		l-8.46,4.91c0.08-0.05,0.17-0.07,0.26-0.07c0.01,0,0.02,0,0.03,0c0.09,0.01,0.18,0.03,0.28,0.09c0.07,0.04,0.14,0.1,0.21,0.16
		c0.03,0.03,0.05,0.06,0.08,0.09c0.04,0.05,0.09,0.09,0.13,0.15c0.01,0.01,0.01,0.02,0.01,0.02c0.06,0.08,0.12,0.18,0.17,0.28
		c0.02,0.03,0.04,0.08,0.05,0.11c0.04,0.09,0.09,0.18,0.13,0.29l45.97,118.71c0.06,0.14,0.09,0.27,0.12,0.4
		c0.01,0.04,0.02,0.08,0.03,0.12c0.01,0.06,0.01,0.11,0.02,0.17c0.01,0.1,0.01,0.19-0.01,0.27c-0.01,0.03-0.01,0.07-0.02,0.1
		c-0.03,0.09-0.08,0.17-0.15,0.22l8.46-4.91c0.07-0.04,0.12-0.12,0.15-0.22c0.01-0.03,0.01-0.06,0.02-0.1
		c0.01-0.08,0.02-0.17,0.01-0.27c0-0.03,0.01-0.04,0-0.07C139.31,217.59,139.3,217.56,139.3,217.53z"/>
</g>
</svg>