<?xml version="1.0" encoding="utf-8"?>
<!-- Generator: Adobe Illustrator 24.2.0, SVG Export Plug-In . SVG Version: 6.00 Build 0)  -->
<svg version="1.1" id="Layer_1" xmlns="http://www.w3.org/2000/svg" xmlns:xlink="http://www.w3.org/1999/xlink" x="0px" y="0px"
	 viewBox="0 0 287.7 273.4" style="enable-background:new 0 0 287.7 273.4;" xml:space="preserve">
<g id="browser">
	<g>
		<path d="M145.8,159.4c-0.1,0-0.2,0-0.2,0s-0.2,0-0.3,0c-0.1,0-0.2,0-0.3,0c-0.1,0-0.2-0.1-0.3-0.1c-0.1-0.1-0.2-0.1-0.4-0.2
			l-1.6-0.9c-0.9-0.5-2.3-1.3-3.2-1.8l-23.5-13.6c-0.1-0.1-0.2-0.2-0.3-0.2c0,0-0.1-0.1-0.1-0.1c-0.1-0.1-0.1-0.1-0.2-0.2
			c0,0-0.1-0.1-0.1-0.1c0,0,0-0.1,0-0.1c0-0.1-0.1-0.1-0.1-0.2c0,0,0,0,0,0c0-0.1-0.1-0.2-0.1-0.2c0,0,0,0,0,0s0,0,0,0
			c0-0.1,0-0.2,0-0.3c0,0,0-0.1,0-0.1c0-0.1,0.1-0.2,0.2-0.3l25.3-35.5c0.1-0.1,0.1-0.2,0.2-0.2l0,0l0,0l-8.5,4.9
			c-0.1,0.1-0.2,0.1-0.2,0.2l-25.2,35.5c-0.1,0.1-0.1,0.2-0.2,0.3c0,0,0,0.1,0,0.1c0,0.1,0,0.2,0,0.3c0,0,0,0,0,0v0c0,0,0,0,0,0
			c0,0,0,0.1,0,0.1c0,0,0,0.1,0,0.1c0,0,0,0,0,0s0,0,0,0c0,0.1,0.1,0.1,0.1,0.1c0,0,0,0,0,0.1s0,0.1,0,0.1c0,0,0,0.1,0.1,0.1
			c0,0,0,0,0.1,0.1c0.1,0.1,0.1,0.1,0.2,0.2c0,0,0.1,0.1,0.1,0.1c0.1,0.1,0.2,0.2,0.3,0.2l23.5,13.6c0.9,0.5,2.3,1.3,3.2,1.8
			l1.6,0.9c0.1,0,0.1,0.1,0.2,0.1s0.1,0,0.2,0.1c0.1,0,0.2,0.1,0.3,0.1c0,0,0.1,0,0.1,0c0.1,0,0.1,0,0.2,0c0.1,0,0.2,0,0.3,0
			c0,0,0.1,0,0.1,0c0.1,0,0.1,0,0.1,0c0.1,0,0.2,0,0.2-0.1c0,0,0.1,0,0.1,0c0.1,0,0.2-0.1,0.2-0.1l8.5-4.9c-0.1,0.1-0.2,0.1-0.4,0.1
			C146,159.3,145.9,159.3,145.8,159.4z"/>
		<path d="M241.7,215.8c0,0-0.1,0-0.1,0c0,0,0,0,0,0c0,0-0.1,0-0.1,0c0,0,0,0-0.1,0c0,0,0,0-0.1,0c-0.1,0-0.1,0-0.2-0.1
			c-0.1,0-0.1-0.1-0.2-0.1l-45.4-26.2l-4-2.3l-9.9-5.7l-6.5-3.8c-0.9-0.5-2.3-1.3-3.2-1.8l-1.6-0.9c-0.1-0.1-0.2-0.2-0.4-0.3
			c0,0-0.1-0.1-0.1-0.1c-0.1-0.1-0.2-0.1-0.3-0.2c-0.1,0-0.1-0.1-0.1-0.1c-0.1-0.1-0.2-0.2-0.2-0.3c-0.1-0.1-0.1-0.1-0.1-0.2
			c-0.1-0.1-0.2-0.2-0.2-0.3c0-0.1-0.1-0.1-0.1-0.1c-0.2-0.2-0.3-0.5-0.4-0.7c0-0.1-0.1-0.1-0.1-0.1c-0.1-0.1-0.1-0.2-0.2-0.3
			c0-0.1-0.1-0.1-0.1-0.2l-6.5-16.8c-0.1-0.2-0.2-0.5-0.3-0.8c0,0,0-0.1,0-0.1c-0.1-0.3-0.1-0.6-0.2-0.9c0,0,0-0.1,0-0.1
			c-0.1-0.3-0.1-0.6-0.1-0.8c0-0.1,0-0.1,0-0.2c0-0.1,0-0.2,0-0.4c0-0.1,0-0.1,0-0.2c0-0.2,0-0.3,0-0.5l0-7.5c0-1,0.4-2.3,0.8-2.9
			l32.7-45.9c0.1-0.1,0.1-0.2,0.2-0.2l-8.5,4.9c-0.1,0.1-0.2,0.1-0.2,0.2l-32.7,45.9c-0.4,0.6-0.8,1.9-0.8,2.9l0,7.5
			c0,0.1,0,0.3,0,0.5c0,0.1,0,0.1,0,0.2c0,0.1,0,0.2,0,0.4c0,0,0,0.1,0,0.1c0,0,0,0.1,0,0.1c0,0.3,0.1,0.6,0.1,0.8c0,0,0,0.1,0,0.1
			c0.1,0.3,0.1,0.6,0.2,0.9c0,0,0,0,0,0c0,0,0,0,0,0.1c0.1,0.3,0.2,0.6,0.3,0.8l6.5,16.8c0,0,0,0.1,0,0.1c0,0,0,0.1,0.1,0.1
			c0.1,0.1,0.1,0.2,0.2,0.3c0,0,0,0.1,0,0.1c0,0,0,0,0,0.1c0.1,0.2,0.3,0.5,0.4,0.7c0,0,0,0,0,0c0,0,0.1,0.1,0.1,0.1
			c0.1,0.1,0.1,0.2,0.2,0.3c0.1,0.1,0.1,0.1,0.1,0.2c0.1,0.1,0.2,0.2,0.2,0.3c0.1,0.1,0.1,0.1,0.1,0.1c0.1,0.1,0.2,0.2,0.3,0.2
			c0,0,0.1,0.1,0.1,0.1c0.1,0.1,0.2,0.2,0.4,0.3l1.6,0.9c0.9,0.5,2.3,1.3,3.2,1.8l6.5,3.8l9.9,5.7l4,2.3l45.3,26.2
			c0.1,0,0.1,0.1,0.2,0.1c0,0,0,0,0,0c0.1,0,0.1,0.1,0.2,0.1c0,0,0,0,0,0h0c0,0,0,0,0.1,0c0,0,0.1,0,0.1,0c0,0,0,0,0,0c0,0,0,0,0,0
			c0,0,0,0,0.1,0s0,0,0.1,0l0,0L241.7,215.8z"/>
	</g>
	<g>
		<polygon points="77.3,10.7 85.8,5.8 271.9,113.3 263.5,118.2 		"/>
	</g>
	<g>
		<path d="M85,5.4c-0.3-0.1-0.6-0.2-0.8-0.3C84.1,5.1,84,5,84,5c-0.2-0.1-0.4-0.1-0.6-0.2c0,0,0,0-0.1,0c-0.1,0-0.3,0-0.4-0.1
			c-0.1,0-0.2,0-0.2,0c-0.2,0-0.4,0-0.7,0h0l0,0c-0.2,0-0.4,0-0.6,0.1c-0.1,0-0.1,0-0.2,0.1c-0.1,0-0.2,0.1-0.4,0.1c0,0,0,0,0,0
			c-0.2,0.1-0.4,0.2-0.6,0.3l-8.5,4.9c0.2-0.1,0.4-0.2,0.6-0.3c0.1-0.1,0.3-0.1,0.4-0.1c0.1,0,0.1,0,0.2-0.1c0.2,0,0.4-0.1,0.6-0.1
			h0c0.2,0,0.4,0,0.7,0c0.1,0,0.2,0,0.2,0c0.2,0,0.3,0,0.5,0.1c0.2,0,0.4,0.1,0.6,0.2c0.1,0,0.1,0,0.2,0.1c0.3,0.1,0.6,0.2,0.8,0.3
			c0.3,0.1,0.5,0.3,0.8,0.4l8.5-4.9C85.5,5.7,85.3,5.5,85,5.4C85,5.4,85,5.4,85,5.4z"/>
		<path d="M279.8,126.1c0-0.1,0-0.2,0-0.3c0-0.2,0-0.3,0-0.5c0,0,0-0.1,0-0.1c0-0.2-0.1-0.3-0.1-0.5c0-0.2-0.1-0.3-0.1-0.5
			c0-0.2-0.1-0.3-0.1-0.5c0-0.1-0.1-0.2-0.1-0.4c0,0,0-0.1,0-0.1c0-0.1-0.1-0.3-0.1-0.4c-0.1-0.2-0.1-0.4-0.2-0.6
			c0-0.1-0.1-0.3-0.2-0.4c0-0.1-0.1-0.2-0.1-0.3c0,0,0-0.1,0-0.1c-0.2-0.6-0.5-1.1-0.8-1.6c0,0,0-0.1-0.1-0.1c0-0.1-0.1-0.1-0.1-0.2
			c-0.1-0.2-0.2-0.4-0.4-0.7c-0.1-0.1-0.1-0.2-0.2-0.4c-0.1-0.2-0.3-0.5-0.5-0.7c0-0.1-0.1-0.2-0.1-0.2c0,0,0,0,0,0
			c-0.3-0.4-0.6-0.8-0.9-1.1c-0.1-0.1-0.1-0.2-0.2-0.2c-0.3-0.3-0.6-0.7-0.9-0.9c0,0,0-0.1-0.1-0.1c-0.3-0.3-0.7-0.6-1-0.9
			c-0.1-0.1-0.2-0.1-0.3-0.2c-0.4-0.3-0.7-0.5-1.1-0.7l-8.5,4.9c0.4,0.2,0.7,0.5,1.1,0.7c0.1,0.1,0.2,0.1,0.3,0.2
			c0.4,0.3,0.7,0.6,1,0.9c0,0,0,0.1,0.1,0.1c0.3,0.3,0.6,0.6,0.9,0.9c0.1,0.1,0.1,0.2,0.2,0.2c0.3,0.4,0.6,0.7,0.9,1.1
			c0.1,0.1,0.1,0.2,0.2,0.3c0.2,0.2,0.3,0.5,0.5,0.7c0.1,0.1,0.1,0.2,0.2,0.4c0.1,0.2,0.3,0.4,0.4,0.7c0.1,0.1,0.1,0.2,0.2,0.3
			c0.3,0.5,0.5,1.1,0.8,1.6c0.1,0.2,0.1,0.3,0.2,0.4c0,0.1,0.1,0.3,0.2,0.4c0.1,0.2,0.1,0.4,0.2,0.6c0,0.1,0.1,0.3,0.1,0.4
			c0,0.2,0.1,0.3,0.1,0.5c0,0.2,0.1,0.4,0.1,0.5c0,0.2,0.1,0.3,0.1,0.5c0,0.2,0.1,0.4,0.1,0.5c0,0.2,0,0.4,0.1,0.6
			c0,0.1,0,0.2,0,0.3c0,0.3,0,0.6,0,0.9L271,259.6c0,1.6-0.4,2.8-1,3.8c-0.4,0.6-0.8,1-1.4,1.3l0,0l0,0l8.5-4.9
			c1.4-0.8,2.3-2.6,2.3-5.1l0.4-127.6C279.9,126.7,279.8,126.4,279.8,126.1z"/>
	</g>
	<g>
		<path d="M263.5,118.2c4.4,2.5,8,8.7,7.9,13.8L271,259.6c0,5-3.6,7.1-8,4.5L76.9,156.7c-4.4-2.5-7.9-8.7-7.9-13.8l0.4-127.6
			c0-5,3.6-7.1,8-4.6L263.5,118.2z M232.5,220.6c0.9,0.5,1.2,0,0.8-1.1l-46-118.7c-0.2-0.6-0.5-0.9-0.8-1.1s-0.6-0.1-0.8,0.2
			l-32.7,45.9c-0.4,0.6-0.8,1.9-0.8,2.9l0,7.5c0,1,0.3,2.7,0.8,3.9l6.5,16.8c0.4,1.1,1.5,2.4,2.4,2.9l1.6,0.9
			c0.9,0.5,2.3,1.3,3.2,1.8l6.5,3.8l9.9,5.7l4,2.3L232.5,220.6 M145.7,151.6l0-7.6c0-1-0.4-2.7-0.8-3.9l-4.9-12.7
			c0-0.1-0.1-0.4-0.3-0.8l-0.1-0.4c-0.2-0.5-0.5-1.2-0.8-2l-0.2-0.5c-0.7-1.8-1.5-3.9-2.3-6l-0.2-0.6c-0.3-0.8-0.6-1.6-0.9-2.3
			l-0.6-1.6c-0.3-0.8-0.6-1.4-0.7-1.8l-0.1-0.3c-0.3-0.7-0.5-1.1-0.8-1.2c-0.3-0.2-0.6-0.1-0.8,0.2l-25.2,35.5
			c-0.4,0.6-0.1,1.5,0.8,2l23.5,13.6c0.9,0.5,2.3,1.3,3.2,1.8l1.6,0.9c0.9,0.5,1.9,0.4,2.4-0.2l6.6-9.3
			C145.4,153.9,145.7,152.6,145.7,151.6 M261.2,133.3l0-8c0-0.4-0.3-0.8-0.6-1L99.1,31.1c-0.3-0.2-0.6,0-0.6,0.3l0,8
			c0,0.4,0.2,0.8,0.6,1l161.6,93.3C260.9,133.8,261.2,133.7,261.2,133.3 M92.6,36l0-8c0-0.4-0.3-0.8-0.6-1l-15.4-8.9
			c-0.3-0.2-0.6,0-0.6,0.3l0,8c0,0.4,0.3,0.8,0.6,1l15.4,8.9C92.4,36.5,92.6,36.4,92.6,36"/>
	</g>
	<g>
		<path d="M92.1,27c0.3,0.2,0.6,0.6,0.6,1l0,8c0,0.4-0.3,0.5-0.6,0.3l-15.4-8.9c-0.3-0.2-0.6-0.6-0.6-1l0-8c0-0.4,0.3-0.5,0.6-0.3
			L92.1,27z"/>
	</g>
	<path d="M260.6,124.3c0.3,0.2,0.6,0.6,0.6,1l0,8c0,0.4-0.3,0.5-0.6,0.3L99.1,40.4c-0.3-0.2-0.6-0.6-0.6-1l0-8
		c0-0.4,0.3-0.5,0.6-0.3L260.6,124.3z"/>
</g>
<g id="logo">
	<path d="M51.6,141.1c0-0.1,0-0.1,0-0.2c0-0.1,0-0.2,0-0.4c0,0,0-0.1,0-0.1c0,0,0-0.1,0-0.1c0-0.3-0.1-0.6-0.2-0.9c0,0,0-0.1,0-0.1
		c-0.1-0.3-0.1-0.6-0.2-0.9c0,0,0,0,0,0c0,0,0,0,0-0.1c-0.1-0.3-0.2-0.6-0.3-0.8L45.9,125c0-0.1-0.1-0.4-0.3-0.8l-0.2-0.4
		c-0.2-0.5-0.5-1.2-0.8-2l-0.2-0.5c-0.7-1.8-1.5-3.9-2.3-6l-0.2-0.6c-0.3-0.8-0.6-1.6-0.9-2.3l-0.6-1.6c-0.3-0.8-0.5-1.4-0.7-1.8
		l-0.2-0.4c0,0,0-0.1,0-0.1c0-0.1-0.1-0.2-0.1-0.2c0,0,0-0.1,0-0.1c0,0,0,0,0,0c-0.1-0.1-0.1-0.2-0.2-0.3c0,0,0,0,0,0l0,0
		c0-0.1-0.1-0.1-0.1-0.2c0,0,0-0.1-0.1-0.1c-0.1-0.1-0.1-0.1-0.2-0.2c0,0,0,0-0.1,0c0,0-0.1,0-0.2-0.1c0,0,0,0-0.1,0c0,0,0,0,0,0
		s0,0,0,0c0,0-0.1,0-0.1,0c0,0-0.1,0-0.1,0l-8.5,4.9c0.1-0.1,0.2-0.1,0.3-0.1c0,0,0,0,0,0c0.1,0,0.2,0,0.3,0.1
		c0.1,0,0.1,0.1,0.2,0.2c0,0,0,0.1,0.1,0.1c0,0.1,0.1,0.1,0.1,0.2l0,0c0.1,0.1,0.1,0.2,0.2,0.3c0,0,0,0.1,0.1,0.1
		c0,0.1,0.1,0.2,0.1,0.3l0.2,0.4c0.1,0.4,0.4,1,0.7,1.8l0.6,1.6c0.3,0.7,0.6,1.5,0.9,2.3l0.2,0.6c0.8,2.1,1.6,4.2,2.3,6l0.2,0.5
		c0.3,0.8,0.6,1.5,0.8,2l0.2,0.4c0.2,0.4,0.3,0.7,0.3,0.8l4.9,12.7c0.1,0.2,0.2,0.5,0.3,0.8c0,0,0,0.1,0,0.1
		c0.1,0.3,0.2,0.6,0.2,0.9c0,0,0,0.1,0,0.1c0.1,0.3,0.1,0.6,0.2,0.9c0,0.1,0,0.1,0,0.2c0,0.1,0,0.2,0,0.4c0,0.1,0,0.1,0,0.2
		c0,0.2,0,0.3,0,0.5l0,7.6c0,1-0.4,2.3-0.8,2.9l-6.6,9.3c-0.1,0.1-0.2,0.2-0.4,0.3l8.5-4.9c0.1-0.1,0.3-0.2,0.4-0.3l6.6-9.3
		c0.4-0.6,0.8-1.9,0.8-2.9l0-7.6C51.6,141.4,51.6,141.3,51.6,141.1z"/>
	<g>
		<path d="M30.3,112.4c0.3,0.2,0.6,0.6,0.8,1.1l0.2,0.4c0.1,0.4,0.4,1,0.7,1.8l0.6,1.6c0.3,0.7,0.6,1.5,0.9,2.3l0.2,0.6
			c0.8,2.1,1.6,4.2,2.3,6l0.2,0.5c0.3,0.8,0.6,1.4,0.8,2l0.2,0.4c0.2,0.4,0.3,0.7,0.3,0.8l4.9,12.7c0.4,1.1,0.8,2.9,0.8,3.9l0,7.6
			c0,1-0.4,2.3-0.8,2.9l-6.6,9.3c-0.4,0.6-1.5,0.7-2.4,0.2l-1.6-0.9c-0.9-0.5-2.3-1.3-3.2-1.8L5,150.1c-0.9-0.5-1.2-1.4-0.8-2
			l25.2-35.5C29.7,112.3,30,112.2,30.3,112.4z"/>
	</g>
	<g>
		<path d="M83.9,102.1c0.3,0.2,0.6,0.6,0.8,1.1l46,118.7c0.4,1.1,0.1,1.6-0.8,1.1l-45.3-26.2l-4-2.3l-9.9-5.7l-6.5-3.8
			c-0.9-0.5-2.3-1.3-3.2-1.8l-1.6-0.9c-0.9-0.5-1.9-1.8-2.4-2.9l-6.5-16.8c-0.4-1.1-0.8-2.9-0.8-3.9l0-7.5c0-1,0.4-2.3,0.8-2.9
			l32.7-45.9C83.3,102,83.6,101.9,83.9,102.1z"/>
	</g>
	<path d="M139.3,217.5c0,0,0-0.1,0-0.1c0,0,0-0.1,0-0.1c0-0.1-0.1-0.2-0.1-0.3l-46-118.7c0,0,0-0.1,0-0.1c0-0.1-0.1-0.1-0.1-0.2
		c0,0,0-0.1-0.1-0.1c0,0,0,0,0,0c-0.1-0.1-0.1-0.2-0.2-0.3c0,0,0,0,0,0l0,0c-0.1-0.1-0.1-0.1-0.2-0.2c0,0,0-0.1-0.1-0.1
		c-0.1-0.1-0.1-0.1-0.2-0.2c0,0,0,0-0.1,0c-0.1,0-0.1,0-0.2-0.1c0,0,0,0-0.1,0c0,0,0,0,0,0s0,0,0,0c-0.1,0-0.1,0-0.1,0
		c0,0-0.1,0-0.1,0l-8.5,4.9c0.1-0.1,0.2-0.1,0.3-0.1c0,0,0,0,0,0c0.1,0,0.2,0,0.3,0.1c0.1,0,0.1,0.1,0.2,0.2c0,0,0.1,0.1,0.1,0.1
		c0,0.1,0.1,0.1,0.1,0.2c0,0,0,0,0,0c0.1,0.1,0.1,0.2,0.2,0.3c0,0,0,0.1,0.1,0.1c0,0.1,0.1,0.2,0.1,0.3l46,118.7
		c0.1,0.1,0.1,0.3,0.1,0.4c0,0,0,0.1,0,0.1c0,0.1,0,0.1,0,0.2c0,0.1,0,0.2,0,0.3c0,0,0,0.1,0,0.1c0,0.1-0.1,0.2-0.1,0.2l8.5-4.9
		c0.1,0,0.1-0.1,0.1-0.2c0,0,0-0.1,0-0.1c0-0.1,0-0.2,0-0.3c0,0,0,0,0-0.1C139.3,217.6,139.3,217.6,139.3,217.5z"/>
</g>
</svg>
