<svg xmlns="http://www.w3.org/2000/svg" viewBox="0 0 275.8 260.46"><path d="M145.83,159.36l-.24,0-.27,0-.27-.05-.28-.09a2.83,2.83,0,0,1-.36-.16l-1.63-.94-3.16-1.82-23.53-13.59a2.22,2.22,0,0,1-.35-.25l-.09-.08c-.06-.07-.13-.14-.18-.21l-.1-.12a.43.43,0,0,0,0-.07,1.27,1.27,0,0,1-.12-.23v0a1.05,1.05,0,0,1-.06-.24s0,0,0,0v0a1.15,1.15,0,0,1,0-.32s0-.06,0-.09a1,1,0,0,1,.15-.32l25.24-35.47a.79.79,0,0,1,.23-.22h0l-8.46,4.91a.77.77,0,0,0-.22.22L106.85,145.6a1,1,0,0,0-.15.32.29.29,0,0,1,0,.09,1.61,1.61,0,0,0,0,.31v.05a0,0,0,0,1,0,0l0,.13,0,.1v.06a1.09,1.09,0,0,0,.08.15l0,0a.43.43,0,0,0,0,.07l0,.07.05.06a1.19,1.19,0,0,0,.19.2.76.76,0,0,0,.09.09,2.3,2.3,0,0,0,.34.25l23.53,13.58,3.16,1.83L136,164l.2.1.17,0,.28.1.1,0h.16l.27,0h.11a.7.7,0,0,0,.14,0,1.11,1.11,0,0,0,.25-.05l.1,0,.25-.11,8.45-4.91a1.71,1.71,0,0,1-.34.13Z" transform="translate(-4.06 -4.74)" fill="#587890"/><path d="M241.73,215.82l-.11,0h-.22l0,0a.86.86,0,0,1-.21-.07l-.2-.09L195.6,189.49l-4-2.3-9.91-5.72-6.53-3.77L172,175.87l-1.63-.94a2.86,2.86,0,0,1-.38-.26l-.12-.1-.26-.23a.93.93,0,0,0-.14-.14l-.24-.26-.13-.16a3.25,3.25,0,0,1-.23-.29l-.11-.15a6.2,6.2,0,0,1-.44-.69l-.08-.14c-.05-.11-.11-.22-.15-.32L168,172l-6.51-16.82c-.09-.24-.18-.52-.27-.81,0,0,0,0,0-.07-.08-.28-.15-.57-.21-.86l0-.12c-.06-.28-.11-.56-.15-.83a1,1,0,0,1,0-.16c0-.13,0-.25,0-.37a.88.88,0,0,1,0-.17c0-.16,0-.32,0-.46l0-7.54a6,6,0,0,1,.8-2.94l32.66-45.89a.79.79,0,0,1,.23-.22L186,99.63a.77.77,0,0,0-.22.22l-32.67,45.9a6,6,0,0,0-.8,2.94l0,7.53c0,.14,0,.3,0,.47s0,.11,0,.17,0,.24,0,.36,0,.06,0,.09,0,.05,0,.07c0,.27.09.55.15.83l0,.13c.06.29.13.58.21.85v0s0,0,0,.05c.08.29.17.56.26.81l6.52,16.82,0,.08.06.12c.05.11.1.22.16.33l0,.07a.43.43,0,0,0,0,.07c.13.23.28.46.44.69l0,0,.09.11.23.3.14.16c.08.08.15.17.24.25l.14.14a2.61,2.61,0,0,0,.25.23l.13.11a2.68,2.68,0,0,0,.37.25l1.63.95,3.17,1.83,6.53,3.77,9.91,5.72,4,2.3,45.35,26.18.17.09h0l.21.07h.32l.06,0h0Z" transform="translate(-4.06 -4.74)" fill="#587890"/><polygon points="73.29 6 81.75 1.08 267.86 108.53 259.4 113.45 73.29 6" fill="#6b90ad"/><path d="M85,5.41a8,8,0,0,0-.83-.33L84,5c-.21-.06-.41-.12-.61-.16h-.05c-.14,0-.28,0-.42-.06a1.6,1.6,0,0,0-.23,0,4.89,4.89,0,0,0-.66,0h0a4.17,4.17,0,0,0-.63.08l-.2,0L80.8,5h0a4.27,4.27,0,0,0-.61.29l-8.46,4.91a3.89,3.89,0,0,1,.62-.28,2.5,2.5,0,0,1,.39-.11l.2-.06a4.3,4.3,0,0,1,.64-.08h0a4.85,4.85,0,0,1,.66,0l.23,0a3.85,3.85,0,0,1,.47.08c.2,0,.41.1.62.16l.19.05c.27.09.55.21.84.34a8.55,8.55,0,0,1,.79.41l8.46-4.92c-.26-.15-.52-.28-.78-.4Z" transform="translate(-4.06 -4.74)" fill="#587890"/><path d="M279.82,126.12l0-.3c0-.16,0-.32-.06-.48a.59.59,0,0,0,0-.13c0-.17-.06-.34-.09-.52l-.09-.47c0-.18-.09-.35-.14-.53s-.05-.24-.09-.37a.49.49,0,0,0,0-.11l-.12-.4c-.06-.19-.12-.37-.19-.56s-.1-.27-.16-.41a3.42,3.42,0,0,0-.13-.34.54.54,0,0,0-.05-.11c-.23-.55-.49-1.09-.77-1.62l-.06-.13a1.74,1.74,0,0,1-.11-.18c-.12-.22-.25-.44-.38-.65l-.23-.37c-.15-.24-.31-.47-.48-.71l-.15-.22,0,0c-.28-.39-.58-.75-.88-1.11l-.23-.26a11.56,11.56,0,0,0-.91-.94.3.3,0,0,0-.08-.08,12,12,0,0,0-1-.88L273,114a10.47,10.47,0,0,0-1.1-.73l-8.46,4.91c.37.22.74.47,1.1.73l.26.2c.35.27.69.56,1,.87a.3.3,0,0,0,.08.08c.31.3.61.62.91,1,.07.08.14.17.22.25.3.36.6.73.88,1.12a2.48,2.48,0,0,1,.19.26c.16.23.32.46.47.7l.23.37c.13.22.26.43.38.65l.17.32c.28.53.54,1.07.77,1.62a3.38,3.38,0,0,1,.18.44c.06.14.11.28.16.42s.13.37.19.55.09.27.13.4.08.33.13.49l.13.52.09.48c0,.17.07.35.1.52s.05.4.07.6l0,.31c0,.3,0,.6,0,.9L271,259.57a6.93,6.93,0,0,1-1,3.77,4.07,4.07,0,0,1-1.36,1.32h0l8.45-4.91c1.44-.83,2.33-2.6,2.33-5.1L279.85,127C279.86,126.72,279.84,126.42,279.82,126.12Z" transform="translate(-4.06 -4.74)" fill="#587890"/><path d="M263.46,118.19c4.38,2.53,8,8.71,7.94,13.75L271,259.57c0,5-3.61,7.08-8,4.55L76.93,156.67c-4.37-2.53-8-8.71-7.93-13.75l.36-127.63c0-5,3.61-7.08,8-4.55Zm-31,102.4c.88.51,1.23,0,.8-1.12l-46-118.7a2.15,2.15,0,0,0-.79-1.11.54.54,0,0,0-.79.19l-32.67,45.9a6,6,0,0,0-.8,2.94l0,7.53a13,13,0,0,0,.78,3.86l6.52,16.82a6.61,6.61,0,0,0,2.37,2.94l1.63.95,3.17,1.83,6.53,3.77,9.91,5.72,4,2.3,45.35,26.18m-86.77-69,0-7.55a12.56,12.56,0,0,0-.78-3.85L140,127.46c0-.08-.14-.36-.3-.76l-.14-.37c-.21-.52-.47-1.2-.76-2l-.21-.54c-.68-1.76-1.52-3.92-2.32-6l-.24-.62c-.31-.82-.63-1.63-.9-2.35l-.63-1.62c-.31-.78-.55-1.41-.69-1.78l-.13-.33a2.35,2.35,0,0,0-.83-1.22.55.55,0,0,0-.79.19L106.85,145.6c-.44.61-.09,1.53.78,2l23.53,13.58,3.16,1.83L136,164a1.86,1.86,0,0,0,2.38-.21l6.59-9.26a5.91,5.91,0,0,0,.8-2.93m115.47-18.26,0-8a1.3,1.3,0,0,0-.58-1L99.07,31.06c-.32-.19-.57,0-.57.33l0,8a1.27,1.27,0,0,0,.58,1l161.56,93.28c.32.19.58,0,.58-.33M92.64,36l0-8a1.28,1.28,0,0,0-.57-1L76.65,18.11a.36.36,0,0,0-.58.33l0,8a1.3,1.3,0,0,0,.57,1l15.44,8.91c.31.18.58,0,.58-.34" transform="translate(-4.06 -4.74)" fill="#74c0eb"/><path d="M92.09,27a1.3,1.3,0,0,1,.57,1l0,8c0,.37-.27.52-.58.34L76.62,27.43a1.3,1.3,0,0,1-.57-1l0-8c0-.37.27-.52.58-.34Z" transform="translate(-4.06 -4.74)" fill="#f1f1f1"/><path d="M260.64,124.33a1.3,1.3,0,0,1,.58,1l0,8c0,.37-.26.52-.58.33L99.05,40.37a1.27,1.27,0,0,1-.58-1l0-8c0-.37.25-.52.57-.33Z" transform="translate(-4.06 -4.74)" fill="#f1f1f1"/><path d="M51.58,141.11a1.11,1.11,0,0,0,0-.17c0-.11,0-.23,0-.36a.22.22,0,0,0,0-.08s0-.05,0-.07c0-.28-.09-.56-.15-.85l0-.12c-.06-.29-.13-.59-.21-.87v0l0-.05c-.08-.28-.17-.55-.26-.79L45.89,125l-.29-.76-.15-.37-.76-2-.21-.54c-.68-1.76-1.51-3.92-2.31-6l-.24-.62L41,112.42l-.63-1.62L39.7,109l-.16-.44,0-.07c0-.08-.07-.15-.1-.22l-.06-.11v0l-.18-.27h0a1.29,1.29,0,0,0-.15-.17l-.06-.08a1.46,1.46,0,0,0-.21-.16l-.07,0a.44.44,0,0,0-.15,0h-.12a.32.32,0,0,0-.14,0l-.09,0-8.46,4.91a.45.45,0,0,1,.27-.06h0a.61.61,0,0,1,.28.09,1,1,0,0,1,.21.16l.07.07a2.09,2.09,0,0,0,.14.17h0l.18.29.05.12a2.39,2.39,0,0,1,.13.28l.17.44c.14.38.38,1,.69,1.78l.63,1.62.9,2.36.24.62c.8,2,1.64,4.21,2.32,6l.21.54c.29.76.55,1.44.76,2l.14.38c.16.4.26.67.3.76l4.92,12.71c.09.24.18.51.26.79l0,.09c.08.28.15.57.22.87a.43.43,0,0,0,0,.11c.06.29.11.58.15.85l0,.16c0,.12,0,.24,0,.36s0,.11,0,.16a3.94,3.94,0,0,1,0,.47l0,7.55a6,6,0,0,1-.8,2.93l-6.59,9.26a1.07,1.07,0,0,1-.35.32l8.45-4.92a1,1,0,0,0,.36-.32l6.59-9.26a5.91,5.91,0,0,0,.8-2.93l0-7.55C51.6,141.43,51.59,141.27,51.58,141.11Z" transform="translate(-4.06 -4.74)" fill="#8f8f8f"/><path d="M30.29,112.39a2.17,2.17,0,0,1,.79,1.1l.17.44c.14.38.38,1,.69,1.78l.63,1.62.9,2.36.24.62c.8,2,1.64,4.21,2.32,6l.21.54c.29.76.55,1.44.76,2l.14.38c.16.4.26.67.3.76l4.92,12.71a12.68,12.68,0,0,1,.78,3.86l0,7.55a6,6,0,0,1-.8,2.93l-6.59,9.26a1.86,1.86,0,0,1-2.38.21l-1.63-.95-3.16-1.82L5,150.08c-.87-.5-1.22-1.42-.78-2L29.5,112.58A.55.55,0,0,1,30.29,112.39Z" transform="translate(-4.06 -4.74)" fill="#fff"/><path d="M83.93,102.12a2.11,2.11,0,0,1,.79,1.1l46,118.71c.43,1.11.08,1.62-.8,1.12L84.54,196.86l-4-2.3-9.91-5.72-6.53-3.77L61,183.24l-1.63-.94a6.59,6.59,0,0,1-2.37-3l-6.52-16.82a13,13,0,0,1-.78-3.85l0-7.54a6,6,0,0,1,.8-2.93l32.67-45.9A.54.54,0,0,1,83.93,102.12Z" transform="translate(-4.06 -4.74)" fill="#fff"/><path d="M139.3,217.53l0-.12s0-.07,0-.1l-.1-.3-46-118.7a.36.36,0,0,0,0-.09l-.09-.2L93,97.91v0a2.94,2.94,0,0,0-.17-.26v0h0l-.15-.17-.06-.07a1.46,1.46,0,0,0-.21-.16l-.07,0a.44.44,0,0,0-.15,0H92a.31.31,0,0,0-.13,0l-.09,0-8.46,4.91a.45.45,0,0,1,.27-.06h0a.61.61,0,0,1,.28.09,1,1,0,0,1,.21.16l.08.09a.93.93,0,0,1,.13.15v0l.18.28a.37.37,0,0,0,0,.11c0,.1.09.19.13.29l46,118.71a2.43,2.43,0,0,1,.12.39l0,.12c0,.06,0,.11,0,.17a1.17,1.17,0,0,1,0,.27s0,.07,0,.1a.37.37,0,0,1-.15.21l8.45-4.91a.38.38,0,0,0,.16-.22s0-.06,0-.09a1.3,1.3,0,0,0,0-.28s0,0,0-.07A.29.29,0,0,1,139.3,217.53Z" transform="translate(-4.06 -4.74)" fill="#8f8f8f"/></svg>