<svg xmlns="http://www.w3.org/2000/svg" xmlns:xlink="http://www.w3.org/1999/xlink" viewBox="0 0 84.17 57"><defs><linearGradient id="a" x1="6.69" y1="28.5" x2="203.75" y2="28.5" gradientUnits="userSpaceOnUse"><stop offset="0" stop-color="#2db24a"/><stop offset="0.09" stop-color="#2bb14f"/><stop offset="0.21" stop-color="#25b05f"/><stop offset="0.34" stop-color="#1cad78"/><stop offset="0.47" stop-color="#0fa99c"/><stop offset="0.6" stop-color="#00a4c3"/></linearGradient></defs><path d="M29.49,39.47A4,4,0,0,0,29,37.74L22.4,26.25a.49.49,0,0,0-.93,0L6.8,51.67c-.26.44,0,.8.46.8H23.81a1.77,1.77,0,0,0,1.39-.8L29,45a4,4,0,0,0,.46-1.72Zm-7.73-7.68a.74.74,0,0,1-.75-.91l.71-3.61c.1-.49.38-.54.64-.1L24.56,31c.26.44.05.8-.46.8ZM49,51.54a.93.93,0,0,1-.92.93H35.65a1.76,1.76,0,0,1-1.38-.8L30.44,45A4,4,0,0,1,30,43.31V39.47a4,4,0,0,1,.47-1.72l19-32.89a.49.49,0,0,1,.93,0l27,46.81c.25.44,0,.8-.46.8H50.4a.93.93,0,0,1-.93-.93V42.87A.93.93,0,0,1,50.4,42h1.17c.51,0,1.57-.23,1.69-.5A4.37,4.37,0,0,0,53.49,40V31.54A3.49,3.49,0,0,1,54,29.85L58.66,23a6.39,6.39,0,0,0,.67-1.21,2.77,2.77,0,0,0,0-.43s-.25-.46-.5-.9L50.68,6.41c-.25-.44-.65-1-.68-.9a5.76,5.76,0,0,0-.07,1.1V20a3.48,3.48,0,0,1-.52,1.68L45.76,27a5.2,5.2,0,0,0-.67,1.22c0,.13,0,.29,0,.31V40c0,.51.22,1.57.5,1.69A4.12,4.12,0,0,0,47,42h1.08a.92.92,0,0,1,.92.92Z" fill="url(#a)"/></svg>